<svg xmlns="http://www.w3.org/2000/svg" viewBox="0 0 1147.69 474.77"><defs><style>.cls-1{fill:#bc0100;opacity:0.11;}</style></defs><title>Asset 9</title><g id="Layer_2" data-name="Layer 2"><g id="Layer_1-2" data-name="Layer 1"><path class="cls-1" d="M2.74,137.18c0,4.58,0,6.34,1.18,10.84,2.24,8.49,7,16.06,12.71,22.62C29.2,185,46.85,195.12,65,200.63c21.41,6.5,43.86,6.67,66,8,12.8.76,25.77,1.81,38.06,5.73a90.93,90.93,0,0,1,30.29,16.75C217,245.68,229.53,265.7,239.73,286c9.6,19.08,17.26,39.09,24.2,59.27,3.68,10.72,7.27,21.49,10.34,32.39a249.86,249.86,0,0,1,6.21,25.86,98.23,98.23,0,0,1,1.45,25.47A54.15,54.15,0,0,1,275.57,451a48.61,48.61,0,0,1-6.95,9.69l4.25-3.83L262.69,464l4.8-2.52-6.91,3.1,3.14-1.17-54.16-11,3.44,4-4.16-5.67,1.81,2.82-3.39-6.24,1.48,3q-6.87-28.23,18.53-42.84l-3.21,2.22c12.12-7.75,24.54-13.34,37.48-19.06q4.3-1.91,8.62-3.79A61.07,61.07,0,0,0,285,378.5c27.3-17.49,52.92-37.89,75.15-61.54,17-18.09,31.82-38.07,43.26-60.15,17.67-34.1,27-71.78,37.6-108.45l-.14.45c5.4-17.74,10.9-35.46,18.48-52.41a205.37,205.37,0,0,1,20.4-36,143.9,143.9,0,0,1,27-28.83A109.8,109.8,0,0,1,520.87,22c6-3.42,12.6-6.73,19.29-8.52L552.87,11l5.57-.06a86.81,86.81,0,0,1,11.17,1.14,91.47,91.47,0,0,1,24.31,7.73,87.17,87.17,0,0,1,21.16,13.8,69.7,69.7,0,0,1,9.21,10.06c5,6.67,7.69,13.13,10,21.69l-.77-4L635,70.57l-.44-4,.64,9.34L635.15,72l-.23,9.17.58-6.2L634,86.71l.65-3.8-2.2,9.77,1-3.63-3,9.37L631.61,95A174.62,174.62,0,0,1,622.33,115q-2.94,5.53-5.7,11.15a135.89,135.89,0,0,0-7.57,18.51,68.89,68.89,0,0,0-.1,39.68,71.92,71.92,0,0,0,7.58,17.19,55.31,55.31,0,0,0,38.86,25.63c16,2.49,32-1.39,47.13-6.5,20-6.77,39.9-14,60.42-18.95,19.8-4.82,41.11-8,61.21-3.07a87.37,87.37,0,0,1,18.39,6.75,67.35,67.35,0,0,1,23.84,19.05,54.7,54.7,0,0,1,10.44,22.44l-1.14-6.46.74,13.22.34-6.23-1.13,10.34.9-6-1.83,7.88,1-3.61-3.39,9.29,2.29-5.49q-5.08,8.83-16.3,10.68a30.19,30.19,0,0,1-8.32.25c-10.71-.89-19.72-5.31-28.48-12l2.39,1.95-5-4.72,2.19,2.23-4.5-5.33,2,2.5-3.77-5.82,1.67,2.75-4.64-11.66,1.57,5.21.12-23-.66,3.43,2.17-8-1.09,3.39L817,213.9l-1.5,3.32,18.94-25.46-3,2.69,7-5.66-3.32,2.46,7.44-5.06-3.58,2.19,7.93-4.4L843,185.87l33.21-9.94,6.5-.37a139.58,139.58,0,0,1,16.42.52c5.67.45,11.23,1.21,16.86,2.08,7.58,1.18,15.2,2.07,22.79,3.19,16,2.34,32,5,48.19,5a136.27,136.27,0,0,0,35.55-4.81c25.08-6.79,48.39-19.71,68.25-36.4a203.09,203.09,0,0,0,29.2-30.51,176.46,176.46,0,0,0,14.56-22.17,90.81,90.81,0,0,0,4.95-9.43A134.1,134.1,0,0,0,1146,68.37c.3-.72-6.26.52-6,.47q-2.33.45-4.6,1.11a1.27,1.27,0,0,0-1.11.84,171.68,171.68,0,0,1-9,18.21,178.17,178.17,0,0,1-11,17,184.66,184.66,0,0,1-23.59,26.28,187.26,187.26,0,0,1-27.92,21.42,182.49,182.49,0,0,1-17.51,9.65,171.6,171.6,0,0,1-18.31,7.56l.45-.15-9.81,3.07.45-.13a143.72,143.72,0,0,1-18.9,4l-9.31.92c-11,.88-22,.21-32.91-.69-18.93-1.56-37.76-4.52-56.76-5.31-21.14-.88-43.54,1.45-61.42,13.77a68.79,68.79,0,0,0-17.34,17.36c-6,8.49-10.54,17.53-11.29,28-.65,9,1.26,17.63,7,24.7,5.35,6.59,12.81,11.21,20.65,14.26a48.8,48.8,0,0,0,19.5,3.66,24.18,24.18,0,0,0,12.19-3.89c2.86-1.84,4.33-4,5.85-6.92a21.68,21.68,0,0,0,2.24-7.86,46.19,46.19,0,0,0,.48-10.7,45.52,45.52,0,0,0-1.14-6.46,43.57,43.57,0,0,0-4-9.16,44.52,44.52,0,0,0-5.21-8.34,72.53,72.53,0,0,0-14.81-14.33,92.6,92.6,0,0,0-37.34-15.44,104.32,104.32,0,0,0-23-1.57,182.22,182.22,0,0,0-24.23,2.92c-22.56,4.21-44.65,11.44-66.17,19.25l.43-.15c-5.7,1.47-11.29,3.33-17,4.75a84.63,84.63,0,0,1-19.25,2.6c-8.48.09-17.46-1.4-25-5.57-5.18-2.88-10.19-6.38-14-11l-12.39-24.7a82.34,82.34,0,0,1-1.86-11,78.11,78.11,0,0,1,0-13.41c1.24-13.25,6.57-25.48,11.84-37.56,4.28-9.81,8.7-19.47,10.91-30a55.06,55.06,0,0,0-.1-23.32c-3.5-15.27-13-28-25.47-37.11a95.39,95.39,0,0,0-21.06-11.49,89.76,89.76,0,0,0-34.89-6.56A68,68,0,0,0,537,9.63a98.46,98.46,0,0,0-24.11,10.65,139.29,139.29,0,0,0-36.09,32.63c-10.59,13.38-19.08,28.17-26.24,43.64-8.48,18.32-14.54,37.67-20.47,56.93-8.26,26.82-15.51,54.18-26.63,80A286.32,286.32,0,0,1,388,264.56a185.35,185.35,0,0,1-10.62,16.81q-7.51,10.79-16,20.82l.31-.36-9,10.16.32-.36c-6,6.29-12,12.55-18.39,18.5s-12.87,11.63-19.55,17.14a497.82,497.82,0,0,1-46.76,34.15,48.49,48.49,0,0,1-7.34,4.51q-2,1-3.93,2.12c-2.79,1.54-5.55,3.15-8.32,4.73-6.86,3.92-13.67,8-20.24,12.4l5.46-3.21c-7.09,3.56-14.26,7.36-19.89,13.08A35.7,35.7,0,0,0,206,427.73a33.24,33.24,0,0,0-2.18,13.32c.25,5.77,3.24,11.38,7.24,15.44,5.94,6,13.86,9.61,22.13,11.1,11.24,2,24.05,1.87,34-4.36a36.64,36.64,0,0,0,4.47-3.31,28,28,0,0,0,6.75-8.31c3.37-5.71,5.3-11.78,6.85-18.18,1.74-7.22,1.66-15,1.12-22.33a137.62,137.62,0,0,0-3-19.81c-3.51-15.83-8.63-31.38-14.06-46.64a524.13,524.13,0,0,0-21.35-52.22c-7.91-16.36-17-32.34-28.39-46.56-11-13.8-24.18-25.54-39.86-33.8-20-10.52-42.92-11.5-65-12.86l.45,0c-13.66-.94-27.25-2-40.64-5.08a107.67,107.67,0,0,1-26.83-9.83,90.43,90.43,0,0,1-21.15-15.27,68.15,68.15,0,0,1-8.23-9.64,25,25,0,0,1-5.21-12.58A21,21,0,0,1,9.88,132c.06-1.48-2.26.53-2.39.63Q5.8,134,4.21,135.46A4.63,4.63,0,0,0,2.74,137.18Z"/><path class="cls-1" d="M0,145.17a29.34,29.34,0,0,0,1.62,10.49A29.22,29.22,0,0,0,4,162a58.75,58.75,0,0,0,6.9,11.66c10.08,13.6,25,23.7,40.39,30.38C70,212.14,90.74,214.66,111,215.73c21.1,1.11,42.86.66,62.87,8.33,28.59,11,47.13,36.09,61.21,62.39,10,18.63,17.71,38.49,24.71,58.39,6.24,17.75,12.26,35.75,16.62,54.06a153.25,153.25,0,0,1,3.54,19.5,75.94,75.94,0,0,1-.69,24.46,52.41,52.41,0,0,1-6.23,16.46l1.3-2.1-8,10.61,2.51-2.57a39.49,39.49,0,0,1-9.41,4.9,47.05,47.05,0,0,1-10.67,2.2,53.21,53.21,0,0,1-13.21-.48l-4.32-.81-25.77-18.7a22.68,22.68,0,0,1-1.32-12.21c1.75-10,8.36-19.12,16.8-24.67a100.38,100.38,0,0,1,14.84-7.72c5.36-2.35,10.8-4.62,16.26-6.74,7.28-2.83,14.52-5.85,21.69-8.95,4.66-2,8.88-4.94,13.17-7.64,9-5.66,17.74-11.81,26.27-18.17,19.22-14.32,37.6-30.23,53.46-48.25,14.86-16.88,28.31-35.26,38.39-55.43,10.86-21.73,18.72-44.67,25.57-67.94,6.67-22.66,12.55-45.58,20.25-67.92a261.7,261.7,0,0,1,20.7-46.36,164.46,164.46,0,0,1,27.31-35.15,63.82,63.82,0,0,1,24.64-15.62,56.6,56.6,0,0,1,26.42-11.87,67.23,67.23,0,0,1,11,0,88.37,88.37,0,0,1,29.72,7.75A90,90,0,0,1,614,40.23a70.16,70.16,0,0,1,9.25,9.8c5.5,7.2,8.47,14.76,10.6,23.85l-.52-3.1c3.44,27.27-9.1,42.79-19.19,63.49a121.25,121.25,0,0,0-7.27,17.79,69.19,69.19,0,0,0-3,17.29A68.2,68.2,0,0,0,607,192.54a68.91,68.91,0,0,0,11.81,22.67,55,55,0,0,0,22,16.33,65.79,65.79,0,0,0,22.8,4.61c16.11.37,31.71-4.64,46.63-10.18,11.24-4.17,22.77-7.8,34.23-11.29a303.64,303.64,0,0,1,30-7.79,147.24,147.24,0,0,1,33.62-3,50.72,50.72,0,0,1,11.16,1.12,90.78,90.78,0,0,1,12.51,3.31c11.56,4,23,10.74,31.16,19.82a56.91,56.91,0,0,1,7.24,9.9,52.27,52.27,0,0,1,6.26,17.46l-.67-5,.14,6.06,0-3.08q.8,11.66-7.32,19.32a19.9,19.9,0,0,1-7.58,3.6c-7.23,2-15,.91-22-1.43-10.36-3.45-21-10.12-26-20.26-4.74-9.75-3.71-22.2.65-31.91A67.53,67.53,0,0,1,828,202.54c11.62-11.4,28.14-18.27,44.22-20.14a123.74,123.74,0,0,1,25.94.19c8.93.85,17.66,2.57,26.49,4.07q10.45,1.36,20.85,3.11t21.11,3.07a167.27,167.27,0,0,0,32.86.92,138.19,138.19,0,0,0,29.66-6c26.71-8.38,51.19-23.79,71.38-43.08a195.17,195.17,0,0,0,27.52-32.73A187.36,187.36,0,0,0,1139,93.41a180.63,180.63,0,0,0,8.7-19.8c.37-.91-3.73-1.66-4.25-.46-2.82,6.57-5.65,13-9,19.28a183.58,183.58,0,0,1-11.12,18,176.21,176.21,0,0,1-13,16.56,180,180,0,0,1-14.72,15A193,193,0,0,1,1062,166.58a168.36,168.36,0,0,1-18.4,9.29l-28.51,9.42a105.25,105.25,0,0,1-14.59,2.47c-12.52,1.51-25,1.11-37.53,0-7.1-.64-14.17-1.68-21.23-2.61s-14-1.64-21-2.53c-8.54-1.08-17-2.29-25.6-2.77a117.54,117.54,0,0,0-28.92,1.61,93.14,93.14,0,0,0-17.31,5.5,64.1,64.1,0,0,0-14.5,8.1,75.16,75.16,0,0,0-10.67,9.84c-4.57,5.07-8.86,10.95-11.47,17.3a47.87,47.87,0,0,0-3.59,22.6,30.69,30.69,0,0,0,5.72,15.67c3.77,5.36,8.95,9.38,14.52,12.74a60.88,60.88,0,0,0,12,5.48c5.67,1.88,11.91,3.31,17.92,2.47a22.22,22.22,0,0,0,8.3-2.47,15.86,15.86,0,0,0,3.87-2.74A28.73,28.73,0,0,0,876.75,264c2.29-9.43-.15-18.37-4.3-26.92a55.59,55.59,0,0,0-11.65-15.58,79,79,0,0,0-18-12.71,90.64,90.64,0,0,0-24.31-8.27c-9.48-1.83-19-1.77-28.64-1-13.22,1-26.28,4.17-39,7.63-15.9,4.32-31.55,9.65-47.17,14.87a154.48,154.48,0,0,1-23,6.08,75.2,75.2,0,0,1-29-.44l-3.64-.79a45.25,45.25,0,0,1-9.31-4,52.45,52.45,0,0,1-10.6-7.2c-9.72-8.59-15.63-20.49-18.32-33a66.17,66.17,0,0,1-1.29-22c1.3-10.18,5-19.94,9.32-29.2,5.63-12.08,13.14-23.69,16.28-36.78a58.6,58.6,0,0,0,1.35-20.41A56.61,56.61,0,0,0,620,41.94c-9.54-10.1-21.82-17.15-34.8-21.85a93.52,93.52,0,0,0-22-4.93A81.36,81.36,0,0,0,552,14.83c-4.71.16-5.69.61-9.86,1.75C506.37,26.3,480,56.35,463.55,88.36c-15,29.11-23.32,60.9-32.54,92.16-4.75,16.11-9.63,32.17-15.56,47.9-3.4,9-7.14,17.85-11.38,26.51A267,267,0,0,1,387,284.73c-4.9,7.43-10.42,14.51-16,21.41s-11.59,13.38-17.74,19.66a375.15,375.15,0,0,1-39.15,34.65c-6.79,5.22-13.67,10.36-20.73,15.21l-5.26,3.55q-7.77,5.35-15.84,10.25c-6.09,3.08-12.38,5.78-18.56,8.68-10.4,4.88-21.35,8.79-31.33,14.51A44.86,44.86,0,0,0,211,421.8a37.28,37.28,0,0,0-6.37,11c-2.21,5.63-3.2,11.58-1.58,17.5a25.75,25.75,0,0,0,7.32,12.27c8.39,7.69,20.29,11.55,31.53,12.13,6.51.34,13.11-.1,19.22-2.49a23.85,23.85,0,0,0,5.55-2.78,16.54,16.54,0,0,0,2.51-2.57c1.34-1.57,2.75-3.12,4-4.79a55,55,0,0,0,5.07-8.8,64.74,64.74,0,0,0,5.73-27.51c0-18.15-5.05-36-10.37-53.16-4.13-13.35-8.79-26.6-13.73-39.67s-10.33-25.9-16.43-38.45C232,271,217.47,248.3,197,231.81a92.53,92.53,0,0,0-39.44-18.41c-14.58-2.91-29.47-3.39-44.26-4.31-14.48-.9-29.07-2.27-43.14-6a116.78,116.78,0,0,1-28.07-11.35,105.68,105.68,0,0,1-11.39-7.45,76.85,76.85,0,0,1-12.29-11.08c-4.07-4.75-8-10.13-10.35-15.91l-2.1-5.74a30.26,30.26,0,0,1-1.89-9.78c-.12-1.11-1.44,0-1.68.26C1.7,142.67-.05,144.12,0,145.17Z"/><path class="cls-1" d="M5.5,132.62a28.78,28.78,0,0,0,.9,10.47,34.79,34.79,0,0,0,3.06,8.21A60.45,60.45,0,0,0,20.38,167a102.05,102.05,0,0,0,36.46,24.41c15.94,6.4,33.16,8.63,50.18,10,10.13.82,20.29,1.2,30.41,2.15a164.27,164.27,0,0,1,19,2.83,96.13,96.13,0,0,1,17.52,5.51l-.69-.33,8.64,4.17-.68-.35a100.81,100.81,0,0,1,14.33,9.39L202,230.2a137.89,137.89,0,0,1,19.7,22.39c11.65,16,20.46,33.59,28.61,51.58l-.3-.69a608.38,608.38,0,0,1,23.77,64.82c2.21,7.47,4.38,15,6.08,22.58a151.45,151.45,0,0,1,3.42,26v-.76l-.14,7.07,0-.76c-.59,6.08-1.26,12.13-3.43,17.9-2.64,7-6.12,13.13-11.89,18.25l5.05-3.71-10.5,6.53,9.5-4Q246.24,471.66,219.3,460l6,3.06-7.5-4.14L236,471.63,210.15,452.5l17.55,17.39-21.26-24.07,13.83,20.7-15.11-28.45L214,461.42l-7.75-25.3L211.32,458l-4.44-26.19,2.29,22.5-1.09-26.82-.62,22.33,2.45-26.43-3.47,22.19,5.79-25.8L206,441.09l9-24.69-8.89,20.41,12-23.46-11.19,18.91,14.57-21.83L208,427.92l22.29-24.42-14.77,12.84,17.16-13.76-8.87,6.28c8.54-5.8,16.39-11.08,25.37-15.7q5.37-2.76,10.78-5.45c2.92-1.45,6.27-2.75,9-4.51,7.19-4.56,14.34-9.18,21.37-14,37.78-25.85,72.73-57.49,97.47-96.29a238.1,238.1,0,0,0,16.58-30.33c4.9-10.91,9.18-22.05,13-33.37,7.66-22.42,13.8-45.31,20.78-67.94,5.69-18.47,11.92-36.76,20.49-54.11A214.54,214.54,0,0,1,470,67,211.94,211.94,0,0,1,486.18,45.3l-.57.61,6.6-7.05-.59.59,6.94-6.57-.61.56A154.75,154.75,0,0,1,511.57,23a105.58,105.58,0,0,1,14.87-8.16l7.9-3.12,8.2-2.44a63.82,63.82,0,0,1,11-.95,92.4,92.4,0,0,1,43.63,10.83A83.16,83.16,0,0,1,615.43,32a70.08,70.08,0,0,1,7.32,8.06l3.14,4.4.68,59.25c-3.1,7.89-7.06,15.45-10.23,23.32-3.52,8.75-6.67,17.82-7.43,27.28-1.22,15.21,2.44,31.07,11,43.79a52.53,52.53,0,0,0,7.89,9.2,49.25,49.25,0,0,0,10.38,7.34,47.58,47.58,0,0,0,12.49,4.69,61.37,61.37,0,0,0,13.85,1.54,105.14,105.14,0,0,0,27.07-4c10.42-2.84,20.75-6.13,31-9.39,13.35-4.22,26.78-8.23,40.46-11.22,6.48-1.42,13-2.57,19.56-3.36a77.19,77.19,0,0,1,9.65-.85,99.78,99.78,0,0,1,14.32-.12l-.78-.06a117.17,117.17,0,0,1,19.51,3.62A85.58,85.58,0,0,1,843.49,203a73,73,0,0,1,15.43,11.23l4.3,4.54a56.86,56.86,0,0,1,11.68,21.84l-2.28-11.72,2.5,18,.61-19.75-2,29.75,4.81-21.11-6.2,22.8L879.12,240l-12.75,25.43,12.27-17.81L864.2,265.32l13.43-14.09-16.92,15.29,15.56-12.13-19.15,12.85,17.07-9.63-20.89,10,20.56-7.65-38.28,5.57,24.6,3.8-48.84-29.1L823,262.93l-12.12-32,5.39,24.16-4.43-26.73,2,22.25-1.24-27L812,246.07l3.87-33.89-6,24,10.93-32.53L810,225.8l17-29.9-14.94,19.53,22.15-26.25-14.66,13.43,16.94-14.77-8.8,6.66,12.86-9.33L821.7,196.61,852.5,179l-6.12,2.72a97.67,97.67,0,0,1,44.35-8.65q6.65.11,13.28.69t13.22,1.5q10.67.86,21.28,2.31c14.62,1.83,29.27,3.94,44,3.9a142.2,142.2,0,0,0,40-5.82c26.23-7.74,50.44-22.18,70.59-40.57a190.21,190.21,0,0,0,27.52-31.24,182.23,182.23,0,0,0,11-17.79,175.5,175.5,0,0,0,8.9-19.05,4.59,4.59,0,0,0-3,.14q-5.42,1.17-10.79,2.55t-10.71,2.86a4.59,4.59,0,0,0-2.7,1.3,189.85,189.85,0,0,1-14.55,23.56,167.7,167.7,0,0,1-18.35,20.76,173.93,173.93,0,0,1-49.8,33.34,159.8,159.8,0,0,1-53.52,13.62c-23.67,1.66-47.32-.72-71-1a183.8,183.8,0,0,0-26,1.6c-15.53,2.06-30.88,6.75-44,15.51a66.08,66.08,0,0,0-15.3,13.63A61,61,0,0,0,810.84,214a53.45,53.45,0,0,0-2.39,24.15c.78,4.9,4.31,8.48,6.8,13.08l6.65,12.27,1.2,1.91a11.53,11.53,0,0,0,2.41,1.57,41.27,41.27,0,0,0,5.52,2.8,38.32,38.32,0,0,0,14.71,2.73,44.57,44.57,0,0,0,12.56-1.92,38.64,38.64,0,0,0,7.94-3.53,15.71,15.71,0,0,0,2.23-1.31,16.27,16.27,0,0,0,2.15-3,47.42,47.42,0,0,0,2.52-4.32c1.84-3.36,3.61-6.76,5.31-10.19.9-1.82,2.48-4.08,2.42-6.2a38.55,38.55,0,0,0-1-8,46.91,46.91,0,0,0-5.63-13.35,81.69,81.69,0,0,0-34.79-31.07,111,111,0,0,0-27.18-8.86,147.91,147.91,0,0,0-21.48-2.37,165.67,165.67,0,0,0-31.7,2.15c-19.75,3-39.31,7.92-58.51,13.39l-5,1.42-10.07,2.49c-2.12.15-4.16,0-6.29.3a78.88,78.88,0,0,1-15.93.41,37.92,37.92,0,0,1-14.68-3.8l-2-1-2.33-2.2a36.27,36.27,0,0,1-8.22-9.24,46.55,46.55,0,0,1-2.82-5.85,57.8,57.8,0,0,1-4-15.62,101.62,101.62,0,0,1,1.09-30.33c1.22-6.67,3.18-13.24,4.83-19.81a218.83,218.83,0,0,0,4.86-23.27c2.22-16,1.11-33.48-7.55-47.56a69.82,69.82,0,0,0-11.13-14.23,90.31,90.31,0,0,0-17.14-12.55A98.94,98.94,0,0,0,527.66,4C501.2,12,479,30.86,462.36,52.36,448.71,70,438.24,89.72,429.6,110.2c-1.82,4.31-3.67,8.62-5.37,13-3.32,8.46-6.21,17.12-9.11,25.73-5.06,15-9.81,30.18-15,45.19a448.58,448.58,0,0,1-17.2,43.79,259.14,259.14,0,0,1-22.88,39.59c-17.24,24.5-38.55,45.74-61.4,65-11.63,9.8-23.66,19.08-35.85,28.16-5.29,3.94-10.61,7.84-15.92,11.76-3.75,2.77-7.68,5.4-11.29,8.36a152.19,152.19,0,0,0-13.25,12.06c-9.85,10.22-9.81,17.21-17.79,34.69a4.79,4.79,0,0,0,.48,3q1.78,5.39,3.76,10.71t4.06,10.6a4.79,4.79,0,0,0,1.6,2.62c19.85,6.81,18.75,10,30.44,9.27a55.59,55.59,0,0,0,11.67-2,54.37,54.37,0,0,0,21.18-11.39,48.65,48.65,0,0,0,13.34-19.72,85.5,85.5,0,0,0,5.24-33.07c-.91-22.07-8-43-15.06-63.68a418.08,418.08,0,0,0-18-43.18,328.14,328.14,0,0,0-23.79-42.51c-13.1-19.54-28.89-37.08-48.25-50.54a134.49,134.49,0,0,0-42-19.14c-15.05-4-30.58-5.41-45.94-7.62-7.49-1.08-14.95-2.26-22.32-4a89.11,89.11,0,0,1-17.24-5.56,79.71,79.71,0,0,1-21-13.9,58.68,58.68,0,0,1-12.82-16.89,34.13,34.13,0,0,1-3.23-10.14,48.93,48.93,0,0,1,.18-12.83,4,4,0,0,0-2.57,1.09q-4.31,2.82-8.5,5.82t-8.32,6.08A4,4,0,0,0,5.5,132.62Z"/><path class="cls-1" d="M2.79,136.66a28.78,28.78,0,0,0,.89,10.56,35.1,35.1,0,0,0,3.17,8.39,62.3,62.3,0,0,0,11.29,16,103.1,103.1,0,0,0,37.69,24.75c16.27,6.3,33.8,8.36,51.09,9.6,10.2.73,20.43,1,30.62,1.93a158.22,158.22,0,0,1,19,2.77,93,93,0,0,1,17.5,5.55l-.6-.29,8.52,4.18-.59-.31a98,98,0,0,1,14.2,9.53,117.68,117.68,0,0,1,12.35,11.52,164.08,164.08,0,0,1,18.19,23.86c12.38,19.34,21.51,40.35,29.9,61.66l-.25-.64c9.36,25,18.31,50.34,23.53,76.57l-.11-.69,1.11,7.2-.09-.69.74,7.15-.07-.69c.31,7.35.29,14.44-1.2,21.68a43.68,43.68,0,0,1-2.4,8.62,50.44,50.44,0,0,1-9.06,15.27l7.86-7.32-9.76,8.51,11.32-8.31-14.79,10.41,12-7.19-15.67,8.79,12.43-6-16.37,7.19,12.89-4.72-16.94,5.57,13.11-3.47-17.3,4,13.32-2.24-17.53,2.44,13.32-1-17.58.94,13.32.12-17.51-.53,13.13,1.24-17.3-2L243.1,469l-16.94-3.36L238.74,469l-16.46-4.73,12.22,4.39-15.82-6.08,11.67,5.36-15-7.41,11.11,6.34-14.09-8.7,10.34,7.24-13-10,11.91,10.39-14-13.42,10.57,11.4L206,449l9.17,12.42L205,445.4l7.43,13.16-7.86-17.07,5.63,13.89-5.41-17.92,3.61,14.17-2.82-18.48,1.56,14.44-.19-18.8L206.44,443l2.46-18.3-2.49,13.95,5-17.59L207,434.24l7.34-16.63-6.26,12.51,9.51-15.56L209.72,426l11.41-14.31L211.76,422l13.13-13-8.29,7.35,12.26-9.91-9.19,6.44,17.46-11.24q6-3.27,12.12-6.25,5.44-2.67,10.93-5.26c2.78-1.32,5.63-2.53,8.38-3.9l10.83-6.83q2.94-1.9,5.83-3.88a440.68,440.68,0,0,0,46.32-35.24q12.34-10.84,23.61-22.8a271.05,271.05,0,0,0,21.39-25.24q7.94-10.8,14.93-22.25a242.72,242.72,0,0,0,15.69-31.3c8.41-19.8,14.71-40.35,20.78-61,3.33-11.29,6.54-22.6,10-33.85,3.37-11,6.82-22.05,11-32.74,2.29-5.8,4.72-11.54,7.34-17.2a248.85,248.85,0,0,1,13.36-24.37l-.34.52,5.43-8.1-.35.51a197.73,197.73,0,0,1,14.15-17.35,132.59,132.59,0,0,1,12.75-12A106.28,106.28,0,0,1,534.6,14.36L542.87,12l5.48-.61a72.73,72.73,0,0,1,14.06.36,93.25,93.25,0,0,1,24.91,6.35c15.4,6.28,29.81,16.73,38.49,31.14L628.39,54l4,29.66L629.56,95.5q-4.13,10.93-9.28,21.39a198.23,198.23,0,0,0-11.11,26.67,70,70,0,0,0,.45,43A62.31,62.31,0,0,0,623.35,210a49.16,49.16,0,0,0,13.12,9.66,26.42,26.42,0,0,0,6.21,2.78,24.13,24.13,0,0,0,6.75,2,67.7,67.7,0,0,0,18.07,1.39,95.61,95.61,0,0,0,14.15-2c10.46-2.18,20.57-5.82,30.73-9.06,15.3-4.89,30.56-10,46.19-13.74q9.73-2.33,19.64-3.88a113.18,113.18,0,0,1,14.49-1.4,97.32,97.32,0,0,1,14.32-.06l-.65,0a114.65,114.65,0,0,1,19.45,3.82,84,84,0,0,1,18,7.77,71.64,71.64,0,0,1,15.22,11.55l4.2,4.65a55.9,55.9,0,0,1,11.06,22.22l-.9-5.25.83,7.64-.25-8.66.23,12.82.53-8.68-1.07,12.73,2.22-13.58-3.41,17.55,4.6-16.77-6.45,20.35,6.43-16.24-9,19,9.26-16.5-15.75,20.1,13-13.22-20.52,14.57,14.25-8.35-18.22,8.38L867,264.74l-24.8,5.66,16.08-2.24-20,1.23,16-.35-19.9-.93,16,1.47-19.63-3,15.54,3.14-19.14-5,15.13,4.75-18.42-6.86,14.41,6.22L820.8,260.2l13.68,7.66-16.4-10.34,12.64,9-15.07-12,11.58,10.23-13.49-13.47,10.19,11.3-11.68-14.87L821,260.07l-9.66-16,7,13.41-7.95-18.24,5.18,13.8-5.46-18.76,3.36,14.18-2.94-18.93,1.49,14.24-.54-19-.34,14.29,1.76-18.88-2.13,13.95,4-18.51-3.86,13.62,6.08-18-4.19,10.34,6.77-14.6-5.39,9.85L822.46,203,816,212.2l9.61-13-4.61,5.42,8-9-5.14,4.93,21.16-15.79,39.48-8.84c4.43-.08,8.91.14,13.33.46s8.9.8,13.32,1.39c5.76.76,11.51,1.41,17.28,2.11,14.47,1.74,28.86,4.31,43.43,5.18a161.59,161.59,0,0,0,22.17,0,134.06,134.06,0,0,0,24-4.24c26.48-7.05,50.87-21,71.42-39A191.61,191.61,0,0,0,1117.75,111a183.85,183.85,0,0,0,11.41-17.56,89.8,89.8,0,0,0,4.94-9.26,132.36,132.36,0,0,0,6.46-14.42,2.52,2.52,0,0,0-2.12-.23q-3.84.49-7.65,1.19t-7.6,1.5a2.52,2.52,0,0,0-1.92.94A162.39,162.39,0,0,1,1112,90.1a126.68,126.68,0,0,1-8.23,11.83,173.59,173.59,0,0,1-19.18,21.48A178.6,178.6,0,0,1,1033,157.75a159.49,159.49,0,0,1-54.63,13.14c-20.17,1.13-40.23-1.13-60.35-2.14-28.24-1.41-58.91-.46-82.88,16.46a59,59,0,0,0-18.18,20.29l-2.35,4.73c-3.41,21.93,5.71,52.54,26.21,61.34A63.65,63.65,0,0,0,849,273a161.08,161.08,0,0,0,21.37-6.82,3.06,3.06,0,0,0,1.41-1.93q1.27-2.81,2.4-5.68,1.46-3.56,2.82-7.17a24.91,24.91,0,0,0,1.62-5.09,40.54,40.54,0,0,0-.74-8.67A37.86,37.86,0,0,0,875,229a66.23,66.23,0,0,0-14.43-20.28,83.51,83.51,0,0,0-29.48-18.19,123.58,123.58,0,0,0-34.28-7.11c-22.12-1.4-44.19,3.37-65.5,8.84q-9.86,2.55-19.65,5.34-10.49,3.21-21,6.32a33.66,33.66,0,0,0-6.8.85q-3.93.8-7.92,1.24a63.7,63.7,0,0,1-21-.68,38.62,38.62,0,0,1-10.13-3.58q-3.27-2.77-6.7-5.33c-8.48-7.65-12.87-19-14.61-30a87.75,87.75,0,0,1-.64-20.47,94.26,94.26,0,0,1,1.3-10.32q1.48-6.47,3.38-12.83l-.19.66c3.21-10.58,7-21.19,9.11-32.06A87.75,87.75,0,0,0,638,65.2a57.09,57.09,0,0,0-10.23-26.79,77.9,77.9,0,0,0-21.74-20c-15.55-9.83-33.94-14.64-52.25-14.7C528.21,3.62,504.57,16.2,486,33.1,472.21,45.72,460.89,61,451.55,77.21c-19.41,33.64-29.74,71.24-41.66,107.92-6.36,19.58-13.18,39-22,57.61a258.93,258.93,0,0,1-31.32,50.11c-26.91,33.76-61.11,61.08-96.26,85.77-14.29,10-29.72,18.93-41.5,32.09-1.56,1.75-3.06,3.54-4.67,5.24a52.63,52.63,0,0,0-5.88,7.17c-1.83,2.78-2.38,4.18-2.6,7.08-.28,3.75-.41,7.51-.38,11.27,0,4.42,1.36,8.8,2.49,13a4.39,4.39,0,0,0,1.19,1.83,74,74,0,0,0,7.62,6.83,32.21,32.21,0,0,0,5.64,4.41c5,2.64,11,3.51,16.64,3.82a55.13,55.13,0,0,0,24.64-4.77A44.1,44.1,0,0,0,280,454.47c5.42-6.6,8.48-15.07,10.28-23.29,3.15-14.47,1.82-29.22-1.1-43.62-2.29-11.26-6-22.2-9.49-33.11-4.07-12.62-9-25-14.14-37.17-9.29-21.93-20.06-43.43-33.83-62.93-10.36-14.67-22.52-28.26-37-39a125.39,125.39,0,0,0-23.84-14c-14.41-6.39-29.82-9.23-45.37-11.21-9.46-1.2-19-1.9-28.41-3.24s-18.69-2.79-27.65-5.77a91.63,91.63,0,0,1-24.78-12.45A70.29,70.29,0,0,1,26,149a39.85,39.85,0,0,1-4.77-11.14,24.5,24.5,0,0,1-1.09-6.69,29.7,29.7,0,0,1,.45-8.89,3.23,3.23,0,0,0-2.24,1Q14.7,126,11.21,128.9t-6.93,5.79A3.23,3.23,0,0,0,2.79,136.66Z"/><path class="cls-1" d="M2.3,135.41a32.53,32.53,0,0,0,.22,11.43q1,3.2,2.33,6.3a69.81,69.81,0,0,0,16.39,22.34,107,107,0,0,0,30.38,19.71c18.59,8.16,39.17,10.61,59.25,11.74,13.59.77,27.28.75,40.79,2.63,14.94,2.08,28.68,6.62,41.21,15.35,18.72,13,32,32.55,42.63,52.39,10.06,18.84,18,38.8,25.07,58.91,4.06,11.54,8,23.18,11.46,34.9,2.52,8.43,4.88,17,6.65,25.59,2.51,12.19,3.95,25,1.56,37.34a54.22,54.22,0,0,1-3.43,11.31,47.53,47.53,0,0,1-9.8,14.59l2.75-2.22-60.87-8,3,3.84-3.74-5.58,1.58,2.71-3-6.16,1.29,2.94a26.62,26.62,0,0,1-1-15.75A32.12,32.12,0,0,1,210.1,423c2.86-5.4,7.1-9.65,11.83-13.43,11.84-9.45,26.3-14.85,40-20.78,4.19-1.81,8.4-3.6,12.57-5.47a54.56,54.56,0,0,0,11.66-7q10.74-6.86,21.07-14.34a394.71,394.71,0,0,0,40.16-33.1c22.69-21.49,42.48-46.15,56.87-74C422,220.72,431,183,441.86,146.3c7.46-25.17,15.68-50.3,29-73.09,11.14-19.09,25.45-36.61,43.91-49a88.27,88.27,0,0,1,25.82-12.54,40.69,40.69,0,0,1,13.67-2.59c14.8-.66,30.48,3.9,43.56,10.87C625,34.46,645.73,62,627,103.21c-2.64,5.81-6,11.31-9,16.95-6.61,12.42-12.72,26.09-13.18,40.38a72.87,72.87,0,0,0,7.87,35,58,58,0,0,0,28.87,27.33c14.12,6,30,5.29,44.67,1.91a182.27,182.27,0,0,0,20.23-6.17c12.45-4.44,25-8.74,37.59-12.63A307.14,307.14,0,0,1,774,198.13c12.5-2.5,25.62-4.17,38.39-3a84.59,84.59,0,0,1,36.17,12.15,72.41,72.41,0,0,1,10.23,7.58,59.19,59.19,0,0,1,14.78,20l-1-2.4L876.9,246l-.51-3.8q-8.66,31.21-28.74,26.94a33.88,33.88,0,0,1-5.77-1.35,63.37,63.37,0,0,1-18.75-9.31l2,1.53-4.81-4.09,2,1.82-4.43-4.6,1.84,2.1-4-5.22,1.67,2.38-5.38-12.92.78,3.15,7-36-1.73,3.11c29.21-46.5,68.64-38,105.37-32.08q10.56,1.34,21.08,3,10.87,1.76,21.81,3.1c14.14,1.59,28.4,2.07,42.5-.16a148.62,148.62,0,0,0,33.83-9.89,190.36,190.36,0,0,0,64.37-44.55,192,192,0,0,0,25.78-33.8,182.82,182.82,0,0,0,9.9-19q2.08-5,4.11-9.93c.56-1.36-2.27-.43-2.56-.37q-2.21.56-4.37,1.27a5.14,5.14,0,0,0-2.17,1C1135,74.76,1132.25,80.92,1129,87a168.8,168.8,0,0,1-13.88,21.46,182.65,182.65,0,0,1-31.65,33.13,193.12,193.12,0,0,1-33.95,22.11,186.21,186.21,0,0,1-18.38,8A115.21,115.21,0,0,1,1017,176a106.13,106.13,0,0,1-14.27,3c-14.07,1.87-28.14,1.47-42.24.15-7.18-.67-14.33-1.71-21.48-2.63-8.11-1-16.25-1.91-24.36-3-16.58-2.19-33.68-3.05-50.12.55a79.13,79.13,0,0,0-24.89,10.29,72.61,72.61,0,0,0-16.21,14.4,60.17,60.17,0,0,0-11.46,20,43,43,0,0,0-1.61,22,31.94,31.94,0,0,0,7.1,14.48,50.73,50.73,0,0,0,16.72,12.24c8.48,4,18.34,6.71,27.72,4.8a20.34,20.34,0,0,0,9.67-4.59c1.51-1.4,0,1.56,2.91-4a28.93,28.93,0,0,0,3.2-9.13c.49-3.36,1.05-6.82.46-10.19a45.15,45.15,0,0,0-2.51-8.77,60.64,60.64,0,0,0-8-14.34c-6.05-8-13.82-14.23-22.52-19.22a87.25,87.25,0,0,0-22.36-8.67,93.55,93.55,0,0,0-26.51-2.81,196.67,196.67,0,0,0-38.81,5.93c-17.12,4.19-33.91,10-50.51,15.93-3.76,1.33-7.51,2.7-11.3,4l-6,1.84L669.57,222l-6.77.14A37.37,37.37,0,0,1,649,219.48l-6.66-1.94a31.27,31.27,0,0,1-15.95-14.65l-10-11.45a79.55,79.55,0,0,1-4.13-11.18A76.65,76.65,0,0,1,610,168.84a70.74,70.74,0,0,1,2.41-27.68c4.62-15.42,13-29.15,19-44,2.72-6.66,4.79-14,5-21.19a55.34,55.34,0,0,0-2.78-20A63.79,63.79,0,0,0,617.8,31.59c-11.88-11.75-28.09-19.35-44.29-22.84-8.58-1.85-17.81-2.82-26.57-1.56-8,1.16-15.59,4-22.92,7.26a112.65,112.65,0,0,0-29.09,19.66,164.08,164.08,0,0,0-23.57,27.41c-20.06,28.63-30.69,62.52-40.5,95.68-11.25,38-21.84,76.74-42.57,110.94-20.44,33.73-48.83,61.7-79.7,85.89-6.74,5.28-13.72,10.3-20.74,15.22-7.48,5.25-15.41,10.85-23.57,15-6.14,3.12-12.27,6.24-18.36,9.45-2.23,1.18-4.44,2.43-6.7,3.55-2.94,1.46-6,2.67-8.92,4.18a68.08,68.08,0,0,0-12.51,7.73,39,39,0,0,0-6.91,6.92,40,40,0,0,0-5.56,10.71c-2.64,7.71-2.59,16.26,2.11,23.25,6.28,9.35,17.12,14.51,28.09,15.93,7.17.93,14.55,1.22,21.64-.49a32.33,32.33,0,0,0,9-3.55c1.15-.69,2.33-1.47,3.43-2.28,2.23-1.64,3.86-4.1,5.45-6.33a52.27,52.27,0,0,0,5.58-10.72,59.34,59.34,0,0,0,3.81-18,105,105,0,0,0-.09-13.32c-.73-11.07-3.39-22.06-6.39-32.71-3.71-13.18-8-26.21-12.65-39.11-9.21-25.8-19.41-51.76-33.94-75.09-7.68-12.33-16.39-24.46-27.24-34.22a117.08,117.08,0,0,0-21.63-15.52l-4-1.91a68.08,68.08,0,0,0-12.7-5,135.37,135.37,0,0,0-23.1-4.25c-16.7-1.73-33.53-1.58-50.21-3.54-12.73-1.5-25.31-4-37.2-8.87C44,186.5,30.93,179.42,23.57,170.57l-16.62-27a39.87,39.87,0,0,1,.74-11.36c.17-1.25-1.73,0-1.91.1a29.38,29.38,0,0,0-2.44,1.83A2.48,2.48,0,0,0,2.3,135.41Z"/><path class="cls-1" d="M4.77,131.41a28.57,28.57,0,0,0,.82,10.51l1.8,5.49c2.2,5.9,6,11.15,10,16a85.88,85.88,0,0,0,15,13.7A102.51,102.51,0,0,0,53.2,189c15.28,6.61,31.74,9.43,48.25,10.86,10.22.89,20.47,1.34,30.7,2.16q7.35.49,14.65,1.54a117.16,117.16,0,0,1,18.29,4l-.61-.18,8.58,3.13a71.16,71.16,0,0,1,11.66,6,103.14,103.14,0,0,1,13.83,9.93c10.93,9.27,20,20.39,27.8,32.34,16.05,24.43,27.09,51.66,37.09,79l-.21-.59c6.81,19.45,13.28,38.93,17.41,59.14l-.1-.63,1.15,7.17-.08-.63.78,7.13-.06-.64c.42,8.39.45,16.62-1.57,24.85a54.85,54.85,0,0,1-4.06,11.26q-5.07,11.21-17.11,16.45l5-2a52.07,52.07,0,0,1-9.41,3.08q-19.14,5.15-38.89-5.67l16.26,12.56-27.23-26,12.42,19.84-12.14-21.82,9.09,19.19-9.52-23.18,7,20.23-6.74-24.28,4.52,20.7-3.7-25,2,21.15-.62-25.47-.86,23,5.36-30.6-6.24,21.68,12.38-27.94-9.75,17.48L221.7,408l-11.64,16.15,15.3-18.71L212.3,419.94l16.9-17.06-14.39,13.05,18.34-15.44-12.07,9.23,16.17-11.62-8,5.18c8.7-5.36,17.48-10.48,26.61-15.06,3.5-1.76,7-3.46,10.56-5.14a35.1,35.1,0,0,0,7.41-4.39q5.42-3.36,10.67-7,8.13-5.47,16.06-11.2c30.19-21.82,58.08-47.58,79.78-78a256.45,256.45,0,0,0,26.95-48.12c8.49-19.81,14.89-40.39,21-61,5.32-18,10.41-36,16.46-53.75,3-8.77,6.33-17.37,10.11-25.83,3.17-7.1,6.74-13.91,10.47-20.73l-.39.65,5.14-8.5-.4.64a217.59,217.59,0,0,1,16.1-21.65,125.52,125.52,0,0,1,22.45-20.36,103.39,103.39,0,0,1,22.27-12.1q62-26.29,97.82,85.39-1.72,4.33-3.67,8.56c-3.06,6.77-6.36,13.45-9.13,20.35-2.52,6.28-5,12.73-6.35,19.39a71.46,71.46,0,0,0,1.39,32.83c3.22,11.51,9.47,22.47,18.82,30.07a52.82,52.82,0,0,0,17.2,9.22,64.57,64.57,0,0,0,20.93,2.37c13.38-.37,26.28-4.63,38.93-8.54,12.17-3.77,24.26-7.75,36.51-11.24q7.46-2.19,15-4,9.74-2.38,19.64-3.89l-.65.09,10.33-1.25-.65.08c8.63-.5,17.07-1,25.66.35a92.42,92.42,0,0,1,19.2,4.94,83.51,83.51,0,0,1,17.36,8.8c12.5,8.61,20.19,18.32,25.77,34.42l-1-4.61,1.23,11.32.34-7.66-.68,11.71,2-12-2.94,16,3.31-11.77-5,15.42,6.17-14.3-8.48,17.14,8.05-13.26-11,15.56,10-12.15L863.4,264.87l11.78-10.48L859.78,266l13.59-8.77L856,266.67,870.91,260l-18.82,6.9,16.17-4.55-20.14,4.4L865,264.44l-26.7,1,15.87,1.48-18.08-2.7,14.23,3.23-18-4.68L849.87,269,817.33,252.6l16.59,14.63L811.64,242l11.93,19.7L812,239.94l8.67,19.33L811,235.13l6.43,20-6.72-25,4.17,20.74-3.75-25.49L813,246.35l-.87-25.68-.46,21.07,1.89-25.61-2.71,20.67,4.57-25.19-4.9,20.28,7.1-24.56-6.85,19.44,9.41-23.64-8.73,18.63L823,199.17l-10.32,17.49,16.83-24.78-10.3,12,13.95-15.3-11.25,11L837,185.73l-12,9.84,16.06-12.4-12.69,8.68,16.85-10.75-13.3,7.45,19.14-10.32-13.7,6.11L857.08,176l-14,4.77,20.14-6.45-8.87,2.24,15.18-3.44-8.9,1.41a141.32,141.32,0,0,1,28.42-2.77,189.32,189.32,0,0,1,21.59,1.41q19.22,2.28,38.43,4.63,10.76,1.41,21.58,2.11l11.65.36c13.46.35,27.17-2,40-5.82,26.27-7.76,50.53-22.24,70.7-40.67a190.9,190.9,0,0,0,27.59-31.35,183,183,0,0,0,11.05-17.86,176.36,176.36,0,0,0,8.93-19.13,3.49,3.49,0,0,0-2.57.2q-4.55,1.26-9,2.73t-8.94,3a3.49,3.49,0,0,0-2.2,1.33c-4.35,8.42-8.8,16.63-14.41,24.3q-5.57,7.61-11.83,14.67a171.23,171.23,0,0,1-40,32.82A170.13,170.13,0,0,1,1008.51,163a149.28,149.28,0,0,1-22.94,4.45c-10.43,1.13-20.93,1-31.4.87h.65c-18.65-.89-37.28-2.57-56-2.36-13.18.15-26.36,1.55-39,5.37A82,82,0,0,0,829,188.06a57.59,57.59,0,0,0-9.27,10.43c-8.33,12-5.81,19.84-9.38,39.14a4.24,4.24,0,0,0,.61,2.81q2,4.91,4.19,9.73t4.48,9.6a4.24,4.24,0,0,0,1.69,2.32l12,4.08q6.9,2.43,13.87,4.67a20.43,20.43,0,0,0,2.43-.19,50.47,50.47,0,0,0,5.91-.84l3.92-1.16,3.92-1.52a20,20,0,0,0,5.25-4.33,107.34,107.34,0,0,0,8.94-10.93c.72-1.07.79-1.08.87-2l-.7-9.34q-.29-5.06-.78-10.11c-.24-2.53-1.88-4.84-3.08-7a71.28,71.28,0,0,0-4.93-7.86c-10.29-14.06-25.72-23.54-42.07-28.94a124.68,124.68,0,0,0-48.53-5.65C760,182.35,742,186.36,724.23,191c-6.59,1.72-13.15,3.5-19.67,5.46l-5,1.51-10.38,2.89L687,201a37.71,37.71,0,0,0-7.09,1q-3.75.51-7.52.78a57,57,0,0,1-17.2-1.12,36.4,36.4,0,0,1-7-2.41,12.05,12.05,0,0,1-5.07-3.35l-3.56-2.81c-7.46-6.93-11.46-17-13.19-26.88-2.31-13.16-1.3-26.75,1.91-39.66,3.72-14.94,9.11-29.66,10.68-45.07a74.77,74.77,0,0,0-1-22.78,61.9,61.9,0,0,0-7.46-19A63.78,63.78,0,0,0,617,24.06a89.31,89.31,0,0,0-17.52-11.84A99.51,99.51,0,0,0,554.22,1.49,89.69,89.69,0,0,0,532.47,4.1,99.57,99.57,0,0,0,508.36,14C490.7,23.86,476.1,37.95,463.8,53.9c-12.62,16.38-22.34,34.94-30.37,53.93-6.28,14.83-11.57,30-16.55,45.28-5.63,17.32-11,34.73-17.1,51.89s-12.91,33.69-21.58,49.56A260.16,260.16,0,0,1,349,297c-23.68,28.21-52.19,51.37-81.65,73.24l.56-.41q-10.62,7.74-21.39,15.27a89.05,89.05,0,0,0-8.05,5.65q-4.22,3.14-8.17,6.59a262.39,262.39,0,0,0-26.68,37.51,4.32,4.32,0,0,0,.36,2.88q1.56,5.12,3.34,10.17T211,457.95a4.32,4.32,0,0,0,1.49,2.49c18.12,8.08,18.08,11.75,30.67,11.41a60.6,60.6,0,0,0,9.08-1.15,53.06,53.06,0,0,0,13.18-4.53,44.84,44.84,0,0,0,20.12-18.54c7.12-13,9.07-28.37,8.07-43-.94-13.75-4.39-27.2-8.5-40.3-4.87-15.55-10.4-30.87-16.78-45.87-5-11.86-10.34-23.67-16.51-35-8.95-16.43-18.8-32.57-31.2-46.66-12-13.58-25.8-26-42-34.34A134.32,134.32,0,0,0,143,190c-9.24-1.81-18.59-3-27.94-4s-18.68-2-27.89-3.78c-12.27-2.39-24-5.82-34.73-12.41-9-5.53-17.21-12.55-22.93-21.5a43.61,43.61,0,0,1-5.8-12.87,22.88,22.88,0,0,1-1-6.45,29.94,29.94,0,0,1,.37-8.83,2.93,2.93,0,0,0-2.23.68q-3.71,2.07-7.31,4.34t-7.14,4.61A2.93,2.93,0,0,0,4.77,131.41Z"/><path class="cls-1" d="M3.33,139.53a29.38,29.38,0,0,0,.87,10.64,47.85,47.85,0,0,0,4.5,11.32,70.26,70.26,0,0,0,12.39,15.94c11.65,11.48,26.63,19.89,42.18,24.78,21.2,6.66,43.56,6.82,65.52,8.3,9.73.66,19.5,1.39,29,3.52a90.31,90.31,0,0,1,32.69,14.07l-.61-.43,7.41,5.53-.59-.46a88.35,88.35,0,0,1,9.31,8.57,99.32,99.32,0,0,1,8.52,9.41,176.79,176.79,0,0,1,14.83,21.19c9.45,15.78,17,32.41,24,49.38l-.28-.7q9.41,24.07,17.29,48.65a326.08,326.08,0,0,1,9.53,36.48l-.13-.75,1.12,7.24-.11-.75c.76,7.4,1.22,14.61.37,22a48.61,48.61,0,0,1-1.57,8.88A51.2,51.2,0,0,1,268.77,463l11.49-12.13L266.82,464l13.87-11.87L263.37,466,278,455.63,259.7,467.54l15.06-8.78-19,10,15.51-7.19-19.53,8,15.67-5.58L247.62,470l15.81-4-20,4.19,15.67-2.53-19.89,2.42,12.33-1-16.48.57,12.06.08-16.2-.79,11.8,1.11L227,467.91,238.38,470l-15.26-3.43,11,3-14.58-4.71L230,468.8l-13.8-5.95L228.49,469l-15.32-8.54,11.38,7.21-14-9.93L220.92,466,208.4,454.74l9.13,9.13-10.8-12.51,7.83,10-8.85-13.64,6.23,10.69-5.66-12.31,3.53,9-3.72-13,2.08,9.23-1.7-13.51.61,9.4.43-16.24-.92,11.65,2.9-15.78-2.75,11.45L212,423.21l-4.51,10.85,7.46-14.27L208.65,430l9.51-13.33L210.4,426l11.37-12.2-7.27,6.75,11-9.41-5.12,3.78a108.13,108.13,0,0,1,18.12-11.34q4.6-2.54,9.36-4.75c3.67-1.77,7.35-3.51,11-5.25,3.51-1.66,7.2-3.07,10.63-4.88a65.27,65.27,0,0,0,6-3.71q8.17-5,16.06-10.47c37.76-26.1,72.61-57.27,97.26-96.35a237.15,237.15,0,0,0,16.41-30.41c4.84-10.93,9.06-22.1,12.87-33.43,8.3-24.66,14.62-49.91,22.58-74.67,5.68-17.69,12-35,20.48-51.61a182.61,182.61,0,0,1,14.35-23.59L481,57.24a150.77,150.77,0,0,1,11.85-13.3l-.45.43L499.27,38l-.47.42L506,32.5l-.49.39A109.58,109.58,0,0,1,520,23.62l7.69-3.71c6.77-3,14.36-5.48,21.8-5.95a84.8,84.8,0,0,1,33.69,5c10.69,3.85,21.12,9.31,29.63,16.93a75.26,75.26,0,0,1,9.44,10A52.37,52.37,0,0,1,634,78l-.09-6.05c-.45,22.65-6,32.86-14.44,50.76a187.74,187.74,0,0,0-7.65,17.54c-2.75,7.76-4.81,15.5-5.25,23.74a73.26,73.26,0,0,0,1.35,17,65.49,65.49,0,0,0,5.55,17,61.65,61.65,0,0,0,8.45,12.89A51.78,51.78,0,0,0,637.19,223a39.42,39.42,0,0,0,9.58,4l7.19,1.5a45.09,45.09,0,0,0,11,.63,71.68,71.68,0,0,0,10.9-.83c13-2.1,25.34-6.63,37.83-10.66,18.47-5.95,36.95-12.22,56-16a153.56,153.56,0,0,1,29.07-3.3l9.52.23a95.1,95.1,0,0,1,13.06,2.22l-.7-.17,7.1,2-.7-.21c10.22,3.6,20.26,8.09,28.53,15.29a77.1,77.1,0,0,1,8.8,9c5.48,6.63,8.36,14,10.83,22.3l-1.8-11.83,1.61,14-.51-9.89.43,14,.62-15.7-1.22,19.72,2.57-19.45-5.7,26.9,7-20.15-12.68,24.82,11-17.21-18.08,19.38,12.82-12-13.85,10.19,12.51-8.47-23.08,10.09,14.92-5.57-15.76,4,12.07-2.71-15.93,2.05,11.9-1.22-15.76.32,11.73.17-15.46-1.41,11.3,1.44-15-2.94,10.88,2.63-14.32-4.45,10.26,3.71-13.52-5.83,9.63,4.74-12.57-7.17,8.81,5.66-11.47-8.42,8,6.56-10.16-9.59,6.92,7.3-8.71-10.66,5.84,8-8.4-13.57,5.85,11-6.82-15.89,4.21,11.3-4.52-16.33,2.56,11.61-2.16-16.37.88,11.68.07-16.46-.78,11.73,2.18-16.34-2.41,11.46,4.26-16-3.07,8.93,5.28-13.3L813.39,222l6.82-12.78-3.3,5.15a74.21,74.21,0,0,1,12.82-16.59l3.75-3.29c13.89-11.72,31.67-15.49,48.9-15.93,16.19-.41,32,2.45,48,4.23l-.69-.08c21.8,3,43.59,6.82,65.68,5.37a134.38,134.38,0,0,0,28.86-5.6A161.37,161.37,0,0,0,1057,168.4a191.59,191.59,0,0,0,48.68-38.6A188.5,188.5,0,0,0,1124.78,105a137.61,137.61,0,0,0,8-13.54,177.15,177.15,0,0,0,8.71-19.16,2.61,2.61,0,0,0-2.14-.43q-4,.12-7.9.46t-7.88.77a2.61,2.61,0,0,0-2,.76,163,163,0,0,1-9.34,16.89,169.59,169.59,0,0,1-11.2,15.65,177.15,177.15,0,0,1-27.2,27.11,175.61,175.61,0,0,1-67.92,33.77,168.67,168.67,0,0,1-38.65,4.37c-14.72.12-29.37-1.35-44.05-2.15-15.41-.84-31-1-46.35,1.15-16.75,2.38-33.58,8.19-46.53,19.46a60.72,60.72,0,0,0-19.52,34.71c-2.28,12.85-.57,29,9.23,38a46.79,46.79,0,0,0,13.77,8.55,54.52,54.52,0,0,0,15.29,4.09c10.71,1.05,8.15-1.48,24.08-9.52a3.69,3.69,0,0,0,1.15-2.4q.9-3.33,1.64-6.7,1-4.19,1.86-8.41a31,31,0,0,0,.95-5.9,54.4,54.4,0,0,0-1.81-8.89,47.87,47.87,0,0,0-3.8-8.42,64.43,64.43,0,0,0-13-16.67,97.32,97.32,0,0,0-10.64-8.41c-7.61-5.19-16.31-8.81-25.06-11.56-8.95-2.81-18.35-4.07-27.68-4.79-12-.93-24.36.36-36.16,2.41-13.18,2.29-26.18,5.49-39.09,9-5,1.36-10,2.76-15,4.26q-7.94,2.4-15.9,4.75l-4.14.34-5.18,1-5.29.75a78.43,78.43,0,0,1-10.47.54,52,52,0,0,1-10.42-1.11c-3.13-.67-7.56-1.66-10.11-3.45l-1.46-1.2q-2.55-2.15-5.27-4.09a41.52,41.52,0,0,1-6.22-7.12,58.25,58.25,0,0,1-7.58-17.77,77.21,77.21,0,0,1-2-20.24,87.57,87.57,0,0,1,3-21.13c4.86-18.23,12.61-35.91,13.06-55,.35-15.07-4.29-30-14.29-41.53a82.27,82.27,0,0,0-18.61-15.5A97,97,0,0,0,559.62,4.52a91.88,91.88,0,0,0-23.9,2c-11.5,2.5-22.08,7.6-31.92,14C484.46,33,469.38,50.47,457,69.7c-16.39,25.5-26.78,54.45-36.07,83.11-12.65,39-24,79-45.62,114.19-20.41,33.2-48.35,60.8-78.59,85.08q-10.1,8.11-20.52,15.8-7.76,5.8-15.68,11.39l-10.84,7.63c-4.66,2.93-9.14,6-13.5,9.39A132.31,132.31,0,0,0,219.61,411a66.19,66.19,0,0,0-6.07,7.4L211,422.34a36.09,36.09,0,0,0-6.75,16.5,11.77,11.77,0,0,0,.49,3.62q.54,2.57,1.2,5.12.48,2.05,1.11,4.06A1.71,1.71,0,0,0,208,453l53.82,14.85a3.19,3.19,0,0,0,2.28-.89q2.66-1.71,5.23-3.56,3.24-2.25,6.42-4.6a26.17,26.17,0,0,0,4.24-3.47A59.08,59.08,0,0,0,285,447.6a63,63,0,0,0,4.72-12.39A82.3,82.3,0,0,0,292.3,412c-.27-13.84-3.29-27.44-7.21-40.67A499.24,499.24,0,0,0,260,304.46c-11.17-24.27-24.58-47.91-42.48-67.89a149.22,149.22,0,0,0-26.95-23.91,121.66,121.66,0,0,0-32.72-15.85c-25.77-8-53.14-6.71-79.26-12.91C63,180.2,48,173.24,36.26,162.12a55.58,55.58,0,0,1-13.52-19,34.09,34.09,0,0,1-2.37-8.94,23.85,23.85,0,0,1-.33-4.5,22.66,22.66,0,0,1,.52-6.77,3.5,3.5,0,0,0-2.22,1.31q-3.53,3.14-6.92,6.45t-6.7,6.68A3.5,3.5,0,0,0,3.33,139.53Z"/><path class="cls-1" d="M.26,132.58a41,41,0,0,0-.1,5.22A38.41,38.41,0,0,0,3,149.14c3.42,8.58,9.18,16.11,15.72,22.54a104.11,104.11,0,0,0,30.41,20.39c18.63,8.37,39.3,10.95,59.51,12,10.34.55,20.7.73,31,1.61a149.25,149.25,0,0,1,19.11,2.64,85.52,85.52,0,0,1,31.89,13.88c16.2,11.36,28.33,27.59,38.19,44.53,12.14,20.86,21.24,43.42,29.3,66.11,6.26,17.63,12.26,35.5,16.7,53.68a144.88,144.88,0,0,1,4.25,25.74c1,17.62-2.82,39-20.1,47.64l3-1.13-6.76,2.33,3.2-.86c-17.17,3.89-32,2.5-46.29-7.54l4,3.29-6.84-5.94,6,6-8.39-9,5.59,6.65-6.09-8.13,4.82,7.39-6.31-10.89,4.15,8-5-11.73,3.3,8.39-2.6-9.2,1.41,5.54q-2.94-16.61,8.68-29.59a37.3,37.3,0,0,1,5.21-5.1,64.91,64.91,0,0,1,5.85-4.65A108.06,108.06,0,0,1,244.54,393q7.11-3.85,14.55-7l8.72-3.8c5.81-2.56,9.62-5,15.61-8.81a401.43,401.43,0,0,0,61.26-47.45c21-19.93,39.44-42.51,53.43-67.93,15.08-27.4,24.27-57.23,32.86-87.17,7.28-25.36,14-51.14,24.38-75.46A206.93,206.93,0,0,1,483.17,48a146.52,146.52,0,0,1,11.9-13.1L514.7,19.37a84,84,0,0,1,37-13.27l-3.33.13,9-.1L554.14,6a89.33,89.33,0,0,1,19,2.52q46.21,11.4,57.62,48,5.94,22.4-5.78,43.55-2.69,5.37-5.55,10.66c-7.58,14.34-15.4,29.37-16,45.93a74.94,74.94,0,0,0,4.7,28.88,62.08,62.08,0,0,0,16,24.2,54.67,54.67,0,0,0,22,12.47C656,225,666.6,225,676.73,223.37A133.35,133.35,0,0,0,697.82,218q6.25-2.13,12.44-4.46,10.59-3.69,21.26-7.17c13.21-4.31,26.53-8.45,40.17-11.18,14.43-2.89,29.67-4.68,44.27-2.12a87.26,87.26,0,0,1,24.83,8.31c17.12,8.82,28.93,22.13,34,42.7l-.42-3.14-5.12,21.56,1.82-2.93c-3.63,3.72-7,6.06-12,6.95-7.27,1.27-14-.2-21.35-1.94l3.53,1-24.82-14.71,5.43,5.85-7.66-9,5.05,6.56-6.83-9.94,4.49,7.19-5.78-10.89,3.83,7.8L810.34,237l2.93,8.46-2.73-10.33,1.27,5.46L822.41,198l-2.66,4.17,5.92-8.13-2.94,3.83,6.49-7.48-3.16,3.45,7-6.84-3.35,3.07,7.42-6.07-3.47,2.67,7.79-5.33-3.56,2.27,14.06-7.28-3.65,1.47a132.84,132.84,0,0,1,66.43-4.21q8.53,1.69,17.17,2.65c14.11,2,28.2,4.77,42.46,5.6a162.36,162.36,0,0,0,22.68,0,140.38,140.38,0,0,0,38.63-9.11A187.24,187.24,0,0,0,1097,133.65a193.64,193.64,0,0,0,27.38-32.28,186,186,0,0,0,10.86-18.28,179.53,179.53,0,0,0,8.7-19.52c.58-1.42-2.47-.15-2.57-.11q-2.12.77-4.19,1.69a5.07,5.07,0,0,0-2,1.21c-2.65,6.26-5.31,12.36-8.44,18.39a177.3,177.3,0,0,1-10.5,17.26,185.16,185.16,0,0,1-26.45,30.56,186.41,186.41,0,0,1-32.42,24.16,176.41,176.41,0,0,1-17.9,9.18,120.79,120.79,0,0,1-13.95,5.33,113.55,113.55,0,0,1-14.19,4.09,140.62,140.62,0,0,1-18.91,2.87,173.42,173.42,0,0,1-22.1,0c-14.26-.73-28.45-3.25-42.6-5.07-15.82-2-31.67-4.44-47.67-3.8-9,.36-18.16,1.51-26.61,4.7-6.26,2.37-12.63,4.9-18.11,8.81a73.1,73.1,0,0,0-14.57,13.71,67.66,67.66,0,0,0-6.83,10.26c-3.58,6.64-6.39,14.36-6.16,22a46.68,46.68,0,0,0,1.17,10.34,24.62,24.62,0,0,0,1.19,4,45.53,45.53,0,0,0,3.62,5.89,45.34,45.34,0,0,0,2.61,3.86,25.2,25.2,0,0,0,2.78,2.75,43.38,43.38,0,0,0,7.92,5.81c9.41,5.24,20.49,9.43,31.45,7.79a28.13,28.13,0,0,0,4.54-1.11l3.74-1.83,3.17-2.45a25.36,25.36,0,0,0,4.12-7.51,27.71,27.71,0,0,0,1.67-7.53,29.7,29.7,0,0,0,.06-8.08,43.6,43.6,0,0,0-1.78-6.22,63.54,63.54,0,0,0-2.47-5.92,58.54,58.54,0,0,0-7.4-11.55c-5.44-6.89-12.73-12.32-20.25-16.72a88.14,88.14,0,0,0-12.19-5.72A86.9,86.9,0,0,0,812,189.5c-18.51-2.52-37.64.35-55.59,5-13.45,3.45-26.72,7.68-39.84,12.2-5.4,1.86-10.77,3.82-16.15,5.72A139.39,139.39,0,0,1,682,218l-7,1a52.26,52.26,0,0,1-13.88,1.11c-7.07-.54-15.14-2-21.2-5.39-16.11-8.91-26.33-22.36-29.48-44.67a78.39,78.39,0,0,1,2.19-33.56c3.19-10.79,7.79-20.95,12.41-31.18s9.4-21.63,9.29-33.23A57.09,57.09,0,0,0,629.69,49C619.93,27,597.62,13.31,575.14,7.26A88.23,88.23,0,0,0,551.07,4.4c-7,.09-13.8,1.89-20.41,4.14C519.37,12.39,509,18.72,499.58,26a132.17,132.17,0,0,0-20.19,19.47A198.55,198.55,0,0,0,458.26,76c-17.5,31.14-26.5,65.95-36.56,100-10.42,35.24-21.93,70.63-43,101.2s-47.83,56.28-77.39,78.51c-13.59,10.22-27.74,20.49-43,28.12-6.7,3.35-13.27,6.94-20.08,10.07-11.4,5.24-23.88,10.88-30.87,21.8a34.3,34.3,0,0,0-5.63,17.7,17.37,17.37,0,0,0,2.65,10.86c.95,1.82,1.92,3.63,3,5.39a18.9,18.9,0,0,0,3,3.56c1.54,1.57,3.05,3.16,4.67,4.65a18.86,18.86,0,0,0,4.11,2.64c7.81,4.17,17,4.9,25.65,4.41a53.6,53.6,0,0,0,13.38-2.55c5-1.62,10.56-4.48,13.78-8.8,9.22-12.36,11.88-27.75,10.89-42.9a156.22,156.22,0,0,0-5.17-29.11c-3.18-12.23-7.19-24.27-11.36-36.2-8-23-17-45.71-28.18-67.36-6.69-12.9-14.42-25.68-23.82-36.81-9.19-10.88-19.88-21.11-32.61-27.77a98.22,98.22,0,0,0-21.59-8.3c-14.19-3.58-28.79-4.11-43.34-4.86-16-.82-32.06-1.81-47.59-5.85a102.39,102.39,0,0,1-12.87-4.15c-23.82-9.69-52.13-29.54-49.29-61,.13-1.47-2.52.16-3,.39C3.07,130.17.3,131.16.26,132.58Z"/><path class="cls-1" d="M5.26,135.45A29.42,29.42,0,0,0,6.14,146a47.66,47.66,0,0,0,4.36,11.12,68.9,68.9,0,0,0,12,15.59C33.89,184,48.46,192.35,63.63,197.29c20.92,6.82,43.06,7.15,64.78,8.74,9.71.71,19.44,1.49,29,3.62a92.73,92.73,0,0,1,32.79,13.94l-.69-.49,7.54,5.53-.66-.52,7.06,6.05-.64-.55a133.62,133.62,0,0,1,11.66,12.28q4.18,4.91,7.84,10.21a267.12,267.12,0,0,1,16.53,27l-.4-.73,4.49,8.79-.37-.75c5.4,11.36,10.46,22.83,15,34.56,5,13,9.57,26.14,13.89,39.37,2.87,8.81,5.45,17.75,7.61,26.77,1,4.32,1.93,8.66,2.63,13.06a142.22,142.22,0,0,1,1.49,16.1v-.83l-.16,7.1,0-.83c-.61,6-1.31,12-3.49,17.72l-2.31,5.43a50.74,50.74,0,0,1-6.47,10l9.48-9.25-11,10.21,17.27-13.32-26,18.45L281.41,454,252.59,467l22.25-6.57-30.6,7.34,22.83-2.25-31.26,1.81,12.39.76-14.5-1.31,10.22,1.72-14.24-2.53,10,2.58-13.89-3.75,9.71,3.44-13.39-4.93,9.31,4.26-12.78-6.13,17.65,10.44-25.18-16.37L228,470.2,207.3,449.05,220.59,467l-14.74-25.43L214.29,462l-7.52-22.63,4.82,19.29-4.31-23.54L209.38,455l-1.07-24.25-.73,19.8L210,426.68l-3.53,19.71L212.18,423,206,441.86l8.89-22.36L206,437.56l16.36-26-14.61,17,22.34-22.26-9.88,7.48A122.74,122.74,0,0,1,237.55,402q4.62-2.88,9.48-5.31,6.52-3.39,13.13-6.62c2.93-1.44,5.94-2.76,8.84-4.25a66.73,66.73,0,0,0,11.18-7l10.63-7.13C332.28,343.4,370.38,308,395.06,263.84c25.44-45.53,34.19-97.52,51.82-146.12,6.07-16.74,13.47-33,23.06-48.06a164.61,164.61,0,0,1,16.26-21.75l6.07-6.47a128.12,128.12,0,0,1,13.12-11.51l-.67.47L512.44,25l-.69.44,8.06-4.81-.72.41,8.4-4.15-.74.36c7.09-2.78,14.08-5.7,21.76-6.22a94.4,94.4,0,0,1,11.27-.07,90.6,90.6,0,0,1,30.51,7.44,86.66,86.66,0,0,1,23.93,15,69.65,69.65,0,0,1,9.3,10c7.74,10.32,10.65,20.57,10.82,34.83l.35-6.87a56.43,56.43,0,0,1-4.57,22.77,72.14,72.14,0,0,1-6.29,18.3c-2.63,5.78-5.4,11.52-7.72,17.42-3.47,8.79-6.63,17.81-7.4,27.28A74.75,74.75,0,0,0,612.89,188c4,11.44,11.87,22.28,22.4,28.51a52.06,52.06,0,0,0,19.22,7.07l7.09.77a74.38,74.38,0,0,0,10.64-.43c12.22-1.08,23.85-5,35.47-8.66,10.41-3.31,20.85-6.64,31.33-9.72,9.83-2.89,19.85-5.69,29.93-7.58,9.58-1.8,19.32-3.29,29.09-3.33l9.53.19a95.69,95.69,0,0,1,13.1,2.12l-.82-.21,7.24,1.93-.81-.24,7.06,2.4-.8-.28c8.05,3.39,15.66,7.18,22.49,12.74a65.18,65.18,0,0,1,9,8.81,56.34,56.34,0,0,1,11.34,22l-2.48-13.4,2.36,15.22-.92-11.23,1,15.35.43-22.51-2,32.68,4.76-24-9.23,30.16,9.78-21.85-12,22,11.43-18.42L864,268,879,250.19,855.38,271,874,257.91l-20.82,11.94,18.56-9.2-22.29,9.08,19.29-6.49-23.13,6.11,20-3.89-23.81,3.2L862,267.31l-23.93.39,20.22,1.12-29.49-4.23,21.36,6-27.82-10.38,19.52,10.42-24.73-16,18.08,15.91-22.44-26.4,10.57,19.43-11.94-29.09,5.12,21.33-3.84-30.88-.53,22,3.74-31.19L811.15,233l6.36-19.81-6.16,14.71,8.52-19.09L815,217.72l7.58-13.07L816.69,213q28.39-37,68-37.41,6.7-.14,13.39.27t13.4,1.23q9,1.34,18.16,2.06l-.82-.1c21.89,2.87,43.79,6.53,66,5.08a136.72,136.72,0,0,0,28.86-5.5,161.55,161.55,0,0,0,32.65-13.86,190.21,190.21,0,0,0,48.64-38.15A186.73,186.73,0,0,0,1124,102a136.37,136.37,0,0,0,8-13.43,174.9,174.9,0,0,0,8.75-19,4.61,4.61,0,0,0-3-.15q-5.52.65-11,1.51t-11,1.82a4.61,4.61,0,0,0-2.82,1,196,196,0,0,1-11.87,19.73,163.61,163.61,0,0,1-11.41,14.47,171.92,171.92,0,0,1-31,27.56c-22.69,15.69-49.54,26.31-77.06,29.12-47.18,4.83-99.41-11.1-142.68,14.68a68.34,68.34,0,0,0-20.22,18,59.18,59.18,0,0,0-10.86,35.82A47.07,47.07,0,0,0,809,241.5c1.32,5.95,1.46,4,7,12.71q3.2,5.48,6.84,10.66a2.45,2.45,0,0,0,1.2,1.25,35.83,35.83,0,0,0,3.56,2,36.29,36.29,0,0,0,3.75,1.69c14.82,5.35,9.83.32,40.59-5.22a4.6,4.6,0,0,0,1.47-2.62q1.88-5.22,3.56-10.51t3.25-10.61a4.6,4.6,0,0,0,.34-3,51.35,51.35,0,0,0-2.21-8.85A49.79,49.79,0,0,0,873,218.77a83.89,83.89,0,0,0-7.93-10.33,80.79,80.79,0,0,0-16.39-13.7c-15.34-9.74-32.87-14.37-50.82-16-24.62-2.29-49.12,2.84-72.94,8.6q-9.71,2.35-19.36,5l-10,2.84-10.06,2.54-2,0a27.91,27.91,0,0,0-6.54.63,79.69,79.69,0,0,1-9.13.54c-2.23-.05-4.46-.24-6.68-.44a40.17,40.17,0,0,1-8.58-1.83,17.76,17.76,0,0,1-7.22-3.81,31.43,31.43,0,0,0-2.76-2.44,18,18,0,0,1-4.27-4.54c-6.44-8.62-8.9-19.25-9.66-29.83a104.36,104.36,0,0,1,.81-20.3c1.2-9.56,4.13-18.92,6.45-28.25,4.55-18.32,8.09-38.3,1.54-56.65a65.51,65.51,0,0,0-13.93-22.91,84.46,84.46,0,0,0-16.93-13.46,93,93,0,0,0-25.86-11,99,99,0,0,0-47.59-1c-21.37,5-40.07,17.37-55.72,32.41a170.67,170.67,0,0,0-23.75,29,264.76,264.76,0,0,0-16.56,29c-4.87,9.91-9.19,20.1-13.29,30.35-3.37,8.42-6.21,17.13-9.13,25.72-3.65,10.74-7.09,21.55-10.66,32.31-6.35,19.14-13,38.27-21.53,56.57a260.12,260.12,0,0,1-30.38,49.75C329.76,316.44,302,340.43,273,362.62c-6.92,5.31-14,10.46-21,15.66l-10.79,8a44.27,44.27,0,0,0-5.9,4.32A122.43,122.43,0,0,0,218,407.41a73.35,73.35,0,0,0-8.93,13.28,47.28,47.28,0,0,0-1.92,4.66c-3.38,9.06-1.44,8.18-.52,23.38a3.94,3.94,0,0,0,1.1,2.53q2.82,4.21,5.83,8.3t6.08,8.11a3.94,3.94,0,0,0,2.06,1.83,43.81,43.81,0,0,0,12.11,3.8,52,52,0,0,0,15.53-.13,56.44,56.44,0,0,0,28.08-12.68,45.56,45.56,0,0,0,9.53-11.17,67.7,67.7,0,0,0,6.28-15.1c3.86-12.82,3.84-27,1.84-40.13-2.11-13.88-6.13-27.23-10.57-40.52-2.44-7.31-4.93-14.5-7.77-21.68-3.56-9-7.32-17.95-11.36-26.75-8.13-17.69-17.38-35-28.54-51-10.73-15.38-23.3-29.68-38.14-41.21a149.21,149.21,0,0,0-23.22-14.72,136.77,136.77,0,0,0-26.27-9.9c-17.89-5-36.68-6-54.95-8.91a144.61,144.61,0,0,1-26-6.24,79.36,79.36,0,0,1-13.57-6.52c-9-5.31-17.57-13-22.92-22.11a39.77,39.77,0,0,1-4.93-12.25,21.77,21.77,0,0,1-.67-6.26,30.7,30.7,0,0,1,.54-8.78,4.61,4.61,0,0,0-2.63,1.45q-4.36,3.44-8.58,7.06t-8.38,7.3A4.61,4.61,0,0,0,5.26,135.45Z"/><path class="cls-1" d="M1.77,133.81a20.8,20.8,0,0,0,.59,7.72,37.33,37.33,0,0,0,2.37,8.29A61.63,61.63,0,0,0,13,163.63,91.71,91.71,0,0,0,42.64,188a122.17,122.17,0,0,0,16.09,7.09,125.23,125.23,0,0,0,16.49,4.47c20.56,4.31,41.68,4.36,62.55,5.87l-.48,0a165.55,165.55,0,0,1,23.54,3.88,90.27,90.27,0,0,1,20.9,8.18c12.37,6.81,23,16.58,31.88,27.46A203.92,203.92,0,0,1,237,281.54a418.63,418.63,0,0,1,18.38,41.77c5.45,14.36,10.7,28.9,15.09,43.62,2.84,9.51,5.55,19.08,7.5,28.82,2.1,10.48,3.25,21.18,2,31.84a59.26,59.26,0,0,1-3.42,14.58c-3,7.87-7.43,14.34-15.06,18.84l5.59-2.59-9.37,4.1,5.87-2-9.9,3.15,6.15-1.47-10.27,2.2,6.32-.89-39-4.84,6.13,3.59-9.47-5.79,9.27,6.66-12.2-9.17,8.69,7.46L208.06,451l10,10.53-12-13.71L215,459.27l-10.43-15,7.74,12.33-8.58-16.08,6.26,13-5.42-14.26,3.61,10.83-3.52-14.93,2.23,11-1.54-15.31.82,11.07.36-11.52-.43,6.81,1.84-11.06-1.27,6.62,3.24-10.56-2.06,6.22,4.48-9.9-2.81,5.82,5.69-9.25-3.42,5.29,6.61-8.52-4,4.77,10-10.35-6.86,6.78,10.82-9.37-7.44,6,17.76-12.07-5,3c9.14-5,18.38-9.58,27.83-13.94l8.31-3.79q10.94-6.56,21.45-13.8c25.14-17.22,48.86-36.83,69.29-59.5a265.49,265.49,0,0,0,44.91-67.85c7.95-17.49,14-35.78,19.52-54.14,5.48-18.09,10.53-36.3,16-54.38l-.17.52c3.83-11.68,7.61-23.43,12.5-34.72,3.09-7.13,6.43-14.13,10.17-20.95A176.12,176.12,0,0,1,489.7,41.37a137.47,137.47,0,0,1,16.11-14.55,81.41,81.41,0,0,1,10.69-7A76.71,76.71,0,0,1,527.81,14L548.3,8.37a54.77,54.77,0,0,1,8.4-.08,85,85,0,0,1,14,1.75c25.93,5.47,53.88,24,60.77,50.7,2.54,9.86,1.26,20.47-1.76,30C625.9,103,619.26,114,614,125.63c-3.83,8.52-7.45,17.7-8.49,27.07-2.17,19.49,3.63,40,17.07,54.46a36.79,36.79,0,0,0,7.43,6.29,42.53,42.53,0,0,0,8.79,5.19,61.57,61.57,0,0,0,17.34,4.55c12.05,1.45,24.28-.72,35.84-4.12,15.68-4.6,31-10.42,46.67-15.08,16.18-4.81,32.51-9,49.36-10.63a96.81,96.81,0,0,1,14.32-.42,52.68,52.68,0,0,1,11.23.92,112.83,112.83,0,0,1,12.86,3,79.6,79.6,0,0,1,17.9,7.85l5.4,3.47q19.13,13.35,24.2,34.09l-.61-5.07.84,9.17-.07-5.09-.06,9.25.46-5.09-1.14,9.12,1.7-8-3,11.91,2.59-7.83L870.17,262l4.75-9.53-6.29,10.36,4.86-6.91-7.84,9.19,5.9-6.21-9.2,7.8,6.81-5.28-10.45,6.35,7.72-4.3-11.52,4.86,8.37-3.17-12.34,3.29,9-2-13,1.76,9.34-.88-13.37.24,9.67.27L839,266.65,848.8,268l-13.65-2.63,9.83,2.48-16.11-4.72,12.26,4.29-15.84-6.37,9.64,4.34L822,258.8l9.31,5.32L819,256.18l11.16,8.06-13.83-10.91,10.42,9.18L814,250.13l9.6,10.31-11.41-13.72,8.5,11.27-9.83-15,7.3,12.21-8.05-16,5.79,13.16L810.37,237l3.3,10.73L810,232l2.09,10.92-1.75-15.7.82,10.91.06-15.7-.41,10.87,1.77-15.52L811,228.34l3.4-15.16-2.75,10.26,4.94-14.65-3.75,9.74,6.29-14-4.69,9.22L822,200.45,816.51,209l10.14-14.61-6,8.08L830.23,191l-6.65,7.37,10.49-10.53-7.22,6.66,11.24-9.43L830.44,191l11.92-8.3-8.06,5.09,12.29-7-5.31,2.76,11.4-5.43L844,181.5l14.83-5.41-5.5,1.69,11.81-3.15-5.54,1.14,25.06-2.86,6.62.12c4.43.17,8.87.52,13.27,1l14.2,2,10.64,1.25c7,.91,14.06,2,21.1,3,14.43,1.91,29.08,3.35,43.64,2.22a135.56,135.56,0,0,0,24.55-4.33c26.61-7.11,51.12-21.14,71.74-39.28a192.44,192.44,0,0,0,28.33-31,184.8,184.8,0,0,0,11.46-17.71,90.31,90.31,0,0,0,5-9.35,133.1,133.1,0,0,0,6.47-14.55,1.69,1.69,0,0,0-1.67-.1q-2.88.7-5.69,1.61t-5.6,1.92a1.69,1.69,0,0,0-1.32,1,166.12,166.12,0,0,1-8.94,17.59,172.83,172.83,0,0,1-10.91,16.4,180.28,180.28,0,0,1-26.93,28.7,181.87,181.87,0,0,1-32.43,22.22,174,174,0,0,1-17.73,8.26,163.32,163.32,0,0,1-18.4,6.11l.48-.12-9.84,2.3.48-.1a96.27,96.27,0,0,1-14,2,137.33,137.33,0,0,1-15.7.77c-11,0-21.95-1-32.85-2-16.68-1.59-33.49-3.44-50.28-3.16a122,122,0,0,0-24.27,2.45,93.35,93.35,0,0,0-12.24,3.36,68.08,68.08,0,0,0-13,6c-15,9.63-27.69,24.23-31.83,41.66a35.27,35.27,0,0,0-.32,15.17,46.06,46.06,0,0,0,3.1,8c1.78,4,3.36,7.71,6.53,10.82q2.68,2.17,5.49,4.16l3.3,2.34c6.14,4.22,12.55,6,20.69,6.69a38.73,38.73,0,0,0,10.61-.32c2.78-.53,5.48-1.13,7.55-3.14q1.55-1.48,3-3.08l3.76-4a23.21,23.21,0,0,0,2.42-5.75,25.06,25.06,0,0,0,1.66-6,32.46,32.46,0,0,0,0-5.88,45.82,45.82,0,0,0-5.66-17.1,62.89,62.89,0,0,0-12.14-15.42A76.3,76.3,0,0,0,842.68,198a105.87,105.87,0,0,0-32.5-10.82c-17.35-2.91-35.42-.88-52.51,2.78-20.8,4.46-41.08,10.9-61.21,17.71l.46-.13c-5.53,1.12-11,2.66-16.5,3.73a74,74,0,0,1-18.12,1.29,36,36,0,0,1-9.19-1.42,41,41,0,0,1-9.16-3q-3-2-5.92-4.17a30.82,30.82,0,0,1-6.19-5.43A57.39,57.39,0,0,1,618.56,170c-1.8-10.6-1.36-21,.28-31.59l-.12.52c2.12-8.44,4.73-16.67,7.62-24.88,2.8-8,5.79-16,7.72-24.22,2.07-8.85,3-18.06,1.42-27.05a57.41,57.41,0,0,0-7.76-20.55C619.55,29,606.39,19.21,592.28,13a98.67,98.67,0,0,0-23.12-7,84.66,84.66,0,0,0-27.24-.64,90,90,0,0,0-28.15,9.75A126.61,126.61,0,0,0,485,36.47c-17.77,17.36-31.12,39.1-41.25,61.65-13,29-21.16,59.79-30.71,90-5.57,17.62-11.61,35.09-19.28,51.92a255.62,255.62,0,0,1-12.57,24.15,122.52,122.52,0,0,1-7,11.08,194.18,194.18,0,0,1-11.36,15.88l.33-.41-8.54,10.46.34-.4-9,10.08.35-.39Q337.5,320,328,328.84T308.42,345.9c-10,8.22-20.36,16-30.9,23.51q-10.6,7.57-21.62,14.53-4.09,2.24-8.05,4.71c-4.32,2.66-8.57,5.42-12.73,8.32q-2.91,2-5.71,4.13-3.7,2-7.28,4.23a54.62,54.62,0,0,0-11,9,34.31,34.31,0,0,0-8.41,16.83c-.72,4-1.1,8.46.28,12.39a17.4,17.4,0,0,0,2.05,4q2.21,3.67,4.55,7.25c4.73,7,7.6,7.74,18.77,12.31,4.22,1.73,9.59,1.83,14.1,1.6a60,60,0,0,0,13-2c9.91-2.73,18.8-8.16,24.29-17,7.82-12.63,9.47-28.46,8.29-42.94-1.28-15.76-5.95-30.93-10.64-45.94a500.08,500.08,0,0,0-22.64-58.59c-8.95-19.56-19.31-38.69-32.51-55.74-12.61-16.27-28-30.69-46.73-39.68a112.3,112.3,0,0,0-26.27-8.65c-9.55-1.94-19.3-2.8-29-3.63-20.22-1.73-41.4-2.68-60.34-10.71-12.31-5.23-23.66-12.63-32.46-22.8A55.25,55.25,0,0,1,17,144.06a38.17,38.17,0,0,1-2.22-9.63,29.92,29.92,0,0,1,.22-9.12,1.81,1.81,0,0,0-1.71.39q-2.71,1.52-5.3,3.22t-5.13,3.49A1.81,1.81,0,0,0,1.77,133.81Z"/><path class="cls-1" d="M1.16,131.86a33.92,33.92,0,0,0,.13,11.66,23,23,0,0,0,2.3,6.3c3.78,8.55,9.74,16,16.52,22.38a110.17,110.17,0,0,0,37.38,22.48c20.34,7.45,42.28,8.6,63.69,9.58,13.21.6,26.66.93,39.61,3.89a89,89,0,0,1,38.34,19.31c17.3,14.74,29.48,34.77,39.42,54.95,9.39,19,16.91,39,23.74,59.07,3.69,10.85,7.28,21.76,10.37,32.8a233.78,233.78,0,0,1,6,25.77c1.94,12.07,2.48,24.78-1.18,36.57-2.61,8.42-7.34,17-15.06,21.8l1.86-1-17.2,4.44,2.69-.17a52.31,52.31,0,0,1-37.12-10.11l3.23,2.81-6-5.47,4.8,5.17-7.13-8.22,4.49,5.8-5.18-7.51,3.84,6.51-5.23-10,3.27,7.08-4.06-10.85,2.55,7.52-2-8.65,1,5q-2-16.54,9.9-28.91l3.45-3.36c5.29-4.85,11.71-8.53,17.88-12.11,10.13-5.89,21.25-10.22,32-14.87a43,43,0,0,0,9.78-5.25q8.42-4.93,16.43-10.49A387.1,387.1,0,0,0,355.8,316a293.22,293.22,0,0,0,25.87-30.28,240.86,240.86,0,0,0,21.47-34.48c13-25.91,21.59-53.51,29.55-81.31,3.9-13.61,7.6-27.28,11.89-40.77,3.73-11.72,7.56-23.45,12.47-34.74,6.73-15.51,14.82-30.34,25.1-43.8s23-25.68,38-34.15a75.28,75.28,0,0,1,11.44-5.62,94.55,94.55,0,0,1,16.38-5l-3.34.47,8.78-.9-3.27.2L602,19.76l4.73,3.18a79.85,79.85,0,0,1,10.47,9,34.46,34.46,0,0,1,3.65,4q10.68,11.63,4.56,30.31,9.48,18.7,0,33.93-2,4.27-4.31,8.37c-7.37,13.46-15.29,27.66-17.19,43.17a70.57,70.57,0,0,0,3.89,31.91A63.61,63.61,0,0,0,622.93,208a55.66,55.66,0,0,0,11,8.37l6.57,3.28a38.67,38.67,0,0,0,11,3.19,78.39,78.39,0,0,0,27,.07c9.52-1.55,18.77-4.56,27.83-7.8,12.34-4.4,24.78-8.61,37.3-12.47,6.62-2,13.28-3.95,20-5.64q7.28-1.89,14.7-3.06a77.48,77.48,0,0,1,14.21-1.6,63.5,63.5,0,0,1,14.09-.6,37.66,37.66,0,0,1,8,.61,83.81,83.81,0,0,1,13,2.89A85.63,85.63,0,0,1,843,201.44l5.54,3.23L866.28,221l9.22,24.82L875,250l-7.2,13.29-3.48,1.83a25.52,25.52,0,0,1-9.53,1.68c-6.09.11-12.19-1.45-18-3.13l2.63.88-24.92-18.23,4,5.72-5.66-9.11,3.54,6.33-4.72-10,3,6.92L811,235.63l2.2,7.62-2.1-9.86.89,4.94-.55-14.84-.09,5,12.5-31.86-2.68,4,6-7.86-3,3.67,6.55-7.26-3.16,3.33,7-6.65-3.34,3,7.45-5.91-3.46,2.6,7.81-5.19-3.54,2.23,14-7.1L850,176.94l10-3.56-3.56,1.08,10.11-2.62-3.46.72a168,168,0,0,1,60.1,1.89q10.56,1.42,21.07,3.12c10.65,1.65,21.3,3.27,32.05,4.06a138,138,0,0,0,32.27-1.24,148.65,148.65,0,0,0,33.67-10,188.47,188.47,0,0,0,60.25-41,193.4,193.4,0,0,0,23.64-28.64A186.63,186.63,0,0,0,1137,82.41a180.21,180.21,0,0,0,8.7-19.58c.58-1.43-2.5-.1-2.56-.07q-2.1.8-4.13,1.75a5,5,0,0,0-2,1.25c-2.65,6.29-5.29,12.42-8.42,18.48a167.39,167.39,0,0,1-13.46,21.46,186.33,186.33,0,0,1-27.24,30c-22.27,19.77-49.42,34.64-78.76,40.48a134.17,134.17,0,0,1-35.85,2.22c-7.28-.49-14.54-1.3-21.77-2.27-13.14-1.77-26.26-3.66-39.41-5.41-12.26-1.63-24.8-2.7-37.17-1.66a76.49,76.49,0,0,0-13.35,2.19,112.39,112.39,0,0,0-15.8,5.61c-12.28,5.35-22.71,15.52-29.56,26.93-3.56,5.94-6.41,12.7-7.15,19.64a48.47,48.47,0,0,0,1.48,17.61,11.09,11.09,0,0,0,1.09,2.59c1.92,3.79,3,5.79,5.54,8.68,5.47,6.16,13,10.5,20.53,13.55a48.19,48.19,0,0,0,16.64,3.58,25.39,25.39,0,0,0,10.79-2.06c2.09-.9,4.41-1.8,5.81-3.71a32.91,32.91,0,0,0,6.17-17.87c.25-3.64-.35-5.73-1.48-9.6a53.42,53.42,0,0,0-7.35-15A70.28,70.28,0,0,0,840.78,198a99.19,99.19,0,0,0-26.19-8.42,94,94,0,0,0-16.55-1,152.49,152.49,0,0,0-19.93,1.77c-13.24,2-26.17,5.59-38.95,9.51-12,3.66-23.83,7.72-35.58,12-12.07,4.37-24.17,8.1-37.16,8.5a65.13,65.13,0,0,1-14.64-1.25,31.89,31.89,0,0,1-10.17-3.17,45.12,45.12,0,0,1-8.81-5.14,50.76,50.76,0,0,1-9.49-8.66l-2.08-2.39a39.56,39.56,0,0,1-8-19l-4.63-13.88a71.22,71.22,0,0,1-.42-8.6,62,62,0,0,1,1.22-13.18,114,114,0,0,1,8.14-23.92c1.74-3.81,3.59-7.56,5.43-11.32,2.57-5.25,5.51-10.66,7.48-16.18a111.68,111.68,0,0,0,3.64-11.8,47.39,47.39,0,0,0,1.21-11.17,52.24,52.24,0,0,0-.95-10.78,61.11,61.11,0,0,0-5.13-14.31c-6.35-13-18.39-22.94-30.87-29.8A101.78,101.78,0,0,0,574,6.38a94.06,94.06,0,0,0-12.84-2.11c-12.76-1.42-25.5,1.64-37,7.05-19.55,9.18-35.71,23.42-48.83,40.46-43.88,57-47,132.64-78.06,195.82-16.48,33.56-40.67,62.75-68.83,87.22a447.28,447.28,0,0,1-40.88,31.7c-6.92,4.73-14,9.71-21.36,13.62-4.17,2.2-8.46,4.19-12.67,6.32-12.19,6.16-25.64,10.64-36.58,19C207.06,413,201,426,203.25,438.39c.52,2.83,2.15,5.54,3.47,8.07,1.49,2.86,3.86,5.28,6,7.63a20.26,20.26,0,0,0,6.1,4.62,47,47,0,0,0,8.39,3.25,56.23,56.23,0,0,0,31.84-.59,34.32,34.32,0,0,0,7.66-3.56c.83-.54,2-1.41,2.89-2.13a50.67,50.67,0,0,0,6.85-9.78l2.5-5.39c3.13-7.47,4.15-15.89,4.19-23.94A118.8,118.8,0,0,0,280,390.26c-2.6-11.65-6.07-23.11-9.81-34.44-4.33-13.09-8.86-26.12-13.87-39-10.29-26.37-22.46-52.48-40.15-74.77a115.58,115.58,0,0,0-32-28c-10.62-6.21-22.89-9.6-35-11.35-16.72-2.42-33.68-1.89-50.47-3.48-7.07-.67-13.93-1.63-20.93-3A114.56,114.56,0,0,1,58.2,191c-14.34-5.48-27.57-13.57-38.07-24.77a61.76,61.76,0,0,1-9.85-13.52L7.57,147a28.62,28.62,0,0,1-1.07-17.34c.16-1.14-1.42-.39-1.79-.22C4,129.78,1.23,130.88,1.16,131.86Z"/><path class="cls-1" d="M3.28,137.6a29.64,29.64,0,0,0,.84,10.69,48,48,0,0,0,4.49,11.23,71.32,71.32,0,0,0,12.31,15.72c12.17,12.2,28.44,20.77,44.94,25.34A180.75,180.75,0,0,0,96.59,206c12,1.17,24,1.44,36,2.35,11.12.84,22.26,2.14,32.93,5.56A90.35,90.35,0,0,1,182,221.08a98.69,98.69,0,0,1,14.19,9.63l-.61-.5,7,6.09-.59-.53,6.55,6.56-.56-.57a200.22,200.22,0,0,1,13.4,16.68c4.39,6.22,8.25,12.66,12.11,19.23l-.4-.69,4.64,8.58-.37-.71c6.28,12.55,12.06,25.29,17.18,38.36s9.71,26.12,14,39.36c3,9.21,5.82,18.48,8.17,27.88,1.35,5.39,2.5,10.82,3.35,16.31a140,140,0,0,1,1.41,16.08V422l-.2,7.06,0-.81a76.73,76.73,0,0,1-2.76,14.81,26.71,26.71,0,0,1-2.07,5.52,42.17,42.17,0,0,1-7.77,12.52L285.79,445l-23.69,20.46L277.48,455,260.09,465.7l18.08-9.58-25.89,11.75L267.33,463l-19.17,5.45,15.3-3.43L244,468.76l15.28-2-19.49,2,15.28-.68-19.42.37,15.05.62-19.18-1.23,14.84,1.88-18.81-2.8L242,470l-18.29-4.33,14,4.26-17.61-5.83,13.38,5.38-16.78-7.31,12.75,6.49-15.76-8.74,14.89,9.63L211,457.29l13.76,10.95-15.93-13.86,12.27,12.13-14-15.4,10.73,13.32L206,447.63l8.79,14.23-9.36-18L212.27,459l-6.76-19.09L210,455.46l-3.91-19.81,2.19,16-1.05-20.34L207,447.18l2-19.94-2.56,15.7,4.81-19.38-4.82,14.95,7.55-18.4-7.06,14.22L217,417l-9,13,12.35-16-10.86,11.81L224,411.16l-9.69,8.32A100.29,100.29,0,0,1,236.77,403q4.56-2.76,9.34-5.12c3.64-1.87,7.3-3.69,11-5.49s7.15-3.28,10.64-5.08a48.39,48.39,0,0,0,6-3.76q8.16-5.07,16-10.54A415.41,415.41,0,0,0,345.2,327.9q11.78-11.53,22.36-24.16,6.42-7.63,12.05-15.85a191.23,191.23,0,0,0,11-16.77,276.52,276.52,0,0,0,15.64-31.21c4.66-11,8.67-22.18,12.41-33.5,8.84-26.76,15.34-54.25,24.69-80.85,5.66-16.11,12.2-31.73,20.61-46.61A171.3,171.3,0,0,1,479.3,56.17L485,49.27a139.32,139.32,0,0,1,12.48-12.49l-.53.45,7.27-6-.56.43,7.62-5.39-.58.4a137.15,137.15,0,0,1,15-8.19l8-3.12,8.3-2.43c8.31-1.52,17.13-1,25.4.41a92.61,92.61,0,0,1,41.77,18.32,69.93,69.93,0,0,1,16.57,18.37,54.94,54.94,0,0,1,4.63,9.67L622,114.93l-2.69,5.65c-6.53,13.93-12.9,28.65-12.87,44.3s4.83,31.91,15.25,43.85a50,50,0,0,0,9.45,8.52,52.69,52.69,0,0,0,12,6.2c10.11,3.67,21.22,3.9,31.79,2.34,9-1.32,17.66-4,26.24-6.83,12.32-4,24.64-8.08,37.06-11.76,14.6-4.32,29.38-8.1,44.52-9.87a139.34,139.34,0,0,1,19.24-1,37.65,37.65,0,0,1,8.06.53,71.71,71.71,0,0,1,9.83,1.75l-.74-.2,7.17,2-.73-.23,7,2.43-.72-.27,6.78,2.91-.71-.31a81.49,81.49,0,0,1,11.3,6.48,70.26,70.26,0,0,1,9.83,8.14,60.47,60.47,0,0,1,7.93,9.72,55,55,0,0,1,7.45,17.23l-1-6.48,1,8.46L874,237.81l.38,14.85,1.38-21.41-3.28,31.54,5.41-22.87-10.12,29,11.14-22.55-16.74,24.09,14.74-16.86L849.45,273l21-10.53-27,8.56L862,267l-22.34,3.11,18.52-1.74-22.31.63,18.49.4-22.11-1.81,18,2.38-21.58-4.06,17.56,4.29L825.38,264l16.73,6-19.86-8.29,15.91,7.73L819.49,259.2l14.73,9.24L817,256.34l13.54,10.75L815,253.24l12,12-13.56-15.45,10.38,13.29-11.39-16.83,8.44,14.49-9.55-19.16,6.31,15.09-6.78-19.9L815,252.46l-4-20.36,2,15.83-1.27-20.56-.12,16L813,222.79l-2.23,15.65,3.87-20.22-4.29,15.34,6.31-19.75-4.78,11.65,7.17-16-6.23,11.1,8.94-15.22-4.63,6.55A66.6,66.6,0,0,1,830,196q16-15.7,40.62-18.15a129.83,129.83,0,0,1,16.6-1c14,.07,27.75,2.33,41.62,3.79l-.74-.1c21.86,3,43.73,6.67,65.87,5.22a135.24,135.24,0,0,0,28.82-5.55,161.19,161.19,0,0,0,32.6-14A190.68,190.68,0,0,0,1103.89,128a187.37,187.37,0,0,0,19.1-24.65,137,137,0,0,0,8-13.44,175.74,175.74,0,0,0,8.73-19,3.28,3.28,0,0,0-2.46-.33q-4.54.31-9.06.83t-9,1.15a3.28,3.28,0,0,0-2.33.86,159.05,159.05,0,0,1-9.23,16.38,165.72,165.72,0,0,1-11,15.19A182.43,182.43,0,0,1,1077,125.25a172.45,172.45,0,0,1-56.27,33.36,170.08,170.08,0,0,1-27.07,7.24,191.66,191.66,0,0,1-29.4,2.36c-14.84.27-29.65-1.28-44.47-1.82a295,295,0,0,0-29.79.23,131.71,131.71,0,0,0-31.31,5.62,88.82,88.82,0,0,0-15.95,6.69,75.37,75.37,0,0,0-17,12.51,56.39,56.39,0,0,0-10.53,15,53,53,0,0,0-3.19,7.45,69.8,69.8,0,0,0-2.51,10.43q.75,14.54,15.82,24.24,2.4,19.75,16.47,23.81,2,.42,4,.76,12.44-2.61,24.72-6a4.3,4.3,0,0,0,1.52-2.46q1.41-3.5,2.68-7,1.64-4.41,3.16-8.87a37,37,0,0,0,1.86-6.26A49.14,49.14,0,0,0,877.48,231a47.22,47.22,0,0,0-3-6.76A73.64,73.64,0,0,0,853.29,200c-13.31-9.87-29.27-15.37-45.5-18a128.44,128.44,0,0,0-26-1.48,241.55,241.55,0,0,0-44.12,6.57c-11.48,2.68-22.93,5.61-34.25,8.91l-5,1.47-10.33,2.8-4,.23-4.84.79a85.19,85.19,0,0,1-17,.68,44.41,44.41,0,0,1-9.42-1.69,15.39,15.39,0,0,1-4.5-1.67,11.16,11.16,0,0,1-4.91-3.29,42.45,42.45,0,0,1-5-4.41,38.34,38.34,0,0,1-5.26-7.17,53.31,53.31,0,0,1-5.73-15.28,91.34,91.34,0,0,1,.77-38.54c3.29-14,8.31-27.72,10.41-42,2-13.9,1.61-28.28-4.25-41.25a66.14,66.14,0,0,0-4.38-8.2,63.5,63.5,0,0,0-14.21-15.4A96.39,96.39,0,0,0,571.25,3.31a95.45,95.45,0,0,0-43.4,2.57c-20.58,6.18-38.32,19.51-53,34.91a178.69,178.69,0,0,0-22.53,29.79A276.08,276.08,0,0,0,436.72,100q-7.73,16.92-13.9,34.48c-6.08,17.2-11.41,34.65-17.13,52-6.38,19.31-13.32,38.48-22.21,56.79a255.84,255.84,0,0,1-27.41,44.35c-22.31,29-50.06,53.43-79.2,75.4q-7.8,5.88-15.69,11.62t-16.08,11.68l-3.83,2.49a138.32,138.32,0,0,0-15.55,12.91,93.63,93.63,0,0,0-12,13.77,55.82,55.82,0,0,0-3.87,6.39c-6.27,11.91-1.87,13.76-1.06,34.47a3.1,3.1,0,0,0,1.45,1.92q2.34,2,4.77,4,3,2.45,6.08,4.81a25.25,25.25,0,0,0,4.43,3.06A52.55,52.55,0,0,0,236,472.35a55.72,55.72,0,0,0,11.27-.09,57.33,57.33,0,0,0,22.28-7.44,45.36,45.36,0,0,0,16.3-16.34,52.88,52.88,0,0,0,4.82-11.3c.63-2.12,1.29-4.26,1.77-6.42,4.54-20,.67-40.87-4.9-60.28-3.38-11.79-7.39-23.47-11.79-34.92A468.32,468.32,0,0,0,254.14,287c-14.42-27.68-32.65-54.22-57.77-73.24a130.53,130.53,0,0,0-40.59-20.91c-15-4.6-30.58-6.37-46.11-8.23-14.51-1.74-29.23-3.53-43-8.63a80.71,80.71,0,0,1-22.89-13c-6.61-5.39-12.29-11.6-16.26-19.2a36.08,36.08,0,0,1-3.73-10.69l-.41-4.39a30.93,30.93,0,0,1,.51-9,4.38,4.38,0,0,0-2.55,1.43q-4.19,3.39-8.24,7t-8,7.19A4.38,4.38,0,0,0,3.28,137.6Z"/></g></g></svg>
