<svg xmlns="http://www.w3.org/2000/svg" viewBox="0 0 5870.49 3966.32"><defs><style>.cls-1{fill:#bc0100;opacity:0.11;}</style></defs><title>Asset 3</title><g id="Layer_2" data-name="Layer 2"><g id="Layer_1-2" data-name="Layer 1"><path class="cls-1" d="M147.66,3539l21.21-14.12,7.93-10.36,9.52-10.5q7.18-7.75,14.91-14.95A397.64,397.64,0,0,1,243.7,3454c33.1-23.81,69.22-43.23,106.81-58.94,73.23-30.61,152.6-47.15,232-47.23,82.88-.08,165.12,18.08,241.4,50.1a678.64,678.64,0,0,1,108.46,57.31c36.39,23.77,70.88,50.65,102.05,81,13.84,13.47,27.25,27.41,39.83,42.07,12.38,14.43,24,29.43,35.33,44.7s22.42,30.86,33.7,46.25c14.69,20,29.75,39.79,45.52,59,28.67,34.89,60.3,67.53,95.74,95.59a435.53,435.53,0,0,0,123.35,69.78c6.27,2.3,12.18,4.32,18.55,6.38,9.83,3.17,18.16,5.5,28.5,8.24,7.47,2,14.66,3.58,22.52,5.12,13.67,2.67,27.45,5,41.27,6.73,46.93,5.76,94.27,7,141.49,5.82,26.11-.63,52.19-1.83,78.27-3.17,12.54-.65,25.07-1.38,37.61-2,14-.7,28-1.17,42-1.74,61.59-2.5,123.16-5.47,184.66-9.58q91.09-6.09,181.88-16,40.27-4.45,80.45-9.61,20.08-2.61,40.14-5.39c18.59-2.61,37.21-5.15,55.71-8.34,42.64-7.36,85-16.22,126.34-29a564.9,564.9,0,0,0,111.41-47.63,438.89,438.89,0,0,0,58.43-39.89,381.9,381.9,0,0,0,58.72-59.1,388.7,388.7,0,0,0,42.65-65.76,446.47,446.47,0,0,0,34.86-92.52c13.71-52.87,19.08-107.73,19.11-162.27s-4.37-108.84-10.66-162.93c-2.54-21.87-5.33-43.7-8.16-65.53q-2.12-16.35-4.27-32.69c-.81-6.25-1.44-12.21-2.45-18.3-1.14-6.89-2.33-13.77-3.87-20.58a134.61,134.61,0,0,0-12.28-33.07,115.74,115.74,0,0,0-14.73-21.19l-3.64-4.27a102.77,102.77,0,0,0-13.69-12.59l-5.05-4.13a117.76,117.76,0,0,0-18.3-11.5l-6.61-3.62a149.91,149.91,0,0,0-21.92-8.9,229.84,229.84,0,0,0-39.52-10.08c-9.84-1.55-19.7-2.63-29.63-3.35-18.68-1.37-37.46-1.07-56.16-.42-19.24.68-38.48,1.4-57.72,2-18.09.54-36.17,1.14-54.22,2.46-39.46,2.87-78.68,8.78-116.71,19.85-45.38,13.2-89,35.38-122.79,68.82a220.29,220.29,0,0,0-18.88,21.25l-4.46,5.72a160.2,160.2,0,0,0-12.11,18.88,203,203,0,0,0-16.59,35.58,228.71,228.71,0,0,0-8.89,32.37,257.32,257.32,0,0,0,2.51,108.85c2.75,11.79,6.23,21.1,10.42,32.42s9.85,21.83,15.61,32.39c2.84,5.22,6.21,10.23,9.39,15.24s6.82,9.75,10.3,14.53,7.35,9.23,11.09,13.77c3.94,4.78,8.28,9.22,12.48,13.78,3.92,4.24,8.21,8.12,12.33,12.16,8.3,8.13,17.53,15.53,26.67,22.72,8.61,6.77,17.69,13,26.81,19.11,11,7.32,22.39,14,33.95,20.33,17.5,9.62,35.47,18.27,53.82,26.15,20.82,8.93,42,16.83,63.56,23.89,9.83,3.23,19.73,6.29,29.69,9.08s19.77,5.72,29.7,8.71c23.25,7,46.57,13.78,70.09,19.8C2620.2,3574,2673.82,3584.19,2728,3589c82.84,7.32,167.23,2,247.17-21.81a529.14,529.14,0,0,0,70.25-26.44,491.14,491.14,0,0,0,75.39-42.73,567.75,567.75,0,0,0,63-50.77c24.6-23,47.59-47.53,70.66-72,31.93-33.88,64.24-67.91,102.76-94.45,15.87-10.93,33.09-20,50.62-27.88,20.71-9.36,42.45-16.45,64.35-22.45,36.78-10.07,74.74-15.91,112.64-19.73,41.53-4.19,83.28-5.74,125-5.91,87.58-.35,175.08,5.25,262.45,10.7,91,5.68,182.12,11.41,273.36,11.9,49.28.26,98.68-1.08,147.8-5.19,20.19-1.69,40.43-3.69,60.39-7.21,21.11-3.73,42.24-8.5,62.4-15.9a293.81,293.81,0,0,0,30.51-12.83,274.88,274.88,0,0,0,30.37-17.26,320.92,320.92,0,0,0,28.48-21.47c9.3-7.9,18-16.41,26.52-25.17s16.48-18.41,24.14-28.05,14.74-19.92,21.55-30.23,13-21,18.9-31.81a504.3,504.3,0,0,0,23.49-49.66,554.06,554.06,0,0,0,22.8-68.08,562,562,0,0,0,14.9-77,714.26,714.26,0,0,0,2.52-153c-8.38-92.65-34.81-182.67-69.51-268.68-30.32-75.16-66.19-147.86-102.54-220.24-39.64-78.92-80.28-157.57-114.16-239.19-29.58-71.27-54.35-144.84-66-221.31a544.2,544.2,0,0,1-5.87-108,479.08,479.08,0,0,1,5-49.85c1.79-11.66,3.6-23.29,6.14-34.81q3.87-17.57,8.88-34.85c11.28-38.69,26.92-76.11,45.4-111.9a1005,1005,0,0,1,67.6-111.71c49.72-71.64,106.24-138.21,165.33-202.24,65-70.43,133.65-137.29,201.56-204.86,75.88-75.51,152.28-150.49,230.12-224Q5366.24,432,5614.69,227.31,5735.33,128,5859.11,32.62q3.33-1.67.09-3.51a41.3,41.3,0,0,0-15.1-2.22q-14.58-.78-29.17-.77a41.3,41.3,0,0,0-15.2,1.42q-273.07,212.62-530.62,444.13-126.84,114.25-249.55,233Q4959.91,762.3,4901.22,821c-21.69,21.63-43.23,43.39-64.87,65.07-20.4,20.43-40.9,40.75-61.1,61.37-71.62,73.07-141.86,148-204.9,228.67-56.75,72.65-108.22,149.84-146.26,234a664.77,664.77,0,0,0-42.71,126.36c-2.77,12.19-5,24.49-6.89,36.83s-3.6,24.69-4.65,37.14a570.69,570.69,0,0,0-1.89,65.27c2.57,85.63,24.32,169.75,53.89,249.77,34.44,93.21,78.72,182.31,122.41,271.41,23,46.91,45.94,93.88,67.36,141.54q15.34,34.13,29.46,68.78c11.56,28.46,22,57.31,31.79,86.43l-.73-2.18,5.28,16.45-.69-2.2,5,16.53-.65-2.21,4.8,16.62-.61-2.23,4.54,16.7-.57-2.24c7,27.52,13.24,55.12,17.72,83.17a709.73,709.73,0,0,1,8.43,83.28,650.39,650.39,0,0,1-2.21,86c-2.68,28.93-7.06,57.93-14.13,86.13a544.83,544.83,0,0,1-25,76q-4.65,11.25-10.06,22.15-5.17,11.06-11.11,21.72a414.77,414.77,0,0,1-26,41.45,397.16,397.16,0,0,1-25.49,31.76,353.59,353.59,0,0,1-28.63,28.52,220.76,220.76,0,0,1-18.69,14.94,208.59,208.59,0,0,1-19.52,13.37l-13.47,7.74a273.42,273.42,0,0,1-28.28,13l2.22-.82-16.48,6,2.25-.75-16.55,5.14,2.27-.68q-10.62,3.1-21.45,5.32-10.64,2.46-21.43,4.15c-11.88,1.91-23.82,3.43-35.78,4.76-28.62,3.18-57.46,4.68-86.24,5.63-56.8,1.88-113.62,1.17-170.41-.8-113.83-3.95-227.47-13-341.37-15.15-102.43-1.92-206,1-306.31,23.69a607,607,0,0,0-74.64,22c-24.88,9.11-49.38,19.91-72.25,33.36a461.54,461.54,0,0,0-64.74,46.56c-13.33,11.32-26.11,23.46-38.62,35.67-13.63,13.3-27.05,26.81-40.54,40.26l1.7-1.68c-27.41,27-55,54.08-86,77.08a498.87,498.87,0,0,1-45.65,30.68l-15.54,8.82q-15.56,8.45-31.71,15.73l2.18-.94-18.31,7.87,2.2-.87-18.5,7.19,2.23-.81-18.67,6.53,2.25-.74-18.83,5.88,2.26-.68-19,5.24,2.28-.61-19.1,4.62,2.29-.55c-16.9,3.53-33.81,6.77-50.94,9s-34.29,3.69-51.5,4.48a722.1,722.1,0,0,1-112.12-4c-72-8-142.39-25.7-211.3-47.76-26-8.33-52.19-16.41-77.74-26.14a654.84,654.84,0,0,1-75.61-34.18c-52.48-28.06-102.72-65.8-132.34-118.57a208.1,208.1,0,0,1-25.85-85.2,228.79,228.79,0,0,1-.48-23.93,206.36,206.36,0,0,1,1.84-24.11,193.29,193.29,0,0,1,4.71-22.36,92.22,92.22,0,0,1,4.32-14,90.38,90.38,0,0,1,5.22-13.12,180.14,180.14,0,0,1,23.91-39.45,194,194,0,0,1,25.77-26.42c19.74-16.77,42.62-29.59,66.55-39.31,47.48-19.29,99-26.8,150-29.4,12.73-.65,25.48-1,38.22-1.11,13.66-.17,27.34-.06,41-.63,8.63-.36,17.25-1,25.87-1.45l9.42-.5,11.46.15a281.56,281.56,0,0,1,44.24,4.35c6.62,1.23,13.23,2.66,19.71,4.53l13.28,4.37,12.71,5.47a128.37,128.37,0,0,1,16.34,9.78,64.51,64.51,0,0,1,9.41,7.18,62.3,62.3,0,0,1,8.31,7.64,111.53,111.53,0,0,1,19.88,27.08,128.79,128.79,0,0,1,9.8,25.59,175.61,175.61,0,0,1,4.81,24.73c1.1,9,1.5,18,2.52,27,4.71,41.68,9,83.38,12.13,125.21l-.16-2.33,1.22,19.27-.12-2.33c1.19,23.66,2.16,47.31,2.06,71-.09,23.22-1,46.44-3.1,69.56-3.7,40.88-11,81.58-23.78,120.64-12.86,39.3-31.28,76.88-55.95,110.14a362,362,0,0,1-46.24,51.24q-12.36,11.32-25.68,21.5-13.13,10-27,19l2-1.25-16,9.85,2.07-1.19-16.28,9.22,2.1-1.14-16.54,8.63,2.12-1.08-16.77,8.06,2.15-1c-9.88,4.37-19.73,8.65-29.78,12.61s-20.14,7.49-30.32,10.84c-20.23,6.64-40.83,12.33-61.58,17.11-20.51,4.73-41.15,8.76-61.87,12.45q-11.72,2.09-23.45,4.15c-14.51,2.57-29,4.7-43.64,6.69-106,14.4-212.61,24.28-319.41,30.59q-80.76,4.77-161.67,7c-26.36.76-52.73,1.28-79.09,2.17-24.69.83-49.38,1.51-74.08,1.64-50.86.27-102.13-2.05-152.26-11.13-12.53-2.27-25.15-4.89-37.43-8.2s-24.25-6.82-36-11.16a443.3,443.3,0,0,1-70.67-33c-35-20.45-66.65-45.79-95.9-73.8-31.68-30.32-59.92-64.13-87.17-98.41-23.22-29.21-45.67-59-69.85-87.46a678,678,0,0,0-92.55-89.64c-125.39-100.44-286.88-159.12-448.2-152.74-86,3.4-171.06,25.16-248.54,62.5a584.8,584.8,0,0,0-109,67.67,480.38,480.38,0,0,0-48.15,43.51c-6.74,7-13.26,14.25-19.69,21.52l-9.24,10.49q-13.34,17.57-35.62,23.49-3.23,2.35.61,3.45a48.78,48.78,0,0,0,16.59-1.09q15.73-2.39,31.32-5.55A48.78,48.78,0,0,0,147.66,3539Z"/><path class="cls-1" d="M144,3565.38l38.23-11.87q5.69-4.47,6.38-12.6l6.77-10.61q9.84-10.06,20.45-19.3a424.72,424.72,0,0,1,66-47c50.27-29.37,105.49-50.45,162.14-63.63a589.72,589.72,0,0,1,160.68-15,621.68,621.68,0,0,1,177.06,34.91C893.83,3459.64,996.22,3529,1072.87,3620c18.2,21.61,34.44,44.69,50.8,67.69,14.06,19.76,28.19,39.49,43,58.69,42.52,55,91.07,106,149.78,144a440.14,440.14,0,0,0,98.71,47.53,500,500,0,0,0,63.07,16.46c27.2,5.35,54.77,8,82.38,10.09,21.55,1.59,43.31,2,64.91,1.9,39.45-.25,78.81-2,118.19-4.17,19.75-1.1,39.49-2.23,59.25-3.13,21-1,41.93-1.86,62.89-2.84,88.63-4.12,177.18-9.64,265.5-18.2q60.73-5.89,121.28-13.53c38.8-4.9,77.63-10,116.2-16.51,65.19-11,130.3-26.46,190.59-54.21a504.47,504.47,0,0,0,63.29-34.42,414.87,414.87,0,0,0,84.08-71.52,400.67,400.67,0,0,0,65.36-100.22c19.7-43,32-89.15,38.86-135.9,11.94-81.16,8.1-163.66-.49-244.94-4.25-40.18-9.73-80.21-15.14-120.25-3.23-23.93-5.31-48.47-14.31-71.13a132.67,132.67,0,0,0-30.39-45.19c-6.72-6.65-12.39-10.72-20.06-16.32-8.78-6.41-18.37-10.85-28.15-15.43a168,168,0,0,0-17.74-6.69c-16-5.38-33-8.42-49.68-10.26-33.93-3.75-67.95-1.24-101.89.78l1.42-.06c-18.83.27-37.65.26-56.47.94-20.24.74-40.46,2.15-60.59,4.4-37.59,4.21-74.77,11.65-110.52,24.15-28.2,9.86-55.28,23.57-79.33,41.28A237.66,237.66,0,0,0,2186,3092l-4.76,5.7a250.36,250.36,0,0,0-24.71,39.54l-6.64,15a234.15,234.15,0,0,0-10.32,32.56,249.41,249.41,0,0,0-5.72,35.51A283.07,283.07,0,0,0,2133,3258l1.49,19.38a190.09,190.09,0,0,0,4.93,28.24l2.11,9.29a192.91,192.91,0,0,0,9,27l3.44,8.82q2.2,4.7,4.45,9.37c2.94,6.16,5.33,10.72,8.7,16.65q2.46,4.55,5.14,9l9.2,13.93,1.07,1.6,11.13,14.73a313.65,313.65,0,0,0,50,49.77,414.69,414.69,0,0,0,33.82,24.5,549.14,549.14,0,0,0,73.56,40.6,771.41,771.41,0,0,0,98.36,37.06q12.31,3.71,24.73,7c11,2.93,21.87,6.4,32.8,9.61,26.41,7.77,53,15,79.74,21.38,50.46,12,101.86,20.49,153.62,24.17,24.55,1.75,49.12,2.39,73.73,1.76a638.24,638.24,0,0,0,83.35-7.2,603.32,603.32,0,0,0,103-25.24,502.37,502.37,0,0,0,70.84-30.61,533,533,0,0,0,74.9-48.19c22.14-16.94,42.55-36.08,62.22-55.79,21-21,40.8-43.29,61.06-65,16.81-18,33.84-35.88,52-52.54,8.4-7.69,17-15.07,26-22.05a308,308,0,0,1,32.38-22c16.07-9.48,33.3-17.06,50.72-23.69a440.92,440.92,0,0,1,57.87-17.1c36.89-8.5,74.49-13.22,112.2-16.13,39.06-3,78.3-3.68,117.47-3.34,41,.35,82,1.81,123,3.83,180.57,8.87,361.3,28.73,542.19,15.81,23.37-1.67,46.73-3.88,69.86-7.59a409.54,409.54,0,0,0,54.18-12.42c8.39-2.55,16.3-5.49,24.37-8.73l7.84-3.15a204.3,204.3,0,0,0,23.26-11.66l7.72-4.28a197,197,0,0,0,22.67-15.31,229.13,229.13,0,0,0,21.51-17.42l13.67-12.91a377.35,377.35,0,0,0,25.53-28.2A399.59,399.59,0,0,0,4682,3102.1a492.2,492.2,0,0,0,36.16-66.76c21-46.85,35.1-96.44,43.24-147.09,6.06-37.69,8.38-76.07,8.16-114.21A766.14,766.14,0,0,0,4755,2632.35c-8.71-44.8-21.49-88.81-36.53-131.87-14.7-42.07-31.75-83.24-50-123.89-40.34-89.86-87-176.71-130.54-265-39.8-80.79-77.74-163.15-103.5-249.64-23.2-77.91-35.93-159.76-26.43-241a511.43,511.43,0,0,1,31-126.3,675.84,675.84,0,0,1,28.72-63.9c11.1-21.57,23.2-42.5,35.81-63.23l-1,1.54c18.45-29.28,37.9-57.83,58.6-85.57,21-28.19,43.08-55.63,65.83-82.45,44-51.86,90.58-101.47,138.13-150.08q39.1-40,79.05-79.1,43.76-43.14,87.36-86.45,87.91-87.13,177.42-172.61Q5288.66,542,5477,380.64q191.83-164.25,392.19-318.1a2.6,2.6,0,0,0,1-3.35,8.36,8.36,0,0,0-5.45-3.6A92.24,92.24,0,0,0,5853.29,52a8.36,8.36,0,0,0-6.53-.12q-160,123.73-314.89,253.88-147.69,124.35-290.23,254.62Q5092.36,696.72,4949,839.27,4885.68,902,4822.87,965.13c-41.5,41.53-82.52,83.52-122.38,126.63-38.88,42.05-76.65,85.27-112,130.32-33.71,42.92-65.65,87.28-94,134-21.89,36.12-41.77,73.57-58,112.58a605.27,605.27,0,0,0-23.41,67c-7.56,26.6-12.36,54-15.7,81.4-11.6,95.3,7.56,191.74,38.07,281.82,32.52,96,77.92,187.07,123.42,277.41,55.42,110.05,112.41,220,151.36,337.26,21,63.34,35.92,128.93,41.37,195.51a696.78,696.78,0,0,1,.91,101c-.91,14.38-2.15,28.73-3.93,43q-2.11,17-5.28,33.83-3.37,17.94-7.77,35.67l.44-1.78-5,18.68.51-1.76-5.68,18.6.59-1.74q-4.3,13.57-9.5,26.82-3,8.4-6.63,16.58c-5.8,13.83-12.13,27.42-19.16,40.67s-14.88,26.32-23.26,38.92a387.38,387.38,0,0,1-27.1,36.5c-17.49,20.57-36.73,39.48-58.35,55.69a279.46,279.46,0,0,1-36.67,23.51l-15.16,7.45a282.74,282.74,0,0,1-31.17,11.91l1.88-.61q-11.55,3.81-23.39,6.56-11.39,3-23,5.06c-12.36,2.24-24.79,4-37.27,5.45-29.2,3.32-58.56,5.07-87.91,6.33-60.05,2.59-120.25,1.81-180.3-.26-114.63-4-229-13.34-343.7-16.07-52.65-1.25-105.47-1.46-158.08,1.43-50,2.75-100.22,7.82-149.2,18.66-46.86,10.38-93,25.37-134.67,49.46a344.29,344.29,0,0,0-32,21c-13.71,10.1-26.47,21.47-39,33-13.42,12.37-26.27,25.45-39,38.52-14,14.34-27.88,28.74-41.91,43l1.34-1.33c-19.61,19.44-39.28,38.91-60.69,56.39a559.14,559.14,0,0,1-47.81,35.31,504,504,0,0,1-49.64,28.51q-16.71,8.39-34,15.44-17.61,7.11-35.73,12.82l1.89-.57-20.1,6,1.91-.53-20.17,5.31,1.93-.49-20.23,4.64,1.95-.45-18.31,3.59q-13.68,2.53-27.49,4.23c-15.2,2-30.49,3.63-45.8,4.5a750.51,750.51,0,0,1-82,.19c-57-3-113.66-12.09-169.06-25.63-26.11-6.38-52-13.6-77.71-21.46-14.42-4.41-28.76-9.12-43.19-13.52-7.71-2.35-15.42-4.66-23.09-7.13-20.19-6.52-40.18-13.91-59.73-22.16q-12.26-5.17-24.36-10.71c-13-6-25.74-12.57-38.44-19.24l1.81,1-13.93-7.76,1.77,1-13.82-8.18,1.73,1.07c-10.62-6.69-21.15-13.45-31.37-20.76a338.75,338.75,0,0,1-28.12-21.88c-7.76-6.9-15.1-14.21-22.14-21.84a215.44,215.44,0,0,1-15.6-18.85,204.33,204.33,0,0,1-14.25-20.26l1,1.64-9.4-16.05.9,1.68-8.37-16.73.81,1.72-7.23-17.35.71,1.75a255.13,255.13,0,0,1-12.53-49.67,202.47,202.47,0,0,1-2.09-26.21,195,195,0,0,1,.19-25.62l1.62-16.52a160.52,160.52,0,0,1,4.8-23.71,157.11,157.11,0,0,1,6.92-22.39,152.65,152.65,0,0,1,9.26-20.53,150.8,150.8,0,0,1,10.88-18.94l8.2-11.57a158,158,0,0,1,13.48-15.79,161.65,161.65,0,0,1,14.5-14.29,242.71,242.71,0,0,1,31.81-23.77l11.24-6.68q11.35-6.37,23.22-11.71l-1.42.63,13.35-5.72-1.43.59q12-4.87,24.36-8.86t24.91-7.19c12.57-3.22,25.33-5.87,38.12-8.08,30.19-5.21,60.77-7.86,91.35-9.28,13.45-.63,26.91-.86,40.37-1.11q8-.07,16-.42,11.81-.83,23.61-1.73c14-1,28.06-1.78,42.13-1.72a317.77,317.77,0,0,1,31.77,1.6,218.77,218.77,0,0,1,65.84,17l-1.6-.75,15.6,8-1.52-.91,13.88,9-1.43-1,12.09,9.59-1.34-1.16,10.39,10-1.25-1.26a126.86,126.86,0,0,1,14.05,17.55,122.56,122.56,0,0,1,9.46,17.07,149.8,149.8,0,0,1,10,31.68c3.21,15.48,4.72,31.26,6.72,46.92,2.49,19.47,5,38.94,7.3,58.44,5.25,44.12,9.7,88.37,11.54,132.78,1,24.76,1.28,49.56.36,74.32q-.68,18.93-2.33,37.8-1.74,20-4.73,39.83l.26-1.8-3.47,20.81.34-1.79-4.15,20.76-4.6,18.89a445.11,445.11,0,0,1-14.93,46.49q-7,18.39-15.53,36a369.42,369.42,0,0,1-24.09,42.8,402.84,402.84,0,0,1-47.67,59.28,396.94,396.94,0,0,1-33.71,30.47q-6.82,5.76-14.1,10.92-10.53,8-21.68,15.15l1.64-1-16.44,10.22,1.67-1-16.7,9.55,1.7-.93-16.92,8.9,1.73-.89c-10.23,5-20.42,9.82-30.86,14.33-10.26,4.44-20.78,8.48-31.31,12.27a652.26,652.26,0,0,1-63.29,19.24c-43.1,10.73-86.86,18-130.81,24.2-107.33,15.07-215.27,25.56-323.43,32.36-54.61,3.43-109.28,5.76-164,7.65-27.21.94-54.42,1.82-81.62,2.85-25.67,1-51.33,1.84-77,2.21-53.92.76-108.22-1-161.54-9.63-13.44-2.17-27-4.69-40.2-7.91s-26.26-6.62-39-10.93c-12.07-4.07-24.17-8.41-35.85-13.48-13.57-5.89-26.84-12.36-39.78-19.54a476.22,476.22,0,0,1-50-32.1,535.22,535.22,0,0,1-49.75-41.84c-32-30-60.38-63.73-87.31-98.26-22.48-28.83-43.85-58.52-66.73-87a646.83,646.83,0,0,0-87.17-89.22,686.07,686.07,0,0,0-199.36-117.16,643.62,643.62,0,0,0-219.56-42c-81.9-1-163.8,15.49-239.44,46.74a569.14,569.14,0,0,0-107.18,57.9,447.7,447.7,0,0,0-48,38.39l-5.16,4.85q-7.92,7.29-15.36,15.08L170,3536.91a70.27,70.27,0,0,0-3.1,13.34l1.86-2.95-45.36,11.85a3,3,0,0,0-.08,6,49.28,49.28,0,0,0,10.35.92A49.28,49.28,0,0,0,144,3565.38Z"/><path class="cls-1" d="M138.42,3528.56l4.94-11a198.71,198.71,0,0,1,13.63-16.1c7.9-8.7,16.07-17.2,24.7-25.19q10.19-9.44,20.86-18.32c10.59-8.82,21.73-16.87,32.95-24.85l-3.39,2.3,14.77-9.95-3.43,2.23,15-9.57-3.47,2.15,15.22-9.2-3.51,2.07,15.42-8.84-3.55,2,15.62-8.48-3.59,1.91,15.81-8.12-3.62,1.83,16-7.76-3.65,1.75,16.16-7.4-3.68,1.67,16.32-7-3.71,1.58,16.48-6.68-3.74,1.5,16.62-6.31-3.77,1.42,16.76-5.95-3.79,1.33,16.88-5.58-3.81,1.25,17-5.21-3.83,1.16,17.11-4.83-3.85,1.08,17.21-4.45-3.87,1,17.3-4.07-3.88.91,17.38-3.69-3.9.82,17.46-3.3-3.91.73,17.52-2.9-3.92.65,17.57-2.51-3.92.56c13.69-1.64,27.37-3.18,41.15-4q13.75-.79,27.53-1a583.5,583.5,0,0,1,77.46,4A630.68,630.68,0,0,1,717,3344.6q17.71,4.15,35.18,9.23c15.24,4.47,30.22,9.66,45.19,14.95l-3.63-1.29L811,3374l-3.6-1.37,17.13,6.89-3.56-1.45,17,7.27-3.52-1.53,16.84,7.63-3.48-1.61,16.68,8-3.44-1.68,16.51,8.35-3.4-1.76,16.33,8.7-3.36-1.83,16.15,9-3.31-1.91,16,9.39-3.27-2,15.76,9.73-3.22-2.05,15.55,10.07-3.17-2.12,15.33,10.4-3.12-2.19,15.1,10.73-3.07-2.26,14.87,11.05-3-2.32,14.63,11.37-3-2.39,14.38,11.69-2.9-2.45,14.11,12-2.84-2.52,13.85,12.3-2.79-2.58,13.57,12.6-2.72-2.64,13.28,12.9-2.66-2.7,13,13.19-2.6-2.76,12.68,13.47-2.53-2.82,12.37,13.75-2.47-2.87,12,14-2.4-2.93q17.07,20.87,33.58,42.17c10.45,13.55,20.79,27.19,31.3,40.7,21.92,28.19,44.37,56,68.74,82.15,23.89,25.61,49.57,49.58,77.55,70.68a444.36,444.36,0,0,0,113.95,62.73c40.83,15,83.67,23.57,126.84,28.25,49.11,5.32,98.63,5.85,148,4.63,18.89-.47,37.77-1.14,56.66-1.86,23.46-.9,46.93-1.59,70.4-2.33q71.53-2.25,143-6.15,141.32-8,281.9-25c80.48-9.89,161.59-20.6,239.2-45,34.65-10.89,68.52-24.54,100.41-42,38.62-21.14,74.07-47.85,104.09-80.1a383.9,383.9,0,0,0,68-102c18.47-40.4,30-83.51,37.12-127.25a637.74,637.74,0,0,0,6.82-64.81c1.26-21.32,1.68-42.68,1.39-64-.57-41.3-3.66-82.55-7.81-123.63-2-19.66-4.23-39.29-6.57-58.91q-1.46-12.3-3-24.59l-1-8.06q-1.47-12-2.92-24c-1.19-7.3-2.36-14.66-4-21.87A128.38,128.38,0,0,0,2752.7,3044a114.76,114.76,0,0,0-7.81-12.41l-3-4.15a88.65,88.65,0,0,0-11.27-12.3,127.07,127.07,0,0,0-14-11.8,137.32,137.32,0,0,0-17.53-10.48l-6.3-3.24a135,135,0,0,0-20.65-7.61c-7.09-2.19-14.25-4.09-21.53-5.56-18.53-3.75-37.5-5.31-56.37-5.88-12.3-.38-24.61-.24-36.91-.15l-10.86.07-14.27-.5c-7-.13-13.92,0-20.88,0-32.77.22-65.67,1.31-98.21,5.44-56.44,7.16-113.51,21.93-160.87,54.63a218.8,218.8,0,0,0-34.51,29.27,205.92,205.92,0,0,0-37.89,57.09,200.86,200.86,0,0,0-7.56,20.81l-2.22,7.17a162.51,162.51,0,0,0-4.69,22.76,114.22,114.22,0,0,0-1.92,15.82,120.92,120.92,0,0,0-.85,16.29,233.68,233.68,0,0,0,5.76,57.78,242.18,242.18,0,0,0,16.06,45.71,232.88,232.88,0,0,0,15.51,27.9c4.27,6.66,8.93,13.06,13.76,19.32a319.14,319.14,0,0,0,42.61,45c24,21,50.64,38.91,78.58,54.28a642.94,642.94,0,0,0,91.75,41c13.48,4.87,27.11,9.15,40.79,13.4,11.43,3.56,22.75,7.55,34.17,11.16s22.75,7.05,34.2,10.35c45.68,13.16,92.17,23.81,139.23,30.65,91.59,13.31,186.13,12.18,275.76-12.47a513.43,513.43,0,0,0,127.17-54c45.31-26.76,84.69-62,121.82-99,18-17.94,35.54-36.33,53.57-54.24,16.67-16.55,33.67-33,52-47.78,6.46-5.2,13-10.24,19.75-15.08,8.28-5.94,16.77-11.46,25.54-16.65q12.41-7.34,25.34-13.68c10.48-5.15,21.14-9.67,31.94-14.1l-3.76,1.43,16.64-6.26-3.79,1.35,16.72-5.79L3430,3221l16.81-5.34-3.83,1.18,16.89-4.92L3456,3213l17-4.53-3.87,1,17.06-4.16-3.88.92,17.15-3.8-3.89.84,17.23-3.46-3.9.75,17.32-3.14-3.91.67,17.4-2.84-3.92.59,17.49-2.54-3.93.51c17.33-2.23,34.65-4.29,52.06-5.81,16.36-1.42,32.74-2.48,49.14-3.28,38.73-1.9,77.56-2.1,116.32-1.43,74.58,1.3,149,5.67,223.5,9.87,80.74,4.55,161.54,8.93,242.43,9.16,38.21.11,76.42-.73,114.57-3s76.6-5.54,114.05-14.14a310.42,310.42,0,0,0,52.4-17.16,280,280,0,0,0,29.88-14.93c7.4-4.27,14.55-8.84,21.56-13.74a286.81,286.81,0,0,0,27-21.72,328.84,328.84,0,0,0,25-24.82,427.09,427.09,0,0,0,42.87-56.43c21.91-34.52,39.09-72.1,51.85-110.91a550.45,550.45,0,0,0,15.47-57.75,599.66,599.66,0,0,0,10-66.34,676.52,676.52,0,0,0,1-124,795,795,0,0,0-19.2-117c-17.42-72.46-43.93-142.3-73.85-210.44-30.35-69.11-64.6-136.43-98.21-204-32.49-65.32-64.82-130.9-92.29-198.53-24.93-61.36-46.32-124.41-58.68-189.6a619.92,619.92,0,0,1-10.61-90.21q-.91-22.29,0-44.57c.66-16.88,2.46-33.68,4.74-50.41A537.4,537.4,0,0,1,4416,1467a730.42,730.42,0,0,1,43.55-98.68c34.94-66.22,78-128.09,124.61-186.6,47.72-60,99.09-116.88,152.07-172.22q38.95-40.68,78.84-80.45,50.4-50.5,101-100.83,107.52-107,217.87-211.09,110.62-104,224.51-204.38,231.21-203.88,475.29-392.41A22.85,22.85,0,0,0,5819,17.68q-27.63-.28-55.26.55-27.63.52-55.22,2.13A22.85,22.85,0,0,0,5694,23.7q-320.54,253.76-619.16,533.53-149,139.87-292,285.93-32.39,33-64.7,66.09-30.23,30.79-59.41,62.53c-43.52,47.24-85.8,95.64-125.56,146.1C4459.76,1211,4394,1312,4351.47,1423.2c-21.3,55.7-36.4,113.74-43.53,173a754.42,754.42,0,0,0-5.36,81.45c-.33,29.23,2.07,58.57,5.94,87.53,14,104.49,49.85,204.65,91.39,301,42.29,98.12,91.17,193.21,134,291.06,39,88.91,73.56,180.46,90,276.49,8.19,47.87,11.21,96.84,7.73,145.31-3.5,48.63-13.57,97.13-32,142.37a365.52,365.52,0,0,1-33.09,63.16c-12.78,19.42-27.48,37.79-44.48,53.71a268,268,0,0,1-49.21,36.94c-21.79,12.56-45.36,21.42-69.78,27.33-21.59,5.23-43.66,8.23-65.74,10.41-26.2,2.59-52.45,4.12-78.77,4.84-61.25,1.68-122.54.5-183.77-1.51-116-3.81-232.1-10.86-348.24-8.16-55.36,1.29-110.73,4.8-165.59,12.43-56.12,7.8-111.55,20.07-165.23,38.29a643.87,643.87,0,0,0-152.12,74.85c-50.73,34.11-95.21,76.16-142,115.31-21.1,17.66-42.77,34.59-65.7,49.81a416.4,416.4,0,0,1-83.71,43,466.68,466.68,0,0,1-72.94,20.85,529.48,529.48,0,0,1-91.26,9.71c-63.33,1.41-126.67-7.31-188.1-22.39a946.92,946.92,0,0,1-92.87-28q-22.76-8.13-45.09-17.4-14.68-6.13-29.16-12.71l-14.56-6.62c-8.81-4.26-17.4-9.16-25.84-14.1q-13.11-7.67-25.66-16.22a290.24,290.24,0,0,1-50.33-42.66c-13.87-15-26.34-32.17-33.57-51.45-5.86-15.63-8.76-32-7.51-48.71a132.3,132.3,0,0,1,2.22-15.56,158.64,158.64,0,0,1,4.17-15.76,156.1,156.1,0,0,1,6.26-16.59,99.48,99.48,0,0,1,29.8-36.54c12.28-9.46,26.36-16.55,40.78-22.13a282.71,282.71,0,0,1,51.13-14c40.87-7.47,82.7-8,124.08-5.74,23.29,1.26,46.54,3.35,69.82,4.77l13.1.79a46.84,46.84,0,0,1,20,4,94.63,94.63,0,0,1,13,6.17,67.11,67.11,0,0,1,11.11,7.94l-3-3,7.56,7.54-2.82-3.2,6.54,8-2.57-3.41,5.48,8.36-2.29-3.61a52.57,52.57,0,0,1,4.36,9.62,121.44,121.44,0,0,1,3.71,14l-1-4.2,1.58,9.25-.69-4.26,1,9.31-.41-4.3.64,9.42-.16-4.32c.41,11.8.73,23.61.82,35.42,0,5.14,0,10.27-.11,15.41l-.18,6.05a69.64,69.64,0,0,0,.38,13.36c3.94,56,6,112.23,1.62,168.23-4,51.15-13.52,102.37-33.38,149.9a330.56,330.56,0,0,1-33.54,61.56,304.77,304.77,0,0,1-57.65,61.93c-37,30.17-80.47,51.64-125.42,67.28-52.31,18.2-106.82,28.42-161.36,37.22q-19.2,3.1-38.4,6.21c-14.24,2.33-28.5,4.13-42.84,5.78q-49,5.63-98.11,10.06-108.09,9.74-216.61,13.6c-65.61,2.33-131.26,3.13-196.88,1-32.05-1-64.07-2.07-96-5a702.69,702.69,0,0,1-91.33-14.2,432.94,432.94,0,0,1-84.9-28.57,427.82,427.82,0,0,1-67-38.66c-47.68-33.47-88.65-75.35-127.68-118.33-35.34-38.91-69.44-79-106.59-116.25-42-42.11-88.37-79.81-138.81-111.42-97-60.81-208-99.79-322.07-111.18-64.2-6.41-129.41-4.29-192.86,7.53a693.44,693.44,0,0,0-176.75,58.52c-55.79,27.22-108.37,61.92-154.59,103.41a745.34,745.34,0,0,0-60,60.52c-8.44,9.53-16.65,19.24-24.93,28.91q-9.37,11.16-19.26,21.86a55.24,55.24,0,0,0-13.8,19.16,23.59,23.59,0,0,0,15.19-.84q27.46-6.11,54.67-13.3,27.28-6.88,54.27-14.83A23.59,23.59,0,0,0,138.42,3528.56Z"/><path class="cls-1" d="M133.11,3542.34q9.52-10.91,18.28-22.45,9.4-10.61,19.46-20.59l-2.25,2.19,12.4-11.92-2.29,2.16c10.33-9.36,20.82-18.44,31.8-27a474.54,474.54,0,0,1,39.6-27.55A575,575,0,0,1,323,3398.46a618.14,618.14,0,0,1,165.35-47.29,592.29,592.29,0,0,1,82.48-5.72,616.54,616.54,0,0,1,84.56,6.17A634,634,0,0,1,740.44,3370c16.33,4.64,32.43,10.06,48.34,16,17,6.33,33.63,13.49,50.21,20.89l-3.06-1.37,16.24,7.67-3-1.44,16.09,8-3-1.51,15.93,8.37-3-1.58,15.76,8.71-2.94-1.65,15.58,9-2.91-1.71,15.39,9.38-2.87-1.78,15.2,9.71-2.84-1.84,15,10-2.8-1.91,14.78,10.36-2.76-2,14.56,10.67-2.72-2,14.33,11-2.68-2.09,14.1,11.29-2.63-2.15,13.85,11.6-2.59-2.21,13.6,11.89-2.54-2.27,13.34,12.19-2.5-2.33,13.06,12.48-2.45-2.38,12.78,12.76-2.4-2.44,12.5,13-2.35-2.49,12.2,13.32-2.29-2.55,11.89,13.59-2.24-2.6,11.58,13.85-2.18-2.65,10.95,13.74-2.13-2.7c43.36,56,83.5,114.94,133.32,165.63,24.89,25.33,51.55,48.77,80.8,69a445.17,445.17,0,0,0,44.19,26.9q11.78,6.26,23.89,11.84a415.92,415.92,0,0,0,43.49,16.76c41.89,13.88,85.66,21.12,129.57,24.69,46.34,3.77,92.94,3.42,139.37,1.85,22.08-.75,44.15-1.81,66.22-2.85,20.43-1,40.88-1.6,61.32-2.35,51.14-1.87,102.26-4.17,153.34-7.29q136.31-8.35,271.92-25.12c77.92-9.75,156.13-20.46,231.47-43.33,76.62-23.26,149.9-61.8,205.52-120.24a383.94,383.94,0,0,0,69-101.25c19-40.35,31.23-83.46,38.44-127.41,13.76-83.79,9.72-169.35,1.21-253.46-3.66-36.16-8.22-72.21-12.72-108.28-2.56-20.5-5-41.49-13.25-60.66a116.64,116.64,0,0,0-17.56-28.52,123.54,123.54,0,0,0-11.45-12.18,133,133,0,0,0-14.82-11.55l-5.42-3.72-12.23-6.81-13.23-5.88-13.93-4.92a266.68,266.68,0,0,0-50.8-10.26,457.78,457.78,0,0,0-47.62-2.51c-5.93,0-11.87,0-17.81,0-7,0-13.92-.16-20.88-.18-16.38-.06-32.82.57-49.19,1.1-17.64.57-35.26,1.49-52.83,3.07-57.34,5.15-115.81,17.29-166.33,46-25.05,14.24-47.66,32.64-65.75,55.12a204,204,0,0,0-26.54,42.67,229.29,229.29,0,0,0-17.47,60.65l-.85,8.41a122.41,122.41,0,0,0-1.12,17.07,252,252,0,0,0,.38,26.39,232.71,232.71,0,0,0,3.52,25.85l1.6,8.48a174.57,174.57,0,0,0,7.2,24.59,239.49,239.49,0,0,0,9.49,23.64,251.1,251.1,0,0,0,12.06,22.24c4.33,7.2,8.93,14.17,13.85,21a279.86,279.86,0,0,0,26.84,31.37c23.81,24.44,51.27,45.06,80.5,62.59,28.5,17.09,58.71,31.36,89.63,43.51q24.2,9.51,49,17.29c5.88,1.84,11.78,3.59,17.7,5.29,13.57,3.89,27,8.46,40.47,12.55,43,13,86.45,24.3,130.61,32.52,91.26,17,185.9,21.09,277.29,2.7a532.05,532.05,0,0,0,130.25-44,495.46,495.46,0,0,0,65.24-38.58,559.73,559.73,0,0,0,54.17-43.37c38.29-34.61,72.29-73.53,109.18-109.57a578.34,578.34,0,0,1,45.45-40.49c8.46-6.68,17.14-13,26.19-18.84q6.18-4.18,12.69-7.83,9.33-5.66,19.11-10.53l-2.86,1.41,15.67-7.6-2.89,1.35,15.76-7-2.93,1.28c12.82-5.2,25.7-10.09,38.85-14.39,15.12-4.94,30.52-9,46-12.55,30-6.91,60.28-11.37,90.81-15l-3.23.37,17-1.76-3.24.31,17.07-1.52-3.25.25c19.77-1.48,39.54-2.78,59.36-3.47q25.09-.87,50.19-1c37-.2,74,.71,110.93,2.12,80.74,3.09,161.36,8.91,242,13.22,81.24,4.34,162.65,7.32,244,4.74q28.69-.91,57.33-2.8c20.64-1.36,41.3-3.09,61.79-6a427.94,427.94,0,0,0,51.69-10.28c10.16-2.73,20.11-5.91,30-9.62a266.47,266.47,0,0,0,37.46-17.16l7.41-4.41a127.33,127.33,0,0,0,14.47-9.29,294.4,294.4,0,0,0,27.35-21.43,377.17,377.17,0,0,0,42.81-44.94c7.49-9.19,14.53-19,21.14-28.84s12.93-20.06,18.65-30.41a523.61,523.61,0,0,0,30-63.89,569.18,569.18,0,0,0,30.93-115.8c1.76-11,3-22,4.14-33,1.13-11.32,2.09-22.71,2.67-34.07q1.67-33.13.41-66.28c-3.1-81.42-21.77-161.71-48.14-238.55-24.8-72.26-56.41-142-89.71-210.64-36.84-76-75.95-150.83-111.57-227.39-17.14-36.84-33.48-74.09-48.12-112q-10-26-18.93-52.48c-7.24-21.56-13.52-43.38-19.29-65.37l.75,3-3.94-16,.71,3-3.67-16,.68,3-3.39-16,.64,3c-4.14-21.44-7.62-42.94-9.87-64.67a537.85,537.85,0,0,1-2.63-70.4,525.5,525.5,0,0,1,23.64-142.3c14.45-46.05,34.29-90,57.42-132.32,26.81-49,58.52-95.09,91.85-139.86l-1.87,2.5,11.19-14.69-1.91,2.47q29.66-38.09,60.92-74.84c22.36-26.18,45.42-51.76,68.85-77,43.78-47.13,89-92.88,134.62-138.23C4880,878,4933.63,824.26,4987.89,771.25q79-77.14,159.54-152.59,161.31-150.83,329.49-294.06Q5652,175.38,5834.28,34.89a13.41,13.41,0,0,0-10.46-3.65q-20-2.21-40.11-3.32-20.08-1.42-40.21-1.75a13.41,13.41,0,0,0-10.84,2.3q-320.3,252.07-618.82,530.14-142.16,132.68-278.91,271c-25.92,26.14-51.66,52.47-77.62,78.57q-30.1,30.27-59.33,61.36c-41.5,44.09-82.08,89.09-120.64,135.78-36.5,44.2-71.22,89.92-102.86,137.73-33.73,51-64,104.38-88.27,160.55-20.68,47.89-36.91,97.79-46.83,149a714.79,714.79,0,0,0-10.36,78,566.32,566.32,0,0,0,.59,93.47c8.47,100.51,39.72,197.51,77.95,290.33,40.82,99.08,90,194.42,134.95,291.61,43.1,93.11,83.26,188.67,105.24,289.25,10.49,48,16.64,97,16.67,146.13,0,52.6-6.81,105.45-22.05,155.86a426.87,426.87,0,0,1-29.44,72.72c-12,23.18-26.12,45.46-42.95,65.45-15,17.87-31.65,34.32-50.33,48.4a261,261,0,0,1-72.45,38.53c-21.89,7.5-44.66,12.22-67.54,15.48-23.24,3.31-46.71,5.39-70.14,6.81-29.18,1.76-58.49,2.21-87.72,2.37-34.92.2-69.84-.34-104.75-1.35-112.65-3.27-225.18-10.85-337.9-11.34-56.91-.25-114,1.21-170.66,6.73-54.66,5.33-109.08,14-162.09,28.54-47.78,13.12-94.1,31.07-137.66,54.76-27.45,14.93-53.25,32.7-77.66,52.17-27.05,21.59-52.48,45-78.1,68.25-21.63,19.62-43.39,39.15-66.5,57a494.64,494.64,0,0,1-71.75,46.62,451.37,451.37,0,0,1-75,31.19,518.83,518.83,0,0,1-94.41,19.79c-32.25,3.85-64.83,4.39-97.24,3-35.66-1.48-71.2-6.11-106.25-12.72a943.93,943.93,0,0,1-97-23.83c-34.55-10.39-68.41-22.68-101.86-36.19-8.41-3.4-16.79-6.78-25-10.54q-19.65-9-38.62-19.34a432.86,432.86,0,0,1-57.1-37.08c-35.13-27.29-66.87-62.68-78.14-106.72-5.18-20.22-5.48-41.22-2.41-61.8,1.65-11.07,4-22.31,8.19-32.73a129.66,129.66,0,0,1,14.48-27c22.05-31,57.06-49.94,92.54-61.5,41.08-13.38,84.54-17.72,127.53-18.82,23.75-.6,47.51.2,71.26.28l12.94-.08q14.3-.28,28.59-1.05a76.85,76.85,0,0,1,24.76,1.4,156.29,156.29,0,0,1,18.2,4.43l-3-1,11.92,4.17-2.91-1.15,11.49,5-2.83-1.32,10.83,5.89-2.72-1.51,7.36,5a57.84,57.84,0,0,1,9.22,8.39,76.91,76.91,0,0,1,11.3,15.05,98.5,98.5,0,0,1,6,12.5c2.67,6.83,4.1,14.11,5.65,21.24l-.64-3,1.58,9.16-.48-3.05,1.25,9.26-.34-3.07c1.21,11.64,2.1,23.25,2.28,35l0,6.14a132.71,132.71,0,0,0,1.45,21.21q1.37,15.61,2.57,31.24c4.48,58.43,6.62,117.39,1.47,175.86-4.61,52.36-15.26,104.7-36.38,153a342.43,342.43,0,0,1-38.75,67.3,332,332,0,0,1-65.36,65.67c-40.46,30.8-87.16,52.5-135.36,68.15a758.83,758.83,0,0,1-74.56,19.78c-30.47,6.57-61.24,11.47-92,16.7-10.52,1.79-21,3.59-31.59,5.1l-19.71,2.45q-19.72,2.4-39.46,4.6-49.36,5.51-98.85,9.8-109,9.46-218.42,13.12c-33.28,1.1-66.58,2-99.88,2.17-32.35.21-64.71-.24-97.06-.7-61.95-.88-124.18-4.38-184.71-18.49a459,459,0,0,1-74.15-23.87c-24.89-10.48-48.53-23.88-71-38.82-21.47-14.28-41.46-30.69-60.63-47.9-23-20.66-44.41-43.13-65.15-66.05C1174,3604,1141.49,3563.83,1106.4,3526c-17.57-19-35.88-37.23-55.12-54.49a723.92,723.92,0,0,0-74.83-58.69c-91.37-62.46-197-104.47-306.66-120.28-59.06-8.52-119.37-9.54-178.57-1.93A665.7,665.7,0,0,0,325,3334.44a659,659,0,0,0-155.23,89.22A603.39,603.39,0,0,0,103,3483.81q-10.34,10.84-20.3,22l-19.45,22.07q-8.81,9.65-17.59,19.34l2.25-2.17-13.17,12.59A12.94,12.94,0,0,0,45.53,3559q19.57-2.09,39-5.28,19.47-2.88,38.75-6.84A12.94,12.94,0,0,0,133.11,3542.34Z"/><path class="cls-1" d="M150.38,3528.58a66.47,66.47,0,0,0,31.81-25.82q6.9-8,14.39-15.49a368.33,368.33,0,0,1,36.14-32.39c21.41-16.78,44.5-31.26,68.4-44.21a571.54,571.54,0,0,1,87-37.75,613.06,613.06,0,0,1,85.4-22.49A592.53,592.53,0,0,1,741,3362c13.82,3.81,27.47,8.14,41,12.8,18.12,6.24,35.79,13.56,53.36,21.2l-3-1.37,16.06,7.38-2.95-1.43,15.9,7.71-2.9-1.48,15.72,8-2.85-1.53,15.55,8.35-2.81-1.58,15.36,8.67-2.76-1.62,15.17,9-2.71-1.67,15,9.29-2.66-1.71,14.77,9.59-2.62-1.76,14.55,9.89-2.57-1.8,14.33,10.18-2.52-1.84,14.11,10.47-2.47-1.88,13.87,10.76-2.42-1.92,13.63,11-2.37-2,13.38,11.31-2.31-2,13.12,11.59-2.26-2,12.86,11.86-2.21-2.07,12.58,12.12-2.16-2.1,12.3,12.38-2.1-2.14,12,12.63-2-2.17,11.72,12.88-2-2.2,11.43,13.14-1.94-2.23,11.13,13.39-1.88-2.26c9.41,11.87,18.42,23.91,27.37,36.13l-1.7-2.34c23.14,32.29,45.66,65.11,70.47,96.16,11.21,14,22.77,27.77,34.86,41.05a628.39,628.39,0,0,0,51.52,50.55c8.34,7.28,17.06,14.29,25.91,21,9.07,6.85,18.44,13.52,28,19.63,20.07,12.81,41,24.51,63,33.86a467.94,467.94,0,0,0,65,22.31c30.59,8,61.73,12.8,93.18,15.83,13.84,1.33,27.82,2.12,41.72,2.67,13.73.55,27.52.81,41.26.77,26.87-.08,53.73-1,80.56-2.32,22.42-1.14,44.83-2.51,67.25-3.85,31-1.85,62-3,93-4.45,54.56-2.6,109.11-5.57,163.58-9.62q81-6,161.72-14.9,40.3-4.45,80.51-9.75c26.78-3.53,53.61-7,80.28-11.32,42.53-6.82,85-15.07,126.35-27.1a607.44,607.44,0,0,0,63.44-22c21.21-8.81,42.14-18.6,62-30.2a461,461,0,0,0,51.55-34.78,400,400,0,0,0,60.1-57.82,363.79,363.79,0,0,0,23.46-31c7.37-11,14.76-22.37,20.82-34.12,3.06-5.93,6.41-12,9.14-17.89,1.56-3.36,3.06-6.75,4.58-10.14q8.23-18.31,14.69-37.29c5.27-15.4,9.64-31,13.53-46.79a535.77,535.77,0,0,0,11.74-68.87,727.74,727.74,0,0,0,4.59-85.11c-.12-18.69-.48-37.37-1.51-56q-1.74-31.82-4.84-63.53c-4.66-48.43-11.31-96.62-17.69-144.85-1.67-12.6-3.13-25.37-6.16-37.74a155.29,155.29,0,0,0-7.06-21.87,122.35,122.35,0,0,0-20.75-33.7l-3.7-4.3a105.21,105.21,0,0,0-14-12.75,150.06,150.06,0,0,0-31.74-20l-7.67-3.21a152.15,152.15,0,0,0-23.81-8.44,263,263,0,0,0-33.22-6.95,394.92,394.92,0,0,0-54.79-3.32c-16.95.08-33.86,1.12-50.8,1.34-21.45.28-42.93.67-64.35,1.66-33.37,1.55-66.66,4.6-99.5,10.86a452.17,452.17,0,0,0-51.26,12.79q-9.46,3-18.77,6.4t-18.4,7.56q-9.2,3.91-18,8.58c-7.89,4.27-15.77,8.55-23.26,13.51-6,4-11.83,8.09-17.52,12.48a231.91,231.91,0,0,0-21.26,18.51c-2,1.94-3.94,3.85-5.87,5.82a251.67,251.67,0,0,0-27.8,36,222.91,222.91,0,0,0-15,28.64l-3.07,7.86a114.35,114.35,0,0,0-5.62,16.15l-2.54,8.29a181.23,181.23,0,0,0-5.29,26.42l-1.35,9a198.58,198.58,0,0,0-1.45,28.22l0,9.55a196.68,196.68,0,0,0,2.58,28.91l1.32,9.49a184.78,184.78,0,0,0,6.8,27.66l2.73,9.07,6.8,17.61a197.68,197.68,0,0,0,12.62,25.09,205.09,205.09,0,0,0,14.75,23.59,304.18,304.18,0,0,0,22.77,28.41c3.81,4.13,7.77,8.2,11.67,12.23a323.52,323.52,0,0,0,31.77,28.1c35,27.74,74.44,49.8,115.4,67.44a779,779,0,0,0,96.51,34.19c9,2.54,18.08,4.89,27.07,7.56q13.25,3.94,26.52,7.78c29.16,8.41,58.54,16.22,88.22,22.62,44.55,9.61,89.58,16.72,135.06,20q31.95,2.28,64,2c12.22-.1,24.46-.67,36.66-1.41,18.31-1.11,36.81-3.06,54.93-5.91a616.78,616.78,0,0,0,63.57-13.3,533.36,533.36,0,0,0,131.34-54.41c11.31-6.53,22.29-13.74,33.07-21.12q12.35-8.46,24-17.84,12.26-9.39,23.84-19.62c37.84-33.45,71.24-71.3,106-107.87,14.6-15.38,29.52-30.44,45.25-44.68a335.16,335.16,0,0,1,58.21-42.72c32-18.31,67-30.65,102.7-39.4,34.85-8.53,70.43-13.69,106.14-16.92,75.29-6.81,151.17-5.44,226.61-2.09,82.44,3.66,164.73,10,247.11,14.84,86.62,5.07,173.45,8.58,260.21,5.55,40-1.4,80.18-3.78,119.85-9.39a416,416,0,0,0,59.81-12.9,290.25,290.25,0,0,0,30.58-11,287.1,287.1,0,0,0,38.33-19.86L4581,3163a222.16,222.16,0,0,0,21.65-16.11,332.12,332.12,0,0,0,27.27-24.72,343,343,0,0,0,32.12-36.85c7.52-10.17,14.84-20.06,21.53-30.82,8.07-13,15.62-26.09,22.57-39.69,22.06-43.2,37.77-89.45,47.83-136.86,9.64-45.47,13.66-92,13.68-138.46a739.78,739.78,0,0,0-12.1-132.12c-26-143.53-90-276.61-154.95-406-35.55-70.79-72-141.16-104.52-213.44-30.36-67.54-57.46-137-74.41-209.24-15.6-66.47-22.09-135.31-13.1-203.23a527.13,527.13,0,0,1,23.68-102.12c12.3-35.85,28.32-70.29,46.32-103.61,18.38-34,39.3-66.77,61.48-98.46,23-32.91,47.65-64.68,73.15-95.71,53.37-64.93,111.2-126.12,170.18-185.95,30.44-30.88,61.36-61.28,92.19-91.76,34.63-34.23,69.1-68.62,103.8-102.77Q5084.09,692.08,5191.68,592q215.39-200.17,443-386.64Q5748.33,112.1,5864.92,22.5q2.5-1.87-.16-3.5a26.21,26.21,0,0,0-12-1.26q-11.49.14-23,1.08A26.21,26.21,0,0,0,5818,21.2q-280.67,217.65-545,455.26-130.21,117.29-256.07,239.29-62.86,60.89-124.73,122.79c-41,41-82.39,81.66-123,123.06-71.42,72.8-141.38,147.5-203.85,228.23-58.93,76.16-112.58,157.83-148.6,247.52a602.48,602.48,0,0,0-36.2,128.84,550.63,550.63,0,0,0-4.79,134c7.32,86.28,33,170,65,250.06,34.32,86,76.18,168.84,117.1,251.86,42,85.13,83.28,170.81,115.28,260.27,16.08,45,29.44,91,38.82,137.81a726,726,0,0,1,14.59,153.41c-1.53,103.11-26,208-83.8,294.53a363.15,363.15,0,0,1-47.89,58.36c-19.43,19-41.47,35.94-65.8,48.15a301.71,301.71,0,0,1-28.74,12.73c-9.48,3.58-19.16,6.56-28.93,9.26a354.69,354.69,0,0,1-36.06,7.65c-14.39,2.4-28.85,4.22-43.36,5.68-24,2.41-48.08,3.75-72.16,4.79-27.09,1.17-54.25,1.61-81.37,1.54-54.1-.14-108.18-2.08-162.21-4.84-99.35-5.08-198.62-12.78-298.1-15.09-44.46-1-89-1.09-133.4,1-47.46,2.28-94.94,7-141.6,16.13-48.87,9.61-97.17,24.15-141.42,47.3a380.78,380.78,0,0,0-71.54,49.07c-22.53,19.36-43.24,40.72-63.83,62.1-26.42,27.43-52.38,55.57-81.2,80.53-23.67,20.49-48.75,39.29-75.68,55.3a506,506,0,0,1-81.09,38.54,469.9,469.9,0,0,1-50.73,15.75c-17.09,4.27-34.33,8-51.75,10.63a653.75,653.75,0,0,1-87.51,7.4,755.74,755.74,0,0,1-96.58-4.84c-61.3-6.85-121.54-20.49-180.7-37.78-14.14-4.13-28.24-8.44-42.33-12.74-12.24-3.74-24.55-7.2-36.72-11.14-21.92-7.08-43.62-15.06-64.75-24.26a621.12,621.12,0,0,1-60.76-30.31c-10.42-6-20.52-12.44-30.39-19.26q-9.24-6.22-18-13.11-12.84-10-24.71-21.13l1.4,1.27-12.51-12.38,1.31,1.36-12-13.24,1.21,1.45-11.3-14.12,1.1,1.53-10.5-15,1,1.61-9.55-15.83.86,1.68a238.42,238.42,0,0,1-15-32.23,214.28,214.28,0,0,1-9.41-32.86l.3,1.87-3-18.9.15,1.89-1.53-19.28v1.9l-.07-19.8-.13,1.91,1.38-19.42-.27,1.9,2.81-18.9-.41,1.88,4.2-18.24-.54,1.86,5.5-17.46-.67,1.82,6.7-16.58-.8,1.78,7.78-15.64-.92,1.73,8.74-14.66-1,1.68,9.57-13.66-1.14,1.62,9.06-11.12,9.6-10.26a192.92,192.92,0,0,1,25.8-21.75,253.79,253.79,0,0,1,43.1-24.54c34-15.39,70.64-24.32,107.54-29.51,36.14-5.09,72.6-6.41,109.06-6.51,9.23,0,18.46,0,27.69,0,10.64-.1,21.28-.49,31.92-.43,9.4.05,18.85.54,28.23,1.17q6.25.31,12.46,1,11,1,21.81,2.9l-2.12-.34,15.77,3.19-2.1-.48,15.91,4.28-2.07-.63,15.75,5.48-2-.8,15.25,6.72-2-1,14.42,7.91-1.89-1.15,13.31,9-1.8-1.33,11.95,9.95-1.7-1.48,8.37,8.66a94,94,0,0,1,10.92,15.81,121.2,121.2,0,0,1,8.3,18.46,161.82,161.82,0,0,1,8.48,38.85c.4,4.06.66,8.14,1,12.21l1.9,15.8q1.94,16.07,3.81,32.15c3.86,33.29,7.42,66.62,9.9,100,4.32,58.07,5.66,116.65-.74,174.62-7.24,65.58-24.78,130.92-59,187.78a374.29,374.29,0,0,1-54.76,69.84c-21.78,22-46.78,40.88-73.2,57-51.18,31.18-108.05,51.31-166.16,65.12-59.7,14.19-120.58,22.66-181.41,30.28q-109.74,13.75-220.1,21.67c-67.41,4.9-134.91,8.19-202.44,10.92-20.42.83-40.86,1.42-61.27,2.36-12.27.56-24.53,1.27-36.8,1.87-38.19,1.87-76.42,3.24-114.66,2.6a732.94,732.94,0,0,1-107-9.16c-34.88-5.76-69.39-14.67-102-28.5a438.79,438.79,0,0,1-75.36-40.91c-26.9-18.27-51.78-39.43-74.86-62.3-36.41-36.07-68.13-76.42-98.87-117.32-14.7-19.56-29.15-39.32-44.4-58.45a670.5,670.5,0,0,0-60.34-66.17,700.83,700.83,0,0,0-275.82-162.29,636.56,636.56,0,0,0-175.86-28.92,612.11,612.11,0,0,0-169.64,20.84,621.34,621.34,0,0,0-157.59,66A515.08,515.08,0,0,0,190,3456.8c-9.2,7.8-18.1,15.91-26.62,24.46q-10.27,10.37-20,21.28-8.58,10.09-17.82,19.58l3.63-2.23L95,3538.75q-2.59,2.45.85,3.4a37,37,0,0,0,14.34-1.69q13.47-2.95,26.76-6.66A37,37,0,0,0,150.38,3528.58Z"/><path class="cls-1" d="M135.31,3521.19A155.23,155.23,0,0,1,147.93,3504a193.73,193.73,0,0,1,13.9-15.95l-2.48,2.7c6.51-6.77,13-13.47,19.8-20s13.67-12.43,20.73-18.36a474.11,474.11,0,0,1,49.8-36.2A599.77,599.77,0,0,1,353.18,3364,611.06,611.06,0,0,1,465.27,3332a593,593,0,0,1,123.09-9.95c82.11,2.05,163.15,21,238.52,53.43a685.87,685.87,0,0,1,109.56,59.11c36.7,24.46,71.42,52.08,102.7,83.21,13.88,13.82,27.34,28.12,39.91,43.15,12.26,14.66,24,29.73,35.69,44.85,28.22,36.53,55.81,73.67,86.74,108,14.15,15.7,28.82,30.89,44.21,45.39a545.78,545.78,0,0,0,50.44,41.87,456.34,456.34,0,0,0,58.09,36.07c27.6,14.54,57.13,25.39,87.12,33.77,12.91,3.61,26.1,6.38,39.25,8.95s26.61,4.44,40,6.14c29.82,3.79,60,5.29,90,5.84,54.92,1,109.74-2,164.6-3.8,58.09-1.89,116.15-4,174.18-7.27q90.94-5.18,181.62-14,80.4-7.92,160.45-19c49.66-6.86,99.18-15.22,147.68-28.09a639.52,639.52,0,0,0,70.79-22.81c20.95-8.27,41.64-17.45,61.34-28.39,20.2-11.22,39.92-23.6,58.09-37.92,9.34-7.36,18.46-15,27.17-23.1q10.09-9.24,19.24-19.39,9.65-10,18.28-20.95c7.86-9.95,15.53-20.18,22.35-30.86,6.93-10.85,13.62-22,19.44-33.46a439.29,439.29,0,0,0,29-71.45c16.41-54.39,23.94-111.07,25.15-167.81,1-48.11-1.68-96.13-6.1-144-2.1-22.79-4.69-45.53-7.36-68.26-1.3-11-2.65-22-4-33-1.61-13.13-2.95-26.3-5.18-39.34a194.25,194.25,0,0,0-7.32-30.46,122.3,122.3,0,0,0-18.07-33.29,125.09,125.09,0,0,0-15.71-16.79l-10-8a106.26,106.26,0,0,0-17.93-10.86l-6.45-3.36a137,137,0,0,0-21.2-7.92,160.09,160.09,0,0,0-22.16-5.77l-14.94-2.55c-18.62-2.84-37.62-3.35-56.42-3.4-10,0-20,.27-30,.44-9,.16-18.06-.24-27.1-.18-37.66.25-75.3,1.51-112.7,6.23-73.36,9.25-150.38,33.92-200.2,91.49a197.87,197.87,0,0,0-30.11,46.6,193.14,193.14,0,0,0-12.61,35,225.45,225.45,0,0,0-5.66,31,251.27,251.27,0,0,0-1.43,33,238.6,238.6,0,0,0,3,33.8,230.41,230.41,0,0,0,7.69,32.11,255.5,255.5,0,0,0,15.68,37.43,279.78,279.78,0,0,0,46.49,64.41,379.41,379.41,0,0,0,52.27,45.13c19.6,14.21,40.65,26.43,62.11,37.58a608.69,608.69,0,0,0,61.8,27.65c8,3.07,16,6.07,24.05,8.85,11.58,4,23.3,7.5,35,11.2,11.46,3.63,22.82,7.53,34.29,11.1,14.24,4.43,28.52,8.7,42.88,12.71,54.52,15.21,110,26.57,166.31,32.52a709.58,709.58,0,0,0,89.35,4c29.91-.63,59.89-2.79,89.44-7.62a580,580,0,0,0,79.4-18.55,533.13,533.13,0,0,0,77-30.93c28.53-14.08,55.36-31.44,80.69-50.63,10.73-8.13,21-16.87,31.16-25.73,15-13.13,29.43-27.18,43.51-41.31,22.32-22.4,43.95-45.52,66.73-67.45,8.49-8.18,17-16.35,25.94-24.09l13-11.09q12.74-10.52,26.34-19.89l-2.9,2q9.17-6.37,18.83-12,6.15-3.85,12.59-7.19c10.33-5.63,20.9-10.74,31.67-15.48,20.83-9.17,42.55-16.33,64.44-22.5,46-12.95,93.65-20,141.16-24.18,101.55-9,203.81-4.93,305.45.2l-3.25-.17c156.8,8.36,314.16,21.23,471.14,9.63,35.23-2.6,70.37-7,104.5-16.39a296.09,296.09,0,0,0,30-10.08,266.32,266.32,0,0,0,30-13.86,291.45,291.45,0,0,0,56.29-39.84,386.31,386.31,0,0,0,42.44-45.42,415.65,415.65,0,0,0,35.26-51.7,527.5,527.5,0,0,0,50.54-121.66,561.89,561.89,0,0,0,12.93-58.46c3.23-19.58,5.32-39.35,6.78-59.13a692.92,692.92,0,0,0-2-124.12c-8-75.78-28.25-149.72-54.62-221-51.56-139.46-125.46-269-188.19-403.46-31.8-68.15-61.06-137.65-81.93-210a727.77,727.77,0,0,1-23.05-110c-2.15-17-3.6-34-4.24-51.11-.72-19-.25-37.88.87-56.83l-.32,4,1.38-16.54-.38,4,1.76-16.48-.45,4,2.15-16.43-.52,4,2.66-18.52-.59,4c3.39-19,7.32-37.8,12.55-56.4,5.14-18.31,11.25-36.34,18.12-54.07,13.82-35.7,30.75-70.15,49.61-103.44a1138.15,1138.15,0,0,1,64-99.59c24.52-34.38,50.75-67.42,77.64-100l-2.35,2.84,12.44-14.8-2.38,2.81,12.59-14.74-2.4,2.78,12.74-14.68L4642,1104q62-70.36,127.75-137.14c44-44.89,88.65-89.1,133.15-133.46q146.45-146,298.14-286.57Q5349.9,409.76,5504.38,279q161.49-136.68,329-266a16.79,16.79,0,0,0-12.44-2q-23.07.9-46.08,2.91-23,1.69-46,4.49a16.79,16.79,0,0,0-12,4q-167.59,132.13-329.44,271.29-161.68,139.29-317,285.69-74.28,70-147.06,141.54c-52.89,52-105,104.69-157,157.59-21,21.37-42.2,42.55-62.83,64.28q-34.2,36-67.48,72.91c-44.59,49.63-87.58,100.77-127.28,154.42-35.87,48.47-69.29,99-97.77,152.18-12.74,23.78-24.67,48-35.38,72.74a811.27,811.27,0,0,0-32.9,90.37c-16.86,56.56-25.59,115.15-27.81,174.06-1.09,28.81.73,57.83,4,86.45A777.85,777.85,0,0,0,4333,1829c24.18,107.69,68.17,209.75,114.59,309.44,46.91,100.72,97.55,199.95,137.3,303.83,37.6,98.28,65.33,202,63.59,308-1.66,101.29-30,207-98.71,283.95a277.82,277.82,0,0,1-54.43,47.43,257.56,257.56,0,0,1-59,28.42c-25.77,8.75-53,13.19-79.91,16.26-29,3.31-58.11,5-87.28,5.94-123.7,3.78-247.34-4.33-370.92-8.69-114.56-4-229.83-5.31-343.62,10.61-56,7.84-111.78,20.35-165.07,39.57a639.68,639.68,0,0,0-83.1,36.53,557.34,557.34,0,0,0-65.83,41c-29.42,21.35-56.82,45.26-83.84,69.52-23.31,20.92-46.46,42.08-70.93,61.66-24,19.18-49.2,36.54-76.23,51.12-53.36,28.79-112.34,45.53-172.52,51.92-69.47,7.37-139.95,1.42-208.22-12.6a950.1,950.1,0,0,1-103.36-27.61q-19.59-6.39-38.92-13.51-15.38-5.7-30.58-11.88t-30.26-12.61a494.16,494.16,0,0,1-55.58-29.41c-21.81-13.38-42.66-28.63-60.91-46.63-15.2-15-28.7-32-38.23-51.18a139.89,139.89,0,0,1-10.45-28,131.94,131.94,0,0,1-1.73-55.68c2.24-13.13,5.77-26.32,11.51-38.37a117.45,117.45,0,0,1,33-41c15.75-12.6,34.22-21.87,53.18-28.56a325.65,325.65,0,0,1,56.34-14.11,481.66,481.66,0,0,1,63.37-5.7c26.44-.75,52.83.49,79.23,1.82,10.35.52,20.7,1,31.07,1.28q10.28.3,20.56.36a60.46,60.46,0,0,1,22,2.79,115.48,115.48,0,0,1,22.42,8.51,76.55,76.55,0,0,1,12.74,8.16,60.29,60.29,0,0,1,9.75,9.74l-2.4-3.32,6.06,8.51-2.12-3.5,5.09,8.79-1.83-3.67,4.28,9-1.52-3.8,3.59,9.3-1.23-3.9,2.81,9.4-.95-4c1.57,6.89,3,13.57,3.87,20.57.74,5.86,1.25,11.76,1.65,17.66.43,6.26.72,12.53.83,18.8s-.15,12.26,0,18.38l1.25,15.23q1.23,15.37,2.24,30.75c.66,10.34,1.28,20.68,1.76,31,1.71,36.35,2.13,72.81,0,109.15-3.31,55.33-12.58,111-33.58,162.51a333.05,333.05,0,0,1-43.44,76.79,321.7,321.7,0,0,1-69.35,66.39c-46.72,33.26-100.63,54.65-155.75,69.47-27.15,7.3-54.7,13-82.38,17.89-12.68,2.25-25.38,4.34-38.08,6.44l-31,5.16q-17.53,2.75-35.17,4.68-108.14,13-216.88,20.1-59.35,3.89-118.8,6.07c-46.33,1.7-92.72,2.79-139.08,2.61-13.16-.05-26.31-.29-39.47-.51-18.14-.31-36.29-.45-54.43-1-34.83-1-69.67-3.25-104.2-8.08-33.9-4.74-67.85-11.78-100.18-23.19a428.49,428.49,0,0,1-87.88-42.68c-47.64-30.39-88.56-69.73-126.88-111-46-49.47-87.93-102.69-136.15-150.08a747,747,0,0,0-253.34-164.72c-93.57-36.77-194.79-54.22-295.28-49.19a639.49,639.49,0,0,0-91.62,11.43,653,653,0,0,0-88.51,23.8,707.14,707.14,0,0,0-87.64,37,670.75,670.75,0,0,0-103.54,64.91,644.41,644.41,0,0,0-79.25,71.84c-10.4,11.12-20.35,22.62-30.28,34.15q-9.49,11.2-19.34,22.09a189.82,189.82,0,0,0-16.72,20.19,18.08,18.08,0,0,0,13.09-1.12q23.22-6.55,46.12-14.16,23-7.31,45.63-15.66A18.08,18.08,0,0,0,135.31,3521.19Z"/><path class="cls-1" d="M137.63,3554.49c4.89-5.62,9.78-11.18,14.36-17.06l4.08-5.25,9.58-10.41c9.7-10.19,19.93-19.93,30.59-29.11a491.15,491.15,0,0,1,79.51-55.19,590.72,590.72,0,0,1,74.78-35.33,607.34,607.34,0,0,1,92.57-28.07c56.38-12.18,114.23-16.87,171.79-12.49a626,626,0,0,1,93.06,14,664.48,664.48,0,0,1,90.37,27.86,698.38,698.38,0,0,1,165.86,91.77,678.06,678.06,0,0,1,66.79,56.93q15.72,15.28,30.4,31.57c12.87,14.3,24.95,29.2,36.61,44.5,17.55,23,34.45,46.53,52,69.55,20.07,26.33,40.92,52.11,63.52,76.32,24,25.74,50,49.68,78.31,70.63a437.57,437.57,0,0,0,99.13,55.54c81.79,32.3,171,37.34,258,35.68,38.24-.73,76.41-3,114.61-4.75,20.81-1,41.64-1.61,62.45-2.44q41-1.64,82-3.69c84.35-4.31,168.59-10.61,252.58-19.56q65.29-7,130.34-16c18.53-2.57,37.06-5.14,55.51-8.26s36.66-6.6,54.86-10.52c70.56-15.17,140-38.5,200.92-78a398.94,398.94,0,0,0,80.95-69.06,379.16,379.16,0,0,0,34.18-44.62,391,391,0,0,0,35.55-68.19c29.33-72.75,38.49-151.88,38.19-229.85-.28-75.38-9.28-150.38-18.62-225.07-2.54-20.34-4.36-41-9.72-60.88a119.82,119.82,0,0,0-33.76-55.8,133,133,0,0,0-14.43-11.48,149.93,149.93,0,0,0-17.18-10.55,176.85,176.85,0,0,0-19.71-8.5c-6.87-2.56-13.83-4.85-20.92-6.73-31.27-8.27-63.67-9.77-95.86-9.67-6.39,0-12.77.07-19.16,0-7.54-.06-15,.13-22.58.36-13.78.42-27.56.79-41.33,1.34-28.33,1.14-56.63,3.22-84.67,7.49-54.84,8.35-109.94,25.09-155,58.51a224,224,0,0,0-30,26.63c-4.74,5-9.32,10.26-13.53,15.76a193.15,193.15,0,0,0-15.91,24,222.21,222.21,0,0,0-18.14,42.38,217,217,0,0,0-5.62,23.91,117.52,117.52,0,0,0-2.44,16.71,123.61,123.61,0,0,0-1.29,17.29,255.29,255.29,0,0,0,.16,26.76,228.09,228.09,0,0,0,18.11,76.21,250.16,250.16,0,0,0,11.1,23.37c4.11,7.52,8.72,14.76,13.54,21.83a303.72,303.72,0,0,0,43.78,50.74c45.76,42.84,102.22,73.06,160.33,95.64q21.42,8.32,43.35,15.25c12.77,4.06,25.71,7.53,38.49,11.56,37.28,11.75,74.89,22.54,113,31.19,75.92,17.23,154.17,26.46,232.05,21.91,79.17-4.63,157.75-24,228.09-61.08a515.87,515.87,0,0,0,95.44-65.44c32.5-28,61.68-59.52,91.29-90.45,26.57-27.77,53.64-55.65,84.48-78.78,25.64-19.23,54-34.38,83.85-46.06,55.39-21.71,114.67-32.14,173.69-37.7,61.75-5.81,123.91-6.21,185.88-4.62,133.32,3.42,266.21,16.14,399.52,20,70.87,2.05,141.93,1.71,212.64-4.05,30.09-2.45,60.29-6,89.62-13.39,37.23-9.4,72.85-25.32,103.54-48.54a324.27,324.27,0,0,0,39.26-35.37,391.83,391.83,0,0,0,34.11-41.46,450.93,450.93,0,0,0,28.55-45.45,481.57,481.57,0,0,0,29.44-64.17,582.27,582.27,0,0,0,27.33-99.22A670.26,670.26,0,0,0,4742,2776.9c1.06-69.29-8.71-138.2-26.26-205.15-16.9-64.49-40.61-127-67.3-188-51-116.51-112.73-227.87-165.35-343.59-12.85-28.25-25.12-56.76-36.47-85.64q-16.54-42.12-29.94-85.3l.8,2.66-4.67-15.76.77,2.67-4.43-15.75.74,2.68-4.18-15.75.71,2.69-3.92-15.74.67,2.7c-7.9-34.18-14.12-68.67-16.89-103.68a522.49,522.49,0,0,1,2.41-108.35c1.22-9.43,2.53-18.83,4.21-28.19q2.59-14.41,6-28.64a561.34,561.34,0,0,1,16.38-55.56c6.37-18.17,13.59-36,21.51-53.55,9.4-20.81,19.9-41,30.8-61l-1.44,2.62,8.71-15.36-1.51,2.59c10.54-17.89,21.27-35.62,32.72-52.94q12.44-18.81,25.5-37.2c20.79-29.21,42.75-57.59,65.49-85.3,43.71-53.27,90.32-104.07,138.07-153.72,54.51-56.68,110.73-111.7,166.47-167.14q88-87.48,177.49-173.34,179.76-171.5,368.23-333.54,191.95-164.94,392.45-319.49A14.68,14.68,0,0,0,5829,43.17q-20.89-4.09-42-7.09-21-3.31-42.21-5.53a14.68,14.68,0,0,0-11.6,1.28q-316.49,249.25-611.69,523.91Q4976,691.44,4836.08,833c-21.59,21.81-43.07,43.74-64.64,65.58-20.4,20.64-40.78,41.27-60.74,62.34-43.42,45.84-85.83,92.69-126.13,141.31-73.46,88.62-140.9,183.9-188.38,289.19a757.66,757.66,0,0,0-49.38,146.76,652.22,652.22,0,0,0-13.42,92.37,568.26,568.26,0,0,0-.1,85.67,773,773,0,0,0,22.89,135.23c12.94,50.09,30.07,99,49.33,147,39.9,99.42,88.9,194.79,134.21,291.77,42.82,91.64,83.42,185.29,107.39,283.88,11.73,48.25,19.27,97.54,20.79,147.21,1.7,55.56-4.11,111.36-19,165-12.83,46.13-33,90.56-60.9,129.54A327.51,327.51,0,0,1,4541,3068.7a280.82,280.82,0,0,1-68.61,45.49c-23,10.77-47.78,17.42-72.63,22-25.26,4.66-50.93,7.31-76.54,9.16-25.9,1.87-51.88,2.59-77.84,3-32.15.52-64.3.31-96.45-.34-112.89-2.27-225.6-9.92-338.51-11.61-57.29-.86-114.68-.07-171.84,4.21-55,4.12-109.89,11.49-163.58,24.32-47.87,11.44-94.83,27.24-139.13,48.77a560.79,560.79,0,0,0-65.76,37.74c-29.94,20-57.55,43.38-84.39,67.26-45.61,40.57-89.89,83.19-142.12,115.36a454.63,454.63,0,0,1-73.93,36.82,485,485,0,0,1-93,25.53c-64.11,11-129.91,10.06-194.22,1.18-65.79-9.08-130.36-26.35-192.77-48.9-15.56-5.62-30.94-11.68-46.29-17.87-11.67-4.71-23.1-9.52-34.45-14.93a535.86,535.86,0,0,1-57.7-31.71c-19.18-12.22-37.59-25.88-54.1-41.56-16.17-15.35-30.69-32.77-41.27-52.47a149,149,0,0,1-17.55-59.65,172.57,172.57,0,0,1,.77-31.29,166.54,166.54,0,0,1,6.93-33.14c6.16-19,17.67-35.83,31.69-49.92,13.29-13.36,29.51-23.53,46.3-31.89,18.06-9,37.44-15.15,57-20,23-5.69,46.63-8.82,70.22-10.65,23.13-1.8,46.31-2.13,69.5-2.06,10.23,0,20.47.14,30.7.05q13.42-.06,26.82-.77,15.71-1.21,31.47-1l-2.79-.24c13.07,1.7,26,3.81,38.45,8.27,12.17,4.36,23.74,10.62,33.31,19.39a85.38,85.38,0,0,1,19,25.77c4.35,9,6.56,18.51,8.7,28.23l-.61-2.76,1.59,9-.44-2.8,1.24,9.13-.3-2.83c1.2,11.63,2.09,23.22,2.28,34.91l0,6.1a140.2,140.2,0,0,0,1.44,21.26q1.35,15.71,2.53,31.44c4.4,58.94,6.34,118.43.75,177.36a589.58,589.58,0,0,1-12.89,79.27,426.46,426.46,0,0,1-25.28,74.85,348.2,348.2,0,0,1-39.73,67.28c-18.54,24.83-41.27,46.7-66,65.29-40.69,30.54-87.46,52-135.72,67.59a767.16,767.16,0,0,1-74.58,19.62c-30.5,6.53-61.31,11.38-92,16.62l-15.89,2.73q-17.67,2.9-35.47,4.82-19.72,2.37-39.46,4.58-49.36,5.48-98.84,9.74-109,9.39-218.37,13c-33.26,1.1-66.54,1.86-99.82,2.06-32.3.2-64.62-.41-96.91-.89-64.58-1-129.78-4.9-192.63-20.74a428.75,428.75,0,0,1-80.68-28.81,446.44,446.44,0,0,1-68.05-40.49c-46-33.18-85.71-74.17-123.27-116.45-34.32-38.63-66.93-78.82-102.67-116.17-40-41.8-84.4-79.53-133.05-110.92a749.88,749.88,0,0,0-141.35-71.62c-54.11-20.45-110.9-34.78-168.41-41.3a710.62,710.62,0,0,0-86.43-4.58,634.55,634.55,0,0,0-171.49,25.21,671.5,671.5,0,0,0-84.26,30.46,653.05,653.05,0,0,0-152.09,93,624.16,624.16,0,0,0-64.79,61.64c-6.64,7.28-13.14,14.69-19.65,22.09q-9.17,10.61-18.7,20.89a130.76,130.76,0,0,1-19.07,18.84A13.12,13.12,0,0,0,48,3562.19q19.86-.1,39.68-1.29,19.84-.89,39.6-2.87A13.12,13.12,0,0,0,137.63,3554.49Z"/><path class="cls-1" d="M137.6,3515.53q10.26-7.8,20.4-15.75a29.37,29.37,0,0,0,9.37-11.4q6.93-8.08,14.46-15.6,7.27-7.65,15.13-14.71a393.08,393.08,0,0,1,32.16-26.15c11.11-8,22.56-15.45,34.19-22.7l-3.42,2,15.2-8.93-3.42,1.94,15.37-8.53-3.42,1.85,15.53-8.14-3.41,1.77,15.68-7.76-3.41,1.68c16.59-7.73,33.29-15,50.46-21.43s34.61-12,52.27-16.81a607.78,607.78,0,0,1,108-19.3c74.7-6.42,150.23,2.06,222,23.47A687.17,687.17,0,0,1,946.4,3452.81a672,672,0,0,1,87.21,75.15q20.06,20.56,38.22,42.86c12.33,15.16,23.74,31,35.17,46.85l-1.44-2c20.14,28.25,40.1,56.68,61.79,83.78,22.82,28.51,47.12,55.88,74,80.65a490.44,490.44,0,0,0,88.86,65.61,429.23,429.23,0,0,0,58,27.72,470.39,470.39,0,0,0,78.81,22.64c44.63,8.79,90.26,11.78,135.68,12.14,49.6.38,99.1-2.64,148.59-5.66,44.39-2.71,88.83-4.38,133.25-6.66,51-2.62,102-5.68,152.85-9.72,94.33-7.5,188.45-17.79,282.07-31.6,74.1-10.92,148.24-25.87,217.33-55.63,37.5-16.15,73.06-36.52,105.11-61.88a398.49,398.49,0,0,0,40.62-36.92,387.47,387.47,0,0,0,47.26-60.32,402.61,402.61,0,0,0,32.14-61.8,468.27,468.27,0,0,0,21.48-65.94c11-43.93,16.13-89,17.58-134.24,2.7-84-7-167.69-17.91-250.81q-1.62-12.39-3.26-24.77c-1.41-10.69-2.53-21.55-4.23-32.21-1.17-7.35-2.45-14.72-4.11-22a142.18,142.18,0,0,0-7.12-22.27,122.3,122.3,0,0,0-21-33.87,132.91,132.91,0,0,0-12.67-12.84l-5.22-4.13a111.19,111.19,0,0,0-17.26-11.94,195.84,195.84,0,0,0-43.71-18l-7.93-1.89a189.54,189.54,0,0,0-23.91-4.64c-7.84-1-15.69-1.8-23.58-2.31-18.86-1.23-37.72-.92-56.6-.14-29.83,1.23-59.7,1.44-89.52,2.86-33,1.57-65.91,4.75-98.33,11.11-27.74,5.45-55.15,13.17-81.16,24.35a293.88,293.88,0,0,0-40.76,21.37,258.37,258.37,0,0,0-37.38,28.67,214.27,214.27,0,0,0-32.08,37.84,222.42,222.42,0,0,0-24.47,47.8,234.15,234.15,0,0,0-7.14,23.78l-2,8.19a190.75,190.75,0,0,0-4,26.05,272.14,272.14,0,0,0-1.65,27.33,287.75,287.75,0,0,0,2.4,37.39l3.17,18.06,4.46,17.7a252.81,252.81,0,0,0,9.22,25.75l3.48,8.43,7.26,14.62c2.76,5.47,6.06,10.9,9.27,16.12,3.58,5.83,7.52,11.57,11.55,17.1a315.65,315.65,0,0,0,34.63,39.72,379,379,0,0,0,46.78,38.43,464.61,464.61,0,0,0,48.33,29.8,673.21,673.21,0,0,0,94.1,41.06q24.93,8.75,50.43,15.77c7,1.94,14,3.81,21,5.9,14.71,4.4,29.45,8.72,44.24,12.83,43.86,12.19,88.27,22.43,133.27,29.4,96.71,15,196.68,14.89,291.62-10.81A525.62,525.62,0,0,0,3080,3497.84a516.69,516.69,0,0,0,64.48-45.37c21.31-17.52,41.15-36.74,60.28-56.6,33.11-34.36,64-70.92,99-103.42,16.23-15.07,33.31-29.13,52-41q9.34-5.94,19-11.25c12.39-6.81,25.38-12.28,38.43-17.65l-3.35,1.29,16.28-6.08-3.34,1.21c13-4.39,25.9-8.6,39.15-12q13.12-3.37,26.37-6.2a709.06,709.06,0,0,1,73.67-11.39c49.58-5.29,99.4-6.4,149.22-6.21l-2.94,0,17.3.21-2.92-.05c73.55,1.44,146.95,5.86,220.35,10.68,77.06,5.06,154.14,10.38,231.34,12.62,38.17,1.11,76.38,1.48,114.56.66,40.84-.88,81.83-2.86,122.44-7.42,17.3-1.94,34.58-4.38,51.62-8a332.75,332.75,0,0,0,53-15.9q11.67-4.62,22.94-10.11l15.26-8.22,15.15-9.44c7.44-5,14.54-10.53,21.46-16.22a335.1,335.1,0,0,0,33.4-31.5c29.43-31.86,53.24-69,71.94-108,19.44-40.6,33.49-83.74,42.69-127.77,8.29-39.64,12.29-80,13.27-120.47a709,709,0,0,0-5.8-110.92c-2.86-21.42-6.41-42.73-10.88-63.88a980.37,980.37,0,0,0-32-114.53c-24.24-70.8-55.11-139.13-87.81-206.37-29.26-60.18-60.06-119.59-89.6-179.63-30.75-62.5-60.49-125.76-84.51-191.21-22.33-60.84-40.22-123.59-47.74-188.1a556.67,556.67,0,0,1-3.52-82.52,445.69,445.69,0,0,1,4.42-49.95c2.71-18.51,5.85-37,10.45-55.14,16.46-64.94,45.37-125.66,79.74-182.92,17.7-29.49,37.14-57.93,57.4-85.71,24-32.87,49.5-64.67,75.9-95.62,48-56.3,98.89-110.08,150.86-162.74,26.28-26.63,52.91-52.92,79.55-79.19,32.46-32,64.73-64.21,97.17-96.24q212.54-209.86,436.84-407.25Q5610.69,192.34,5851.33,7.35q2.11-2.05-.47-3.48a22.2,22.2,0,0,0-11.06-.35q-10.47,1-20.84,2.81a22.2,22.2,0,0,0-10.58,3.27Q5541.77,216,5289.84,440.47,5162.34,554.27,5039,672.58C4959.25,749,4881.06,827,4802.8,905c-69.44,69.13-137.85,139.42-201.49,214-31.29,36.65-61.29,74.47-89.26,113.72-28.77,40.36-55.37,82.32-78.41,126.23a756.48,756.48,0,0,0-50.86,120.19,572.92,572.92,0,0,0-26.29,141.2c-4.92,84.16,10.22,168.3,35.48,248.37,28.94,91.71,69.61,179.08,111.61,265.4,21.53,44.25,43.53,88.28,64.87,132.63,23.81,49.47,46.46,99.41,67.19,150.25l-1-2.44,6.38,16.07-1-2.45,6.22,16.11-.94-2.45,6,16.16-.91-2.45,5.86,16.21-.88-2.46,5.67,16.26-.85-2.46,5.47,16.31-.82-2.46,5.25,16.36-.79-2.46,5,16.42-.75-2.47c6.81,23.39,13,46.89,18.23,70.7s9.23,48.16,12.07,72.48a687,687,0,0,1-.89,167.2c-6.68,51.91-20.64,103.2-42.34,150.87-23.7,52.05-57.21,100.91-102.72,136.2a243.53,243.53,0,0,1-33.76,22.15,266.76,266.76,0,0,1-35.75,15.85c-23.37,8.48-47.51,13.75-72.08,17.3-25.46,3.68-51.08,5.74-76.76,7.26-29.8,1.77-59.65,2.67-89.5,2.9-112.77.88-225.32-7.4-337.82-14-97.5-5.69-195.47-10.68-293.1-5.21-69.62,3.91-139.72,13.1-206,35.49a434.41,434.41,0,0,0-67.37,28.89,373,373,0,0,0-65.5,45.48c-22.33,19.15-42.8,40.39-63,61.76-25.79,27.32-50.94,55.44-78.93,80.58-23.09,20.74-47.58,40-74.14,56.18a495.35,495.35,0,0,1-72.14,36.28,515.69,515.69,0,0,1-84.71,25.79,613.36,613.36,0,0,1-96.24,12.41c-35.3,1.88-70.83.55-106-2.89a913,913,0,0,1-104.83-16.71c-34.6-7.51-68.74-16.86-102.63-27.08-11.48-3.46-22.92-7.1-34.42-10.52s-23.23-6.91-34.74-10.75a644.26,644.26,0,0,1-73.37-29.55c-26.5-12.65-52.2-27.32-75.84-44.79a338.6,338.6,0,0,1-30.6-25.54c-14.24-13.37-27.54-28-38.45-44.24a248.74,248.74,0,0,1-17.67-30.22,194.21,194.21,0,0,1-12-31.38,211.37,211.37,0,0,1-6.69-33.39l.32,2-1.39-17.87.1,2,0-18-.11,2.07a242.58,242.58,0,0,1,3.92-35.32,147.77,147.77,0,0,1,6.15-23.41,140.71,140.71,0,0,1,8.16-21.32,183.43,183.43,0,0,1,13.73-24.52,200.69,200.69,0,0,1,24.49-29.65,210.14,210.14,0,0,1,27.58-22.86c41.75-29.09,92.18-43.48,142.07-50.54a652.74,652.74,0,0,1,72.87-5.72c14.67-.42,29.35-.34,44-.32q10,0,19.92-.09,15.32-.23,30.58-1.68l17.9-1.23q11,.19,21.93,1a226.79,226.79,0,0,1,35.36,5.19,157.09,157.09,0,0,1,33.47,12.08,123.39,123.39,0,0,1,18.33,11.52,118.38,118.38,0,0,1,14.74,13.24l-1.75-2,7.6,8.92-1.59-2.15,6.43,9-1.42-2.25,5.45,9-1.27-2.32,4.64,9.08-1.14-2.37,3.95,9.13-1-2.41a160.41,160.41,0,0,1,6.11,20.32,164.24,164.24,0,0,1,3.14,20.29c.37,4.11.61,8.23,1,12.33l1.89,15.56q1.92,15.79,3.78,31.58c7.08,60.19,13.3,120.62,14.14,181.27.83,59.8-3.54,120.12-19.35,178-8.46,31-20,61.43-36.12,89.29-5.91,10.22-12.16,20.23-19,29.86a352,352,0,0,1-45.12,51.84c-40.13,37.94-88.68,65.92-139.93,85.95-57.26,22.37-117.68,34.79-178.18,44.61-15.88,2.58-31.82,4.76-47.76,6.94q-29.86,4.09-59.77,7.74-49.88,6-99.89,11c-73.59,7.18-147.36,12.31-221.2,16.08q-51,2.6-102.08,4.62c-19.74.81-39.47,1.63-59.19,2.68-15.59.83-31.19,1.64-46.79,2.33-35.36,1.55-70.76,2.35-106.15,1.06-39.79-1.44-79.65-5.32-118.55-14a436.05,436.05,0,0,1-91.06-31,442.26,442.26,0,0,1-74.08-44.62c-48.87-36.18-90.2-81.32-128-128.7-16.83-21.12-33-42.75-49.24-64.31-11-14.59-22-29.23-33.67-43.3a683.63,683.63,0,0,0-94.38-93.66c-84.7-69-186-118.78-292.85-141.88a616.07,616.07,0,0,0-175.35-12.5,636.23,636.23,0,0,0-265.09,80.85,536.6,536.6,0,0,0-72.49,49.4,417.91,417.91,0,0,0-32.88,29.62c-13.32,13.3-25.57,27.58-37.85,41.82l3.4-2.66-28,18.78-4,2.82-.84,2.2,2.09,1.08a25,25,0,0,0,9.48-2c8.18-2.56,16.19-5.61,24.15-8.78q5.55-2,10.89-4.57A25,25,0,0,0,137.6,3515.53Z"/><path class="cls-1" d="M139.28,3541.5l4.78-11.34,8.82-10.79c6.1-7.19,12.89-14,19.55-20.68a443.62,443.62,0,0,1,42.16-36.77c30.93-24,65.11-44,100.5-60.72a624.44,624.44,0,0,1,220-57.68c78.49-5.81,158,5.36,232.74,29.43,76.84,24.74,148.81,63.14,212.74,112.37,15.48,11.92,30.5,24.64,44.8,38s28.19,27.14,41.24,41.69c27.4,30.53,51.46,63.78,76.35,96.34,24.76,32.39,50.32,64.21,78.47,93.74a623.76,623.76,0,0,0,46.64,44.31,470.84,470.84,0,0,0,60.78,44.56c20.12,12.21,41.09,23.3,63,32a462.39,462.39,0,0,0,75.06,23.12c55.91,11.84,113,15.22,170.08,15.08,48.3-.12,96.52-2.85,144.77-4.52,61.42-2.12,122.84-4.34,184.19-8.07,111-6.75,221.63-17.44,331.73-32.79,20.41-2.85,40.79-5.84,61.08-9.43q31.54-5.58,62.74-12.89c21.24-5,42.25-11,63-17.83,10.51-3.46,20.91-7.34,31.22-11.37a474.38,474.38,0,0,0,46-20.75c20.26-10.54,40.09-22.19,58.49-35.76,19-14,37.18-29.31,53.32-46.54,8.33-8.89,16.51-18.06,23.93-27.72q8.59-11.19,16.39-22.91a376.51,376.51,0,0,0,19.47-32.72,435.05,435.05,0,0,0,19.79-43.19c4.64-11.69,8.52-23.75,12.16-35.79s6.53-24.19,9.24-36.4c5.36-24.15,8.63-48.78,11-73.38,2.29-24.18,3-48.51,3.09-72.79.09-29.61-1.35-59.27-3.61-88.78-3.24-42.31-8.07-84.47-13.2-126.59q-2-16-3.93-32.09c-.76-6.24-1.74-12.37-2.8-18.57a152,152,0,0,0-9.61-34c-5-11.87-12.58-22.58-21.24-32.06a123.82,123.82,0,0,0-17.54-15.31,140.16,140.16,0,0,0-22.92-13.31c-8.44-4.08-17.61-7-26.6-9.68a243.61,243.61,0,0,0-27.85-6.07c-19.58-3.36-39.58-4.32-59.41-4.72-7.63-.16-15.26-.22-22.9-.3-8.91-.09-17.8-.67-26.71-.74-18-.14-35.93,0-53.88.6-36.41,1.22-72.7,4.67-108.39,12.17-33,6.92-65.15,18-94.72,34.26a233,233,0,0,0-21.55,13.5,216,216,0,0,0-38.83,34.67,211.77,211.77,0,0,0-20.13,27.69l-3.64,6a148.64,148.64,0,0,0-9.42,19.57l-2.87,6.78a155.8,155.8,0,0,0-6.79,21.81l-1.94,7.5a169.23,169.23,0,0,0-3.75,23.76l-.89,8.11a189.77,189.77,0,0,0-.45,25.28l.22,8.56a167.86,167.86,0,0,0,3.15,25.06l1.46,8.23a169.64,169.64,0,0,0,6.73,23.93l2.63,7.84a179.19,179.19,0,0,0,10,22.53,274.38,274.38,0,0,0,21,34.94,288,288,0,0,0,20.24,25.07,302.19,302.19,0,0,0,22.36,22.47,383.14,383.14,0,0,0,48.47,37.57c33.46,21.93,69.34,39.76,106.53,54.41q23.78,9.37,48.16,17c8.68,2.73,17.41,5.25,26.07,8.07q17.12,5.58,34.34,10.83c48.45,14.74,97.8,27.15,147.87,35,47.12,7.38,95,11.65,142.7,10.34,51.12-1.4,101.92-8.12,151.16-22.15A505.6,505.6,0,0,0,3090.65,3498a543.42,543.42,0,0,0,54.61-40.39c10.23-8.54,20-17.65,29.72-26.79,14.28-13.45,28-27.56,41.67-41.63,17.33-17.85,34.43-36,52.35-53.24,8.45-8.14,17-16.28,25.84-24,8.5-7.35,17.12-14.67,26.17-21.34a354.09,354.09,0,0,1,51.47-31.88,449.66,449.66,0,0,1,58.19-24.08c32.49-10.89,65.93-18.39,99.72-23.95,41.28-6.78,83.18-10.22,125-11.85,79.4-3.11,158.87-.14,238.17,4,90.33,4.7,180.58,11.25,271,13.8,40.83,1.15,81.68,1.6,122.52.69q32.77-.73,65.48-2.69c23.34-1.43,46.66-3.27,69.85-6.37a420.33,420.33,0,0,0,59-12.2,296.44,296.44,0,0,0,59.72-24.64,263.47,263.47,0,0,0,28.72-18.46,304.58,304.58,0,0,0,26.64-22.17,349.14,349.14,0,0,0,24.48-25.2q8.83-9.89,16.73-20.53,8.21-10.41,15.5-21.49a499.87,499.87,0,0,0,56.73-117.38,553.15,553.15,0,0,0,17.44-65.43,638.69,638.69,0,0,0,10.11-74.16,693.68,693.68,0,0,0-2-130c-4.64-43.9-13.73-87.35-25.53-129.86-22.42-80.78-55.12-158.21-90.61-234-34.84-74.41-72.82-147.31-108.44-221.34-34-70.72-66.29-142.65-90.26-217.49-22.21-69.35-37.12-141.6-36.88-214.66a531.75,531.75,0,0,1,11.19-106.7,590.83,590.83,0,0,1,38.21-117.48c33.15-75.14,77.92-144.53,127.49-209.81,52.7-69.41,111-134.47,171.23-197.37q44.62-46.58,90.41-92,51-50.83,102-101.63,111-110.21,225-217.23,221.92-207.44,456.62-400.62,113.8-93.52,230.38-183.55a24.11,24.11,0,0,0-14.87-4q-28.34-2.83-56.78-4.57-28.41-2-56.88-3a24.11,24.11,0,0,0-15.27,2Q5371.88,277.15,5073.23,557q-142.24,133.55-279,272.76c-25.95,26.36-51.72,52.89-77.64,79.27q-30.22,30.77-59.37,62.52c-41.62,45.22-82.13,91.51-120.35,139.65-75.52,95.13-143.32,198.4-186.72,312.39-19.3,50.71-33.52,103.38-41.19,157.12a784.2,784.2,0,0,0-7,81.39c-.59,15.68-.55,31.31.29,47,.89,16.66,2.43,33.26,4.51,49.81,12.82,102.24,46.85,200.41,86.9,294.88,41.73,98.42,90.46,193.65,133.86,291.31,40.36,90.83,76.86,184.61,94,282.91,16.31,93.29,14.26,191.7-19.06,281.22a374.77,374.77,0,0,1-30.87,63.94c-12.06,19.84-26,38.73-42.24,55.36a275.75,275.75,0,0,1-47.25,39.2,252.77,252.77,0,0,1-67.17,30.44c-21.09,6.11-42.85,9.79-64.63,12.37-22.8,2.71-45.76,4.46-68.7,5.58-28.9,1.4-57.9,1.62-86.83,1.6-34.76,0-69.51-.71-104.25-1.77-113.43-3.45-226.85-10.44-340.38-9.08-114.69,1.37-230.9,11.19-340.67,46.38a682.58,682.58,0,0,0-140.54,63c-27.5,16.35-53.33,35.27-78.25,55.3-26.52,21.32-51.92,43.93-77.85,66-21,17.86-42.34,35.43-64.94,51.29a458.73,458.73,0,0,1-68.61,40.09,431.54,431.54,0,0,1-71.23,25.9,507.25,507.25,0,0,1-89.75,15.14c-30.91,2.56-62,2.06-92.92-.16a737.43,737.43,0,0,1-102.07-15.08c-65.57-14.1-129.31-35.73-190.46-63.2-7.82-3.51-15.55-7-23.13-11-11.74-6.2-23.26-12.83-34.45-20a335,335,0,0,1-48.43-37.1c-26.71-25-49.89-57.22-53-94.73-1.34-16.27,1.38-32.48,6.29-48,2.66-8.41,5.79-16.91,10.39-24.48a101.33,101.33,0,0,1,14.83-19.13c10.89-10.92,24.21-19.26,38.1-25.82a243.53,243.53,0,0,1,48.22-16.35c39.43-9.3,80.27-11.2,120.63-10.1,22.44.61,44.81,2.52,67.18,4.24l11.91.88q12.67.82,25.34,1.71a46.44,46.44,0,0,1,19.88,4.36,92.46,92.46,0,0,1,13,6.5l-3.2-2.14,9,6.08-3.07-2.32,8.28,6.69-2.91-2.52,7.37,7.24-2.71-2.73a49,49,0,0,1,6.93,9.59,53.46,53.46,0,0,1,4.1,9.69c2.5,7.73,3.39,15.51,4.24,23.55l-.37-3.93.55,9-.12-4c.32,11.58.58,23.15.63,34.73,0,5.09,0,10.17-.16,15.25l-.19,6a69.51,69.51,0,0,0,.36,13.29c3.84,55.89,5.77,112.09,1.19,168-4.17,50.92-13.83,101.86-33.71,149.13a331.63,331.63,0,0,1-33.42,61.13,304.55,304.55,0,0,1-57.25,61.58c-36.88,30.11-80.11,51.54-124.88,67.17-52.23,18.23-106.66,28.46-161.13,37.27q-19.25,3.11-38.5,6.26c-14.26,2.36-28.53,4.16-42.88,5.82q-49,5.63-98.06,10.05-108,9.73-216.51,13.59c-65.53,2.32-131.1,3.12-196.64,1-32-1.06-64-2.06-95.84-5a708,708,0,0,1-91.13-14,432.42,432.42,0,0,1-84.78-28.28,425.17,425.17,0,0,1-67-38.48c-47.71-33.38-88.69-75.22-127.69-118.18-35.34-38.92-69.42-79-106.53-116.31-42-42.19-88.36-80-138.82-111.66-97.12-61-208.24-100.11-322.44-111.57-64.31-6.46-129.64-4.37-193.21,7.46a693.66,693.66,0,0,0-177.11,58.66c-55.9,27.3-108.56,62.1-154.87,103.71a756.19,756.19,0,0,0-60.06,60.59c-8.42,9.49-16.62,19.16-24.9,28.77q-9.27,11-19.08,21.45a47.88,47.88,0,0,0-13.25,19,23.18,23.18,0,0,0,15.05.69q27.66-3.33,55.17-7.75,27.55-4.11,54.92-9.31A23.18,23.18,0,0,0,139.28,3541.5Z"/><path class="cls-1" d="M131.9,3528.12l7.71-6.83a40.64,40.64,0,0,0,11.53-12l3.81-5.12,9.73-10.6c9.61-10.21,19.67-20,30.26-29.21,24.14-21,50.75-39.13,78.58-54.85a605.47,605.47,0,0,1,158.94-61.63c57.81-13.6,117.57-18.9,176.84-14.72a606.57,606.57,0,0,1,92.32,13.4,677.17,677.17,0,0,1,89.8,27.12,693.69,693.69,0,0,1,165.31,90.22,665.49,665.49,0,0,1,129.67,126.12c19.19,24.61,37.37,50,56.3,74.8,20,26.25,40.8,52,63.27,76.2a624.32,624.32,0,0,0,60,57.13c31,25.57,65.1,47.58,101.72,64.23,35.95,16.34,74.19,27.5,113,34.33,43.75,7.69,88.3,10.23,132.66,10.46,36,.19,71.92-1.23,107.85-2.92,18.67-.88,37.33-1.81,56-2.51,24.18-.91,48.36-1.78,72.54-2.81,88.11-3.77,176.15-9.23,263.95-17.63q60.43-5.78,120.67-13.31c43.25-5.41,86.53-11.08,129.4-19,31.87-5.91,63.53-12.83,94.65-21.95,19.49-5.71,38.6-12.34,57.52-19.7a485.22,485.22,0,0,0,46.37-21.06,455.24,455.24,0,0,0,52-31.34,387.32,387.32,0,0,0,142.84-182.59c16.21-42.12,25.82-86.67,30.8-131.46,8.44-75.93,3.82-152.71-4.22-228.45-3.86-36.37-8.6-72.63-13.24-108.9-2.48-19.43-4.93-39.07-12.2-57.39a119.09,119.09,0,0,0-13.49-24.86,123.2,123.2,0,0,0-10.15-12.68,129.89,129.89,0,0,0-13.47-12.39l-5-4-11.48-7.66-13-7-14-6a210.11,210.11,0,0,0-22.32-6.85,263,263,0,0,0-30.56-5.88c-27.29-3.64-54.71-3.29-82.17-2.58-7,.18-14,.08-21,.17-7.25.1-14.49.36-21.74.54-15.88.41-31.76.9-47.63,1.75-56,3-113,11.44-164.94,33.32-26.12,11-50.78,25.55-72.13,44.26a202,202,0,0,0-62.24,95.23,235.88,235.88,0,0,0-6.18,23.31,225.39,225.39,0,0,0-3.45,25c-.77,8.66-1.23,17.35-1.13,26a251.47,251.47,0,0,0,1.84,26.72,215.38,215.38,0,0,0,11.68,50.67,183.83,183.83,0,0,0,9.59,23.87l7.79,15.22c33,59.65,88,103.73,147.16,135.75a647.94,647.94,0,0,0,84,37.68q18.33,6.77,37,12.58c5.94,1.85,11.91,3.61,17.89,5.31,10.79,3.07,21.44,6.58,32.17,9.85,34.57,10.55,69.41,20.16,104.71,28a931.69,931.69,0,0,0,124.63,19.21c75.38,6.19,152.08,1.82,225.28-18a521.76,521.76,0,0,0,112.47-44.89,500.69,500.69,0,0,0,49-30.4,562,562,0,0,0,54.76-44c29.4-26.72,56.28-56,83.75-84.69,14.14-14.75,28.54-29.25,43.59-43.08,14.46-13.28,29.54-26,45.75-37.12,49.82-34.14,108.73-53.25,167.69-64.23,56.63-10.54,114.23-14.67,171.77-15.82,64.11-1.28,128.25,1.09,192.27,4.41,68.17,3.54,136.27,8.23,204.44,11.74,67.72,3.49,135.56,5.85,203.38,4.64,35.58-.63,71.15-2.27,106.61-5.26a635.24,635.24,0,0,0,69.3-9.43c31.39-6.18,62.3-16.78,90.33-32.27,36.39-20.11,67.68-49,93.56-81.39,22.69-28.37,41.54-59.92,56.78-92.86a528.56,528.56,0,0,0,20-49.76,544.79,544.79,0,0,0,18.6-67.5,665.26,665.26,0,0,0,12.56-102,703.36,703.36,0,0,0-3.2-108c-7.27-68.4-24.22-135.35-46.89-200.21-42.79-122.39-104.23-237.08-161.72-352.94-28.05-56.53-55.1-113.51-79.16-171.87l1.13,2.8-6.4-15.94,1.12,2.81c-24.72-63.25-45.78-128.12-56.27-195.39a592.53,592.53,0,0,1-7.16-89.51,464.11,464.11,0,0,1,2.56-50.4c1.92-18,4.49-36,8.12-53.78,14.38-70.47,44.18-137,80.29-198.86,37.93-65,83.15-125.55,131.29-183.27,50.88-61,105.36-118.94,161-175.58,26.72-27.19,53.78-54,80.81-80.91q51.85-51.54,103.77-103,196.34-193.71,403-376.5Q5589.5,211.31,5837.25,20.27q3.77-2-.19-3.5a56.67,56.67,0,0,0-17.92-.85q-17.18.54-34.32,1.87a56.67,56.67,0,0,0-17.73,2.79q-175,136.65-343.68,281Q5254.86,446,5093.14,598.22q-74.09,69.72-146.7,141-39.58,38.83-78.76,78.08c-26,26-51.87,52.27-77.94,78.27-47.23,47.11-93.6,95.13-138.39,144.56-43.94,48.48-86.31,98.46-125.48,150.89-35,46.82-67.44,95.64-95.39,147-32.17,59.1-58.45,121.75-74.09,187.32A599.9,599.9,0,0,0,4340,1688c2.18,55,11.89,109.43,26.26,162.47,26.55,98,68.3,191.1,111.83,282.48,23.17,48.65,47.06,97,70.13,145.65,27,57.07,53.2,114.7,75.2,173.93,21.62,58.2,39.63,117.86,50,179.15,10.55,62.14,13.22,125.83,5.33,188.45-8.11,64.38-26.72,127.69-59.42,184-17.75,30.56-39.56,59-65.76,82.78a275.57,275.57,0,0,1-35.43,27.4,244,244,0,0,1-25.62,14.53,268,268,0,0,1-27.38,11.47l2.36-.8-16.24,5.36,2.39-.71-16.34,4.58,2.41-.64c-14,3.31-27.89,6.31-42.13,8.37-11.79,1.71-23.62,3.09-35.47,4.3-28.47,2.89-57.14,4.15-85.74,4.91-59.35,1.59-118.73.53-178-1.71-114.08-4.32-228-12.68-342.24-13.27-53-.27-106,1.25-158.78,6q-40.25,3.65-80.13,10.48a752.42,752.42,0,0,0-77.93,17.39,649.51,649.51,0,0,0-68.77,23.64c-13.68,5.61-27.05,12-40.19,18.75a392.57,392.57,0,0,0-39.24,23.17c-22.94,15.48-44.32,32.89-64.88,51.4-13,11.75-25.66,24-38.23,36.29q-20.24,19.73-40.59,39.33l1.87-1.77-15.17,14.13,1.91-1.72-15.48,13.85,1.95-1.66q-14.64,12.86-30,24.81l2-1.52q-15.33,11.85-31.48,22.56-14.48,9.61-29.65,18.08l2.22-1.19L3018.2,3472l2.25-1.11-17.64,8.58,2.29-1-17.87,7.9,2.32-.94-18.08,7.22,2.34-.86-18.27,6.55,2.37-.78-18.45,5.9,2.39-.71-18.61,5.26,2.4-.63-18.76,4.64,2.42-.56-18.88,4,2.43-.48-19,3.43,2.44-.41-19.1,2.85,2.45-.35-19.18,2.28,2.46-.28-19.25,1.73,2.46-.21-19.31,1.2,2.46-.15c-14.12.49-28.17.83-42.29.59s-28.29-.87-42.4-2A788.91,788.91,0,0,1,2640,3512.6q-37.92-7.1-75.21-17.07c-31.28-8.35-62-18.27-92.59-28.83l2.32.81c-22.35-8-44.72-15.76-66.52-25.14a554.35,554.35,0,0,1-54.23-26.64c-36-20.43-70.3-45-96.87-77.11a200.26,200.26,0,0,1-19.39-27.24,223.61,223.61,0,0,1-11.83-23.51,129.08,129.08,0,0,1-6.3-18.26,126,126,0,0,1-4.37-18.49,207.15,207.15,0,0,1-2.38-24.84,188.45,188.45,0,0,1,1.94-31.8,176.29,176.29,0,0,1,7.23-32.68,146.46,146.46,0,0,1,12.65-27.58,144.56,144.56,0,0,1,16.06-22.63c45.67-51.71,116.85-69.7,183-76.27,19.43-1.93,39-2.65,58.51-2.88,20.82-.24,41.67.49,62.49-.15,9.94-.3,19.83-1,29.76-1.64a80.53,80.53,0,0,1,21.63-.32q5,.35,9.87,1.08a180.67,180.67,0,0,1,25.36,4.87l10,3.15a112,112,0,0,1,18.49,8.53l-2.59-1.63,10.68,6.89-2.45-1.82,9.61,7.57-2.28-2,8.51,8.11-2.08-2.2,7.51,8.55-1.87-2.37,6.6,9-1.66-2.52,5.51,9.09-1.45-2.63,4.55,9.11-1.25-2.72,3.77,9.13-1.06-2.79,3.15,9.18-.9-2.83,2.63,9.25-.76-2.86,2.19,9.32-.64-2.88,1.82,9.4-.54-2.9,1.5,9.47-.46-2.9c.83,6.57,1.57,13.12,1.9,19.74.22,4.54.3,9.08.63,13.61.77,10.86,2.23,21.74,3.33,32.58q2.4,23.79,4.4,47.62c2.45,29.69,4.26,59.44,4.89,89.23.64,30.05.22,60.23-2.42,90.19A616,616,0,0,1,2718,3501q-2.69,12-6.22,23.82-3.25,11.88-7.38,23.5a379.74,379.74,0,0,1-19.2,45.46,363.8,363.8,0,0,1-20.83,35.71,353.2,353.2,0,0,1-25,33.06q-8,9.35-16.75,17.88-8.43,8.71-17.65,16.6l-12.32,10.25q-12.47,9.9-25.74,18.72l2.13-1.38-15.5,9.89,2.17-1.31-15.83,9.28,2.2-1.24-16.13,8.7,2.23-1.17-16.41,8.14,2.26-1.11c-14.39,6.56-28.85,12.78-43.67,18.31-17.25,6.45-34.88,11.85-52.63,16.7-30.32,8.29-61.08,14.52-92,20-18.27,3.24-36.53,6.7-54.9,9.31-19.77,2.81-39.6,5.24-59.43,7.62q-59.51,7.13-119.19,12.61c-79.8,7.26-159.78,12.07-239.85,15.09q-60.54,2.28-121.11,2.93c-21.79.26-43.56.85-65.35,1-22.31.19-44.58-.17-66.88-.82l2.46.09-21-1,2.45.15-21.06-1.43,2.45.22c-13.24-1.21-26.46-2.44-39.66-4.11-15.47-2-30.84-4.67-46.09-7.91-27-5.74-53.76-13.47-79.17-24.34a452.58,452.58,0,0,1-60.28-31c-11.48-7.1-22.58-14.78-33.39-22.85s-20.9-16.39-31.09-25l1.86,1.64-13.69-12.16,1.84,1.68-13.35-12.44,1.81,1.71c-11.22-10.92-22.26-22-33-33.39s-20.88-22.91-31-34.62c-19.92-23.06-39.09-46.76-58.54-70.21-19.07-23-38.33-45.9-59.16-67.33a721.65,721.65,0,0,0-62.2-57.06,735.12,735.12,0,0,0-149.53-93.79,704.47,704.47,0,0,0-85.83-33.77,677.51,677.51,0,0,0-89.41-22.37c-57.31-10.1-115.66-13.24-173.64-7.86a657.3,657.3,0,0,0-164.44,37.45A638.17,638.17,0,0,0,265.7,3375a599.85,599.85,0,0,0-74.93,46.88,545,545,0,0,0-67.24,58.05c-8.65,8.9-17,18.06-25.24,27.34q-7.23,8.18-14.56,16.28a80.35,80.35,0,0,1-25.41,22.36q-3.52,2.85,1,3.37a65.74,65.74,0,0,0,19-3.64q17.92-4.81,35.61-10.37A65.74,65.74,0,0,0,131.9,3528.12Z"/><path class="cls-1" d="M144.65,3512l20-15a23.31,23.31,0,0,0,7.37-7.71,263,263,0,0,1,23.39-25.6q10-9.69,20.64-18.7c10.49-8.9,21.65-16.87,32.89-24.76l-3.37,2.25,14.78-9.75-3.37,2.16,15-9.33-3.37,2.08c15.74-9.25,31.68-18,48.15-25.88a572.37,572.37,0,0,1,56.93-23.45,623.53,623.53,0,0,1,113-28.26,574.14,574.14,0,0,1,116.27-5.82A612.28,612.28,0,0,1,723,3342.65c39.6,10.07,78.21,24.4,115.25,41.6a690.85,690.85,0,0,1,111.2,64.88,668.64,668.64,0,0,1,87.25,74.48q20.13,20.45,38.35,42.61c14.87,18.11,28.42,37.2,42,56.28,20.21,28.35,40.55,56.62,62.5,83.66,30.22,37.21,63.56,71.91,101.49,101.34a463.16,463.16,0,0,0,57.69,38.34,427.5,427.5,0,0,0,67.33,30.42,442.22,442.22,0,0,0,49.43,14.55c13.82,3.11,27.77,5.88,41.79,7.91a794.72,794.72,0,0,0,95,7.68c56.79,1.36,113.54-2,170.2-5.46,57.88-3.51,115.85-5.65,173.74-9,114.75-6.62,229.25-17,343.17-32.36,49.55-6.69,99.29-13.53,148-24.84,21.29-4.94,42.5-10.45,63.28-17.23,26.7-8.71,53.09-18.77,78.23-31.33,20.74-10.36,41.09-21.81,60-35.21,9.77-6.91,19.46-14.06,28.59-21.78,9.34-7.9,18.56-16.06,27.13-24.78,8.79-8.95,17.43-18.18,25.32-27.93,8.12-10,16-20.38,23.13-31.18,7.3-11.14,14.22-22.52,20.46-34.3q7.15-13.26,13-27.15,6.26-13.67,11.23-27.87c17.43-49.56,27.07-101.59,30.37-154,3.52-55.9,1.32-112-3.9-167.68-4.3-45.93-10.32-91.67-16.41-137.39-2.07-15.56-3.87-31.16-6.77-46.59-2.17-11.49-5.42-23.31-10.4-33.92a123.72,123.72,0,0,0-23.13-34.14,150.52,150.52,0,0,0-19.37-16.82,171.36,171.36,0,0,0-25.67-14.93c-9.56-4.63-20-8-30.15-11a252,252,0,0,0-32.12-6.72,316.11,316.11,0,0,0-31.57-2.91c-14.25-.77-28.68-.55-42.94-.05-8.19.28-16.38.76-24.57,1-10.35.29-20.69.48-31,.83-18.44.62-36.88,1.16-55.31,2.26q-26.54,1.59-52.92,5.08a480.15,480.15,0,0,0-64.47,12.73,411.54,411.54,0,0,0-49.65,17,299.47,299.47,0,0,0-46.8,24.86,248.59,248.59,0,0,0-42.29,34.93,229.81,229.81,0,0,0-18.65,22c-9.29,12.22-16.87,25.67-23.49,39.49a237.16,237.16,0,0,0-11.91,31.36,246.48,246.48,0,0,0-7.83,35.7c-2,12.62-2.54,25.61-2.68,38.38a267.81,267.81,0,0,0,2.89,39.5l3.69,19.27,5.19,18.91,6.66,18.38,8,17.31c6.9,13.82,15.72,26.62,25,38.9a236.79,236.79,0,0,0,17.4,21.22l12.43,13c8.23,8.34,17.17,16.1,26.19,23.59,7.54,6.27,17.69,13.9,25.77,19.5a532.61,532.61,0,0,0,62.33,37.07c40.27,20.44,82.67,36.36,126,49,8.18,2.38,16.42,4.44,24.64,6.67q13.36,4,26.77,8,13.24,3.94,26.55,7.61c29.4,8.06,59,15.45,88.95,21.3,26.94,5.27,54,9.61,81.31,12.64s54.87,4.72,82.43,5a680.57,680.57,0,0,0,92.12-5.34c12.09-1.51,24.15-3.6,36.13-5.85q13.6-2.55,27-6,13.52-3.13,26.82-7.13a551.78,551.78,0,0,0,78.63-30.19,510.79,510.79,0,0,0,82.61-49.5c10.78-7.93,21.19-16.26,31.35-25,13.17-11.27,25.73-23.17,38-35.4,23.63-23.53,45.6-48.67,68.35-73,8.5-9.1,17-18.19,25.79-27,12.31-12.42,25.07-24.77,38.62-35.85a324.34,324.34,0,0,1,26.31-19.86l12.64-8q12.4-7.45,25.45-13.69l-3.28,1.52,16.09-7.34-3.27,1.45c8.56-3.54,17.09-7.05,25.82-10.13,8.57-3,17.3-5.82,26-8.28q22.83-6.41,46.1-10.9c37.86-7.35,76.36-11.39,114.86-13.41,74.78-3.93,149.73-1.53,224.45,2.46,165.56,8.85,331.23,26.36,497.2,18.45q28.77-1.37,57.47-3.83c20.11-1.72,40.24-4,60.11-7.54,10-1.8,20-3.88,29.76-6.53,10.16-2.76,20.35-5.76,30.19-9.52,7.73-3,15.3-6.18,22.79-9.7a298.22,298.22,0,0,0,37.78-21.33l14.31-10.45,13.87-11.47,6.71-6.23a252.57,252.57,0,0,0,19.63-19.61,426,426,0,0,0,40-52,484.45,484.45,0,0,0,35.78-65.39,540.73,540.73,0,0,0,28.25-77c5.6-19.95,10.28-40.09,13.88-60.5,3.52-19.89,5.92-39.9,7.57-60a713.58,713.58,0,0,0-1.56-136.33c-2.48-22.45-5.66-44.84-10-67a961.49,961.49,0,0,0-33-123.18c-50.46-148.85-128.81-285.86-196.78-427-31.88-66.2-61.71-133.68-84.08-203.75-20.63-64.61-34.46-131.51-35.47-199.51a477.26,477.26,0,0,1,2-50.2c.75-8.29,1.69-16.61,2.92-24.83,1.33-8.9,2.67-17.92,4.37-26.74a532.12,532.12,0,0,1,33.7-109.09c29.57-69,69.95-132.75,114.66-192.83,98.37-132.18,217.41-246.87,334.15-362.46,39-38.66,78-77.39,117.35-115.75q55.9-54.52,112.6-108.21,116.81-110.56,237.35-217.09Q5601.11,203.17,5860,4.21q2-2.1-.55-3.46a21.78,21.78,0,0,0-11-.1q-10.34,1.25-20.55,3.27a21.78,21.78,0,0,0-10.39,3.5q-263,203.46-511.74,424.44-120.7,107.51-237.79,219Q5011.18,705,4955.2,760c-41.59,40.81-82.63,82.18-124.14,123.07-68.43,67.42-136,135.83-199.65,207.82-32,36.2-62.95,73.44-91.94,112.09-28.26,37.68-54.94,76.58-78.73,117.25-21.94,37.52-41.44,76.51-57.18,117a601.16,601.16,0,0,0-21.45,65.22,580.33,580.33,0,0,0-14.83,75.42,570.22,570.22,0,0,0-2.53,115.53c3.23,40.59,10.52,80.74,20.62,120.17,23.58,92.07,61.7,179.73,102.36,265.36,21.1,44.43,43.05,88.46,64.74,132.61,23.26,47.36,46,94.93,67.49,143.14l-1.06-2.39,7,16-1-2.4,6.85,16-1-2.4,6.71,16-1-2.41,6.57,16.08-1-2.41,6.42,16.13-.95-2.42,6.25,16.18-.92-2.42,6.08,16.23-.89-2.43,5.9,16.28-.86-2.43,5.71,16.33-.83-2.44,5.51,16.39-.8-2.44,5.3,16.45-.77-2.44,5.08,16.51-.74-2.45,4.85,16.58-.7-2.45,4.6,16.64-.67-2.45,4.35,16.71-.63-2.45,4.09,16.78-.6-2.45c5.44,24.09,10.35,48.26,13.69,72.74q4.05,29.75,5.85,59.72a640.31,640.31,0,0,1,0,77.07,663.64,663.64,0,0,1-8.93,77.4c-8.55,47.2-23,93.59-44.13,136.72a413,413,0,0,1-38.4,63.69,314.1,314.1,0,0,1-26.55,32c-11.21,11.62-23.06,22.69-36.16,32.17a267.65,267.65,0,0,1-26.56,17.13,287,287,0,0,1-27.95,13.46,275.1,275.1,0,0,1-35.55,11.91,356.84,356.84,0,0,1-35.68,7.78c-19.44,3.17-39,5.21-58.63,6.85-29.62,2.48-59.34,3.85-89,4.57-99.91,2.43-199.78-3.25-299.46-9.34-97.2-5.94-194.52-12.8-292-12.3-43.92.22-87.85,2-131.55,6.57-47.28,4.89-94.56,13.44-139.82,28.16-34,11-67.06,25.61-97,45.25-49,32.16-87.7,76.71-127.37,119.17-17.35,18.57-34.91,36.93-53.52,54.25-11.51,10.71-23.61,20.71-36.1,30.25-11.85,9.06-24,17.7-36.71,25.54a525.92,525.92,0,0,1-62.17,32.83c-29.09,13-59.72,22.69-90.71,29.88-121.74,28.25-249.1,13.34-368.64-18.24q-21.61-5.71-43-12.1l-17.18-5.22q-14.4-4.69-29.06-8.52c-20.43-5.84-40.64-12.42-60.52-19.93a672.9,672.9,0,0,1-63.44-27.74c-11-5.49-21.67-11.46-32.19-17.74q-9.81-5.72-19.23-12.07-13.72-9.15-26.67-19.36l1.46,1.11L2250.14,3387l1.37,1.21a324.7,324.7,0,0,1-24.67-23.74,283.16,283.16,0,0,1-21.17-25.53,265.61,265.61,0,0,1-18-28,132.25,132.25,0,0,1-10.67-23.16,135.94,135.94,0,0,1-8.08-26.11,212.19,212.19,0,0,1-5-37.07,230,230,0,0,1,1.44-37.93,219.47,219.47,0,0,1,7.44-36.07l-.63,1.9,6.37-18.67-.78,1.87,7.73-17.63-.93,1.83,8.74-15.92-1.09,1.78,9.27-13.72-1.26,1.7,9.86-12.38-1.42,1.6,10.44-11.35-1.57,1.49,10.93-10.39a165.1,165.1,0,0,1,14.64-11.85,236.39,236.39,0,0,1,20.36-13.63,294,294,0,0,1,48.85-23,363.31,363.31,0,0,1,58.26-15.88,551.84,551.84,0,0,1,54.9-7.54c18.77-1.65,37.6-2.49,56.44-2.72,20.13-.25,40.26.19,60.38-.37,11.31-.32,22.59-1.19,33.88-1.87a103.22,103.22,0,0,1,20.84-.12l11.81.83c8.25.75,16.48,1.89,24.63,3.37a147.45,147.45,0,0,1,18.47,4.56,145.06,145.06,0,0,1,18.2,6.22l-2.39-1.07,13.92,6.42-2.31-1.25,12.63,7.33-2.21-1.45,11.24,8-2.07-1.64,10.09,8.59-1.92-1.82,9,9.09-1.75-2,7.68,9.25-1.59-2.1,6.45,9.25-1.42-2.21,5.45,9.24-1.27-2.28,4.62,9.23-1.14-2.34a152,152,0,0,1,7.3,20.56,162.75,162.75,0,0,1,3.46,17.11c.83,5.47,1.36,10.95,1.79,16.47,1,12.45,2.8,24.82,4.3,37.21,7.33,60.26,14.36,120.74,16.2,181.47,1.74,57.29-.39,115-12.23,171.3a433.85,433.85,0,0,1-26.29,83.88,355.65,355.65,0,0,1-56.13,89.74,367.91,367.91,0,0,1-62.26,57.25,427.93,427.93,0,0,1-70.41,41.24c-53,24.89-109.93,40.17-167.32,50.92-28.34,5.31-56.88,9.44-85.43,13.44q-54.53,7.63-109.27,13.69-109.61,12.26-219.73,18.88-55.36,3.41-110.78,5.82c-33.17,1.5-66.35,2.85-99.5,4.65-71.43,3.88-143.33,7.7-214.7.81-33.64-3.25-67.31-8.84-99.76-18.44a427.79,427.79,0,0,1-84.82-35.24c-53-29.14-98.75-69.43-139-114.25-32.93-36.68-62-76.43-91.27-116-8.49-11.47-17-22.95-25.88-34.11-7.65-9.61-15.62-18.93-23.81-28.07a666.86,666.86,0,0,0-63.34-61.81,689.67,689.67,0,0,0-128.29-87c-48.64-25.42-100.09-45.7-153.29-59.33A619.36,619.36,0,0,0,632.32,3313a597.43,597.43,0,0,0-88.08-2.79A625.76,625.76,0,0,0,374,3341.58a632.13,632.13,0,0,0-116,52,515.7,515.7,0,0,0-72,49.95c-9.44,7.87-18.57,16.07-27.3,24.72-13.38,13.27-25.61,27.6-38.32,41.5l3.39-2.68-29.38,19.39-3.94,2.85-.83,2.2,2.1,1.07a25.08,25.08,0,0,0,9.48-2c8.18-2.61,16.19-5.72,24.15-8.94q5.55-2.07,10.89-4.65A25.08,25.08,0,0,0,144.65,3512Z"/><path class="cls-1" d="M130.7,3548.5l4-5.88a80.46,80.46,0,0,1,8.28-11.21c4.43-5.48,9.1-10.66,13.91-15.81a419.71,419.71,0,0,1,35.87-33.83,507.48,507.48,0,0,1,80.09-54.92,618.19,618.19,0,0,1,257.87-76,599.74,599.74,0,0,1,97.81,1.8c65.51,6.47,129.88,24,190.34,49.89a698.06,698.06,0,0,1,163.38,98.16,668.49,668.49,0,0,1,69.94,65c10,10.74,19.59,21.85,28.86,33.22,12,14.76,23.35,30.13,34.75,45.38,19.29,25.81,38.53,51.65,59,76.55a772.93,772.93,0,0,0,69.54,74.69,484.42,484.42,0,0,0,86.92,64.81,419.66,419.66,0,0,0,55.86,27.25,451.49,451.49,0,0,0,65.58,20.22c42.85,9.82,86.79,14,130.68,15.45,45.47,1.46,91-.19,136.4-2.25,19.35-.88,38.69-1.83,58-2.55,24.06-.89,48.13-1.73,72.19-2.73q66.12-2.76,132.16-7,136.07-8.85,271.39-26.44c76.42-10,153.35-21.15,226.64-45.9a552,552,0,0,0,91.92-40.44,412.72,412.72,0,0,0,50.26-33.21,388.37,388.37,0,0,0,46.13-41.42,380.42,380.42,0,0,0,67.88-100.48c18.6-39.88,30.58-82.43,37.7-125.79,13.12-80,10.21-161.76,2.57-242.13-3.18-33.45-7.13-66.82-11.2-100.18l-1-8q-1.47-11.94-2.92-23.89c-.56-3.53-1.18-7.05-1.77-10.58a158.88,158.88,0,0,0-6.32-26.09,120.06,120.06,0,0,0-23.65-39.93,121.71,121.71,0,0,0-12.49-11.71,134.64,134.64,0,0,0-15.17-11,149.22,149.22,0,0,0-18.32-9.4l-6.43-2.83a160.13,160.13,0,0,0-20.43-6.64,260.68,260.68,0,0,0-28-6.07,367.05,367.05,0,0,0-40.9-4.12c-13.91-.67-27.82-.62-41.73-.87-7.3-.13-14.57-.45-21.88-.43q-10.5,0-21,.16c-17.72.22-35.47.57-53.17,1.63-55.26,3.32-111.29,11.83-162.24,34.46-25.66,11.4-49.71,26.47-70.23,45.7a207,207,0,0,0-27,30.77c-4.15,5.81-8,11.78-11.59,18a192.35,192.35,0,0,0-15.22,34.28,214.89,214.89,0,0,0-6.55,22.73,226.52,226.52,0,0,0-3.9,24.41,246.73,246.73,0,0,0-1.63,25.52l.24,8.8a175.92,175.92,0,0,0,2,26.08,242.58,242.58,0,0,0,12.76,49.52,238.32,238.32,0,0,0,10.4,23.09,125.16,125.16,0,0,0,8.11,14.71,131.11,131.11,0,0,0,9,14.08c39.63,57.8,99.73,98.23,162.46,127.43a695.46,695.46,0,0,0,80.64,31.38c12.64,4.06,25.45,7.54,38.09,11.57,22.85,7.28,45.8,14.18,69,20.43,74.84,20.19,151.82,33.47,229.47,34.22,81.31.79,163.15-12.49,238.08-44.8a496.87,496.87,0,0,0,105.16-61.71c15.82-12.11,30.89-25.06,45.43-38.67,19.09-17.87,37.29-36.64,55.41-55.48,25.15-26.15,50.22-52.51,77.9-76a347.69,347.69,0,0,1,90.58-56.89c56.9-25,118.75-37.34,180.27-44,61.76-6.72,124-7.66,186.08-6.56,69,1.22,138,5.4,206.94,9.51,72.27,4.32,144.56,8.74,216.94,10.44q49,1.15,98,.37c38.18-.67,76.46-2.44,114.48-6.1,32.27-3.11,64.45-8.18,95.35-18.22,7.54-2.45,15-5.09,22.36-8.14a257.73,257.73,0,0,0,29.68-14.43L4544,3175a124.64,124.64,0,0,0,14.28-9.33,295.3,295.3,0,0,0,26.93-21.45c28.46-25.44,52.42-55.64,72.21-88.22,21-34.62,37.46-72.12,49.62-110.72a577.08,577.08,0,0,0,21.46-98.19c2.54-19.3,4-38.81,4.88-58.25q1.27-28.6.19-57.23c-2.78-70.47-16.7-140-37.47-207.3-39.47-127.86-101.79-247.06-161-366.56-29.14-58.84-57.85-118-83-178.63-23-55.35-43.06-112.09-56.57-170.55a681.89,681.89,0,0,1-14.27-84.52q-2.29-22.51-2.79-45.14c-.33-15,.1-29.87.85-44.82l-.24,3.32,1.21-16.06-.32,3.31,1.61-16-.39,3.31,2-16-.46,3.3,2.53-18.07-.53,3.29,3.11-17.83-.61,3.29,3.59-17.7-.69,3.27,4.06-17.54-.77,3.26,4.51-17.37-.86,3.24,5-17.21-.94,3.22,5.38-17.05-1,3.2,5.79-16.9-1.11,3.17,6.19-16.76-1.2,3.15,6.58-16.62-1.28,3.12,7-16.49L4426,1445c8.4-18.8,17.1-37.39,26.71-55.62,8-15.22,16.54-30.18,25.39-44.94,19.4-32.31,40.5-63.61,62.88-93.92,43.61-59.06,91.35-114.93,141.09-168.9,51.43-55.81,105.06-109.5,158.8-163.07,62.8-62.6,125.61-125.2,189.4-186.81Q5219,549.48,5417.49,377.66,5619.41,202.95,5830.9,39.8a17.69,17.69,0,0,0-12.19-4.45q-23.52-3.75-47.19-6.41-23.64-3-47.38-4.84a17.69,17.69,0,0,0-12.89,1.47q-320.42,253-619,532-142.15,133.2-278.94,271.94c-23.77,24.09-47.4,48.33-71.16,72.44-10.67,10.83-21.41,21.59-31.93,32.57q-17.08,17.82-33.83,36c-41.52,44.73-82.07,90.4-120.43,137.88-73.68,91.2-140.43,189.66-185.51,298.35-21.41,51.63-37.68,105.41-46.84,160.59a728.4,728.4,0,0,0-8.55,79.71c-.84,15.39-1.13,30.73-.64,46.13.45,14,1.36,28.06,2.7,42,9.93,103.78,43.22,203.73,83.22,299.44,40.33,96.51,88,189.72,131.32,284.86,41.93,92,80.74,186.63,101.06,286,20.06,98.19,20.85,202.12-11.64,297.83-14.42,42.49-35.65,83-64.21,117.75a304.94,304.94,0,0,1-46.76,45.77,256,256,0,0,1-67.13,37.64c-25.1,9.61-52,14.92-78.54,18.3-23,2.93-46.19,5-69.36,6.18-58.43,3-117.09,2.37-175.56.89-118.48-3-236.87-11.17-355.44-10.47-108.31.64-217.81,8-322.58,37.18-53.42,14.88-105.75,35.45-153.76,63.36a621.58,621.58,0,0,0-65.33,43.75c-27,20.64-52.48,43-78,65.45-21.32,18.76-42.67,37.53-65.11,54.95A535.56,535.56,0,0,1,3010,3430c-52.52,29-111.44,45.63-170.89,52.22-66.06,7.32-133.37,2.7-198.5-10a978.45,978.45,0,0,1-187.23-56.88c-10-4.13-20-8.27-29.84-12.72-12.33-5.58-24.38-12-36.16-18.63a412.6,412.6,0,0,1-53.06-35.21c-31.56-24.93-60.8-56.9-71.6-96.55a130.81,130.81,0,0,1-2.68-53.92c2.85-19,8.54-37.7,19.42-53.72,19.76-29.09,52.47-46.35,85.14-56.94,39.28-12.73,80.94-16.77,122-17.45,24.7-.41,49.37.91,74,1.94q15.59.65,31.17.84a251.3,251.3,0,0,1,27.89,1,148.85,148.85,0,0,1,15.86,4.42l-3.13-1.2,10.89,4.17-3.06-1.34,10.5,4.88-3-1.5,9.91,5.62-2.86-1.68a93.24,93.24,0,0,1,12.06,9.33,64.16,64.16,0,0,1,10.36,13.22,79.58,79.58,0,0,1,5.43,11,119.12,119.12,0,0,1,5,17.08l-.77-3.22,1.62,8.81-.54-3.27,1.23,8.92-.34-3.3c1.12,11.11,2,22.21,2.32,33.38.19,6.2.11,12.39.06,18.59-.08,9.62,1,19.17,1.72,28.76,4.11,57,6.2,114.4,1.53,171.47a586.6,586.6,0,0,1-11,75.91c-5.76,26.72-13.54,53.19-24.53,78.27-9.8,22.37-21.39,44.07-35.82,63.82-5.79,7.92-11.82,15.65-18.28,23a318.39,318.39,0,0,1-37.09,35.86c-39.76,32.82-86.74,56.13-135.5,72.36a749.36,749.36,0,0,1-73,20.11c-30.06,6.73-60.45,11.72-90.83,16.72-10.42,1.72-20.83,3.57-31.26,5.2-18.22,2.86-36.55,4.85-54.87,6.92q-49.14,5.56-98.41,9.9-108.45,9.57-217.32,13.27-49.56,1.69-99.15,2.1c-32.82.23-65.6-.5-98.42-1.26-63-1.45-126.36-4.88-187.9-19.6a438.46,438.46,0,0,1-79-26.55,432.77,432.77,0,0,1-68.21-38.87c-46.16-32.08-86-72.22-123.69-113.67-35.1-38.59-68.47-78.76-104.66-116.35-40.73-42.29-85.61-80.43-134.78-112.58-94.5-61.78-203.19-102.3-315.38-115.8-63-7.58-127.29-6.81-190,3.55a683.92,683.92,0,0,0-255.47,98.16,640.47,640.47,0,0,0-73.6,54.57,699.13,699.13,0,0,0-65.21,64.22c-6.66,7.48-13.2,15.07-19.77,22.64q-9.24,10.83-18.9,21.28a131.72,131.72,0,0,0-15.46,19.33,16.16,16.16,0,0,0,12.21,1.69q22.52-1.46,44.94-4,22.46-2.25,44.78-5.59A16.16,16.16,0,0,0,130.7,3548.5Z"/></g></g></svg>
