<svg width="1028" height="81" viewBox="0 0 1028 81" fill="none" xmlns="http://www.w3.org/2000/svg">
<path d="M3.9 28.5H41.1V42.525H36V33.6H25.425V60.975H34.5V66H10.2V60.975H19.575V33.6H9V42.525H3.9V28.5ZM64.1707 41.625C64.1707 41.175 64.1457 40.6 64.0957 39.9C64.0957 39.15 64.0707 38.4 64.0207 37.65C63.9707 36.85 63.8957 36.075 63.7957 35.325C63.7457 34.575 63.6707 33.925 63.5707 33.375H58.5457V28.5H68.5207L69.2707 33.75H69.6457C70.9957 32 72.6957 30.55 74.7457 29.4C76.8457 28.2 79.3957 27.6 82.3957 27.6C87.7457 27.6 91.7707 29.075 94.4707 32.025C97.1707 34.975 98.5207 39.8 98.5207 46.5C98.5207 49.65 98.0457 52.5 97.0957 55.05C96.1957 57.55 94.8957 59.675 93.1957 61.425C91.4957 63.175 89.4457 64.525 87.0457 65.475C84.6457 66.425 81.9957 66.9 79.0957 66.9C78.0457 66.9 77.0957 66.85 76.2457 66.75C75.4457 66.7 74.6957 66.6 73.9957 66.45C73.3457 66.35 72.6957 66.2 72.0457 66C71.3957 65.8 70.6957 65.55 69.9457 65.25V81H64.1707V41.625ZM81.4207 33.075C79.9207 33.075 78.4957 33.35 77.1457 33.9C75.8457 34.45 74.6707 35.175 73.6207 36.075C72.6207 36.975 71.7957 37.975 71.1457 39.075C70.4957 40.175 70.0957 41.275 69.9457 42.375V59.475C71.0457 60.225 72.2707 60.825 73.6207 61.275C75.0207 61.675 76.8457 61.875 79.0957 61.875C83.0957 61.875 86.2957 60.575 88.6957 57.975C91.0957 55.325 92.2957 51.475 92.2957 46.425C92.2957 42.175 91.4457 38.9 89.7457 36.6C88.0957 34.25 85.3207 33.075 81.4207 33.075ZM153.616 61.275C152.716 62.075 151.641 62.825 150.391 63.525C149.191 64.225 147.866 64.825 146.416 65.325C144.966 65.825 143.441 66.2 141.841 66.45C140.291 66.75 138.716 66.9 137.116 66.9C134.116 66.9 131.466 66.45 129.166 65.55C126.866 64.6 124.941 63.275 123.391 61.575C121.841 59.825 120.666 57.75 119.866 55.35C119.066 52.95 118.666 50.25 118.666 47.25C118.666 44.1 119.091 41.3 119.941 38.85C120.841 36.4 122.116 34.35 123.766 32.7C125.416 31.05 127.416 29.8 129.766 28.95C132.116 28.05 134.741 27.6 137.641 27.6C139.741 27.6 141.816 27.875 143.866 28.425C145.916 28.975 147.716 30.025 149.266 31.575C150.866 33.075 152.091 35.175 152.941 37.875C153.791 40.525 154.091 43.975 153.841 48.225H124.816C124.816 52.725 126.016 56.1 128.416 58.35C130.866 60.55 134.116 61.65 138.166 61.65C139.516 61.65 140.841 61.5 142.141 61.2C143.491 60.85 144.766 60.45 145.966 60C147.166 59.55 148.216 59.05 149.116 58.5C150.066 57.95 150.791 57.45 151.291 57L153.616 61.275ZM137.791 32.55C136.141 32.55 134.566 32.725 133.066 33.075C131.616 33.425 130.316 34.025 129.166 34.875C128.066 35.675 127.141 36.75 126.391 38.1C125.691 39.4 125.241 41.025 125.041 42.975H148.366C148.116 39.675 147.041 37.125 145.141 35.325C143.291 33.475 140.841 32.55 137.791 32.55ZM188.987 49.05H184.862V66H179.087V28.5H184.862V44.55H188.987L203.762 28.5H210.812L194.237 46.275L207.887 60.975H212.762V66H205.037L188.987 49.05ZM267.558 61.275C266.658 62.075 265.583 62.825 264.333 63.525C263.133 64.225 261.808 64.825 260.358 65.325C258.908 65.825 257.383 66.2 255.783 66.45C254.233 66.75 252.658 66.9 251.058 66.9C248.058 66.9 245.408 66.45 243.108 65.55C240.808 64.6 238.883 63.275 237.333 61.575C235.783 59.825 234.608 57.75 233.808 55.35C233.008 52.95 232.608 50.25 232.608 47.25C232.608 44.1 233.033 41.3 233.883 38.85C234.783 36.4 236.058 34.35 237.708 32.7C239.358 31.05 241.358 29.8 243.708 28.95C246.058 28.05 248.683 27.6 251.583 27.6C253.683 27.6 255.758 27.875 257.808 28.425C259.858 28.975 261.658 30.025 263.208 31.575C264.808 33.075 266.033 35.175 266.883 37.875C267.733 40.525 268.033 43.975 267.783 48.225H238.758C238.758 52.725 239.958 56.1 242.358 58.35C244.808 60.55 248.058 61.65 252.108 61.65C253.458 61.65 254.783 61.5 256.083 61.2C257.433 60.85 258.708 60.45 259.908 60C261.108 59.55 262.158 59.05 263.058 58.5C264.008 57.95 264.733 57.45 265.233 57L267.558 61.275ZM251.733 32.55C250.083 32.55 248.508 32.725 247.008 33.075C245.558 33.425 244.258 34.025 243.108 34.875C242.008 35.675 241.083 36.75 240.333 38.1C239.633 39.4 239.183 41.025 238.983 42.975H262.308C262.058 39.675 260.983 37.125 259.083 35.325C257.233 33.475 254.783 32.55 251.733 32.55ZM292.054 41.625C292.054 41.175 292.029 40.6 291.979 39.9C291.979 39.15 291.954 38.4 291.904 37.65C291.854 36.85 291.779 36.075 291.679 35.325C291.629 34.575 291.554 33.925 291.454 33.375H286.429V28.5H296.404L297.154 33.75H297.529C298.879 32 300.579 30.55 302.629 29.4C304.729 28.2 307.279 27.6 310.279 27.6C315.629 27.6 319.654 29.075 322.354 32.025C325.054 34.975 326.404 39.8 326.404 46.5C326.404 49.65 325.929 52.5 324.979 55.05C324.079 57.55 322.779 59.675 321.079 61.425C319.379 63.175 317.329 64.525 314.929 65.475C312.529 66.425 309.879 66.9 306.979 66.9C305.929 66.9 304.979 66.85 304.129 66.75C303.329 66.7 302.579 66.6 301.879 66.45C301.229 66.35 300.579 66.2 299.929 66C299.279 65.8 298.579 65.55 297.829 65.25V81H292.054V41.625ZM309.304 33.075C307.804 33.075 306.379 33.35 305.029 33.9C303.729 34.45 302.554 35.175 301.504 36.075C300.504 36.975 299.679 37.975 299.029 39.075C298.379 40.175 297.979 41.275 297.829 42.375V59.475C298.929 60.225 300.154 60.825 301.504 61.275C302.904 61.675 304.729 61.875 306.979 61.875C310.979 61.875 314.179 60.575 316.579 57.975C318.979 55.325 320.179 51.475 320.179 46.425C320.179 42.175 319.329 38.9 317.629 36.6C315.979 34.25 313.204 33.075 309.304 33.075ZM407.795 28.575C408.745 28.525 409.695 28.475 410.645 28.425C411.595 28.325 412.62 28.25 413.72 28.2C414.82 28.15 415.995 28.1 417.245 28.05C418.545 28 419.995 27.975 421.595 27.975C426.995 27.975 430.895 28.75 433.295 30.3C435.695 31.8 436.895 34.075 436.895 37.125C436.895 38.875 436.32 40.625 435.17 42.375C434.02 44.075 432.145 45.3 429.545 46.05V46.35C432.845 46.9 435.17 47.925 436.52 49.425C437.87 50.875 438.545 52.875 438.545 55.425C438.545 59.325 436.945 62.15 433.745 63.9C430.595 65.65 425.995 66.525 419.945 66.525C417.545 66.525 415.395 66.45 413.495 66.3C411.595 66.2 409.695 66.075 407.795 65.925V28.575ZM413.57 61.275C414.72 61.375 415.87 61.45 417.02 61.5C418.17 61.55 419.47 61.575 420.92 61.575C424.82 61.575 427.72 61.1 429.62 60.15C431.57 59.15 432.545 57.45 432.545 55.05C432.545 54.1 432.345 53.25 431.945 52.5C431.595 51.75 430.97 51.1 430.07 50.55C429.22 50 428.095 49.575 426.695 49.275C425.295 48.975 423.545 48.825 421.445 48.825H413.57V61.275ZM422.495 44.325C423.495 44.325 424.495 44.175 425.495 43.875C426.495 43.525 427.395 43.1 428.195 42.6C429.045 42.05 429.72 41.425 430.22 40.725C430.72 39.975 430.97 39.2 430.97 38.4C430.97 36.35 430.22 34.925 428.72 34.125C427.27 33.325 424.82 32.925 421.37 32.925C419.47 32.925 417.945 32.95 416.795 33C415.695 33.05 414.62 33.1 413.57 33.15V44.325H422.495ZM488.016 33.6H468.441V66H462.666V28.5H493.866V66H488.016V33.6ZM552.411 61.275C551.511 62.075 550.436 62.825 549.186 63.525C547.986 64.225 546.661 64.825 545.211 65.325C543.761 65.825 542.236 66.2 540.636 66.45C539.086 66.75 537.511 66.9 535.911 66.9C532.911 66.9 530.261 66.45 527.961 65.55C525.661 64.6 523.736 63.275 522.186 61.575C520.636 59.825 519.461 57.75 518.661 55.35C517.861 52.95 517.461 50.25 517.461 47.25C517.461 44.1 517.886 41.3 518.736 38.85C519.636 36.4 520.911 34.35 522.561 32.7C524.211 31.05 526.211 29.8 528.561 28.95C530.911 28.05 533.536 27.6 536.436 27.6C538.536 27.6 540.611 27.875 542.661 28.425C544.711 28.975 546.511 30.025 548.061 31.575C549.661 33.075 550.886 35.175 551.736 37.875C552.586 40.525 552.886 43.975 552.636 48.225H523.611C523.611 52.725 524.811 56.1 527.211 58.35C529.661 60.55 532.911 61.65 536.961 61.65C538.311 61.65 539.636 61.5 540.936 61.2C542.286 60.85 543.561 60.45 544.761 60C545.961 59.55 547.011 59.05 547.911 58.5C548.861 57.95 549.586 57.45 550.086 57L552.411 61.275ZM536.586 32.55C534.936 32.55 533.361 32.725 531.861 33.075C530.411 33.425 529.111 34.025 527.961 34.875C526.861 35.675 525.936 36.75 525.186 38.1C524.486 39.4 524.036 41.025 523.836 42.975H547.161C546.911 39.675 545.836 37.125 543.936 35.325C542.086 33.475 539.636 32.55 536.586 32.55ZM582.232 28.5V38.475C582.232 39.825 582.307 41.075 582.457 42.225C582.657 43.375 583.032 44.375 583.582 45.225C584.132 46.025 584.907 46.65 585.907 47.1C586.907 47.55 588.232 47.775 589.882 47.775C592.582 47.775 594.807 47.5 596.557 46.95C598.307 46.35 599.607 45.725 600.457 45.075V28.5H606.307V66H600.457V50.1C599.557 50.65 598.182 51.25 596.332 51.9C594.532 52.5 592.057 52.8 588.907 52.8C586.807 52.8 584.982 52.6 583.432 52.2C581.882 51.75 580.582 51 579.532 49.95C578.532 48.85 577.757 47.425 577.207 45.675C576.707 43.875 576.457 41.625 576.457 38.925V28.5H582.232ZM634.778 31.425C636.928 30.175 639.353 29.275 642.053 28.725C644.753 28.175 647.403 27.9 650.003 27.9C652.553 27.9 654.628 28.3 656.228 29.1C657.878 29.9 659.153 30.95 660.053 32.25C661.003 33.5 661.628 34.95 661.928 36.6C662.278 38.2 662.453 39.825 662.453 41.475C662.453 43.375 662.403 45.4 662.303 47.55C662.203 49.7 662.128 51.85 662.078 54C662.078 56.5 662.228 58.875 662.528 61.125H667.553V66H657.578L656.903 60.375H656.528C656.228 60.825 655.778 61.4 655.178 62.1C654.578 62.8 653.778 63.5 652.778 64.2C651.828 64.85 650.653 65.425 649.253 65.925C647.853 66.425 646.203 66.675 644.303 66.675C640.603 66.675 637.678 65.725 635.528 63.825C633.378 61.925 632.303 59.325 632.303 56.025C632.303 53.475 632.853 51.35 633.953 49.65C635.103 47.95 636.728 46.65 638.828 45.75C640.928 44.85 643.453 44.325 646.403 44.175C649.403 44.025 652.753 44.225 656.453 44.775C656.703 42.475 656.728 40.575 656.528 39.075C656.378 37.525 655.978 36.3 655.328 35.4C654.728 34.5 653.853 33.875 652.703 33.525C651.603 33.125 650.228 32.925 648.578 32.925C646.328 32.925 644.178 33.25 642.128 33.9C640.078 34.5 638.253 35.125 636.653 35.775L634.778 31.425ZM645.803 61.65C647.203 61.65 648.503 61.425 649.703 60.975C650.903 60.525 651.953 59.95 652.853 59.25C653.753 58.55 654.503 57.8 655.103 57C655.703 56.15 656.153 55.35 656.453 54.6V49.35C653.853 48.9 651.453 48.675 649.253 48.675C647.053 48.675 645.153 48.925 643.553 49.425C641.953 49.875 640.703 50.6 639.803 51.6C638.903 52.6 638.453 53.9 638.453 55.5C638.453 57.15 639.003 58.6 640.103 59.85C641.253 61.05 643.153 61.65 645.803 61.65ZM687.548 28.5H724.748V42.525H719.648V33.6H709.073V60.975H718.148V66H693.848V60.975H703.223V33.6H692.648V42.525H687.548V28.5ZM772.569 33.6H759.594C759.394 38.15 759.144 42.425 758.844 46.425C758.544 50.375 757.969 53.825 757.119 56.775C756.319 59.725 755.144 62.05 753.594 63.75C752.094 65.45 750.044 66.3 747.444 66.3C746.444 66.3 745.719 66.25 745.269 66.15C744.819 66.05 744.269 65.875 743.619 65.625L744.594 60.075C745.544 60.325 746.419 60.45 747.219 60.45C748.069 60.45 748.819 60.15 749.469 59.55C750.119 58.95 750.694 58 751.194 56.7C751.744 55.35 752.194 53.475 752.544 51.075C752.944 48.625 753.269 45.575 753.519 41.925C753.769 38.225 753.969 33.75 754.119 28.5H778.419V66H772.569V33.6ZM837.265 61.275C836.365 62.075 835.29 62.825 834.04 63.525C832.84 64.225 831.515 64.825 830.065 65.325C828.615 65.825 827.09 66.2 825.49 66.45C823.94 66.75 822.365 66.9 820.765 66.9C817.765 66.9 815.115 66.45 812.815 65.55C810.515 64.6 808.59 63.275 807.04 61.575C805.49 59.825 804.315 57.75 803.515 55.35C802.715 52.95 802.315 50.25 802.315 47.25C802.315 44.1 802.74 41.3 803.59 38.85C804.49 36.4 805.765 34.35 807.415 32.7C809.065 31.05 811.065 29.8 813.415 28.95C815.765 28.05 818.39 27.6 821.29 27.6C823.39 27.6 825.465 27.875 827.515 28.425C829.565 28.975 831.365 30.025 832.915 31.575C834.515 33.075 835.74 35.175 836.59 37.875C837.44 40.525 837.74 43.975 837.49 48.225H808.465C808.465 52.725 809.665 56.1 812.065 58.35C814.515 60.55 817.765 61.65 821.815 61.65C823.165 61.65 824.49 61.5 825.79 61.2C827.14 60.85 828.415 60.45 829.615 60C830.815 59.55 831.865 59.05 832.765 58.5C833.715 57.95 834.44 57.45 834.94 57L837.265 61.275ZM821.44 32.55C819.79 32.55 818.215 32.725 816.715 33.075C815.265 33.425 813.965 34.025 812.815 34.875C811.715 35.675 810.79 36.75 810.04 38.1C809.34 39.4 808.89 41.025 808.69 42.975H832.015C831.765 39.675 830.69 37.125 828.79 35.325C826.94 33.475 824.49 32.55 821.44 32.55ZM887.111 49.35H866.936V66H861.161V28.5H866.936V44.1H887.111V28.5H892.961V66H887.111V49.35ZM944.306 42.45L944.531 37.5H944.306L923.231 66H917.906V28.5H923.756V52.725L923.531 57.45H923.831L944.756 28.5H950.156V66H944.306V42.45ZM1001.28 42.45L1001.5 37.5H1001.28L980.202 66H974.877V28.5H980.727V52.725L980.502 57.45H980.802L1001.73 28.5H1007.13V66H1001.28V42.45ZM984.627 13.35C985.127 15.65 985.977 17.25 987.177 18.15C988.427 19.05 989.852 19.5 991.452 19.5C993.052 19.5 994.477 19.025 995.727 18.075C996.977 17.125 997.827 15.575 998.277 13.425L1002.78 14.85C1002.33 17.75 1001.03 19.975 998.877 21.525C996.777 23.075 994.252 23.85 991.302 23.85C989.952 23.85 988.602 23.675 987.252 23.325C985.952 22.975 984.777 22.45 983.727 21.75C982.677 21.05 981.777 20.15 981.027 19.05C980.277 17.95 979.777 16.65 979.527 15.15L984.627 13.35Z" fill="#BC0100" fill-opacity="0.72"/>
<g opacity="0.85">
<ellipse cx="367.05" cy="47.5" rx="14.2468" ry="14.5" fill="black" fill-opacity="0.86"/>
<ellipse cx="367.05" cy="47.4999" rx="5.80424" ry="5.90741" fill="#BC0100" fill-opacity="0.9"/>
</g>
</svg>
