<svg width="1134" height="132" viewBox="0 0 1134 132" fill="none" xmlns="http://www.w3.org/2000/svg">
<g opacity="0.8">
<path d="M5.356 39.5H56.444V58.761H49.44V46.504H34.917V84.099H47.38V91H14.008V84.099H26.883V46.504H12.36V58.761H5.356V39.5ZM72.6778 57.525C72.6778 56.907 72.6434 56.1173 72.5748 55.156C72.5748 54.126 72.5404 53.096 72.4718 52.066C72.4031 50.9673 72.3001 49.903 72.1628 48.873C72.0941 47.843 71.9911 46.9503 71.8538 46.195H64.9528V39.5H78.6518L79.6818 46.71H80.1968C82.0508 44.3067 84.3854 42.3153 87.2008 40.736C90.0848 39.088 93.5868 38.264 97.7068 38.264C105.054 38.264 110.582 40.2897 114.29 44.341C117.998 48.3923 119.852 55.0187 119.852 64.22C119.852 68.546 119.199 72.46 117.895 75.962C116.659 79.3953 114.873 82.3137 112.539 84.717C110.204 87.1203 107.389 88.9743 104.093 90.279C100.797 91.5837 97.1574 92.236 93.1748 92.236C91.7328 92.236 90.4281 92.1673 89.2608 92.03C88.1621 91.9613 87.1321 91.824 86.1708 91.618C85.2781 91.4807 84.3854 91.2747 83.4928 91C82.6001 90.7253 81.6388 90.382 80.6088 89.97V111.6H72.6778V57.525ZM96.3678 45.783C94.3078 45.783 92.3508 46.1607 90.4968 46.916C88.7114 47.6713 87.0978 48.667 85.6558 49.903C84.2824 51.139 83.1494 52.5123 82.2568 54.023C81.3641 55.5337 80.8148 57.0443 80.6088 58.555V82.039C82.1194 83.069 83.8018 83.893 85.6558 84.511C87.5784 85.0603 90.0848 85.335 93.1748 85.335C98.6681 85.335 103.063 83.5497 106.359 79.979C109.655 76.3397 111.303 71.0523 111.303 64.117C111.303 58.2803 110.135 53.7827 107.801 50.624C105.535 47.3967 101.724 45.783 96.3678 45.783ZM180.067 84.511C178.831 85.6097 177.354 86.6397 175.638 87.601C173.99 88.5623 172.17 89.3863 170.179 90.073C168.187 90.7597 166.093 91.2747 163.896 91.618C161.767 92.03 159.604 92.236 157.407 92.236C153.287 92.236 149.647 91.618 146.489 90.382C143.33 89.0773 140.686 87.2577 138.558 84.923C136.429 82.5197 134.815 79.67 133.717 76.374C132.618 73.078 132.069 69.37 132.069 65.25C132.069 60.924 132.652 57.0787 133.82 53.714C135.056 50.3493 136.807 47.534 139.073 45.268C141.339 43.002 144.085 41.2853 147.313 40.118C150.54 38.882 154.145 38.264 158.128 38.264C161.012 38.264 163.861 38.6417 166.677 39.397C169.492 40.1523 171.964 41.5943 174.093 43.723C176.29 45.783 177.972 48.667 179.14 52.375C180.307 56.0143 180.719 60.7523 180.376 66.589H140.515C140.515 72.769 142.163 77.404 145.459 80.494C148.823 83.5153 153.287 85.026 158.849 85.026C160.703 85.026 162.522 84.82 164.308 84.408C166.162 83.9273 167.913 83.378 169.561 82.76C171.209 82.142 172.651 81.4553 173.887 80.7C175.191 79.9447 176.187 79.258 176.874 78.64L180.067 84.511ZM158.334 45.062C156.068 45.062 153.905 45.3023 151.845 45.783C149.853 46.2637 148.068 47.0877 146.489 48.255C144.978 49.3537 143.708 50.83 142.678 52.684C141.716 54.4693 141.098 56.701 140.824 59.379H172.857C172.513 54.847 171.037 51.345 168.428 48.873C165.887 46.3323 162.522 45.062 158.334 45.062ZM213.192 67.722H207.527V91H199.596V39.5H207.527V61.542H213.192L233.483 39.5H243.165L220.402 63.911L239.148 84.099H245.843V91H235.234L213.192 67.722ZM305.646 84.511C304.41 85.6097 302.934 86.6397 301.217 87.601C299.569 88.5623 297.749 89.3863 295.758 90.073C293.767 90.7597 291.672 91.2747 289.475 91.618C287.346 92.03 285.183 92.236 282.986 92.236C278.866 92.236 275.227 91.618 272.068 90.382C268.909 89.0773 266.266 87.2577 264.137 84.923C262.008 82.5197 260.395 79.67 259.296 76.374C258.197 73.078 257.648 69.37 257.648 65.25C257.648 60.924 258.232 57.0787 259.399 53.714C260.635 50.3493 262.386 47.534 264.652 45.268C266.918 43.002 269.665 41.2853 272.892 40.118C276.119 38.882 279.724 38.264 283.707 38.264C286.591 38.264 289.441 38.6417 292.256 39.397C295.071 40.1523 297.543 41.5943 299.672 43.723C301.869 45.783 303.552 48.667 304.719 52.375C305.886 56.0143 306.298 60.7523 305.955 66.589H266.094C266.094 72.769 267.742 77.404 271.038 80.494C274.403 83.5153 278.866 85.026 284.428 85.026C286.282 85.026 288.102 84.82 289.887 84.408C291.741 83.9273 293.492 83.378 295.14 82.76C296.788 82.142 298.23 81.4553 299.466 80.7C300.771 79.9447 301.766 79.258 302.453 78.64L305.646 84.511ZM283.913 45.062C281.647 45.062 279.484 45.3023 277.424 45.783C275.433 46.2637 273.647 47.0877 272.068 48.255C270.557 49.3537 269.287 50.83 268.257 52.684C267.296 54.4693 266.678 56.701 266.403 59.379H298.436C298.093 54.847 296.616 51.345 294.007 48.873C291.466 46.3323 288.102 45.062 283.913 45.062ZM323.837 57.525C323.837 56.907 323.802 56.1173 323.734 55.156C323.734 54.126 323.699 53.096 323.631 52.066C323.562 50.9673 323.459 49.903 323.322 48.873C323.253 47.843 323.15 46.9503 323.013 46.195H316.112V39.5H329.811L330.841 46.71H331.356C333.21 44.3067 335.544 42.3153 338.36 40.736C341.244 39.088 344.746 38.264 348.866 38.264C356.213 38.264 361.741 40.2897 365.449 44.341C369.157 48.3923 371.011 55.0187 371.011 64.22C371.011 68.546 370.358 72.46 369.054 75.962C367.818 79.3953 366.032 82.3137 363.698 84.717C361.363 87.1203 358.548 88.9743 355.252 90.279C351.956 91.5837 348.316 92.236 344.334 92.236C342.892 92.236 341.587 92.1673 340.42 92.03C339.321 91.9613 338.291 91.824 337.33 91.618C336.437 91.4807 335.544 91.2747 334.652 91C333.759 90.7253 332.798 90.382 331.768 89.97V111.6H323.837V57.525ZM347.527 45.783C345.467 45.783 343.51 46.1607 341.656 46.916C339.87 47.6713 338.257 48.667 336.815 49.903C335.441 51.139 334.308 52.5123 333.416 54.023C332.523 55.5337 331.974 57.0443 331.768 58.555V82.039C333.278 83.069 334.961 83.893 336.815 84.511C338.737 85.0603 341.244 85.335 344.334 85.335C349.827 85.335 354.222 83.5497 357.518 79.979C360.814 76.3397 362.462 71.0523 362.462 64.117C362.462 58.2803 361.294 53.7827 358.96 50.624C356.694 47.3967 352.883 45.783 347.527 45.783ZM451.888 39.603C453.193 39.5343 454.498 39.4657 455.802 39.397C457.107 39.2597 458.515 39.1567 460.025 39.088C461.536 39.0193 463.15 38.9507 464.866 38.882C466.652 38.8133 468.643 38.779 470.84 38.779C478.256 38.779 483.612 39.8433 486.908 41.972C490.204 44.032 491.852 47.1563 491.852 51.345C491.852 53.7483 491.063 56.1517 489.483 58.555C487.904 60.8897 485.329 62.572 481.758 63.602V64.014C486.29 64.7693 489.483 66.177 491.337 68.237C493.191 70.2283 494.118 72.975 494.118 76.477C494.118 81.833 491.921 85.7127 487.526 88.116C483.2 90.5193 476.883 91.721 468.574 91.721C465.278 91.721 462.326 91.618 459.716 91.412C457.107 91.2747 454.498 91.103 451.888 90.897V39.603ZM459.819 84.511C461.399 84.6483 462.978 84.7513 464.557 84.82C466.137 84.8887 467.922 84.923 469.913 84.923C475.269 84.923 479.252 84.2707 481.861 82.966C484.539 81.5927 485.878 79.258 485.878 75.962C485.878 74.6573 485.604 73.49 485.054 72.46C484.574 71.43 483.715 70.5373 482.479 69.782C481.312 69.0267 479.767 68.443 477.844 68.031C475.922 67.619 473.518 67.413 470.634 67.413H459.819V84.511ZM472.076 61.233C473.45 61.233 474.823 61.027 476.196 60.615C477.57 60.1343 478.806 59.5507 479.904 58.864C481.072 58.1087 481.999 57.2503 482.685 56.289C483.372 55.259 483.715 54.1947 483.715 53.096C483.715 50.2807 482.685 48.3237 480.625 47.225C478.634 46.1263 475.269 45.577 470.531 45.577C467.922 45.577 465.828 45.6113 464.248 45.68C462.738 45.7487 461.261 45.8173 459.819 45.886V61.233H472.076ZM546.608 46.504H519.725V91H511.794V39.5H554.642V91H546.608V46.504ZM619.595 84.511C618.359 85.6097 616.883 86.6397 615.166 87.601C613.518 88.5623 611.698 89.3863 609.707 90.073C607.716 90.7597 605.621 91.2747 603.424 91.618C601.295 92.03 599.132 92.236 596.935 92.236C592.815 92.236 589.176 91.618 586.017 90.382C582.858 89.0773 580.215 87.2577 578.086 84.923C575.957 82.5197 574.344 79.67 573.245 76.374C572.146 73.078 571.597 69.37 571.597 65.25C571.597 60.924 572.181 57.0787 573.348 53.714C574.584 50.3493 576.335 47.534 578.601 45.268C580.867 43.002 583.614 41.2853 586.841 40.118C590.068 38.882 593.673 38.264 597.656 38.264C600.54 38.264 603.39 38.6417 606.205 39.397C609.02 40.1523 611.492 41.5943 613.621 43.723C615.818 45.783 617.501 48.667 618.668 52.375C619.835 56.0143 620.247 60.7523 619.904 66.589H580.043C580.043 72.769 581.691 77.404 584.987 80.494C588.352 83.5153 592.815 85.026 598.377 85.026C600.231 85.026 602.051 84.82 603.836 84.408C605.69 83.9273 607.441 83.378 609.089 82.76C610.737 82.142 612.179 81.4553 613.415 80.7C614.72 79.9447 615.715 79.258 616.402 78.64L619.595 84.511ZM597.862 45.062C595.596 45.062 593.433 45.3023 591.373 45.783C589.382 46.2637 587.596 47.0877 586.017 48.255C584.506 49.3537 583.236 50.83 582.206 52.684C581.245 54.4693 580.627 56.701 580.352 59.379H612.385C612.042 54.847 610.565 51.345 607.956 48.873C605.415 46.3323 602.051 45.062 597.862 45.062ZM645.099 39.5V53.199C645.099 55.053 645.202 56.7697 645.408 58.349C645.682 59.9283 646.197 61.3017 646.953 62.469C647.708 63.5677 648.772 64.426 650.146 65.044C651.519 65.662 653.339 65.971 655.605 65.971C659.313 65.971 662.368 65.5933 664.772 64.838C667.175 64.014 668.96 63.1557 670.128 62.263V39.5H678.162V91H670.128V69.164C668.892 69.9193 667.003 70.7433 664.463 71.636C661.991 72.46 658.592 72.872 654.266 72.872C651.382 72.872 648.875 72.5973 646.747 72.048C644.618 71.43 642.833 70.4 641.391 68.958C640.017 67.4473 638.953 65.4903 638.198 63.087C637.511 60.615 637.168 57.525 637.168 53.817V39.5H645.099ZM701.811 43.517C704.764 41.8003 708.094 40.5643 711.802 39.809C715.51 39.0537 719.15 38.676 722.72 38.676C726.222 38.676 729.072 39.2253 731.269 40.324C733.535 41.4227 735.286 42.8647 736.522 44.65C737.827 46.3667 738.685 48.358 739.097 50.624C739.578 52.8213 739.818 55.053 739.818 57.319C739.818 59.9283 739.75 62.7093 739.612 65.662C739.475 68.6147 739.372 71.5673 739.303 74.52C739.303 77.9533 739.509 81.215 739.921 84.305H746.822V91H733.123L732.196 83.275H731.681C731.269 83.893 730.651 84.6827 729.827 85.644C729.003 86.6053 727.905 87.5667 726.531 88.528C725.227 89.4207 723.613 90.2103 721.69 90.897C719.768 91.5837 717.502 91.927 714.892 91.927C709.811 91.927 705.794 90.6223 702.841 88.013C699.889 85.4037 698.412 81.833 698.412 77.301C698.412 73.799 699.168 70.8807 700.678 68.546C702.258 66.2113 704.489 64.426 707.373 63.19C710.257 61.954 713.725 61.233 717.776 61.027C721.896 60.821 726.497 61.0957 731.578 61.851C731.922 58.6923 731.956 56.083 731.681 54.023C731.475 51.8943 730.926 50.212 730.033 48.976C729.209 47.74 728.008 46.8817 726.428 46.401C724.918 45.8517 723.029 45.577 720.763 45.577C717.673 45.577 714.721 46.0233 711.905 46.916C709.09 47.74 706.584 48.5983 704.386 49.491L701.811 43.517ZM716.952 85.026C718.875 85.026 720.66 84.717 722.308 84.099C723.956 83.481 725.398 82.6913 726.634 81.73C727.87 80.7687 728.9 79.7387 729.724 78.64C730.548 77.4727 731.166 76.374 731.578 75.344V68.134C728.008 67.516 724.712 67.207 721.69 67.207C718.669 67.207 716.06 67.5503 713.862 68.237C711.665 68.855 709.948 69.8507 708.712 71.224C707.476 72.5973 706.858 74.3827 706.858 76.58C706.858 78.846 707.614 80.8373 709.124 82.554C710.704 84.202 713.313 85.026 716.952 85.026ZM758.833 39.5H809.921V58.761H802.917V46.504H788.394V84.099H800.857V91H767.485V84.099H780.36V46.504H765.837V58.761H758.833V39.5ZM860.145 46.504H842.326C842.051 52.7527 841.708 58.6237 841.296 64.117C840.884 69.5417 840.094 74.2797 838.927 78.331C837.828 82.3823 836.215 85.5753 834.086 87.91C832.026 90.2447 829.211 91.412 825.64 91.412C824.267 91.412 823.271 91.3433 822.653 91.206C822.035 91.0687 821.28 90.8283 820.387 90.485L821.726 82.863C823.031 83.2063 824.232 83.378 825.331 83.378C826.498 83.378 827.528 82.966 828.421 82.142C829.314 81.318 830.103 80.0133 830.79 78.228C831.545 76.374 832.163 73.799 832.644 70.503C833.193 67.1383 833.64 62.9497 833.983 57.937C834.326 52.8557 834.601 46.71 834.807 39.5H868.179V91H860.145V46.504ZM933.544 84.511C932.308 85.6097 930.831 86.6397 929.115 87.601C927.467 88.5623 925.647 89.3863 923.656 90.073C921.664 90.7597 919.57 91.2747 917.373 91.618C915.244 92.03 913.081 92.236 910.884 92.236C906.764 92.236 903.124 91.618 899.966 90.382C896.807 89.0773 894.163 87.2577 892.035 84.923C889.906 82.5197 888.292 79.67 887.194 76.374C886.095 73.078 885.546 69.37 885.546 65.25C885.546 60.924 886.129 57.0787 887.297 53.714C888.533 50.3493 890.284 47.534 892.55 45.268C894.816 43.002 897.562 41.2853 900.79 40.118C904.017 38.882 907.622 38.264 911.605 38.264C914.489 38.264 917.338 38.6417 920.154 39.397C922.969 40.1523 925.441 41.5943 927.57 43.723C929.767 45.783 931.449 48.667 932.617 52.375C933.784 56.0143 934.196 60.7523 933.853 66.589H893.992C893.992 72.769 895.64 77.404 898.936 80.494C902.3 83.5153 906.764 85.026 912.326 85.026C914.18 85.026 915.999 84.82 917.785 84.408C919.639 83.9273 921.39 83.378 923.038 82.76C924.686 82.142 926.128 81.4553 927.364 80.7C928.668 79.9447 929.664 79.258 930.351 78.64L933.544 84.511ZM911.811 45.062C909.545 45.062 907.382 45.3023 905.322 45.783C903.33 46.2637 901.545 47.0877 899.966 48.255C898.455 49.3537 897.185 50.83 896.155 52.684C895.193 54.4693 894.575 56.701 894.301 59.379H926.334C925.99 54.847 924.514 51.345 921.905 48.873C919.364 46.3323 915.999 45.062 911.811 45.062ZM986.548 68.134H958.841V91H950.91V39.5H958.841V60.924H986.548V39.5H994.582V91H986.548V68.134ZM1049.65 58.658L1049.96 51.86H1049.65L1020.7 91H1013.39V39.5H1021.43V72.769L1021.12 79.258H1021.53L1050.27 39.5H1057.68V91H1049.65V58.658ZM1112.44 58.658L1112.75 51.86H1112.44L1083.49 91H1076.18V39.5H1084.22V72.769L1083.91 79.258H1084.32L1113.06 39.5H1120.47V91H1112.44V58.658ZM1089.57 18.694C1090.26 21.8527 1091.43 24.05 1093.07 25.286C1094.79 26.522 1096.75 27.14 1098.94 27.14C1101.14 27.14 1103.1 26.4877 1104.82 25.183C1106.53 23.8783 1107.7 21.7497 1108.32 18.797L1114.5 20.754C1113.88 24.7367 1112.09 27.7923 1109.14 29.921C1106.26 32.0497 1102.79 33.114 1098.74 33.114C1096.88 33.114 1095.03 32.8737 1093.18 32.393C1091.39 31.9123 1089.78 31.1913 1088.34 30.23C1086.89 29.2687 1085.66 28.0327 1084.63 26.522C1083.6 25.0113 1082.91 23.226 1082.57 21.166L1089.57 18.694Z" fill="#C63F3A"/>
<path d="M5.356 39.5V38.5H4.356V39.5H5.356ZM56.444 39.5H57.444V38.5H56.444V39.5ZM56.444 58.761V59.761H57.444V58.761H56.444ZM49.44 58.761H48.44V59.761H49.44V58.761ZM49.44 46.504H50.44V45.504H49.44V46.504ZM34.917 46.504V45.504H33.917V46.504H34.917ZM34.917 84.099H33.917V85.099H34.917V84.099ZM47.38 84.099H48.38V83.099H47.38V84.099ZM47.38 91V92H48.38V91H47.38ZM14.008 91H13.008V92H14.008V91ZM14.008 84.099V83.099H13.008V84.099H14.008ZM26.883 84.099V85.099H27.883V84.099H26.883ZM26.883 46.504H27.883V45.504H26.883V46.504ZM12.36 46.504V45.504H11.36V46.504H12.36ZM12.36 58.761V59.761H13.36V58.761H12.36ZM5.356 58.761H4.356V59.761H5.356V58.761ZM5.356 40.5H56.444V38.5H5.356V40.5ZM55.444 39.5V58.761H57.444V39.5H55.444ZM56.444 57.761H49.44V59.761H56.444V57.761ZM50.44 58.761V46.504H48.44V58.761H50.44ZM49.44 45.504H34.917V47.504H49.44V45.504ZM33.917 46.504V84.099H35.917V46.504H33.917ZM34.917 85.099H47.38V83.099H34.917V85.099ZM46.38 84.099V91H48.38V84.099H46.38ZM47.38 90H14.008V92H47.38V90ZM15.008 91V84.099H13.008V91H15.008ZM14.008 85.099H26.883V83.099H14.008V85.099ZM27.883 84.099V46.504H25.883V84.099H27.883ZM26.883 45.504H12.36V47.504H26.883V45.504ZM11.36 46.504V58.761H13.36V46.504H11.36ZM12.36 57.761H5.356V59.761H12.36V57.761ZM6.356 58.761V39.5H4.356V58.761H6.356ZM72.5748 55.156H71.5748V55.1917L71.5773 55.2272L72.5748 55.156ZM72.4718 52.066L71.4737 52.1284L71.474 52.1325L72.4718 52.066ZM72.1628 48.873L71.165 48.9395L71.1672 48.9724L71.1715 49.0052L72.1628 48.873ZM71.8538 46.195L72.8376 46.0161L72.6883 45.195H71.8538V46.195ZM64.9528 46.195H63.9528V47.195H64.9528V46.195ZM64.9528 39.5V38.5H63.9528V39.5H64.9528ZM78.6518 39.5L79.6417 39.3586L79.5191 38.5H78.6518V39.5ZM79.6818 46.71L78.6918 46.8514L78.8145 47.71H79.6818V46.71ZM80.1968 46.71V47.71H80.6883L80.9885 47.3208L80.1968 46.71ZM87.2008 40.736L87.69 41.6082L87.6969 41.6042L87.2008 40.736ZM114.29 44.341L113.552 45.0162L113.552 45.0162L114.29 44.341ZM117.895 75.962L116.958 75.6129L116.954 75.6233L117.895 75.962ZM112.539 84.717L111.821 84.0202L111.821 84.0202L112.539 84.717ZM89.2608 92.03L89.3776 91.0368L89.3504 91.0337L89.3231 91.0319L89.2608 92.03ZM86.1708 91.618L86.3803 90.6402L86.3517 90.6341L86.3228 90.6296L86.1708 91.618ZM83.4928 91L83.1987 91.9558L83.1987 91.9558L83.4928 91ZM80.6088 89.97L80.9802 89.0415L79.6088 88.493V89.97H80.6088ZM80.6088 111.6V112.6H81.6088V111.6H80.6088ZM72.6778 111.6H71.6778V112.6H72.6778V111.6ZM90.4968 46.916L90.1194 45.9898L90.1071 45.995L90.4968 46.916ZM85.6558 49.903L85.005 49.1437L84.9958 49.1516L84.9868 49.1597L85.6558 49.903ZM82.2568 54.023L81.3958 53.5143L81.3958 53.5143L82.2568 54.023ZM80.6088 58.555L79.6179 58.4199L79.6088 58.4871V58.555H80.6088ZM80.6088 82.039H79.6088V82.5675L80.0454 82.8652L80.6088 82.039ZM85.6558 84.511L85.3395 85.4597L85.3602 85.4666L85.381 85.4725L85.6558 84.511ZM106.359 79.979L107.094 80.6573L107.1 80.6503L106.359 79.979ZM107.801 50.624L106.982 51.1986L106.989 51.2086L106.997 51.2184L107.801 50.624ZM73.6778 57.525C73.6778 56.874 73.6418 56.0583 73.5722 55.0848L71.5773 55.2272C71.6451 56.1764 71.6778 56.94 71.6778 57.525H73.6778ZM73.5748 55.156C73.5748 54.1038 73.5397 53.0516 73.4695 51.9995L71.474 52.1325C71.5412 53.1404 71.5748 54.1482 71.5748 55.156H73.5748ZM73.4698 52.0036C73.3998 50.883 73.2946 49.7953 73.154 48.7408L71.1715 49.0052C71.3056 50.0107 71.4064 51.0517 71.4737 52.1284L73.4698 52.0036ZM73.1606 48.8065C73.0902 47.7507 72.9836 46.8188 72.8376 46.0161L70.8699 46.3739C70.9986 47.0819 71.098 47.9353 71.165 48.9395L73.1606 48.8065ZM71.8538 45.195H64.9528V47.195H71.8538V45.195ZM65.9528 46.195V39.5H63.9528V46.195H65.9528ZM64.9528 40.5H78.6518V38.5H64.9528V40.5ZM77.6618 39.6414L78.6918 46.8514L80.6717 46.5686L79.6417 39.3586L77.6618 39.6414ZM79.6818 47.71H80.1968V45.71H79.6818V47.71ZM80.9885 47.3208C82.7552 45.0307 84.9845 43.1259 87.69 41.6081L86.7115 39.8639C83.7863 41.5048 81.3463 43.5826 79.405 46.0992L80.9885 47.3208ZM87.6969 41.6042C90.3975 40.061 93.7194 39.264 97.7068 39.264V37.264C93.4541 37.264 89.772 38.115 86.7046 39.8678L87.6969 41.6042ZM97.7068 39.264C104.873 39.264 110.091 41.2351 113.552 45.0162L115.027 43.6658C111.072 39.3442 105.235 37.264 97.7068 37.264V39.264ZM113.552 45.0162C117.009 48.7931 118.852 55.1114 118.852 64.22H120.852C120.852 54.926 118.987 47.9916 115.027 43.6658L113.552 45.0162ZM118.852 64.22C118.852 68.4453 118.215 72.2387 116.958 75.6129L118.832 76.3111C120.184 72.6813 120.852 68.6467 120.852 64.22H118.852ZM116.954 75.6233C115.762 78.9348 114.048 81.7278 111.821 84.0202L113.256 85.4138C115.698 82.8996 117.556 79.8559 118.836 76.3007L116.954 75.6233ZM111.821 84.0202C109.591 86.3162 106.897 88.0935 103.725 89.3492L104.461 91.2088C107.881 89.8551 110.817 87.9245 113.256 85.4138L111.821 84.0202ZM103.725 89.3492C100.559 90.6021 97.0469 91.236 93.1748 91.236V93.236C97.2679 93.236 101.034 92.5652 104.461 91.2088L103.725 89.3492ZM93.1748 91.236C91.7634 91.236 90.4986 91.1687 89.3776 91.0368L89.1439 93.0232C90.3576 93.1659 91.7021 93.236 93.1748 93.236V91.236ZM89.3231 91.0319C88.2682 90.966 87.2878 90.8347 86.3803 90.6402L85.9612 92.5958C86.9764 92.8133 88.056 92.9567 89.1984 93.0281L89.3231 91.0319ZM86.3228 90.6296C85.4798 90.4999 84.6346 90.3051 83.7869 90.0442L83.1987 91.9558C84.1363 92.2443 85.0764 92.4614 86.0187 92.6064L86.3228 90.6296ZM83.7869 90.0442C82.9246 89.7789 81.9893 89.4452 80.9802 89.0415L80.2374 90.8985C81.2882 91.3188 82.2756 91.6717 83.1987 91.9558L83.7869 90.0442ZM79.6088 89.97V111.6H81.6088V89.97H79.6088ZM80.6088 110.6H72.6778V112.6H80.6088V110.6ZM73.6778 111.6V57.525H71.6778V111.6H73.6778ZM96.3678 44.783C94.1822 44.783 92.0968 45.1843 90.1195 45.9899L90.8741 47.8421C92.6048 47.137 94.4333 46.783 96.3678 46.783V44.783ZM90.1071 45.995C88.2289 46.7897 86.5268 47.8393 85.005 49.1437L86.3066 50.6623C87.6687 49.4947 89.1939 48.553 90.8864 47.837L90.1071 45.995ZM84.9868 49.1597C83.542 50.4601 82.3429 51.9116 81.3958 53.5143L83.1177 54.5317C83.956 53.1131 85.0229 51.8179 86.3247 50.6463L84.9868 49.1597ZM81.3958 53.5143C80.4456 55.1224 79.8444 56.7589 79.6179 58.4199L81.5996 58.6901C81.7851 57.3298 82.2826 55.9449 83.1177 54.5317L81.3958 53.5143ZM79.6088 58.555V82.039H81.6088V58.555H79.6088ZM80.0454 82.8652C81.6375 83.9507 83.4039 84.8145 85.3395 85.4597L85.972 83.5623C84.1996 82.9715 82.6014 82.1873 81.1721 81.2128L80.0454 82.8652ZM85.381 85.4725C87.4277 86.0573 90.0366 86.335 93.1748 86.335V84.335C90.133 84.335 87.7291 84.0634 85.9305 83.5495L85.381 85.4725ZM93.1748 86.335C98.907 86.335 103.583 84.4608 107.094 80.6573L105.624 79.3007C102.543 82.6385 98.4292 84.335 93.1748 84.335V86.335ZM107.1 80.6503C110.62 76.7633 112.303 71.1984 112.303 64.117H110.303C110.303 70.9062 108.689 75.916 105.618 79.3077L107.1 80.6503ZM112.303 64.117C112.303 58.1654 111.115 53.4258 108.605 50.0296L106.997 51.2184C109.156 54.1395 110.303 58.3953 110.303 64.117H112.303ZM108.619 50.0494C106.103 46.4659 101.922 44.783 96.3678 44.783V46.783C101.525 46.783 104.966 48.3274 106.982 51.1986L108.619 50.0494ZM180.067 84.511L180.731 85.2584L181.324 84.7308L180.945 84.0332L180.067 84.511ZM175.638 87.601L175.149 86.7285L175.141 86.7328L175.134 86.7372L175.638 87.601ZM170.179 90.073L170.505 91.0184L170.505 91.0184L170.179 90.073ZM163.896 91.618L163.741 90.63L163.723 90.6328L163.706 90.6362L163.896 91.618ZM146.489 90.382L146.107 91.3063L146.115 91.3098L146.124 91.3132L146.489 90.382ZM138.558 84.923L137.809 85.586L137.814 85.5914L137.819 85.5968L138.558 84.923ZM133.717 76.374L132.768 76.6902L132.768 76.6902L133.717 76.374ZM133.82 53.714L132.881 53.3692L132.878 53.3777L132.875 53.3862L133.82 53.714ZM139.073 45.268L138.365 44.5609L138.365 44.5609L139.073 45.268ZM147.313 40.118L147.653 41.0584L147.661 41.0552L147.67 41.0519L147.313 40.118ZM166.677 39.397L166.936 38.4312L166.936 38.4312L166.677 39.397ZM174.093 43.723L173.385 44.4301L173.397 44.4415L173.409 44.4525L174.093 43.723ZM179.14 52.375L178.186 52.6753L178.187 52.6804L179.14 52.375ZM180.376 66.589V67.589H181.318L181.374 66.6477L180.376 66.589ZM140.515 66.589V65.589H139.515V66.589H140.515ZM145.459 80.494L144.775 81.2235L144.782 81.2309L144.79 81.238L145.459 80.494ZM164.308 84.408L164.532 85.3824L164.545 85.3794L164.558 85.376L164.308 84.408ZM169.561 82.76L169.209 81.8237L169.209 81.8237L169.561 82.76ZM173.887 80.7L173.385 79.8346L173.375 79.8405L173.365 79.8467L173.887 80.7ZM176.874 78.64L177.752 78.1622L177.147 77.0489L176.205 77.8967L176.874 78.64ZM151.845 45.783L151.617 44.8091L151.61 44.8109L151.845 45.783ZM146.489 48.255L147.077 49.0638L147.083 49.0592L146.489 48.255ZM142.678 52.684L141.803 52.1983L141.797 52.2099L142.678 52.684ZM140.824 59.379L139.829 59.277L139.716 60.379H140.824V59.379ZM172.857 59.379V60.379H173.935L173.854 59.3035L172.857 59.379ZM168.428 48.873L167.72 49.5801L167.73 49.5897L167.74 49.599L168.428 48.873ZM179.402 83.7636C178.229 84.8063 176.814 85.796 175.149 86.7285L176.126 88.4735C177.894 87.4834 179.432 86.413 180.731 85.2584L179.402 83.7636ZM175.134 86.7372C173.548 87.6624 171.788 88.4601 169.853 89.1276L170.505 91.0184C172.551 90.3126 174.431 89.4623 176.141 88.4648L175.134 86.7372ZM169.853 89.1276C167.92 89.794 165.883 90.2953 163.741 90.63L164.05 92.606C166.302 92.2541 168.454 91.7253 170.505 91.0184L169.853 89.1276ZM163.706 90.6362C161.64 91.0359 159.541 91.236 157.407 91.236V93.236C159.667 93.236 161.893 93.0241 164.086 92.5998L163.706 90.6362ZM157.407 91.236C153.385 91.236 149.873 90.6327 146.853 89.4508L146.124 91.3132C149.421 92.6033 153.188 93.236 157.407 93.236V91.236ZM146.87 89.4577C143.836 88.2046 141.318 86.4665 139.296 84.2492L137.819 85.5968C140.054 88.0489 142.823 89.9501 146.107 91.3063L146.87 89.4577ZM139.306 84.26C137.274 81.9656 135.725 79.2365 134.665 76.0578L132.768 76.6902C133.906 80.1035 135.584 83.0737 137.809 85.586L139.306 84.26ZM134.665 76.0578C133.606 72.8807 133.069 69.2819 133.069 65.25H131.069C131.069 69.4581 131.63 73.2753 132.768 76.6902L134.665 76.0578ZM133.069 65.25C133.069 61.0124 133.64 57.2812 134.764 54.0418L132.875 53.3862C131.664 56.8762 131.069 60.8356 131.069 65.25H133.069ZM134.758 54.0588C135.95 50.814 137.628 48.127 139.78 45.9751L138.365 44.5609C135.985 46.941 134.161 49.8846 132.881 53.3692L134.758 54.0588ZM139.78 45.9751C141.935 43.8201 144.553 42.1794 147.653 41.0584L146.972 39.1776C143.617 40.3912 140.742 42.1839 138.365 44.5609L139.78 45.9751ZM147.67 41.0519C150.767 39.8657 154.249 39.264 158.128 39.264V37.264C154.041 37.264 150.312 37.8983 146.955 39.1841L147.67 41.0519ZM158.128 39.264C160.923 39.264 163.686 39.6299 166.417 40.3628L166.936 38.4312C164.037 37.6534 161.1 37.264 158.128 37.264V39.264ZM166.417 40.3628C169.058 41.0712 171.377 42.4212 173.385 44.4301L174.8 43.0159C172.551 40.7674 169.926 39.2335 166.936 38.4312L166.417 40.3628ZM173.409 44.4525C175.449 46.3657 177.055 49.0847 178.186 52.6753L180.093 52.0747C178.889 48.2493 177.13 45.2003 174.776 42.9935L173.409 44.4525ZM178.187 52.6804C179.302 56.1571 179.717 60.7584 179.377 66.5303L181.374 66.6477C181.721 60.7463 181.311 55.8716 180.092 52.0696L178.187 52.6804ZM180.376 65.589H140.515V67.589H180.376V65.589ZM139.515 66.589C139.515 72.9403 141.211 77.8829 144.775 81.2235L146.142 79.7645C143.114 76.9251 141.515 72.5977 141.515 66.589H139.515ZM144.79 81.238C148.378 84.4599 153.099 86.026 158.849 86.026V84.026C153.474 84.026 149.268 82.5708 146.127 79.75L144.79 81.238ZM158.849 86.026C160.777 86.026 162.672 85.8116 164.532 85.3824L164.083 83.4336C162.372 83.8284 160.628 84.026 158.849 84.026V86.026ZM164.558 85.376C166.443 84.8873 168.228 84.3277 169.912 83.6963L169.209 81.8237C167.597 82.4283 165.88 82.9674 164.057 83.44L164.558 85.376ZM169.912 83.6963C171.607 83.0607 173.108 82.3478 174.408 81.5533L173.365 79.8467C172.193 80.5629 170.81 81.2233 169.209 81.8237L169.912 83.6963ZM174.388 81.5654C175.72 80.7942 176.782 80.0675 177.542 79.3833L176.205 77.8967C175.591 78.4485 174.663 79.0952 173.385 79.8346L174.388 81.5654ZM175.995 79.1178L179.188 84.9888L180.945 84.0332L177.752 78.1622L175.995 79.1178ZM158.334 44.062C155.996 44.062 153.757 44.3099 151.617 44.8092L152.072 46.7568C154.052 46.2947 156.139 46.062 158.334 46.062V44.062ZM151.61 44.8109C149.494 45.3216 147.586 46.2006 145.894 47.4508L147.083 49.0592C148.55 47.9747 150.212 47.2058 152.079 46.7551L151.61 44.8109ZM145.9 47.4463C144.257 48.6414 142.894 50.2344 141.803 52.1984L143.552 53.1696C144.521 51.4256 145.699 50.0659 147.077 49.0637L145.9 47.4463ZM141.797 52.2099C140.757 54.1416 140.113 56.5091 139.829 59.277L141.818 59.481C142.084 56.8929 142.675 54.797 143.558 53.1581L141.797 52.2099ZM140.824 60.379H172.857V58.379H140.824V60.379ZM173.854 59.3035C173.497 54.5917 171.949 50.8316 169.115 48.147L167.74 49.599C170.125 51.8584 171.53 55.1023 171.859 59.4545L173.854 59.3035ZM169.135 48.1659C166.375 45.4066 162.74 44.062 158.334 44.062V46.062C162.304 46.062 165.398 47.2581 167.72 49.5801L169.135 48.1659ZM213.192 67.722L213.918 67.0344L213.623 66.722H213.192V67.722ZM207.527 67.722V66.722H206.527V67.722H207.527ZM207.527 91V92H208.527V91H207.527ZM199.596 91H198.596V92H199.596V91ZM199.596 39.5V38.5H198.596V39.5H199.596ZM207.527 39.5H208.527V38.5H207.527V39.5ZM207.527 61.542H206.527V62.542H207.527V61.542ZM213.192 61.542V62.542H213.631L213.928 62.2193L213.192 61.542ZM233.483 39.5V38.5H233.045L232.748 38.8227L233.483 39.5ZM243.165 39.5L243.897 40.182L245.465 38.5H243.165V39.5ZM220.402 63.911L219.671 63.229L219.036 63.9096L219.67 64.5914L220.402 63.911ZM239.148 84.099L238.416 84.7795L238.712 85.099H239.148V84.099ZM245.843 84.099H246.843V83.099H245.843V84.099ZM245.843 91V92H246.843V91H245.843ZM235.234 91L234.508 91.6876L234.804 92H235.234V91ZM213.192 66.722H207.527V68.722H213.192V66.722ZM206.527 67.722V91H208.527V67.722H206.527ZM207.527 90H199.596V92H207.527V90ZM200.596 91V39.5H198.596V91H200.596ZM199.596 40.5H207.527V38.5H199.596V40.5ZM206.527 39.5V61.542H208.527V39.5H206.527ZM207.527 62.542H213.192V60.542H207.527V62.542ZM213.928 62.2193L234.219 40.1773L232.748 38.8227L212.457 60.8647L213.928 62.2193ZM233.483 40.5H243.165V38.5H233.483V40.5ZM242.434 38.818L219.671 63.229L221.134 64.593L243.897 40.182L242.434 38.818ZM219.67 64.5914L238.416 84.7795L239.881 83.4185L221.135 63.2305L219.67 64.5914ZM239.148 85.099H245.843V83.099H239.148V85.099ZM244.843 84.099V91H246.843V84.099H244.843ZM245.843 90H235.234V92H245.843V90ZM235.96 90.3124L213.918 67.0344L212.466 68.4096L234.508 91.6876L235.96 90.3124ZM305.646 84.511L306.31 85.2584L306.904 84.7308L306.525 84.0332L305.646 84.511ZM301.217 87.601L300.728 86.7285L300.721 86.7328L300.713 86.7372L301.217 87.601ZM295.758 90.073L296.084 91.0184L296.084 91.0184L295.758 90.073ZM289.475 91.618L289.321 90.63L289.303 90.6328L289.285 90.6362L289.475 91.618ZM272.068 90.382L271.686 91.3063L271.695 91.3098L271.704 91.3132L272.068 90.382ZM264.137 84.923L263.388 85.586L263.393 85.5914L263.398 85.5968L264.137 84.923ZM259.296 76.374L258.347 76.6902L258.347 76.6902L259.296 76.374ZM259.399 53.714L258.46 53.3692L258.457 53.3777L258.454 53.3862L259.399 53.714ZM264.652 45.268L263.945 44.5609L263.945 44.5609L264.652 45.268ZM272.892 40.118L273.232 41.0584L273.241 41.0552L273.25 41.0519L272.892 40.118ZM292.256 39.397L292.515 38.4312L292.515 38.4312L292.256 39.397ZM299.672 43.723L298.965 44.4301L298.976 44.4415L298.988 44.4525L299.672 43.723ZM304.719 52.375L303.765 52.6753L303.767 52.6804L304.719 52.375ZM305.955 66.589V67.589H306.898L306.953 66.6477L305.955 66.589ZM266.094 66.589V65.589H265.094V66.589H266.094ZM271.038 80.494L270.354 81.2235L270.362 81.2309L270.37 81.238L271.038 80.494ZM289.887 84.408L290.112 85.3824L290.125 85.3794L290.138 85.376L289.887 84.408ZM295.14 82.76L294.789 81.8237L294.789 81.8237L295.14 82.76ZM299.466 80.7L298.965 79.8346L298.955 79.8405L298.945 79.8467L299.466 80.7ZM302.453 78.64L303.332 78.1622L302.726 77.0489L301.784 77.8967L302.453 78.64ZM277.424 45.783L277.197 44.8091L277.189 44.8109L277.424 45.783ZM272.068 48.255L272.656 49.0638L272.662 49.0592L272.068 48.255ZM268.257 52.684L267.383 52.1983L267.377 52.2099L268.257 52.684ZM266.403 59.379L265.408 59.277L265.295 60.379H266.403V59.379ZM298.436 59.379V60.379H299.515L299.433 59.3035L298.436 59.379ZM294.007 48.873L293.3 49.5801L293.31 49.5897L293.319 49.599L294.007 48.873ZM304.982 83.7636C303.809 84.8063 302.394 85.796 300.728 86.7285L301.706 88.4735C303.474 87.4834 305.012 86.413 306.31 85.2584L304.982 83.7636ZM300.713 86.7372C299.127 87.6624 297.368 88.4601 295.432 89.1276L296.084 91.0184C298.131 90.3126 300.011 89.4623 301.721 88.4648L300.713 86.7372ZM295.432 89.1276C293.5 89.794 291.463 90.2953 289.321 90.63L289.629 92.606C291.882 92.2541 294.034 91.7253 296.084 91.0184L295.432 89.1276ZM289.285 90.6362C287.22 91.0359 285.12 91.236 282.986 91.236V93.236C285.246 93.236 287.473 93.0241 289.665 92.5998L289.285 90.6362ZM282.986 91.236C278.965 91.236 275.453 90.6327 272.432 89.4508L271.704 91.3132C275 92.6033 278.767 93.236 282.986 93.236V91.236ZM272.45 89.4577C269.416 88.2046 266.898 86.4665 264.876 84.2492L263.398 85.5968C265.634 88.0489 268.403 89.9501 271.686 91.3063L272.45 89.4577ZM264.886 84.26C262.854 81.9656 261.304 79.2365 260.245 76.0578L258.347 76.6902C259.485 80.1035 261.163 83.0737 263.388 85.586L264.886 84.26ZM260.245 76.0578C259.186 72.8807 258.648 69.2819 258.648 65.25H256.648C256.648 69.4581 257.209 73.2753 258.347 76.6902L260.245 76.0578ZM258.648 65.25C258.648 61.0124 259.22 57.2812 260.344 54.0418L258.454 53.3862C257.244 56.8762 256.648 60.8356 256.648 65.25H258.648ZM260.338 54.0588C261.53 50.814 263.207 48.127 265.359 45.9751L263.945 44.5609C261.565 46.941 259.74 49.8846 258.46 53.3692L260.338 54.0588ZM265.359 45.9751C267.514 43.8201 270.133 42.1794 273.232 41.0584L272.552 39.1776C269.197 40.3912 266.322 42.1839 263.945 44.5609L265.359 45.9751ZM273.25 41.0519C276.347 39.8657 279.828 39.264 283.707 39.264V37.264C279.621 37.264 275.892 37.8983 272.534 39.1841L273.25 41.0519ZM283.707 39.264C286.503 39.264 289.265 39.6299 291.997 40.3628L292.515 38.4312C289.616 37.6534 286.679 37.264 283.707 37.264V39.264ZM291.997 40.3628C294.637 41.0712 296.956 42.4212 298.965 44.4301L300.379 43.0159C298.131 40.7674 295.506 39.2335 292.515 38.4312L291.997 40.3628ZM298.988 44.4525C301.029 46.3657 302.635 49.0847 303.765 52.6753L305.673 52.0747C304.469 48.2493 302.71 45.2003 300.356 42.9935L298.988 44.4525ZM303.767 52.6804C304.882 56.1571 305.296 60.7584 304.957 66.5303L306.953 66.6477C307.3 60.7463 306.891 55.8716 305.671 52.0696L303.767 52.6804ZM305.955 65.589H266.094V67.589H305.955V65.589ZM265.094 66.589C265.094 72.9403 266.791 77.8829 270.354 81.2235L271.722 79.7645C268.693 76.9251 267.094 72.5977 267.094 66.589H265.094ZM270.37 81.238C273.958 84.4599 278.679 86.026 284.428 86.026V84.026C279.053 84.026 274.848 82.5708 271.706 79.75L270.37 81.238ZM284.428 86.026C286.357 86.026 288.252 85.8116 290.112 85.3824L289.662 83.4336C287.951 83.8284 286.207 84.026 284.428 84.026V86.026ZM290.138 85.376C292.023 84.8873 293.808 84.3277 295.491 83.6963L294.789 81.8237C293.176 82.4283 291.459 82.9674 289.636 83.44L290.138 85.376ZM295.491 83.6963C297.186 83.0607 298.687 82.3478 299.988 81.5533L298.945 79.8467C297.773 80.5629 296.39 81.2233 294.789 81.8237L295.491 83.6963ZM299.967 81.5654C301.299 80.7942 302.362 80.0675 303.122 79.3833L301.784 77.8967C301.171 78.4485 300.242 79.0952 298.965 79.8346L299.967 81.5654ZM301.575 79.1178L304.768 84.9888L306.525 84.0332L303.332 78.1622L301.575 79.1178ZM283.913 44.062C281.576 44.062 279.336 44.3099 277.197 44.8092L277.651 46.7568C279.632 46.2947 281.718 46.062 283.913 46.062V44.062ZM277.189 44.8109C275.074 45.3216 273.165 46.2006 271.474 47.4508L272.662 49.0592C274.13 47.9747 275.792 47.2058 277.659 46.7551L277.189 44.8109ZM271.48 47.4463C269.837 48.6414 268.474 50.2344 267.383 52.1984L269.131 53.1696C270.1 51.4256 271.278 50.0659 272.656 49.0637L271.48 47.4463ZM267.377 52.2099C266.336 54.1416 265.692 56.5091 265.408 59.277L267.398 59.481C267.663 56.8929 268.255 54.797 269.138 53.1581L267.377 52.2099ZM266.403 60.379H298.436V58.379H266.403V60.379ZM299.433 59.3035C299.076 54.5917 297.528 50.8316 294.695 48.147L293.319 49.599C295.704 51.8584 297.109 55.1023 297.439 59.4545L299.433 59.3035ZM294.714 48.1659C291.955 45.4066 288.319 44.062 283.913 44.062V46.062C287.884 46.062 290.978 47.2581 293.3 49.5801L294.714 48.1659ZM323.734 55.156H322.734V55.1917L322.736 55.2272L323.734 55.156ZM323.631 52.066L322.633 52.1284L322.633 52.1325L323.631 52.066ZM323.322 48.873L322.324 48.9395L322.326 48.9724L322.331 49.0052L323.322 48.873ZM323.013 46.195L323.997 46.0161L323.847 45.195H323.013V46.195ZM316.112 46.195H315.112V47.195H316.112V46.195ZM316.112 39.5V38.5H315.112V39.5H316.112ZM329.811 39.5L330.801 39.3586L330.678 38.5H329.811V39.5ZM330.841 46.71L329.851 46.8514L329.974 47.71H330.841V46.71ZM331.356 46.71V47.71H331.847L332.148 47.3208L331.356 46.71ZM338.36 40.736L338.849 41.6082L338.856 41.6042L338.36 40.736ZM365.449 44.341L364.711 45.0162L364.711 45.0162L365.449 44.341ZM369.054 75.962L368.117 75.6129L368.113 75.6233L369.054 75.962ZM363.698 84.717L362.981 84.0202L362.981 84.0202L363.698 84.717ZM340.42 92.03L340.537 91.0368L340.509 91.0337L340.482 91.0319L340.42 92.03ZM337.33 91.618L337.539 90.6402L337.511 90.6341L337.482 90.6296L337.33 91.618ZM334.652 91L334.358 91.9558L334.358 91.9558L334.652 91ZM331.768 89.97L332.139 89.0415L330.768 88.493V89.97H331.768ZM331.768 111.6V112.6H332.768V111.6H331.768ZM323.837 111.6H322.837V112.6H323.837V111.6ZM341.656 46.916L341.278 45.9898L341.266 45.995L341.656 46.916ZM336.815 49.903L336.164 49.1437L336.155 49.1516L336.146 49.1597L336.815 49.903ZM333.416 54.023L332.555 53.5143L332.555 53.5143L333.416 54.023ZM331.768 58.555L330.777 58.4199L330.768 58.4871V58.555H331.768ZM331.768 82.039H330.768V82.5675L331.204 82.8652L331.768 82.039ZM336.815 84.511L336.499 85.4597L336.519 85.4666L336.54 85.4725L336.815 84.511ZM357.518 79.979L358.253 80.6573L358.259 80.6503L357.518 79.979ZM358.96 50.624L358.141 51.1986L358.148 51.2086L358.156 51.2184L358.96 50.624ZM324.837 57.525C324.837 56.874 324.801 56.0583 324.731 55.0848L322.736 55.2272C322.804 56.1764 322.837 56.94 322.837 57.525H324.837ZM324.734 55.156C324.734 54.1038 324.699 53.0516 324.629 51.9995L322.633 52.1325C322.7 53.1404 322.734 54.1482 322.734 55.156H324.734ZM324.629 52.0036C324.559 50.883 324.454 49.7953 324.313 48.7408L322.331 49.0052C322.465 50.0107 322.565 51.0517 322.633 52.1284L324.629 52.0036ZM324.32 48.8065C324.249 47.7507 324.143 46.8188 323.997 46.0161L322.029 46.3739C322.158 47.0819 322.257 47.9353 322.324 48.9395L324.32 48.8065ZM323.013 45.195H316.112V47.195H323.013V45.195ZM317.112 46.195V39.5H315.112V46.195H317.112ZM316.112 40.5H329.811V38.5H316.112V40.5ZM328.821 39.6414L329.851 46.8514L331.831 46.5686L330.801 39.3586L328.821 39.6414ZM330.841 47.71H331.356V45.71H330.841V47.71ZM332.148 47.3208C333.914 45.0307 336.144 43.1259 338.849 41.6081L337.871 39.8639C334.945 41.5048 332.505 43.5826 330.564 46.0992L332.148 47.3208ZM338.856 41.6042C341.557 40.061 344.878 39.264 348.866 39.264V37.264C344.613 37.264 340.931 38.115 337.864 39.8678L338.856 41.6042ZM348.866 39.264C356.032 39.264 361.251 41.2351 364.711 45.0162L366.186 43.6658C362.231 39.3442 356.395 37.264 348.866 37.264V39.264ZM364.711 45.0162C368.168 48.7931 370.011 55.1114 370.011 64.22H372.011C372.011 54.926 370.146 47.9916 366.186 43.6658L364.711 45.0162ZM370.011 64.22C370.011 68.4453 369.374 72.2387 368.117 75.6129L369.991 76.3111C371.343 72.6813 372.011 68.6467 372.011 64.22H370.011ZM368.113 75.6233C366.921 78.9348 365.207 81.7278 362.981 84.0202L364.415 85.4138C366.857 82.8996 368.715 79.8559 369.995 76.3007L368.113 75.6233ZM362.981 84.0202C360.75 86.3162 358.056 88.0935 354.884 89.3492L355.62 91.2088C359.04 89.8551 361.976 87.9245 364.415 85.4138L362.981 84.0202ZM354.884 89.3492C351.719 90.6021 348.206 91.236 344.334 91.236V93.236C348.427 93.236 352.193 92.5652 355.62 91.2088L354.884 89.3492ZM344.334 91.236C342.922 91.236 341.658 91.1687 340.537 91.0368L340.303 93.0232C341.517 93.1659 342.861 93.236 344.334 93.236V91.236ZM340.482 91.0319C339.427 90.966 338.447 90.8347 337.539 90.6402L337.12 92.5958C338.135 92.8133 339.215 92.9567 340.357 93.0281L340.482 91.0319ZM337.482 90.6296C336.639 90.4999 335.794 90.3051 334.946 90.0442L334.358 91.9558C335.295 92.2443 336.235 92.4614 337.178 92.6064L337.482 90.6296ZM334.946 90.0442C334.084 89.7789 333.148 89.4452 332.139 89.0415L331.396 90.8985C332.447 91.3188 333.435 91.6717 334.358 91.9558L334.946 90.0442ZM330.768 89.97V111.6H332.768V89.97H330.768ZM331.768 110.6H323.837V112.6H331.768V110.6ZM324.837 111.6V57.525H322.837V111.6H324.837ZM347.527 44.783C345.341 44.783 343.256 45.1843 341.279 45.9899L342.033 47.8421C343.764 47.137 345.592 46.783 347.527 46.783V44.783ZM341.266 45.995C339.388 46.7897 337.686 47.8393 336.164 49.1437L337.466 50.6623C338.828 49.4947 340.353 48.553 342.045 47.837L341.266 45.995ZM336.146 49.1597C334.701 50.4601 333.502 51.9116 332.555 53.5143L334.277 54.5317C335.115 53.1131 336.182 51.8179 337.484 50.6463L336.146 49.1597ZM332.555 53.5143C331.605 55.1224 331.003 56.7589 330.777 58.4199L332.759 58.6901C332.944 57.3298 333.442 55.9449 334.277 54.5317L332.555 53.5143ZM330.768 58.555V82.039H332.768V58.555H330.768ZM331.204 82.8652C332.797 83.9507 334.563 84.8145 336.499 85.4597L337.131 83.5623C335.359 82.9715 333.76 82.1873 332.331 81.2128L331.204 82.8652ZM336.54 85.4725C338.587 86.0573 341.196 86.335 344.334 86.335V84.335C341.292 84.335 338.888 84.0634 337.09 83.5495L336.54 85.4725ZM344.334 86.335C350.066 86.335 354.742 84.4608 358.253 80.6573L356.783 79.3007C353.702 82.6385 349.588 84.335 344.334 84.335V86.335ZM358.259 80.6503C361.779 76.7633 363.462 71.1984 363.462 64.117H361.462C361.462 70.9062 359.848 75.916 356.777 79.3077L358.259 80.6503ZM363.462 64.117C363.462 58.1654 362.274 53.4258 359.764 50.0296L358.156 51.2184C360.315 54.1395 361.462 58.3953 361.462 64.117H363.462ZM359.778 50.0494C357.262 46.4659 353.081 44.783 347.527 44.783V46.783C352.684 46.783 356.125 48.3274 358.141 51.1986L359.778 50.0494ZM451.888 39.603L451.836 38.6044L450.888 38.6542V39.603H451.888ZM455.802 39.397L455.855 40.3956L455.881 40.3942L455.907 40.3915L455.802 39.397ZM460.025 39.088L460.071 40.087L460.071 40.087L460.025 39.088ZM464.866 38.882L464.828 37.8827L464.826 37.8828L464.866 38.882ZM486.908 41.972L486.366 42.812L486.372 42.8161L486.378 42.82L486.908 41.972ZM489.483 58.555L490.312 59.1154L490.319 59.1042L489.483 58.555ZM481.758 63.602L481.481 62.6412L480.758 62.8497V63.602H481.758ZM481.758 64.014H480.758V64.8611L481.594 65.0004L481.758 64.014ZM491.337 68.237L490.594 68.906L490.6 68.9122L490.605 68.9184L491.337 68.237ZM487.526 88.116L487.047 87.2386L487.041 87.2418L487.526 88.116ZM459.716 91.412L459.795 90.4151L459.782 90.4141L459.769 90.4134L459.716 91.412ZM451.888 90.897H450.888V91.8212L451.81 91.8939L451.888 90.897ZM459.819 84.511H458.819V85.4278L459.733 85.5072L459.819 84.511ZM464.557 84.82L464.514 85.8191L464.514 85.8191L464.557 84.82ZM481.861 82.966L482.309 83.8605L482.318 83.8558L481.861 82.966ZM485.054 72.46L484.148 72.8829L484.159 72.9071L484.172 72.9306L485.054 72.46ZM482.479 69.782L481.936 70.6216L481.947 70.6286L481.958 70.6353L482.479 69.782ZM477.844 68.031L477.635 69.0088L477.635 69.0088L477.844 68.031ZM459.819 67.413V66.413H458.819V67.413H459.819ZM476.196 60.615L476.484 61.5728L476.505 61.5663L476.527 61.5589L476.196 60.615ZM479.904 58.864L480.434 59.712L480.441 59.7078L480.448 59.7036L479.904 58.864ZM482.685 56.289L483.499 56.8702L483.508 56.8571L483.517 56.8437L482.685 56.289ZM480.625 47.225L480.142 48.1006L480.148 48.104L480.155 48.1074L480.625 47.225ZM464.248 45.68L464.205 44.6809L464.203 44.681L464.248 45.68ZM459.819 45.886L459.772 44.8871L458.819 44.9325V45.886H459.819ZM459.819 61.233H458.819V62.233H459.819V61.233ZM451.941 40.6016C453.246 40.533 454.55 40.4643 455.855 40.3956L455.75 38.3984C454.445 38.467 453.14 38.5357 451.836 38.6044L451.941 40.6016ZM455.907 40.3915C457.189 40.2565 458.577 40.1549 460.071 40.087L459.98 38.089C458.452 38.1585 457.025 38.2628 455.698 38.4025L455.907 40.3915ZM460.071 40.087C461.579 40.0184 463.191 39.9498 464.906 39.8812L464.826 37.8828C463.108 37.9515 461.493 38.0203 459.98 38.089L460.071 40.087ZM464.905 39.8813C466.675 39.8132 468.653 39.779 470.84 39.779V37.779C468.633 37.779 466.629 37.8135 464.828 37.8827L464.905 39.8813ZM470.84 39.779C478.209 39.779 483.321 40.8455 486.366 42.812L487.451 41.132C483.904 38.8412 478.304 37.779 470.84 37.779V39.779ZM486.378 42.82C489.356 44.6808 490.852 47.469 490.852 51.345H492.852C492.852 46.8437 491.053 43.3832 487.438 41.124L486.378 42.82ZM490.852 51.345C490.852 53.5176 490.141 55.7331 488.648 58.0058L490.319 59.1042C491.984 56.5703 492.852 53.9791 492.852 51.345H490.852ZM488.655 57.9947C487.244 60.0811 484.899 61.6552 481.481 62.6412L482.036 64.5628C485.759 63.4888 488.564 61.6982 490.312 59.1153L488.655 57.9947ZM480.758 63.602V64.014H482.758V63.602H480.758ZM481.594 65.0004C486.038 65.741 488.963 67.0936 490.594 68.906L492.081 67.568C490.004 65.2604 486.543 63.7977 481.923 63.0276L481.594 65.0004ZM490.605 68.9184C492.242 70.6762 493.118 73.1527 493.118 76.477H495.118C495.118 72.7973 494.141 69.7805 492.069 67.5556L490.605 68.9184ZM493.118 76.477C493.118 79.017 492.598 81.149 491.6 82.9109C490.604 84.6694 489.101 86.115 487.047 87.2386L488.006 88.9934C490.346 87.7137 492.139 86.0178 493.34 83.8966C494.54 81.7789 495.118 79.293 495.118 76.477H493.118ZM487.041 87.2418C482.932 89.5244 476.815 90.721 468.574 90.721V92.721C476.951 92.721 483.469 91.5143 488.012 88.9902L487.041 87.2418ZM468.574 90.721C465.298 90.721 462.373 90.6186 459.795 90.4151L459.638 92.4089C462.279 92.6174 465.258 92.721 468.574 92.721V90.721ZM459.769 90.4134C457.168 90.2765 454.568 90.1054 451.967 89.9001L451.81 91.8939C454.428 92.1006 457.046 92.2728 459.664 92.4106L459.769 90.4134ZM452.888 90.897V39.603H450.888V90.897H452.888ZM459.733 85.5072C461.326 85.6458 462.92 85.7498 464.514 85.8191L464.601 83.8209C463.036 83.7529 461.471 83.6508 459.906 83.5148L459.733 85.5072ZM464.514 85.8191C466.111 85.8885 467.911 85.923 469.913 85.923V83.923C467.933 83.923 466.163 83.8888 464.601 83.8209L464.514 85.8191ZM469.913 85.923C475.315 85.923 479.488 85.2708 482.309 83.8604L481.414 82.0716C479.016 83.2705 475.223 83.923 469.913 83.923V85.923ZM482.318 83.8558C483.808 83.0917 484.965 82.037 485.742 80.6825C486.515 79.3332 486.878 77.7456 486.878 75.962H484.878C484.878 77.4744 484.572 78.7021 484.007 79.6875C483.444 80.6676 482.593 81.467 481.405 82.0762L482.318 83.8558ZM486.878 75.962C486.878 74.5128 486.572 73.1806 485.937 71.9894L484.172 72.9306C484.635 73.7994 484.878 74.8019 484.878 75.962H486.878ZM485.961 72.0371C485.377 70.7858 484.359 69.7586 483.001 68.9287L481.958 70.6353C483.072 71.3161 483.771 72.0742 484.148 72.8829L485.961 72.0371ZM483.023 68.9424C481.721 68.0999 480.05 67.4809 478.054 67.0532L477.635 69.0088C479.484 69.4051 480.903 69.9534 481.936 70.6216L483.023 68.9424ZM478.054 67.0532C476.039 66.6213 473.559 66.413 470.634 66.413V68.413C473.477 68.413 475.805 68.6167 477.635 69.0088L478.054 67.0532ZM470.634 66.413H459.819V68.413H470.634V66.413ZM458.819 67.413V84.511H460.819V67.413H458.819ZM472.076 62.233C473.551 62.233 475.021 62.0116 476.484 61.5728L475.909 59.6572C474.625 60.0424 473.348 60.233 472.076 60.233V62.233ZM476.527 61.5589C477.962 61.0567 479.266 60.4424 480.434 59.712L479.374 58.016C478.346 58.659 477.178 59.212 475.866 59.6711L476.527 61.5589ZM480.448 59.7036C481.702 58.8918 482.728 57.9503 483.499 56.8702L481.872 55.7078C481.27 56.5503 480.441 57.3256 479.361 58.0244L480.448 59.7036ZM483.517 56.8437C484.299 55.671 484.715 54.4165 484.715 53.096H482.715C482.715 53.9729 482.445 54.847 481.853 55.7343L483.517 56.8437ZM484.715 53.096C484.715 50.0023 483.555 47.6541 481.096 46.3426L480.155 48.1074C481.816 48.9932 482.715 50.559 482.715 53.096H484.715ZM481.108 46.3494C478.88 45.1197 475.292 44.577 470.531 44.577V46.577C475.246 46.577 478.388 47.133 480.142 48.1006L481.108 46.3494ZM470.531 44.577C467.916 44.577 465.805 44.6114 464.205 44.6809L464.292 46.6791C465.85 46.6113 467.929 46.577 470.531 46.577V44.577ZM464.203 44.681C462.692 44.7497 461.215 44.8184 459.772 44.8871L459.867 46.8849C461.308 46.8162 462.784 46.7476 464.294 46.679L464.203 44.681ZM458.819 45.886V61.233H460.819V45.886H458.819ZM459.819 62.233H472.076V60.233H459.819V62.233ZM546.608 46.504H547.608V45.504H546.608V46.504ZM519.725 46.504V45.504H518.725V46.504H519.725ZM519.725 91V92H520.725V91H519.725ZM511.794 91H510.794V92H511.794V91ZM511.794 39.5V38.5H510.794V39.5H511.794ZM554.642 39.5H555.642V38.5H554.642V39.5ZM554.642 91V92H555.642V91H554.642ZM546.608 91H545.608V92H546.608V91ZM546.608 45.504H519.725V47.504H546.608V45.504ZM518.725 46.504V91H520.725V46.504H518.725ZM519.725 90H511.794V92H519.725V90ZM512.794 91V39.5H510.794V91H512.794ZM511.794 40.5H554.642V38.5H511.794V40.5ZM553.642 39.5V91H555.642V39.5H553.642ZM554.642 90H546.608V92H554.642V90ZM547.608 91V46.504H545.608V91H547.608ZM619.595 84.511L620.259 85.2584L620.853 84.7308L620.473 84.0332L619.595 84.511ZM615.166 87.601L614.677 86.7285L614.67 86.7328L614.662 86.7372L615.166 87.601ZM609.707 90.073L610.033 91.0184L610.033 91.0184L609.707 90.073ZM603.424 91.618L603.27 90.63L603.252 90.6328L603.234 90.6362L603.424 91.618ZM586.017 90.382L585.635 91.3063L585.644 91.3098L585.653 91.3132L586.017 90.382ZM578.086 84.923L577.337 85.586L577.342 85.5914L577.347 85.5968L578.086 84.923ZM573.245 76.374L572.296 76.6902L572.296 76.6902L573.245 76.374ZM573.348 53.714L572.409 53.3692L572.406 53.3777L572.403 53.3862L573.348 53.714ZM578.601 45.268L577.894 44.5609L577.894 44.5609L578.601 45.268ZM586.841 40.118L587.181 41.0584L587.19 41.0552L587.199 41.0519L586.841 40.118ZM606.205 39.397L606.464 38.4312L606.464 38.4312L606.205 39.397ZM613.621 43.723L612.914 44.4301L612.925 44.4415L612.937 44.4525L613.621 43.723ZM618.668 52.375L617.714 52.6753L617.716 52.6804L618.668 52.375ZM619.904 66.589V67.589H620.847L620.902 66.6477L619.904 66.589ZM580.043 66.589V65.589H579.043V66.589H580.043ZM584.987 80.494L584.303 81.2235L584.311 81.2309L584.319 81.238L584.987 80.494ZM603.836 84.408L604.061 85.3824L604.074 85.3794L604.087 85.376L603.836 84.408ZM609.089 82.76L608.738 81.8237L608.738 81.8237L609.089 82.76ZM613.415 80.7L612.914 79.8346L612.904 79.8405L612.893 79.8467L613.415 80.7ZM616.402 78.64L617.28 78.1622L616.675 77.0489L615.733 77.8967L616.402 78.64ZM591.373 45.783L591.146 44.8091L591.138 44.8109L591.373 45.783ZM586.017 48.255L586.605 49.0638L586.611 49.0592L586.017 48.255ZM582.206 52.684L581.332 52.1983L581.325 52.2099L582.206 52.684ZM580.352 59.379L579.357 59.277L579.244 60.379H580.352V59.379ZM612.385 59.379V60.379H613.464L613.382 59.3035L612.385 59.379ZM607.956 48.873L607.249 49.5801L607.258 49.5897L607.268 49.599L607.956 48.873ZM618.931 83.7636C617.757 84.8063 616.343 85.796 614.677 86.7285L615.655 88.4735C617.423 87.4834 618.96 86.413 620.259 85.2584L618.931 83.7636ZM614.662 86.7372C613.076 87.6624 611.317 88.4601 609.381 89.1276L610.033 91.0184C612.08 90.3126 613.96 89.4623 615.67 88.4648L614.662 86.7372ZM609.381 89.1276C607.448 89.794 605.412 90.2953 603.27 90.63L603.578 92.606C605.831 92.2541 607.983 91.7253 610.033 91.0184L609.381 89.1276ZM603.234 90.6362C601.169 91.0359 599.069 91.236 596.935 91.236V93.236C599.195 93.236 601.422 93.0241 603.614 92.5998L603.234 90.6362ZM596.935 91.236C592.914 91.236 589.402 90.6327 586.381 89.4508L585.653 91.3132C588.949 92.6033 592.716 93.236 596.935 93.236V91.236ZM586.399 89.4577C583.365 88.2046 580.846 86.4665 578.825 84.2492L577.347 85.5968C579.583 88.0489 582.352 89.9501 585.635 91.3063L586.399 89.4577ZM578.834 84.26C576.802 81.9656 575.253 79.2365 574.194 76.0578L572.296 76.6902C573.434 80.1035 575.112 83.0737 577.337 85.586L578.834 84.26ZM574.194 76.0578C573.135 72.8807 572.597 69.2819 572.597 65.25H570.597C570.597 69.4581 571.158 73.2753 572.296 76.6902L574.194 76.0578ZM572.597 65.25C572.597 61.0124 573.169 57.2812 574.293 54.0418L572.403 53.3862C571.192 56.8762 570.597 60.8356 570.597 65.25H572.597ZM574.287 54.0588C575.479 50.814 577.156 48.127 579.308 45.9751L577.894 44.5609C575.514 46.941 573.689 49.8846 572.409 53.3692L574.287 54.0588ZM579.308 45.9751C581.463 43.8201 584.082 42.1794 587.181 41.0584L586.501 39.1776C583.145 40.3912 580.271 42.1839 577.894 44.5609L579.308 45.9751ZM587.199 41.0519C590.296 39.8657 593.777 39.264 597.656 39.264V37.264C593.569 37.264 589.841 37.8983 586.483 39.1841L587.199 41.0519ZM597.656 39.264C600.451 39.264 603.214 39.6299 605.946 40.3628L606.464 38.4312C603.565 37.6534 600.628 37.264 597.656 37.264V39.264ZM605.946 40.3628C608.586 41.0712 610.905 42.4212 612.914 44.4301L614.328 43.0159C612.08 40.7674 609.455 39.2335 606.464 38.4312L605.946 40.3628ZM612.937 44.4525C614.978 46.3657 616.584 49.0847 617.714 52.6753L619.622 52.0747C618.417 48.2493 616.659 45.2003 614.305 42.9935L612.937 44.4525ZM617.716 52.6804C618.831 56.1571 619.245 60.7584 618.906 66.5303L620.902 66.6477C621.249 60.7463 620.84 55.8716 619.62 52.0696L617.716 52.6804ZM619.904 65.589H580.043V67.589H619.904V65.589ZM579.043 66.589C579.043 72.9403 580.74 77.8829 584.303 81.2235L585.671 79.7645C582.642 76.9251 581.043 72.5977 581.043 66.589H579.043ZM584.319 81.238C587.907 84.4599 592.628 86.026 598.377 86.026V84.026C593.002 84.026 588.796 82.5708 585.655 79.75L584.319 81.238ZM598.377 86.026C600.306 86.026 602.201 85.8116 604.061 85.3824L603.611 83.4336C601.9 83.8284 600.156 84.026 598.377 84.026V86.026ZM604.087 85.376C605.972 84.8873 607.757 84.3277 609.44 83.6963L608.738 81.8237C607.125 82.4283 605.408 82.9674 603.585 83.44L604.087 85.376ZM609.44 83.6963C611.135 83.0607 612.636 82.3478 613.936 81.5533L612.893 79.8467C611.722 80.5629 610.339 81.2233 608.738 81.8237L609.44 83.6963ZM613.916 81.5654C615.248 80.7942 616.311 80.0675 617.071 79.3833L615.733 77.8967C615.12 78.4485 614.191 79.0952 612.914 79.8346L613.916 81.5654ZM615.523 79.1178L618.716 84.9888L620.473 84.0332L617.28 78.1622L615.523 79.1178ZM597.862 44.062C595.525 44.062 593.285 44.3099 591.146 44.8092L591.6 46.7568C593.581 46.2947 595.667 46.062 597.862 46.062V44.062ZM591.138 44.8109C589.023 45.3216 587.114 46.2006 585.423 47.4508L586.611 49.0592C588.079 47.9747 589.74 47.2058 591.608 46.7551L591.138 44.8109ZM585.429 47.4463C583.785 48.6414 582.423 50.2344 581.332 52.1984L583.08 53.1696C584.049 51.4256 585.227 50.0659 586.605 49.0637L585.429 47.4463ZM581.325 52.2099C580.285 54.1416 579.641 56.5091 579.357 59.277L581.347 59.481C581.612 56.8929 582.204 54.797 583.086 53.1581L581.325 52.2099ZM580.352 60.379H612.385V58.379H580.352V60.379ZM613.382 59.3035C613.025 54.5917 611.477 50.8316 608.644 48.147L607.268 49.599C609.653 51.8584 611.058 55.1023 611.388 59.4545L613.382 59.3035ZM608.663 48.1659C605.904 45.4066 602.268 44.062 597.862 44.062V46.062C601.833 46.062 604.927 47.2581 607.249 49.5801L608.663 48.1659ZM645.099 39.5H646.099V38.5H645.099V39.5ZM645.408 58.349L644.416 58.4783L644.419 58.4994L644.422 58.5203L645.408 58.349ZM646.953 62.469L646.113 63.0123L646.121 63.024L646.129 63.0355L646.953 62.469ZM650.146 65.044L649.735 65.9559L649.735 65.9559L650.146 65.044ZM664.772 64.838L665.071 65.792L665.084 65.7881L665.096 65.7839L664.772 64.838ZM670.128 62.263L670.735 63.0574L671.128 62.7572V62.263H670.128ZM670.128 39.5V38.5H669.128V39.5H670.128ZM678.162 39.5H679.162V38.5H678.162V39.5ZM678.162 91V92H679.162V91H678.162ZM670.128 91H669.128V92H670.128V91ZM670.128 69.164H671.128V67.3809L669.606 68.3107L670.128 69.164ZM664.463 71.636L664.779 72.5847L664.787 72.5821L664.794 72.5795L664.463 71.636ZM646.747 72.048L646.468 73.0083L646.482 73.0125L646.497 73.0163L646.747 72.048ZM641.391 68.958L640.651 69.6307L640.667 69.6483L640.684 69.6651L641.391 68.958ZM638.198 63.087L637.234 63.3546L637.239 63.3708L637.244 63.3868L638.198 63.087ZM637.168 39.5V38.5H636.168V39.5H637.168ZM644.099 39.5V53.199H646.099V39.5H644.099ZM644.099 53.199C644.099 55.0894 644.204 56.8498 644.416 58.4783L646.399 58.2197C646.2 56.6895 646.099 55.0166 646.099 53.199H644.099ZM644.422 58.5203C644.717 60.2121 645.274 61.7161 646.113 63.0123L647.792 61.9257C647.12 60.8873 646.648 59.6446 646.393 58.1777L644.422 58.5203ZM646.129 63.0355C647.001 64.3038 648.217 65.2728 649.735 65.9559L650.556 64.1321C649.327 63.5792 648.415 62.8315 647.777 61.9025L646.129 63.0355ZM649.735 65.9559C651.286 66.6537 653.262 66.971 655.605 66.971V64.971C653.415 64.971 651.752 64.6703 650.556 64.1321L649.735 65.9559ZM655.605 66.971C659.371 66.971 662.537 66.5885 665.071 65.792L664.472 63.884C662.2 64.5981 659.254 64.971 655.605 64.971V66.971ZM665.096 65.7839C667.538 64.9466 669.442 64.0463 670.735 63.0574L669.52 61.4686C668.479 62.265 666.812 63.0814 664.447 63.8921L665.096 65.7839ZM671.128 62.263V39.5H669.128V62.263H671.128ZM670.128 40.5H678.162V38.5H670.128V40.5ZM677.162 39.5V91H679.162V39.5H677.162ZM678.162 90H670.128V92H678.162V90ZM671.128 91V69.164H669.128V91H671.128ZM669.606 68.3107C668.461 69.0105 666.652 69.8069 664.131 70.6925L664.794 72.5795C667.355 71.6797 669.322 70.8281 670.649 70.0173L669.606 68.3107ZM664.146 70.6873C661.822 71.4623 658.545 71.872 654.266 71.872V73.872C658.638 73.872 662.16 73.4577 664.779 72.5847L664.146 70.6873ZM654.266 71.872C651.441 71.872 649.023 71.6026 646.997 71.0797L646.497 73.0163C648.728 73.592 651.322 73.872 654.266 73.872V71.872ZM647.025 71.0877C645.044 70.5124 643.41 69.5635 642.098 68.2509L640.684 69.6651C642.255 71.2365 644.192 72.3476 646.468 73.0083L647.025 71.0877ZM642.131 68.2853C640.875 66.904 639.873 65.0838 639.152 62.7872L637.244 63.3868C638.033 65.8969 639.16 67.9907 640.651 69.6307L642.131 68.2853ZM639.161 62.8194C638.507 60.4638 638.168 57.471 638.168 53.817H636.168C636.168 57.579 636.515 60.7662 637.234 63.3546L639.161 62.8194ZM638.168 53.817V39.5H636.168V53.817H638.168ZM637.168 40.5H645.099V38.5H637.168V40.5ZM701.811 43.517L701.309 42.6525L700.542 43.0983L700.893 43.9128L701.811 43.517ZM711.802 39.809L712.002 40.7889L712.002 40.7889L711.802 39.809ZM731.269 40.324L730.822 41.2185L730.833 41.2238L731.269 40.324ZM736.522 44.65L735.7 45.2192L735.713 45.2374L735.726 45.2551L736.522 44.65ZM739.097 50.624L738.114 50.8029L738.117 50.8204L738.12 50.8377L739.097 50.624ZM739.303 74.52L738.304 74.4967L738.303 74.5084V74.52H739.303ZM739.921 84.305L738.93 84.4372L739.046 85.305H739.921V84.305ZM746.822 84.305H747.822V83.305H746.822V84.305ZM746.822 91V92H747.822V91H746.822ZM733.123 91L732.131 91.1191L732.236 92H733.123V91ZM732.196 83.275L733.189 83.1559L733.084 82.275H732.196V83.275ZM731.681 83.275V82.275H731.146L730.849 82.7203L731.681 83.275ZM726.531 88.528L727.096 89.3534L727.105 89.3472L726.531 88.528ZM721.69 90.897L722.027 91.8387L722.027 91.8387L721.69 90.897ZM702.841 88.013L703.504 87.2637L702.841 88.013ZM700.678 68.546L699.85 67.9857L699.844 67.9942L699.839 68.0027L700.678 68.546ZM707.373 63.19L706.979 62.2709L706.979 62.2709L707.373 63.19ZM717.776 61.027L717.726 60.0282L717.726 60.0283L717.776 61.027ZM731.578 61.851L731.431 62.8401L732.46 62.9931L732.573 61.9591L731.578 61.851ZM731.681 54.023L730.686 54.1193L730.688 54.1373L730.69 54.1552L731.681 54.023ZM730.033 48.976L729.201 49.5307L729.212 49.5463L729.223 49.5615L730.033 48.976ZM726.428 46.401L726.087 47.3408L726.112 47.3499L726.137 47.3577L726.428 46.401ZM711.905 46.916L712.186 47.8757L712.197 47.8726L712.208 47.8692L711.905 46.916ZM704.386 49.491L703.468 49.8868L703.856 50.786L704.763 50.4175L704.386 49.491ZM722.308 84.099L721.957 83.1627L721.957 83.1627L722.308 84.099ZM726.634 81.73L726.02 80.9406L726.02 80.9406L726.634 81.73ZM729.724 78.64L730.524 79.24L730.533 79.2285L730.541 79.2167L729.724 78.64ZM731.578 75.344L732.507 75.7154L732.578 75.5366V75.344H731.578ZM731.578 68.134H732.578V67.2922L731.749 67.1486L731.578 68.134ZM713.862 68.237L714.133 69.1996L714.147 69.1958L714.161 69.1915L713.862 68.237ZM708.712 71.224L709.456 71.893L709.456 71.893L708.712 71.224ZM709.124 82.554L708.374 83.2146L708.388 83.2306L708.402 83.2459L709.124 82.554ZM702.314 44.3815C705.163 42.7251 708.389 41.5248 712.002 40.7889L711.603 38.8291C707.8 39.6038 704.365 40.8756 701.309 42.6525L702.314 44.3815ZM712.002 40.7889C715.648 40.0461 719.221 39.676 722.72 39.676V37.676C719.079 37.676 715.373 38.0612 711.603 38.8291L712.002 40.7889ZM722.72 39.676C726.129 39.676 728.81 40.2123 730.822 41.2184L731.717 39.4296C729.334 38.2383 726.316 37.676 722.72 37.676V39.676ZM730.833 41.2238C732.969 42.2595 734.577 43.5967 735.7 45.2192L737.345 44.0808C735.996 42.1327 734.102 40.5859 731.706 39.4242L730.833 41.2238ZM735.726 45.2551C736.929 46.838 737.728 48.6809 738.114 50.8029L740.081 50.4451C739.643 48.0351 738.725 45.8954 737.319 44.0449L735.726 45.2551ZM738.12 50.8377C738.586 52.9643 738.818 55.1243 738.818 57.319H740.818C740.818 54.9817 740.57 52.6784 740.074 50.4103L738.12 50.8377ZM738.818 57.319C738.818 59.911 738.75 62.6764 738.613 65.6155L740.611 65.7085C740.749 62.7423 740.818 59.9457 740.818 57.319H738.818ZM738.613 65.6155C738.476 68.5759 738.372 71.5363 738.304 74.4967L740.303 74.5432C740.372 71.5983 740.474 68.6534 740.611 65.7085L738.613 65.6155ZM738.303 74.52C738.303 77.9932 738.512 81.2992 738.93 84.4372L740.913 84.1728C740.507 81.1308 740.303 77.9135 740.303 74.52H738.303ZM739.921 85.305H746.822V83.305H739.921V85.305ZM745.822 84.305V91H747.822V84.305H745.822ZM746.822 90H733.123V92H746.822V90ZM734.116 90.8809L733.189 83.1559L731.204 83.3941L732.131 91.1191L734.116 90.8809ZM732.196 82.275H731.681V84.275H732.196V82.275ZM730.849 82.7203C730.47 83.2896 729.881 84.0444 729.068 84.9932L730.587 86.2948C731.421 85.321 732.069 84.4964 732.513 83.8297L730.849 82.7203ZM729.068 84.9932C728.313 85.8741 727.283 86.781 725.958 87.7088L727.105 89.3472C728.526 88.3523 729.694 87.3366 730.587 86.2948L729.068 84.9932ZM725.967 87.7027C724.75 88.5352 723.218 89.2895 721.354 89.9553L722.027 91.8387C724.008 91.1311 725.704 90.3061 727.096 89.3533L725.967 87.7027ZM721.354 89.9553C719.565 90.5943 717.417 90.927 714.892 90.927V92.927C717.586 92.927 719.971 92.573 722.027 91.8387L721.354 89.9553ZM714.892 90.927C709.982 90.927 706.226 89.6692 703.504 87.2637L702.179 88.7623C705.362 91.5755 709.64 92.927 714.892 92.927V90.927ZM703.504 87.2637C700.799 84.8736 699.412 81.594 699.412 77.301H697.412C697.412 82.072 698.978 85.9338 702.179 88.7623L703.504 87.2637ZM699.412 77.301C699.412 73.942 700.136 71.2248 701.518 69.0893L699.839 68.0027C698.199 70.5365 697.412 73.656 697.412 77.301H699.412ZM701.507 69.1063C702.967 66.948 705.039 65.2785 707.767 64.1091L706.979 62.2709C703.94 63.5735 701.549 65.4746 699.85 67.9857L701.507 69.1063ZM707.767 64.1091C710.516 62.9312 713.861 62.2274 717.827 62.0257L717.726 60.0283C713.589 60.2386 709.999 60.9768 706.979 62.2709L707.767 64.1091ZM717.826 62.0258C721.867 61.8237 726.4 62.0922 731.431 62.8401L731.725 60.8619C726.594 60.0991 721.926 59.8183 717.726 60.0282L717.826 62.0258ZM732.573 61.9591C732.92 58.7578 732.962 56.0607 732.673 53.8908L730.69 54.1552C730.95 56.1053 730.923 58.6269 730.584 61.7429L732.573 61.9591ZM732.677 53.9267C732.46 51.689 731.874 49.8168 730.844 48.3905L729.223 49.5615C729.978 50.6072 730.491 52.0996 730.686 54.1193L732.677 53.9267ZM730.865 48.4213C729.899 46.9711 728.494 45.9844 726.72 45.4443L726.137 47.3577C727.521 47.7789 728.52 48.5089 729.201 49.5307L730.865 48.4213ZM726.77 45.4612C725.115 44.8594 723.102 44.577 720.763 44.577V46.577C722.957 46.577 724.72 46.844 726.087 47.3408L726.77 45.4612ZM720.763 44.577C717.576 44.577 714.521 45.0377 711.603 45.9628L712.208 47.8692C714.921 47.009 717.771 46.577 720.763 46.577V44.577ZM711.624 45.9563C708.784 46.7876 706.245 47.6566 704.01 48.5645L704.763 50.4175C706.923 49.54 709.396 48.6924 712.186 47.8757L711.624 45.9563ZM705.305 49.0952L702.73 43.1212L700.893 43.9128L703.468 49.8868L705.305 49.0952ZM716.952 86.026C718.984 86.026 720.889 85.6992 722.66 85.0353L721.957 83.1627C720.431 83.7348 718.766 84.026 716.952 84.026V86.026ZM722.66 85.0353C724.39 84.3862 725.923 83.5498 727.248 82.5194L726.02 80.9406C724.873 81.8329 723.522 82.5758 721.957 83.1627L722.66 85.0353ZM727.248 82.5194C728.545 81.5109 729.64 80.4189 730.524 79.24L728.924 78.04C728.161 79.0584 727.196 80.0264 726.02 80.9406L727.248 82.5194ZM730.541 79.2167C731.398 78.0028 732.059 76.8352 732.507 75.7154L730.65 74.9726C730.274 75.9128 729.699 76.9426 728.907 78.0633L730.541 79.2167ZM732.578 75.344V68.134H730.578V75.344H732.578ZM731.749 67.1486C728.133 66.5228 724.779 66.207 721.69 66.207V68.207C724.645 68.207 727.883 68.5092 731.408 69.1193L731.749 67.1486ZM721.69 66.207C718.598 66.207 715.883 66.5579 713.564 67.2825L714.161 69.1915C716.237 68.5427 718.741 68.207 721.69 68.207V66.207ZM713.592 67.2743C711.255 67.9315 709.358 69.0113 707.969 70.555L709.456 71.893C710.538 70.6901 712.075 69.7785 714.133 69.1996L713.592 67.2743ZM707.969 70.555C706.538 72.1457 705.858 74.185 705.858 76.58H707.858C707.858 74.5803 708.415 73.049 709.456 71.893L707.969 70.555ZM705.858 76.58C705.858 79.0916 706.704 81.3172 708.374 83.2146L709.875 81.8934C708.523 80.3574 707.858 78.6004 707.858 76.58H705.858ZM708.402 83.2459C710.257 85.1809 713.198 86.026 716.952 86.026V84.026C713.428 84.026 711.151 83.2231 709.846 81.8621L708.402 83.2459ZM758.833 39.5V38.5H757.833V39.5H758.833ZM809.921 39.5H810.921V38.5H809.921V39.5ZM809.921 58.761V59.761H810.921V58.761H809.921ZM802.917 58.761H801.917V59.761H802.917V58.761ZM802.917 46.504H803.917V45.504H802.917V46.504ZM788.394 46.504V45.504H787.394V46.504H788.394ZM788.394 84.099H787.394V85.099H788.394V84.099ZM800.857 84.099H801.857V83.099H800.857V84.099ZM800.857 91V92H801.857V91H800.857ZM767.485 91H766.485V92H767.485V91ZM767.485 84.099V83.099H766.485V84.099H767.485ZM780.36 84.099V85.099H781.36V84.099H780.36ZM780.36 46.504H781.36V45.504H780.36V46.504ZM765.837 46.504V45.504H764.837V46.504H765.837ZM765.837 58.761V59.761H766.837V58.761H765.837ZM758.833 58.761H757.833V59.761H758.833V58.761ZM758.833 40.5H809.921V38.5H758.833V40.5ZM808.921 39.5V58.761H810.921V39.5H808.921ZM809.921 57.761H802.917V59.761H809.921V57.761ZM803.917 58.761V46.504H801.917V58.761H803.917ZM802.917 45.504H788.394V47.504H802.917V45.504ZM787.394 46.504V84.099H789.394V46.504H787.394ZM788.394 85.099H800.857V83.099H788.394V85.099ZM799.857 84.099V91H801.857V84.099H799.857ZM800.857 90H767.485V92H800.857V90ZM768.485 91V84.099H766.485V91H768.485ZM767.485 85.099H780.36V83.099H767.485V85.099ZM781.36 84.099V46.504H779.36V84.099H781.36ZM780.36 45.504H765.837V47.504H780.36V45.504ZM764.837 46.504V58.761H766.837V46.504H764.837ZM765.837 57.761H758.833V59.761H765.837V57.761ZM759.833 58.761V39.5H757.833V58.761H759.833ZM860.145 46.504H861.145V45.504H860.145V46.504ZM842.326 46.504V45.504H841.369L841.327 46.4601L842.326 46.504ZM841.296 64.117L842.293 64.1927L842.293 64.1918L841.296 64.117ZM838.927 78.331L837.966 78.0541L837.964 78.0617L837.962 78.0693L838.927 78.331ZM834.086 87.91L833.347 87.2362L833.342 87.2423L833.336 87.2484L834.086 87.91ZM822.653 91.206L822.436 92.1822L822.653 91.206ZM820.387 90.485L819.402 90.312L819.26 91.1228L820.028 91.4183L820.387 90.485ZM821.726 82.863L821.98 81.8959L820.929 81.6193L820.741 82.69L821.726 82.863ZM828.421 82.142L827.743 81.4072L828.421 82.142ZM830.79 78.228L829.864 77.8507L829.86 77.8598L829.857 77.869L830.79 78.228ZM832.644 70.503L831.657 70.3419L831.656 70.3503L831.654 70.3587L832.644 70.503ZM833.983 57.937L834.981 58.0053L834.981 58.0044L833.983 57.937ZM834.807 39.5V38.5H833.835L833.807 39.4714L834.807 39.5ZM868.179 39.5H869.179V38.5H868.179V39.5ZM868.179 91V92H869.179V91H868.179ZM860.145 91H859.145V92H860.145V91ZM860.145 45.504H842.326V47.504H860.145V45.504ZM841.327 46.4601C841.053 52.6998 840.71 58.5604 840.299 64.0422L842.293 64.1918C842.706 58.6869 843.05 52.8055 843.325 46.5479L841.327 46.4601ZM840.299 64.0413C839.891 69.4163 839.11 74.0841 837.966 78.0541L839.888 78.6079C841.079 74.4752 841.877 69.667 842.293 64.1927L840.299 64.0413ZM837.962 78.0693C836.892 82.0156 835.339 85.0511 833.347 87.2362L834.825 88.5838C837.09 86.0995 838.765 82.7491 839.892 78.5927L837.962 78.0693ZM833.336 87.2484C831.495 89.3352 828.97 90.412 825.64 90.412V92.412C829.451 92.412 832.557 91.1541 834.836 88.5716L833.336 87.2484ZM825.64 90.412C824.275 90.412 823.373 90.3417 822.87 90.2298L822.436 92.1822C823.168 92.345 824.258 92.412 825.64 92.412V90.412ZM822.87 90.2298C822.318 90.1072 821.613 89.8852 820.746 89.5517L820.028 91.4183C820.946 91.7715 821.752 92.0302 822.436 92.1822L822.87 90.2298ZM821.372 90.658L822.711 83.036L820.741 82.69L819.402 90.312L821.372 90.658ZM821.471 83.8301C822.841 84.1905 824.13 84.378 825.331 84.378V82.378C824.335 82.378 823.22 82.2222 821.98 81.8959L821.471 83.8301ZM825.331 84.378C826.761 84.378 828.03 83.8637 829.099 82.8768L827.743 81.4072C827.026 82.0683 826.236 82.378 825.331 82.378V84.378ZM829.099 82.8768C830.151 81.9059 831.01 80.4417 831.723 78.587L829.857 77.869C829.197 79.585 828.476 80.7301 827.743 81.4072L829.099 82.8768ZM831.716 78.6053C832.515 76.6435 833.148 73.978 833.634 70.6473L831.654 70.3587C831.179 73.62 830.575 76.1045 829.864 77.8507L831.716 78.6053ZM833.631 70.6641C834.187 67.258 834.636 63.036 834.981 58.0053L832.985 57.8687C832.643 62.8633 832.2 67.0186 831.657 70.3419L833.631 70.6641ZM834.981 58.0044C835.325 52.9061 835.6 46.7467 835.807 39.5286L833.807 39.4714C833.602 46.6733 833.327 52.8053 832.985 57.8696L834.981 58.0044ZM834.807 40.5H868.179V38.5H834.807V40.5ZM867.179 39.5V91H869.179V39.5H867.179ZM868.179 90H860.145V92H868.179V90ZM861.145 91V46.504H859.145V91H861.145ZM933.544 84.511L934.208 85.2584L934.802 84.7308L934.422 84.0332L933.544 84.511ZM929.115 87.601L928.626 86.7285L928.618 86.7328L928.611 86.7372L929.115 87.601ZM923.656 90.073L923.982 91.0184L923.982 91.0184L923.656 90.073ZM917.373 91.618L917.218 90.63L917.2 90.6328L917.183 90.6362L917.373 91.618ZM899.966 90.382L899.584 91.3063L899.593 91.3098L899.601 91.3132L899.966 90.382ZM892.035 84.923L891.286 85.586L891.291 85.5914L891.296 85.5968L892.035 84.923ZM887.194 76.374L886.245 76.6902L886.245 76.6902L887.194 76.374ZM887.297 53.714L886.358 53.3692L886.355 53.3777L886.352 53.3862L887.297 53.714ZM892.55 45.268L891.843 44.5609L891.843 44.5609L892.55 45.268ZM900.79 40.118L901.13 41.0584L901.139 41.0552L901.147 41.0519L900.79 40.118ZM920.154 39.397L920.413 38.4312L920.413 38.4312L920.154 39.397ZM927.57 43.723L926.863 44.4301L926.874 44.4415L926.886 44.4525L927.57 43.723ZM932.617 52.375L931.663 52.6753L931.664 52.6804L932.617 52.375ZM933.853 66.589V67.589H934.796L934.851 66.6477L933.853 66.589ZM893.992 66.589V65.589H892.992V66.589H893.992ZM898.936 80.494L898.252 81.2235L898.26 81.2309L898.268 81.238L898.936 80.494ZM917.785 84.408L918.01 85.3824L918.023 85.3794L918.036 85.376L917.785 84.408ZM923.038 82.76L922.687 81.8237L922.687 81.8237L923.038 82.76ZM927.364 80.7L926.863 79.8346L926.852 79.8405L926.842 79.8467L927.364 80.7ZM930.351 78.64L931.229 78.1622L930.624 77.0489L929.682 77.8967L930.351 78.64ZM905.322 45.783L905.094 44.8091L905.087 44.8109L905.322 45.783ZM899.966 48.255L900.554 49.0638L900.56 49.0592L899.966 48.255ZM896.155 52.684L895.28 52.1983L895.274 52.2099L896.155 52.684ZM894.301 59.379L893.306 59.277L893.193 60.379H894.301V59.379ZM926.334 59.379V60.379H927.412L927.331 59.3035L926.334 59.379ZM921.905 48.873L921.198 49.5801L921.207 49.5897L921.217 49.599L921.905 48.873ZM932.879 83.7636C931.706 84.8063 930.291 85.796 928.626 86.7285L929.603 88.4735C931.371 87.4834 932.909 86.413 934.208 85.2584L932.879 83.7636ZM928.611 86.7372C927.025 87.6624 925.266 88.4601 923.33 89.1276L923.982 91.0184C926.029 90.3126 927.909 89.4623 929.619 88.4648L928.611 86.7372ZM923.33 89.1276C921.397 89.794 919.361 90.2953 917.218 90.63L917.527 92.606C919.78 92.2541 921.932 91.7253 923.982 91.0184L923.33 89.1276ZM917.183 90.6362C915.117 91.0359 913.018 91.236 910.884 91.236V93.236C913.144 93.236 915.371 93.0241 917.563 92.5998L917.183 90.6362ZM910.884 91.236C906.862 91.236 903.351 90.6327 900.33 89.4508L899.601 91.3132C902.898 92.6033 906.665 93.236 910.884 93.236V91.236ZM900.347 89.4577C897.314 88.2046 894.795 86.4665 892.774 84.2492L891.296 85.5968C893.532 88.0489 896.301 89.9501 899.584 91.3063L900.347 89.4577ZM892.783 84.26C890.751 81.9656 889.202 79.2365 888.142 76.0578L886.245 76.6902C887.383 80.1035 889.061 83.0737 891.286 85.586L892.783 84.26ZM888.142 76.0578C887.083 72.8807 886.546 69.2819 886.546 65.25H884.546C884.546 69.4581 885.107 73.2753 886.245 76.6902L888.142 76.0578ZM886.546 65.25C886.546 61.0124 887.118 57.2812 888.241 54.0418L886.352 53.3862C885.141 56.8762 884.546 60.8356 884.546 65.25H886.546ZM888.235 54.0588C889.427 50.814 891.105 48.127 893.257 45.9751L891.843 44.5609C889.462 46.941 887.638 49.8846 886.358 53.3692L888.235 54.0588ZM893.257 45.9751C895.412 43.8201 898.03 42.1794 901.13 41.0584L900.45 39.1776C897.094 40.3912 894.22 42.1839 891.843 44.5609L893.257 45.9751ZM901.147 41.0519C904.245 39.8657 907.726 39.264 911.605 39.264V37.264C907.518 37.264 903.79 37.8983 900.432 39.1841L901.147 41.0519ZM911.605 39.264C914.4 39.264 917.163 39.6299 919.895 40.3628L920.413 38.4312C917.514 37.6534 914.577 37.264 911.605 37.264V39.264ZM919.895 40.3628C922.535 41.0712 924.854 42.4212 926.863 44.4301L928.277 43.0159C926.028 40.7674 923.403 39.2335 920.413 38.4312L919.895 40.3628ZM926.886 44.4525C928.926 46.3657 930.532 49.0847 931.663 52.6753L933.571 52.0747C932.366 48.2493 930.608 45.2003 928.254 42.9935L926.886 44.4525ZM931.664 52.6804C932.78 56.1571 933.194 60.7584 932.854 66.5303L934.851 66.6477C935.198 60.7463 934.788 55.8716 933.569 52.0696L931.664 52.6804ZM933.853 65.589H893.992V67.589H933.853V65.589ZM892.992 66.589C892.992 72.9403 894.688 77.8829 898.252 81.2235L899.62 79.7645C896.591 76.9251 894.992 72.5977 894.992 66.589H892.992ZM898.268 81.238C901.856 84.4599 906.576 86.026 912.326 86.026V84.026C906.951 84.026 902.745 82.5708 899.604 79.75L898.268 81.238ZM912.326 86.026C914.254 86.026 916.15 85.8116 918.01 85.3824L917.56 83.4336C915.849 83.8284 914.105 84.026 912.326 84.026V86.026ZM918.036 85.376C919.921 84.8873 921.705 84.3277 923.389 83.6963L922.687 81.8237C921.074 82.4283 919.357 82.9674 917.534 83.44L918.036 85.376ZM923.389 83.6963C925.084 83.0607 926.585 82.3478 927.885 81.5533L926.842 79.8467C925.67 80.5629 924.287 81.2233 922.687 81.8237L923.389 83.6963ZM927.865 81.5654C929.197 80.7942 930.259 80.0675 931.02 79.3833L929.682 77.8967C929.069 78.4485 928.14 79.0952 926.863 79.8346L927.865 81.5654ZM929.472 79.1178L932.665 84.9888L934.422 84.0332L931.229 78.1622L929.472 79.1178ZM911.811 44.062C909.474 44.062 907.234 44.3099 905.094 44.8092L905.549 46.7568C907.529 46.2947 909.616 46.062 911.811 46.062V44.062ZM905.087 44.8109C902.972 45.3216 901.063 46.2006 899.371 47.4508L900.56 49.0592C902.027 47.9747 903.689 47.2058 905.556 46.7551L905.087 44.8109ZM899.378 47.4463C897.734 48.6414 896.372 50.2344 895.281 52.1984L897.029 53.1696C897.998 51.4256 899.176 50.0659 900.554 49.0637L899.378 47.4463ZM895.274 52.2099C894.234 54.1416 893.59 56.5091 893.306 59.277L895.295 59.481C895.561 56.8929 896.153 54.797 897.035 53.1581L895.274 52.2099ZM894.301 60.379H926.334V58.379H894.301V60.379ZM927.331 59.3035C926.974 54.5917 925.426 50.8316 922.592 48.147L921.217 49.599C923.602 51.8584 925.007 55.1023 925.337 59.4545L927.331 59.3035ZM922.612 48.1659C919.853 45.4066 916.217 44.062 911.811 44.062V46.062C915.782 46.062 918.876 47.2581 921.198 49.5801L922.612 48.1659ZM986.548 68.134H987.548V67.134H986.548V68.134ZM958.841 68.134V67.134H957.841V68.134H958.841ZM958.841 91V92H959.841V91H958.841ZM950.91 91H949.91V92H950.91V91ZM950.91 39.5V38.5H949.91V39.5H950.91ZM958.841 39.5H959.841V38.5H958.841V39.5ZM958.841 60.924H957.841V61.924H958.841V60.924ZM986.548 60.924V61.924H987.548V60.924H986.548ZM986.548 39.5V38.5H985.548V39.5H986.548ZM994.582 39.5H995.582V38.5H994.582V39.5ZM994.582 91V92H995.582V91H994.582ZM986.548 91H985.548V92H986.548V91ZM986.548 67.134H958.841V69.134H986.548V67.134ZM957.841 68.134V91H959.841V68.134H957.841ZM958.841 90H950.91V92H958.841V90ZM951.91 91V39.5H949.91V91H951.91ZM950.91 40.5H958.841V38.5H950.91V40.5ZM957.841 39.5V60.924H959.841V39.5H957.841ZM958.841 61.924H986.548V59.924H958.841V61.924ZM987.548 60.924V39.5H985.548V60.924H987.548ZM986.548 40.5H994.582V38.5H986.548V40.5ZM993.582 39.5V91H995.582V39.5H993.582ZM994.582 90H986.548V92H994.582V90ZM987.548 91V68.134H985.548V91H987.548ZM1049.65 58.658L1048.65 58.6126L1048.65 58.6353V58.658H1049.65ZM1049.96 51.86L1050.96 51.9054L1051 50.86H1049.96V51.86ZM1049.65 51.86V50.86H1049.14L1048.84 51.2654L1049.65 51.86ZM1020.7 91V92H1021.21L1021.51 91.5946L1020.7 91ZM1013.39 91H1012.39V92H1013.39V91ZM1013.39 39.5V38.5H1012.39V39.5H1013.39ZM1021.43 39.5H1022.43V38.5H1021.43V39.5ZM1021.43 72.769L1022.42 72.8166L1022.43 72.7928V72.769H1021.43ZM1021.12 79.258L1020.12 79.2104L1020.07 80.258H1021.12V79.258ZM1021.53 79.258V80.258H1022.04L1022.34 79.8438L1021.53 79.258ZM1050.27 39.5V38.5H1049.75L1049.45 38.9142L1050.27 39.5ZM1057.68 39.5H1058.68V38.5H1057.68V39.5ZM1057.68 91V92H1058.68V91H1057.68ZM1049.65 91H1048.65V92H1049.65V91ZM1050.65 58.7034L1050.96 51.9054L1048.96 51.8146L1048.65 58.6126L1050.65 58.7034ZM1049.96 50.86H1049.65V52.86H1049.96V50.86ZM1048.84 51.2654L1019.9 90.4054L1021.51 91.5946L1050.45 52.4546L1048.84 51.2654ZM1020.7 90H1013.39V92H1020.7V90ZM1014.39 91V39.5H1012.39V91H1014.39ZM1013.39 40.5H1021.43V38.5H1013.39V40.5ZM1020.43 39.5V72.769H1022.43V39.5H1020.43ZM1020.43 72.7214L1020.12 79.2104L1022.12 79.3056L1022.42 72.8166L1020.43 72.7214ZM1021.12 80.258H1021.53V78.258H1021.12V80.258ZM1022.34 79.8438L1051.08 40.0858L1049.45 38.9142L1020.72 78.6722L1022.34 79.8438ZM1050.27 40.5H1057.68V38.5H1050.27V40.5ZM1056.68 39.5V91H1058.68V39.5H1056.68ZM1057.68 90H1049.65V92H1057.68V90ZM1050.65 91V58.658H1048.65V91H1050.65ZM1112.44 58.658L1111.44 58.6126L1111.44 58.6353V58.658H1112.44ZM1112.75 51.86L1113.74 51.9054L1113.79 50.86H1112.75V51.86ZM1112.44 51.86V50.86H1111.93L1111.63 51.2654L1112.44 51.86ZM1083.49 91V92H1084L1084.3 91.5946L1083.49 91ZM1076.18 91H1075.18V92H1076.18V91ZM1076.18 39.5V38.5H1075.18V39.5H1076.18ZM1084.22 39.5H1085.22V38.5H1084.22V39.5ZM1084.22 72.769L1085.21 72.8166L1085.22 72.7928V72.769H1084.22ZM1083.91 79.258L1082.91 79.2104L1082.86 80.258H1083.91V79.258ZM1084.32 79.258V80.258H1084.83L1085.13 79.8438L1084.32 79.258ZM1113.06 39.5V38.5H1112.54L1112.24 38.9142L1113.06 39.5ZM1120.47 39.5H1121.47V38.5H1120.47V39.5ZM1120.47 91V92H1121.47V91H1120.47ZM1112.44 91H1111.44V92H1112.44V91ZM1089.57 18.694L1090.55 18.4816L1090.31 17.3737L1089.24 17.751L1089.57 18.694ZM1093.07 25.286L1092.47 26.086L1092.48 26.0918L1092.49 26.0975L1093.07 25.286ZM1104.82 25.183L1104.21 24.3868L1104.21 24.3868L1104.82 25.183ZM1108.32 18.797L1108.62 17.8437L1107.56 17.5098L1107.34 18.5921L1108.32 18.797ZM1114.5 20.754L1115.49 20.9073L1115.62 20.0596L1114.8 19.8007L1114.5 20.754ZM1109.14 29.921L1108.56 29.1098L1108.55 29.1164L1109.14 29.921ZM1093.18 32.393L1092.92 33.3587L1092.93 33.361L1093.18 32.393ZM1084.63 26.522L1085.45 25.9587L1085.45 25.9587L1084.63 26.522ZM1082.57 21.166L1082.23 20.223L1081.44 20.5024L1081.58 21.3304L1082.57 21.166ZM1113.44 58.7034L1113.74 51.9054L1111.75 51.8146L1111.44 58.6126L1113.44 58.7034ZM1112.75 50.86H1112.44V52.86H1112.75V50.86ZM1111.63 51.2654L1082.69 90.4054L1084.3 91.5946L1113.24 52.4546L1111.63 51.2654ZM1083.49 90H1076.18V92H1083.49V90ZM1077.18 91V39.5H1075.18V91H1077.18ZM1076.18 40.5H1084.22V38.5H1076.18V40.5ZM1083.22 39.5V72.769H1085.22V39.5H1083.22ZM1083.22 72.7214L1082.91 79.2104L1084.9 79.3056L1085.21 72.8166L1083.22 72.7214ZM1083.91 80.258H1084.32V78.258H1083.91V80.258ZM1085.13 79.8438L1113.87 40.0858L1112.24 38.9142L1083.51 78.6722L1085.13 79.8438ZM1113.06 40.5H1120.47V38.5H1113.06V40.5ZM1119.47 39.5V91H1121.47V39.5H1119.47ZM1120.47 90H1112.44V92H1120.47V90ZM1113.44 91V58.658H1111.44V91H1113.44ZM1088.59 18.9064C1089.3 22.1729 1090.55 24.6434 1092.47 26.086L1093.67 24.486C1092.3 23.4566 1091.21 21.5324 1090.55 18.4816L1088.59 18.9064ZM1092.49 26.0975C1094.38 27.461 1096.55 28.14 1098.94 28.14V26.14C1096.95 26.14 1095.2 25.583 1093.66 24.4745L1092.49 26.0975ZM1098.94 28.14C1101.36 28.14 1103.53 27.4188 1105.42 25.9792L1104.21 24.3868C1102.67 25.5566 1100.93 26.14 1098.94 26.14V28.14ZM1105.42 25.9792C1107.39 24.4799 1108.65 22.0967 1109.3 19.0019L1107.34 18.5921C1106.75 21.4027 1105.67 23.2768 1104.21 24.3868L1105.42 25.9792ZM1108.02 19.7503L1114.2 21.7073L1114.8 19.8007L1108.62 17.8437L1108.02 19.7503ZM1113.51 20.6007C1112.93 24.3501 1111.27 27.1552 1108.56 29.1098L1109.73 30.7322C1112.92 28.4295 1114.83 25.1233 1115.49 20.9073L1113.51 20.6007ZM1108.55 29.1164C1105.86 31.1019 1102.6 32.114 1098.74 32.114V34.114C1102.97 34.114 1106.66 32.9974 1109.73 30.7256L1108.55 29.1164ZM1098.74 32.114C1096.97 32.114 1095.2 31.8851 1093.43 31.425L1092.93 33.361C1094.86 33.8622 1096.8 34.114 1098.74 34.114V32.114ZM1093.44 31.4274C1091.75 30.973 1090.24 30.2951 1088.89 29.3979L1087.78 31.062C1089.32 32.0875 1091.03 32.8516 1092.92 33.3586L1093.44 31.4274ZM1088.89 29.3979C1087.56 28.5118 1086.41 27.3691 1085.45 25.9587L1083.8 27.0853C1084.9 28.6963 1086.23 30.0256 1087.78 31.062L1088.89 29.3979ZM1085.45 25.9587C1084.52 24.5837 1083.88 22.9389 1083.55 21.0016L1081.58 21.3304C1081.94 23.5131 1082.68 25.4389 1083.8 27.0853L1085.45 25.9587ZM1082.9 22.109L1089.9 19.637L1089.24 17.751L1082.23 20.223L1082.9 22.109Z" fill="#C63F3A"/>
</g>
<g opacity="0.85">
<ellipse cx="412.247" cy="67.5" rx="14.2468" ry="14.5" fill="black" fill-opacity="0.86"/>
<ellipse cx="412.247" cy="67.4999" rx="5.80424" ry="5.90741" fill="#BC0100" fill-opacity="0.9"/>
</g>
</svg>
