<svg width="1440" height="782" viewBox="0 0 1440 782" fill="none" xmlns="http://www.w3.org/2000/svg">
<g opacity="0.91">
<path opacity="0.11" d="M-393.503 594.475C-381.612 592.466 -369.536 591.645 -357.46 592.024C-345.249 592.116 -333.047 592.855 -320.907 594.238C-296.673 597.123 -272.665 601.685 -249.061 607.89C-206.383 618.723 -164.704 633.127 -122.971 647.064C-74.1162 663.367 -25.0058 679.487 25.5041 690.011C63.4592 697.919 102.038 702.343 140.717 701.589C154.025 701.266 167.299 700.213 180.478 698.436C204.049 695.253 227.82 690.08 249.876 681.288C276.002 670.872 300.529 655.326 316.339 631.891C319.996 625.877 323.071 619.535 325.525 612.95C327.921 606.272 329.689 599.388 330.808 592.384C333.087 578.175 332.088 563.623 327.887 549.8C323.599 535.83 315.368 523.318 304.155 513.723C294.557 505.711 283.204 500.001 271 497.045C259.143 493.921 246.767 493.284 234.678 495.177C221.037 497.351 208.374 503.425 198.265 512.642C190.941 519.624 185.371 528.189 181.99 537.667C178.61 547.144 177.511 557.277 178.779 567.273C179.235 572.78 180.431 578.207 182.336 583.414C184.604 590.232 187.807 596.719 191.855 602.696C199.51 614.243 209.319 624.267 220.761 632.235C231.376 639.815 243.139 645.695 255.609 649.652C276.996 656.359 300.291 657.481 322.389 655.147C357.675 651.43 390.964 637.463 418.015 615.025C447.803 590.414 469.126 557.776 491.866 527.166L491.424 527.734C503.129 512.681 515.086 497.868 529.871 485.595C536.802 479.814 544.266 474.678 552.168 470.253C562.049 464.74 572.5 460.269 583.348 456.914C620.722 445.348 661.233 445.325 700.001 448.668C747.999 452.804 795.159 463.398 842.428 472.315C870.557 477.626 898.831 482.46 927.345 485.108C953.218 487.5 979.622 488.418 1005.53 485.962C1022.34 484.424 1039.01 481.69 1055.4 477.782C1085.34 470.286 1114.3 459.456 1141.7 445.5C1196.58 418.134 1246.42 381.84 1295.73 345.943C1333.29 318.565 1370.09 290.072 1403.62 257.97C1421.79 240.762 1438.75 222.364 1454.4 202.902C1465.5 188.901 1475.72 174.244 1485.01 159.012C1488.93 152.977 1492.51 146.737 1495.74 140.317C1501.09 130.829 1505.88 121.047 1510.1 111.018C1509.83 110.746 1509.49 110.556 1509.12 110.469C1508.74 110.383 1508.35 110.404 1507.99 110.531C1505.54 110.839 1503.11 111.26 1500.7 111.793C1498.29 112.326 1495.9 112.91 1493.53 113.546C1493.14 113.571 1492.78 113.704 1492.47 113.931C1492.16 114.157 1491.93 114.466 1491.8 114.821C1485.88 127.627 1479.24 140.096 1471.91 152.17C1466.54 161.189 1460.72 169.917 1454.46 178.355C1448.51 186.959 1442.15 195.276 1435.41 203.305C1426.5 214.061 1417.18 224.453 1407.43 234.479L1407.95 233.96L1392.56 249.294L1393.08 248.79L1377.11 263.654L1377.64 263.166C1364.43 274.808 1351.13 286.248 1337.34 297.238C1323.56 308.229 1309.54 318.905 1295.31 329.326C1267.9 349.407 1240.06 369.177 1211.56 387.746C1186.61 404.29 1160.68 419.368 1133.91 432.9C1119.08 440.343 1103.84 446.986 1088.27 452.8L1069.47 459.198C1056.84 463.15 1043.98 466.355 1030.95 468.796L1031.67 468.681L1011.48 471.81L1012.19 471.711C1002.56 472.994 992.872 473.771 983.155 474.036C976.73 474.474 970.298 474.613 963.86 474.453C947.824 474.417 931.86 473.489 915.892 471.986C884.15 469.111 852.693 463.417 821.354 457.834C766.66 448.08 711.764 437.71 656.002 438.722C609.082 439.627 560.033 448.547 522.235 477.307C503.408 491.63 488.233 509.338 473.869 527.862C462.784 542.174 452.203 556.906 440.463 570.714C433.136 579.465 425.307 587.795 417.012 595.666C408.631 603.775 399.458 611.054 389.624 617.399C371.685 628.602 351.734 636.362 330.817 640.274C320.326 642.16 309.668 643.043 298.99 642.911C285.765 642.791 272.361 642.193 259.72 638.103C242.909 634.185 227.495 625.782 215.181 613.822C211.532 611.075 208.258 607.876 205.443 604.304C202.252 600.943 199.532 597.179 197.355 593.113L268.632 508.592C273.104 509.756 277.381 511.564 281.322 513.958C285.462 516.014 289.355 518.522 292.927 521.435L299.317 527.659L308.329 541.535C312.446 550.096 315.047 559.276 316.02 568.679C317.631 592.688 309.829 616.329 294.217 634.739C288.026 641.691 280.977 647.854 273.23 653.089C263.952 659.046 254.148 664.176 243.932 668.419L244.607 668.166L233.819 672.036L234.508 671.814C224.823 674.508 215.107 677.085 205.36 679.544C192.758 682.452 179.991 684.645 167.122 686.11L167.835 686.04L148.095 687.738L148.822 687.7L129.051 688.41L129.774 688.448C117.092 688.583 104.431 688.149 91.791 687.146C79.1513 686.142 66.5433 684.675 53.967 682.745C35.0094 679.861 16.24 675.91 -2.41629 671.51C-49.553 660.402 -95.562 644.912 -141.584 630.027C-183.928 616.316 -226.402 602.751 -269.925 593.207C-291.153 588.407 -312.663 584.947 -334.321 582.848C-346.695 581.692 -359.117 581.17 -371.536 581.283C-383.464 581.158 -395.381 581.831 -407.205 583.298C-409.884 583.539 -404.384 587.338 -404.519 587.24C-402.232 588.934 -399.914 590.609 -397.565 592.265C-396.368 593.253 -394.988 594.004 -393.503 594.475Z" fill="#BC0100"/>
<path opacity="0.11" d="M-403.962 586.712L-386.278 584.105C-377.036 583.616 -367.77 583.637 -358.524 584.169C-346.435 584.662 -334.375 585.753 -322.39 587.437C-295.305 591.431 -268.523 597.275 -242.239 604.926C-184.395 621.252 -128.002 642.626 -70.5419 660.267C-18.0218 676.349 35.5058 689.317 90.4432 693.127C116.613 694.941 142.885 694.083 168.837 690.567C175.742 689.634 180.147 689.072 189.24 687.191C206.475 683.637 223.795 679.557 239.954 672.583C254.764 666.429 268.704 658.443 281.439 648.817C289.677 642.317 296.933 634.7 302.993 626.193L306.798 620.948C309.569 616.319 311.9 611.447 313.762 606.393C320.049 590.981 322.618 574.324 321.268 557.723C320.562 550.241 319.053 542.848 316.766 535.668C314.925 530.14 312.403 524.85 309.259 519.915C306.521 514.631 303.027 509.756 298.886 505.439C285.604 492.402 268.436 483.884 249.922 481.143C239.408 479.587 228.716 479.764 218.286 481.668C209.623 483.32 201.377 486.601 193.999 491.331C189.34 493.978 185.075 497.241 181.323 501.029C177.394 505.019 174.101 509.57 171.555 514.53C168.086 520.52 168.905 518.804 166.664 525.251C164.522 530.546 163.164 536.12 162.631 541.805C162.289 545.197 162.879 557.124 162.542 553.076C162.818 556.862 163.314 560.632 164.025 564.367C164.919 567.981 166.021 571.544 167.326 575.039C168.63 578.674 170.198 582.214 172.018 585.631C177.186 595.351 183.893 604.209 191.886 611.87C201.772 621.401 213.114 629.349 225.495 635.422C231.278 638.201 237.27 640.536 243.415 642.406C251.672 644.719 260.121 646.29 268.657 647.099C313.906 652.617 359.481 641.057 396.169 614.754C412.647 602.871 426.69 588.287 439.588 572.81C454.734 554.706 467.556 534.846 481.836 516.136C492.178 502.574 502.995 489.4 515.739 477.901C532.265 462.975 552.527 452.969 573.877 446.474C584.64 443.369 595.664 441.188 606.823 439.955C618.105 438.521 629.469 437.759 640.854 437.674C659.611 437.626 678.362 438.656 697.012 440.759C718.307 443.112 739.456 446.64 760.485 450.737C790.272 456.543 820.078 462.592 849.917 467.93C910.729 478.787 973.301 484.885 1034.18 472.149C1095.07 459.413 1151.08 428.831 1202.32 394.852C1224.87 379.902 1246.92 364.184 1268.76 348.258C1297.74 327.273 1326.43 305.941 1353.93 283.107C1384.36 258.164 1412.34 230.476 1437.51 200.401C1446.64 189.338 1455.23 177.944 1463.27 166.097C1469.5 157.261 1475.25 148.113 1480.52 138.689C1487.75 126.004 1494.24 112.919 1499.95 99.4981C1500.48 98.3433 1499.58 97.9632 1498.49 97.771C1497.76 97.6271 1494.44 96.9868 1493.96 97.9776C1487.74 111.115 1481.73 124.097 1474.26 136.655C1468.77 145.88 1462.97 154.897 1456.86 163.706C1442.66 184.1 1426.92 203.402 1409.75 221.448C1373.1 260.148 1331.08 293.51 1288.02 325.031C1238.54 361.237 1188.24 397.538 1133.39 425.557C1112.27 436.57 1090.26 445.869 1067.57 453.361L1037.96 460.083C1021.9 464.966 1005.27 467.922 988.459 468.888C975.389 469.731 962.183 470.188 949.151 469.897C864.252 468.41 782.317 442.812 698.115 434.587C665.586 431.399 632.529 430.608 600.208 435.614C584.566 437.866 569.258 441.905 554.593 447.65C538.006 454.35 522.738 463.818 509.459 475.638C486.331 496.272 469.303 522.736 450.646 547.07C440.577 560.496 429.592 573.232 417.766 585.191C404.377 598.673 388.976 610.072 372.086 619.001C343.697 633.635 311.692 640.239 279.606 638.084C267.183 637.462 254.861 635.471 242.871 632.148C231.368 628.656 220.472 623.438 210.569 616.681C201.092 610.382 192.647 602.695 185.53 593.888L182.367 589.937L190.8 496.501C195.532 492.197 202.369 489.063 208.426 486.799L234.273 486.097C246.181 482.44 259.105 483.518 270.28 489.101L279.493 494.636C284.457 496.78 288.935 499.887 292.656 503.77L296.592 507.367L303.357 516.49C308.404 524.316 311.975 532.966 313.897 542.022C316.665 554.217 317.042 566.802 315.007 579.103C312.842 591.069 308.553 602.554 302.336 613.035C287.561 638.463 260.19 654.816 233.091 665.274C223.115 669.089 212.854 672.153 202.397 674.44L143.654 683.24L124.063 684.051C98.2134 684.279 72.3733 682.443 46.797 678.562C-4.23169 671.254 -53.9546 656.376 -103.029 640.804C-154.152 624.535 -204.763 606.52 -256.748 593.207C-280.298 587.016 -304.218 582.319 -328.36 579.143C-337.375 578.013 -346.387 577.14 -355.458 576.567C-364.53 575.995 -373.931 575.86 -383.12 576.175C-392.064 575.773 -400.997 576.951 -409.496 579.653C-411.193 579.99 -409.595 581.8 -409.067 582.388C-408.087 583.456 -407.047 584.471 -405.954 585.427C-405.467 586.076 -404.76 586.532 -403.962 586.712Z" fill="#BC0100"/>
<path opacity="0.11" d="M-365.7 598.041C-353.53 596.475 -341.252 595.804 -328.968 596.035C-316.712 596.09 -304.462 596.755 -292.266 598.029C-274.016 600.044 -255.88 603 -237.932 606.885C-194.935 616.144 -152.989 629.788 -111.26 643.452C-31.8882 669.464 47.8805 696.89 131.765 703.325C157.507 705.316 183.371 704.712 208.951 701.521C218.763 700.386 228.496 698.691 238.099 696.443C247.968 694.534 257.707 692.044 267.265 688.986C292.738 680.673 317.833 668.203 335.726 648.058C342.838 639.914 348.481 630.632 352.415 620.607C357.584 607.985 359.885 594.388 359.159 580.763C358.619 570.461 356.199 560.326 352.013 550.843C349.141 544.327 345.294 538.264 340.6 532.858C337.303 529.344 333.602 526.219 329.572 523.547C320.233 516.926 309.505 512.457 298.193 510.476C288.798 508.679 279.162 508.553 269.744 510.104C263.687 511.318 257.792 513.195 252.168 515.701C248.024 517.744 244.172 520.312 240.712 523.341C236.833 526.02 233.565 529.464 231.116 533.456C227.133 538.751 224.284 544.791 222.74 551.211C210.939 593.038 247.291 633.31 284.575 648.079C307.91 657.342 333.866 659.283 358.631 656.283C390.371 652.375 420.316 639.852 445.115 620.116C471.239 599.394 490.858 572.26 510.775 546.036C518.754 535.534 526.782 524.99 535.535 515.105C541.001 508.839 546.831 502.889 552.996 497.286C559.529 491.428 566.52 486.082 573.905 481.297L572.828 481.924L585.929 474.384L584.837 474.979C592.896 470.81 601.284 467.278 609.921 464.418C618.443 461.579 627.146 459.283 635.975 457.544C649.537 454.992 663.266 453.353 677.067 452.641C710.934 450.882 744.708 454.18 778.267 458.77L777.087 458.603L792.55 461.035L791.372 460.823C824.335 466.625 857.211 472.984 890.195 478.696C924.875 484.708 959.916 489.617 995.154 490.247C1014.76 490.762 1034.37 489.682 1053.78 487.018C1070.41 484.62 1086.83 481.048 1102.92 476.331C1138.74 465.731 1172.83 449.859 1204.98 431.22C1234.18 414.278 1262.14 395.515 1289.74 376.172C1324.23 351.985 1358.69 327.418 1391.04 300.484C1418.46 277.954 1444.13 253.44 1467.83 227.143C1474.91 219.223 1481.62 211.01 1487.96 202.506C1494.58 194.178 1500.78 185.55 1506.57 176.624L1517.83 158.487C1525.11 146.067 1531.66 133.249 1537.46 120.093C1535.92 119.687 1534.29 119.79 1532.82 120.385C1527.21 121.663 1521.63 123.048 1516.07 124.54C1510.51 126.032 1504.96 127.576 1499.43 129.17C1497.84 129.377 1496.37 130.095 1495.25 131.213C1488.78 143.08 1482.32 154.675 1475.03 166.045C1467.73 177.415 1459.67 188.079 1451.37 198.593C1434.62 219.844 1415.45 239.271 1395.63 257.726C1375.31 276.328 1354.04 293.903 1331.91 310.385C1304.87 330.879 1276.72 349.981 1248.24 368.567C1226.89 382.457 1205.34 396.109 1182.8 408.195C1160.66 420.12 1137.88 431.33 1114.12 439.929C1090.6 448.433 1066.27 455.502 1041.38 458.92C1013.34 462.637 984.962 463.589 956.684 461.763C905.364 458.76 854.798 449.127 803.942 442.071C756.595 435.514 708.549 431.74 660.949 437.02C636.111 439.574 611.719 445.188 588.348 453.731C569.94 460.502 552.553 469.669 536.648 480.988C520.331 492.712 506.155 506.835 492.735 521.618C470.753 545.811 451.13 572.035 425.793 593.086C413.958 603.082 400.61 611.208 386.221 617.178C379.613 619.749 372.804 621.8 365.86 623.314C355.402 625.669 344.676 626.721 333.933 626.446C326.682 626.311 319.446 625.68 312.277 624.559C305.85 623.486 296.366 622.483 291.046 618.815L289.274 617.45C287.239 615.755 285.001 614.312 282.61 613.152C279.346 610.981 276.266 608.552 273.401 605.889C268.114 600.813 262.997 594.746 260.131 588.021C257.699 582.258 255.678 575.259 257.06 569.056C257.353 566.71 258.004 564.424 258.992 562.275C260.052 559.937 261.44 557.759 263.115 555.804C264.911 553.726 267.081 551.994 269.519 550.692C272 549.386 274.689 548.499 277.474 548.07C280.429 547.617 283.434 547.548 286.412 547.863C289.534 548.194 292.608 548.886 295.569 549.925C298.595 550.966 301.487 552.356 304.183 554.066C306.179 555.371 308.095 556.748 309.93 558.196L313.154 561.847C315.133 564.105 316.661 566.709 317.657 569.52L318.624 573.95L320.377 579.723C321.117 583.818 321.365 587.982 321.115 592.127C320.795 596.43 320.03 600.686 318.832 604.831C317.546 609.152 315.876 613.351 313.842 617.38C311.178 622.75 307.838 627.766 303.9 632.312C294.932 642.868 282.504 650.17 269.964 655.921C264.052 658.56 257.94 660.749 251.681 662.467C247.264 663.611 242.785 664.514 238.264 665.172C230.674 666.347 223.155 667.875 215.708 669.755C188.603 674.413 161.038 676.111 133.513 674.818C73.6199 672.132 14.9785 657.371 -42.3352 640.571C-98.7048 624.033 -154.523 605.583 -211.685 591.838C-242.798 584.357 -274.641 578.34 -306.548 575.699C-337.513 573.317 -368.597 573.142 -399.556 575.174C-398.957 576.551 -397.884 577.68 -396.527 578.361C-392.18 581.524 -387.768 584.6 -383.29 587.589C-378.812 590.577 -374.322 593.521 -369.82 596.42C-368.68 597.419 -367.221 597.994 -365.7 598.041Z" fill="#BC0100"/>
<path opacity="0.11" d="M-374.544 592.895C-362.398 591.357 -350.147 590.701 -337.891 590.93C-325.634 591.009 -313.386 591.715 -301.195 593.045C-282.959 595.144 -264.841 598.19 -246.92 602.171C-204.01 611.653 -162.164 625.459 -120.502 639.256C-41.5245 665.444 38.7841 693.534 122.539 699.099C145.093 700.655 167.727 700.298 190.192 698.032C213.217 695.655 236.4 691.528 258.329 684.154C282.091 676.162 304.969 664.623 322.453 646.655C326.87 642.44 330.785 637.746 334.125 632.661C337.651 626.873 340.641 620.783 343.061 614.465C346.64 604.861 348.762 594.784 349.362 584.554C350.688 560.86 342.741 535.597 323.873 519.76C316.177 513.493 307.399 508.641 297.964 505.439C291.669 503.481 285.198 502.133 278.643 501.415C272.194 500.934 265.716 501.109 259.313 501.936C249.901 503.422 240.91 506.781 232.888 511.807C224.637 517.319 217.882 524.725 213.202 533.39C210.194 539.556 208.075 546.108 206.905 552.859C206.137 559.467 206.243 566.15 207.22 572.743C209.169 582.526 212.86 591.905 218.123 600.446C230.2 619.595 248.03 634.6 269.126 643.366C290.161 652.026 312.945 654.531 335.536 653.541C367.433 651.908 398.165 641.518 424.248 623.55C452.276 604.32 473.147 577.478 493.165 550.714C501.235 539.914 509.173 528.986 517.675 518.512C522.999 511.865 528.62 505.471 534.537 499.329C540.137 493.469 546.161 488.015 552.562 483.01L551.78 483.576L564.232 474.73L563.437 475.264C571.2 470.337 579.4 466.103 587.938 462.612C596.33 459.178 604.97 456.35 613.789 454.152C631.682 449.83 649.999 447.359 668.441 446.778C707.068 445.143 745.601 449.883 783.663 456.144L782.668 455.972C815.515 461.965 848.278 468.439 881.151 474.207C915.813 480.293 950.853 485.202 986.078 485.771C1005.74 486.254 1025.39 485.115 1044.83 482.367C1061.48 479.872 1077.91 476.194 1093.99 471.362C1129.85 460.552 1163.94 444.452 1196.08 425.601C1225.23 408.505 1253.15 389.588 1280.71 370.137C1315.13 345.84 1349.56 321.226 1381.84 294.229C1409.21 271.632 1434.82 247.048 1458.44 220.681C1465.5 212.739 1472.19 204.496 1478.51 195.95C1485.06 187.598 1491.24 178.954 1497.04 170.018L1508.25 151.848C1515.49 139.424 1522 126.604 1527.76 113.449C1527.27 113.166 1526.72 112.992 1526.15 112.939C1525.58 112.886 1525.01 112.956 1524.48 113.143C1520.52 113.688 1516.59 114.339 1512.68 115.098C1508.77 115.856 1504.87 116.666 1500.99 117.527C1500.42 117.546 1499.86 117.688 1499.35 117.942C1498.84 118.196 1498.4 118.556 1498.05 118.998C1491.63 131.216 1485.2 143.131 1477.89 154.848C1470.58 166.566 1462.61 177.477 1454.25 188.276C1437.53 209.998 1418.3 229.861 1398.38 248.72C1353.4 291.327 1301.99 327.115 1250.51 361.643C1207.54 390.44 1162.99 417.11 1114.64 436.249C1090.76 445.647 1065.91 452.542 1040.52 456.822C1009.22 462.168 977.061 461.984 945.389 459.931C894.33 456.623 844.005 446.108 793.439 438.795C753.014 432.942 711.712 428.726 670.867 431.309C656.139 432.191 641.479 433.896 626.96 436.416C617.447 438.163 608.037 440.4 598.77 443.119C589.543 445.7 580.536 448.971 571.825 452.903C563.117 456.882 554.635 461.317 546.415 466.19C530.65 475.654 516.54 488.341 504.05 501.671C480.807 526.482 461.509 554.663 437.019 578.409C424.91 590.388 411.277 600.78 396.453 609.33C389.72 612.951 382.682 616.001 375.415 618.447C364.553 622.287 353.232 624.76 341.72 625.807C334.03 626.551 326.29 626.735 318.564 626.359C310.493 626.085 302.454 625.165 294.527 623.607L288.602 621.999C284.896 621.603 281.382 620.147 278.495 617.812C274.431 615.648 270.498 614.006 266.591 611.456C258.612 606.422 251.52 600.139 245.599 592.857C242.764 589.222 240.3 585.324 238.241 581.219C235.411 575.641 233.806 569.548 233.531 563.336C233.502 555.939 235.107 547.899 239.36 541.631C243.612 535.363 250.178 529.427 257.862 527.003C266.499 524.399 275.695 524.072 284.533 526.056C293.371 528.039 301.541 532.264 308.228 538.308C311.984 541.79 315.737 545.665 317.625 550.521L318.458 553.186C319.449 556.439 320.539 559.663 321.728 562.856C324.045 572.704 324.032 582.929 321.69 592.74C319.187 603.091 314.762 612.886 308.635 621.635C300.004 633.558 288.122 642.419 275.019 649.322C269.017 652.469 262.789 655.187 256.386 657.457C248.909 659.972 241.246 661.928 233.462 663.31L214.885 667.553C205.658 669.46 196.327 670.857 186.935 671.738C171.515 673.469 155.998 674.301 140.465 674.228C128.131 674.184 115.605 673.267 103.243 672.162C84.4902 670.394 65.8439 667.614 47.3882 663.833C19.1218 658.166 -8.7504 650.974 -36.4632 643.002C-95.6313 625.956 -153.855 605.821 -213.572 590.641C-244.223 582.851 -275.582 576.373 -307.083 573.298C-337.787 570.31 -368.418 570.432 -399.166 572.094C-399.058 572.681 -398.825 573.24 -398.484 573.735C-398.143 574.23 -397.701 574.651 -397.186 574.969C-394.071 577.857 -390.885 580.663 -387.629 583.387C-384.372 586.11 -381.079 588.805 -377.748 591.472C-377.342 591.915 -376.848 592.269 -376.296 592.514C-375.744 592.759 -375.148 592.889 -374.544 592.895Z" fill="#BC0100"/>
<path opacity="0.11" d="M-398.963 596.324C-386.581 595.354 -374.485 594.552 -362.1 594.507C-349.903 594.584 -337.715 595.357 -325.599 596.823C-301.354 599.739 -277.346 604.388 -253.764 610.732C-205.009 623.53 -157.478 640.448 -109.683 656.348C-60.75 672.625 -11.3131 687.686 39.5653 696.91C94.0828 706.806 150.523 708.133 204.612 695.927C222.098 692.202 239.126 686.678 255.413 679.444C269.976 672.793 283.388 663.959 295.174 653.255C301.475 647.376 307.048 640.786 311.779 633.62C320.221 619.771 325.319 604.187 326.683 588.058C328.241 573.504 326.28 558.771 320.958 545.057C318.194 538.054 314.473 531.449 309.899 525.423L306.526 520.991C302.868 516.952 298.706 513.382 294.14 510.367C283.69 503.048 271.751 498.058 259.163 495.747C252.132 494.44 244.973 493.97 237.839 494.347C232.567 494.407 227.336 495.215 222.308 496.746C217.186 497.83 212.221 499.519 207.519 501.775C202.813 504.235 198.366 507.143 194.241 510.458L190.079 513.759C186.013 517.666 182.568 522.153 179.858 527.07L176.842 531.931C174.283 537.227 172.492 542.853 171.521 548.646L170.305 554.267C169.715 559.928 169.903 565.647 170.861 571.269L171.558 576.882C172.813 582.334 174.706 587.629 177.198 592.66C180.272 599.329 184.121 605.63 188.668 611.436C196.161 621.255 205.205 629.836 215.451 636.849C229.792 646.748 246.13 653.473 263.332 656.558C301.966 663.595 341.793 658.203 376.89 641.182C385.245 637.124 393.228 632.374 400.754 626.981C409.046 621.125 416.848 614.629 424.089 607.556C437.953 593.626 450.679 578.644 462.15 562.745C482.859 534.728 502.02 504.812 529.819 482.873C537.219 477.204 545.163 472.253 553.541 468.089L565.973 462.667L631.089 449.436L644.995 448.848L716.792 453.222C726.281 454.423 735.792 455.852 745.216 457.473C794.878 465.983 843.961 477.706 893.896 484.639C922.581 488.6 951.773 491.253 980.729 489.999C1011 489.165 1040.96 484.161 1069.76 475.134C1129.11 456.833 1182.43 424.204 1232.88 389.245C1258.37 371.582 1283.64 353.452 1308.41 334.843C1334.06 315.506 1359.25 295.585 1383.08 274.078C1407.05 252.758 1429.18 229.52 1449.25 204.601C1458.2 193.458 1466.54 181.863 1474.26 169.864L1485.49 151.483C1492.74 138.888 1499.25 125.896 1504.99 112.567C1505.97 110.481 1501.23 111.965 1500.91 112.039C1498.57 112.626 1496.26 113.285 1493.96 114.016C1492.7 114.272 1491.52 114.808 1490.51 115.581C1484.3 128.432 1478.1 140.964 1470.94 153.296C1463.81 165.361 1456.07 177.062 1447.73 188.353C1431.07 210.864 1412.52 231.951 1392.25 251.393C1349.59 293.072 1301.17 328.363 1252.57 362.993C1209.2 393.907 1164.83 423.966 1116.25 446.533C1095.04 456.456 1072.99 464.59 1050.36 470.848C1037.53 474.224 1024.5 476.818 1011.34 478.616C1001.67 480.006 991.927 480.871 982.153 481.207C972.489 481.871 962.807 482.061 953.105 481.774C901.954 480.446 851.829 470.943 801.62 461.571C760.433 453.876 719.235 446.392 677.336 444.086C623.854 441.138 564.901 446.82 521.052 479.391C507.522 489.682 495.341 501.577 484.781 514.807C473.588 528.446 463.44 542.822 452.872 556.963C429.854 587.893 403.601 618.777 367.406 635.193C335.779 649.539 300.262 654.942 265.665 649.116C261.641 648.439 257.698 647.661 253.751 646.654L249.697 645.612C241.003 643.323 232.873 639.293 225.817 633.776L209.97 624.641C206.189 621.552 202.648 618.188 199.379 614.579C193.669 608.54 188.761 601.814 184.774 594.566C181.641 588.624 179.284 582.321 177.761 575.807L176.845 565.591L177.211 555.319L180.006 545.218L184.234 535.146L190.453 526.706L197.577 519.358L205.625 514.059L214.306 509.747L218.791 508.462C223.29 506.984 227.943 505.994 232.667 505.508C247.004 504.299 261.432 506.964 274.394 513.216C280.189 515.987 285.578 519.522 290.409 523.724C297.337 529.972 302.892 537.547 306.729 545.977C312.228 557.795 314.747 570.726 314.071 583.666C313.518 594.864 311.102 605.885 306.92 616.29C297.564 640.239 276.756 657.719 254.211 669.077C247.612 672.536 240.775 675.542 233.748 678.072C221.256 682.251 208.517 685.694 195.6 688.386C167.225 694.247 138.228 696.824 109.198 696.066C80.5546 695.548 51.782 691.492 23.7247 685.972C-4.72988 680.371 -32.7286 672.915 -60.5078 664.712C-118.926 647.462 -176.012 626.052 -234.685 609.637C-261.631 602.099 -289.014 595.341 -316.765 591.534C-329.024 589.858 -341.292 588.363 -353.604 587.836C-372.072 587.038 -390.461 587.88 -408.928 588.734C-411.323 588.838 -406.888 591.961 -407.13 591.857C-405.446 593.025 -403.719 594.124 -401.947 595.155C-401.072 595.796 -400.043 596.199 -398.963 596.324Z" fill="#BC0100"/>
<path opacity="0.11" d="M-372.262 599.9L-353.886 598.36L-354.905 598.383C-342.607 597.874 -330.309 597.936 -318.012 598.568C-305.715 599.201 -293.564 600.427 -281.558 602.247C-263.334 604.987 -245.277 608.659 -227.371 612.959C-187.522 622.586 -148.534 635.503 -109.616 648.28C-69.514 661.451 -29.423 674.864 11.474 685.514C54.7921 696.835 99.5546 705.593 144.422 706.401C163.818 706.877 183.213 705.96 202.453 703.657C212.271 702.523 222.008 700.827 231.617 698.579C241.497 696.667 251.247 694.172 260.814 691.109C286.006 682.887 312.105 670.363 329.512 650.056L337.127 640.446C340.738 634.731 343.809 628.7 346.302 622.429C349.982 612.814 352.255 602.727 353.052 592.466C355.095 568.596 346.604 542.426 327.548 526.655C319.744 520.296 310.771 515.475 301.125 512.46C290.116 509.123 278.536 508.078 267.125 509.393C256.061 510.434 245.487 514.311 236.458 520.636C228.535 526.325 222.213 533.897 218.078 542.651C208.321 563.593 212.354 588.124 224.685 607.278C234.825 622.937 248.819 635.842 265.359 644.787C287.547 656.87 313.394 660.821 338.443 659.685C365.496 658.32 391.825 650.86 415.397 637.879C444.992 621.791 467.626 595.828 487.843 569.77C496.287 558.899 504.282 547.732 512.803 536.864C518.109 529.934 523.628 523.176 529.36 516.59C534.813 510.312 540.634 504.352 546.792 498.74L545.958 499.455L556.047 491.017L555.197 491.716C562.534 485.914 570.428 480.823 578.768 476.515C586.811 472.367 595.182 468.86 603.802 466.028C621.1 460.476 639.009 456.922 657.169 455.436C690.248 452.394 723.624 454.595 756.56 458.668C777.058 461.238 797.428 464.923 817.785 468.576C842.913 473.081 867.955 478.113 893.16 482.288C940.922 490.201 989.279 495.249 1037.54 490.047C1060.91 487.556 1083.92 482.644 1106.21 475.393C1132.01 466.758 1156.97 455.907 1180.81 442.964C1225.7 419.054 1267.19 389.666 1308.39 360.111C1351.76 329.001 1394.43 296.764 1432.46 259.453C1452.82 239.678 1471.5 218.303 1488.33 195.538C1496.76 184.052 1504.59 172.148 1511.78 159.873C1519.07 147.454 1525.64 134.637 1531.46 121.482C1530.12 121.106 1528.68 121.237 1527.43 121.851C1522.67 123.212 1517.95 124.682 1513.26 126.259C1508.57 127.837 1503.89 129.47 1499.22 131.159C1497.84 131.403 1496.61 132.146 1495.77 133.24C1491.33 142.395 1486.38 151.302 1480.96 159.924C1475.87 168.695 1470.33 177.202 1464.36 185.41C1454.41 199.114 1443.75 212.304 1432.42 224.928C1407.01 252.896 1379.19 278.657 1349.27 301.928C1322.07 323.382 1293.76 343.416 1265.04 362.898C1235.81 382.718 1206.18 401.941 1175.01 418.766C1160.94 426.368 1146.59 433.404 1131.96 439.876C1114.57 447.629 1096.59 454.046 1078.17 459.069C1062.84 463.197 1047.24 466.303 1031.48 468.367C1015.79 470.311 1000 471.336 984.18 471.436C949.189 471.803 914.094 467.407 879.525 462.31C844.956 457.213 810.335 450.916 775.541 446.687C723.404 440.338 669.952 438.089 618.422 449.639C606.52 452.313 594.816 455.762 583.388 459.961C576.565 462.444 569.918 465.368 563.492 468.713C556.918 471.777 550.573 475.289 544.502 479.224C529.039 489.553 514.826 501.578 502.136 515.069C486.164 531.675 472.236 550.115 457.184 567.496C442.521 584.474 426.439 601.135 407.259 613.425C399.081 618.752 390.346 623.21 381.201 626.724C372.493 629.997 363.489 632.466 354.306 634.1C343.198 636.037 331.88 636.616 320.609 635.823L309.169 634.765C301.325 634.118 293.613 632.337 286.283 629.481L287.076 629.991C281.847 626.691 276.159 623.974 271.114 620.35C266.667 617.186 262.555 613.587 258.842 609.611C251.395 601.574 245.573 591.727 244.289 580.81L243.852 576.241C244.084 573.899 244.397 571.566 244.792 569.243C244.837 567.724 245.288 566.247 246.1 564.96C247.053 562.807 248.066 560.677 249.14 558.57C251.537 555.085 254.663 552.146 258.313 549.949C260.43 548.671 262.669 547.598 264.999 546.746L270.103 545.751C280.098 544.199 290.355 546.075 299.157 551.064C303.251 553.298 306.997 556.105 310.276 559.395C312.256 561.15 313.834 563.298 314.904 565.695C316.327 567.942 317.261 570.452 317.648 573.065L319.868 579.423C320.608 582.772 321.039 586.177 321.156 589.598C321.431 595.418 320.908 601.243 319.6 606.916C317.916 614.06 315.157 620.911 311.414 627.242L307.242 633.756C304.956 637.315 302.148 640.52 298.907 643.269C286.939 654.671 272.088 662.698 256.43 668.182C248.929 670.628 241.255 672.538 233.466 673.896C224.383 676.311 215.162 678.205 205.848 679.568C196.737 681.234 187.535 682.4 178.284 683.061C147.455 685.157 116.467 684.112 85.8122 679.942C51.2594 675.497 17.1258 667.316 -16.4931 658.01C-81.9737 640.078 -145.981 616.963 -211.961 600.825C-242.908 593.023 -274.344 587.29 -306.051 583.665C-337.262 580.317 -368.748 580.91 -399.984 582.774C-399.783 583.339 -399.464 583.857 -399.049 584.296C-398.634 584.735 -398.131 585.085 -397.572 585.323C-394.033 587.717 -390.429 590.025 -386.758 592.244C-383.088 594.464 -379.4 596.634 -375.694 598.754C-375.237 599.174 -374.694 599.494 -374.102 599.691C-373.51 599.889 -372.882 599.96 -372.262 599.9Z" fill="#BC0100"/>
<path opacity="0.11" d="M-373.696 588.881C-361.532 587.315 -349.259 586.65 -336.98 586.889C-324.723 586.989 -312.476 587.72 -300.288 589.08C-282.042 591.157 -263.923 594.249 -246.019 598.342C-203.129 607.928 -161.319 621.839 -119.659 635.681C-76.8761 649.899 -34.1557 664.478 9.5616 675.834C52.9719 687.16 97.7568 695.767 142.775 696.325C162.172 696.68 181.559 695.625 200.779 693.17C222.316 690.277 244.13 685.746 264.437 678.107C277.054 673.571 289.136 667.725 300.478 660.668C310.469 654.251 319.507 646.512 327.34 637.665C336.738 626.741 343.31 613.736 346.501 599.748C349.02 589.806 350.044 579.545 349.542 569.291C348.062 545.574 336.874 522.387 316.253 509.097C297.31 496.892 272.288 492.756 250.615 498.916C241.357 501.487 232.825 506.09 225.66 512.378C216.677 520.555 211.234 531.232 208.25 542.763C206.661 547.614 205.996 552.717 206.29 557.817C206.169 564.604 207.217 571.37 209.391 577.829C212.532 587.545 217.325 596.677 223.564 604.837C231.603 615.321 241.536 624.263 252.863 631.213C260.743 636.159 269.194 640.156 278.035 643.116C292.437 647.816 307.5 650.208 322.643 650.199C336.38 650.326 350.078 648.946 363.482 646.086C395.683 639.013 424.309 622.875 447.922 600.418C471.904 577.661 489.945 549.976 510.049 524.019C517.794 513.693 526.143 503.82 535.055 494.45C540.705 488.592 546.785 483.151 553.248 478.169C560.661 472.372 568.643 467.31 577.076 463.058L576.178 463.481L589.472 457.436L588.545 457.813L602.314 452.838L601.358 453.168L615.421 449.178L614.436 449.461C623.312 447.29 632.312 445.628 641.39 444.482C650.955 443.286 660.556 442.522 670.194 442.19L669.143 442.242L684.251 442.003L683.189 441.949L698.473 442.25L697.411 442.195C712.18 442.955 726.858 444.013 741.538 445.692C758.304 447.6 774.986 450.352 791.59 453.434C827.963 460.2 864.272 467.69 900.811 473.54C922.92 477.311 945.217 479.874 967.598 481.218C987.066 482.433 1006.59 482.241 1026.01 480.645C1046 478.96 1065.77 475.468 1085.09 470.211C1104.7 464.639 1123.87 457.668 1142.43 449.352C1179.73 432.66 1214.63 411.207 1248.31 388.434C1282.57 365.281 1316.13 341.016 1348.98 316.003C1382.89 290.165 1415.27 262.369 1444.65 231.584C1461.76 213.629 1477.39 194.36 1491.4 173.96C1497.59 165.276 1503.33 156.285 1508.58 147.02C1515.78 134.592 1522.26 121.77 1527.98 108.615C1527.52 108.284 1526.98 108.057 1526.42 107.949C1525.85 107.842 1525.27 107.856 1524.71 107.992C1520.7 108.159 1516.69 108.458 1512.69 108.889C1508.69 109.32 1504.7 109.751 1500.71 110.182C1500.13 110.138 1499.55 110.221 1499.01 110.423C1498.46 110.626 1497.97 110.944 1497.57 111.354C1491.1 123.585 1484.64 135.513 1477.32 147.23C1469.99 158.947 1461.9 169.852 1453.55 180.652C1436.79 202.371 1417.51 222.232 1397.54 241.089C1354.83 281.462 1306.2 315.606 1257.53 348.49C1214.7 377.385 1170.5 404.846 1122.4 424.619C1098.75 434.501 1074.12 441.964 1048.89 446.89C1020.64 452.242 992.111 453.623 963.345 452.781C912.233 451.288 861.712 441.325 811.306 433.565C766.64 426.721 721.554 421.28 676.328 423.228C637.576 424.902 598.748 431.877 563.84 448.813C555.202 452.981 546.897 457.782 538.997 463.176C532.885 467.418 527.012 471.983 521.403 476.85C505.445 490.502 491.854 506.625 478.499 522.669C456.949 548.552 435.376 575.918 406.546 594.455C393.36 603.168 378.763 609.63 363.365 613.573C346.56 617.684 329.167 619.067 311.871 617.668C303.78 617.154 295.749 615.914 287.878 613.964L281.982 612.403L277.829 609.856L271.789 607.06L265.883 603.725C261.921 601.288 258.15 598.561 254.602 595.567C247.402 589.611 241.405 582.376 236.928 574.245C234.906 570.396 233.384 566.316 232.4 562.1C231.017 556.321 230.988 550.319 232.316 544.546C233.285 540.695 234.768 536.99 236.726 533.528C239.863 528.073 244.375 523.509 249.832 520.271C255.289 517.034 261.509 515.231 267.898 515.036C285.922 514.084 303.981 521.726 314.559 536.425C317.183 540.06 318.092 543.411 319.37 547.447L321.706 554.63L322.896 562.268C324.106 572.454 322.196 582.767 318.915 592.373C315.266 602.634 309.68 612.115 302.45 620.321C297.838 625.265 292.668 629.677 287.039 633.471C278.693 639.313 269.623 644.091 260.043 647.692C255.397 649.484 250.652 651.021 245.829 652.296C241.444 653.56 236.973 654.525 232.449 655.184L213.873 659.412C201.569 661.824 189.133 663.557 176.623 664.604C158.083 666.26 139.428 666.476 120.832 665.25C63.665 661.643 8.07451 647.933 -46.749 631.974C-102.774 615.651 -157.984 596.717 -214.581 582.424C-245.249 574.664 -276.61 568.217 -308.112 565.172C-338.817 562.214 -369.372 562.37 -400.072 563.973C-399.79 565.279 -399.01 566.431 -397.892 567.192C-394.565 570.617 -391.152 573.965 -387.654 577.236C-384.155 580.508 -380.634 583.72 -377.089 586.873C-376.261 587.946 -375.045 588.666 -373.696 588.881Z" fill="#BC0100"/>
<path opacity="0.11" d="M-396.334 600.413C-383.88 599.538 -371.588 598.821 -359.109 598.751C-334.893 598.617 -311.032 602.193 -287.385 606.698C-263.187 611.307 -239.361 617.958 -215.752 624.976C-157.43 642.312 -100.546 664.075 -42.1003 681.069C7.44424 695.469 58.1696 706.67 109.856 708.753C136.003 709.897 162.181 708.343 187.96 704.116C212.203 700.074 236.08 693.921 258.299 683.622C283.401 672.001 307.488 653.645 319.113 628.312C328.853 607.066 331.865 582.912 326.026 560.107C322.395 545.902 315.217 532.378 304.305 522.224C299.152 517.356 293.317 513.239 286.982 509.997C280.671 506.713 273.975 504.21 267.048 502.546C260.267 500.907 253.317 500.071 246.345 500.057C241.228 500.046 236.121 500.432 231.072 501.211C224.49 502.416 218.102 504.461 212.07 507.296C207.494 509.419 203.258 512.182 199.493 515.5C195.255 518.505 191.599 522.233 188.699 526.508C180.285 538.411 175.148 552.817 175.457 567.488C175.5 574.892 176.667 582.257 178.92 589.337C181.119 596.441 184.275 603.23 188.304 609.522C192.197 615.687 196.762 621.421 201.917 626.619C206.852 631.63 212.236 636.193 218.004 640.253C224.806 644.943 232.024 649.017 239.57 652.425C246.724 655.608 254.169 658.108 261.801 659.888C269.416 661.531 277.134 662.657 284.9 663.258C294.278 664.057 303.701 664.121 313.08 663.449C331.698 662.075 349.966 657.861 367.228 650.958C375.846 647.499 384.164 643.366 392.102 638.598C398.309 634.949 404.208 630.818 409.743 626.245C415.838 621.778 421.581 616.866 426.922 611.549C440.645 597.597 453.241 582.613 464.598 566.734C475.411 551.983 485.659 536.764 497.173 522.52C506.143 510.995 516.267 500.388 527.395 490.854C541.104 479.582 556.775 470.831 573.663 465.016C584.385 461.362 595.395 458.569 606.586 456.661C624.762 453.443 643.479 452.845 661.929 453.036C680.968 453.42 699.976 454.879 718.86 457.404C737.889 459.762 756.741 463.247 775.48 466.863C812.714 474.021 849.886 482.192 887.428 487.684C912.861 491.563 938.509 493.849 964.215 494.528C977.308 494.712 990.397 494.247 1003.43 493.135C1013.41 492.369 1023.33 491.002 1033.14 489.04C1043.21 487.455 1053.17 485.233 1062.94 482.39C1122.79 465.145 1176.22 433.658 1227.17 399.073C1255.57 379.756 1283.44 359.533 1310.87 338.878C1333.67 321.728 1356.06 304.088 1377.54 285.355C1388.26 276.01 1398.63 266.238 1408.77 256.272C1424.03 241.39 1438.29 225.544 1451.46 208.835C1460.19 197.615 1468.79 186.13 1476.39 174.139L1487.57 155.786C1494.78 143.209 1501.26 130.235 1506.97 116.926C1508 114.706 1502.77 116.862 1502.78 116.862C1500.47 117.754 1498.19 118.647 1495.94 119.541C1494.68 119.949 1493.54 120.631 1492.59 121.536C1486.51 134.302 1480.43 146.675 1473.4 159.013C1466.41 171.048 1458.74 182.695 1450.45 193.901C1433.95 216.34 1415.56 237.374 1395.49 256.786C1355.12 295.977 1310.17 329.779 1264.46 362.633C1243.05 378.021 1221.58 393.421 1199.41 407.784C1177.23 422.147 1154.11 436.264 1130.07 447.985C1109.14 458.337 1087.37 466.995 1064.99 473.872C1052.25 477.725 1039.27 480.788 1026.14 483.043C1010.05 485.733 993.784 487.362 977.458 487.92C964.667 488.414 951.624 488.016 938.814 487.266C926.003 486.516 913.198 485.312 900.536 483.676C875.272 480.436 850.187 476.009 825.161 471.297C782.86 463.317 740.557 454.413 697.61 450.749C632.253 445.16 558.202 450.202 508.659 497.196C485.049 519.593 467.603 547.081 448.107 572.887C437.002 587.607 425.188 601.685 411.432 614.041C396.504 627.413 379.444 638.871 360.366 645.953C330.269 657.408 297.444 660.288 265.638 654.266L261.619 653.483C249.411 650.933 238.231 644.859 229.517 636.041L205.758 620.922C202.059 617.398 198.995 613.284 196.697 608.756L194.082 604.272L187.47 584.837C184.981 571.967 187.133 558.678 193.554 547.262C196.508 541.943 200.34 537.147 204.896 533.069C209.054 529.434 213.74 526.427 218.802 524.146C227.506 520.504 236.892 518.665 246.376 518.745C257.555 518.786 268.598 521.307 278.681 526.119C282.53 527.919 286.218 530.036 289.708 532.445C293.147 534.834 296.238 537.676 298.894 540.889C301.714 543.544 303.927 546.759 305.383 550.316C308.526 555.614 311.029 561.251 312.841 567.112C314.051 571.511 314.907 575.994 315.399 580.52L315.897 585.092C316.814 595.933 314.407 606.773 308.985 616.213L302.081 638.151C298.88 642.933 295.138 647.341 290.927 651.292C281.592 660.466 270.931 668.235 259.282 674.352C252.699 677.878 245.885 680.975 238.885 683.624C232.612 685.878 226.282 687.83 219.893 689.482C210.433 692.363 200.799 694.677 191.045 696.409C165.693 700.841 139.942 702.816 114.163 702.306C101.419 702.105 88.6409 700.993 75.9469 699.719C56.8458 697.683 37.8677 694.602 19.1008 690.491C-34.5546 678.957 -86.6516 661.729 -138.671 644.489C-186.347 628.701 -234.198 612.677 -283.494 602.579C-298.911 599.345 -314.479 596.875 -330.138 595.179C-336.277 594.545 -342.428 594.153 -348.574 593.685L-367.178 593.153C-379.675 593.52 -392.169 593.923 -404.66 594.362C-406.852 594.431 -402.986 597.191 -403.241 597.042C-401.555 598.25 -398.546 600.557 -396.334 600.413Z" fill="#BC0100"/>
<path opacity="0.11" d="M-364.364 594.166C-352.181 592.567 -339.886 591.887 -327.585 592.132C-315.323 592.206 -303.069 592.897 -290.871 594.202C-272.612 596.251 -254.472 599.269 -236.53 603.241C-193.529 612.423 -151.629 626.384 -109.931 640.062C-24.8692 668.078 61.9078 698.683 152.345 700.788C178.304 701.599 204.255 699.59 229.725 694.796C246.517 691.477 263.189 687.424 279.097 681.226C293.231 675.678 307.422 668.922 319.391 659.52C328.736 652.18 337.666 643.789 344.063 633.828C356.744 613.719 361.586 589.737 357.7 566.287C355.59 554.412 350.649 543.178 343.284 533.508C340.605 529.446 337.174 525.912 333.171 523.091C328.271 519.028 322.778 515.716 316.878 513.267C297.343 504.518 273.173 502.987 253.525 512.039C248.055 514.703 242.974 518.07 238.413 522.052L232.307 529.058C224.234 539.251 220.524 552.457 220.78 565.277C221.291 587.611 233.747 608.377 250.114 623.283C265.723 637.401 284.974 647.02 305.733 651.073C336.984 657.239 369.318 654.446 398.875 643.027C411.41 638.2 423.337 631.985 434.427 624.503C450.271 613.368 464.535 600.216 476.852 585.387C496.075 562.825 512.438 538.07 531.571 515.458C540.752 504.255 551.117 494.044 562.493 484.995C569.918 479.194 577.898 474.113 586.325 469.823C594.444 465.669 602.893 462.16 611.59 459.332L610.385 459.71L624.702 455.566L623.469 455.882L638.068 452.632L636.823 452.886L651.678 450.452L650.42 450.645L665.486 448.965L664.216 449.081L679.467 448.077L678.185 448.133L693.623 447.76L692.346 447.694C709.577 447.898 726.647 448.579 743.79 450.34C758.235 451.765 772.595 453.701 786.921 456.029C825.109 462.236 862.945 470.38 901.095 476.752C939.244 483.125 977.599 487.719 1016.14 486.549C1035.94 485.918 1055.64 483.702 1075.05 479.925C1098.39 475.442 1120.84 467.701 1142.6 458.636C1183.37 441.653 1221.38 418.981 1257.78 394.408C1291.99 371.313 1325.71 347.314 1358.48 322.296C1392.34 296.44 1424.76 268.844 1454.18 238.122C1468.81 222.752 1482.44 206.486 1494.98 189.421C1503.34 177.958 1511.09 166.081 1518.22 153.835C1525.44 141.411 1531.94 128.59 1537.68 115.433C1536.19 114.883 1534.57 114.831 1533.06 115.286C1527.39 116.005 1521.74 116.862 1516.12 117.855C1510.49 118.849 1504.87 119.863 1499.26 120.898C1497.67 120.953 1496.15 121.525 1494.94 122.525C1488.49 134.317 1482.05 145.958 1474.83 157.332C1467.61 168.706 1459.49 179.276 1451.2 189.867C1434.47 211.103 1415.32 230.456 1395.51 248.972C1352.94 288.64 1304.74 322.275 1256.19 354.438C1213.99 382.395 1170.41 408.812 1123.02 427.576C1099.71 436.99 1075.47 444.025 1050.67 448.573C1022.68 453.544 994.548 454.628 966.172 453.669C914.902 451.911 864.241 442.001 813.562 434.788C768.001 428.292 721.981 423.728 675.998 427.031C636.205 429.879 596.725 438.624 561.407 457.1C552.696 461.637 544.327 466.778 536.362 472.482C530.206 476.894 524.435 481.644 518.746 486.625C503.077 500.353 489.455 516.171 475.915 531.873C465.259 544.237 454.716 556.818 443.068 568.298C431.888 579.301 419.895 589.914 406.377 598.115C393.947 605.85 380.243 611.419 365.862 614.581C350.136 617.84 333.956 618.544 317.962 616.664L312.517 616.035C306.952 615.598 301.483 614.325 296.299 612.261L291.215 610.484L287.589 607.858L282.632 605.011L277.779 601.579C274.595 599.188 271.622 596.535 268.893 593.651C263.747 588.295 259.833 581.915 257.42 574.951C256.471 572.043 255.946 569.021 255.861 565.974C255.52 564.073 255.669 562.122 256.292 560.298C256.723 558.542 257.149 556.786 257.569 555.03L258.586 553.369C259.596 551.774 260.55 550.141 261.449 548.47C263.266 546.365 265.359 544.505 267.673 542.94C272.734 540.209 278.512 539.009 284.286 539.491C290.443 540.033 296.408 541.923 301.743 545.021C307.078 548.12 311.648 552.349 315.117 557.398C316.817 559.986 317.162 562.868 317.816 565.736L319.59 571.404L320.203 577.498C320.655 586.017 319.21 594.518 315.968 602.407C312.534 611.263 307.452 619.403 300.981 626.414C296.6 630.845 291.722 634.773 286.438 638.124C278.423 643.412 269.749 647.672 260.625 650.799C256.159 652.338 251.605 653.622 246.985 654.644C242.676 655.67 238.309 656.457 233.907 657.003L215.732 660.887C203.692 663.093 191.533 664.643 179.31 665.531C161.054 666.946 142.704 666.97 124.424 665.602C67.5563 661.526 12.3288 647.638 -42.2241 631.829C-98.6636 615.469 -154.412 596.84 -211.604 583.078C-242.747 575.581 -274.59 569.564 -306.465 566.894C-337.426 564.561 -368.502 564.391 -399.458 566.385C-398.847 567.886 -397.759 569.154 -396.356 570C-391.854 573.808 -387.282 577.529 -382.638 581.162C-377.995 584.796 -373.324 588.395 -368.626 591.961C-367.483 593.129 -365.987 593.903 -364.364 594.166Z" fill="#BC0100"/>
<path opacity="0.11" d="M-384.847 597.873L-366.761 596.257L-348.241 595.921C-336.005 596.006 -323.777 596.706 -311.606 598.018C-284.22 600.729 -257.082 606.778 -230.511 613.767C-178.405 627.464 -127.668 645.759 -76.4494 662.305C-27.3424 678.167 22.5993 692.648 73.7783 700.038C89.8118 702.359 105.948 703.887 122.126 704.616C151.426 705.972 180.765 704.054 209.579 698.9C230.298 695.267 250.487 689.218 269.719 680.882C286.09 673.832 300.913 663.755 313.389 651.196C318.994 645.634 323.816 639.359 327.728 632.535C338.89 612.557 343.075 589.493 339.644 566.86C337.234 552.585 330.979 539.18 321.529 528.041C311.763 516.446 296.671 508.668 282.062 505.113C269.033 501.717 255.374 501.535 242.301 504.584L237.621 505.752C232.878 506.953 228.381 508.936 224.32 511.615C219.973 513.874 215.978 516.73 212.455 520.098L205.936 527.689C196.663 540.402 192.503 556.061 194.252 571.674L194.698 576.698C195.613 581.712 197.072 586.618 199.049 591.334C201.539 597.666 204.769 603.696 208.675 609.302C223.852 631.936 248.724 647.643 275.034 654.604C293.453 659.476 313.207 660.143 332.056 658.355C350.334 656.638 368.202 652.094 385 644.892C402.378 637.385 418.393 627.165 432.429 614.627C448.889 600.122 462.679 583.342 475.895 565.987C488.108 549.945 499.514 533.376 512.444 517.856C523.04 504.764 535.335 493.098 549.021 483.153C582.93 459.133 625.35 451.843 666.475 451.215C704.652 450.633 742.782 455.428 780.305 462.328C804.174 466.723 828.02 471.269 851.886 475.724C883.213 481.579 914.601 486.769 946.47 489.212C969.397 491.049 992.422 491.149 1015.34 489.511C1028.6 488.43 1041.77 486.577 1054.8 483.962C1064.8 482.003 1074.66 479.448 1084.34 476.313C1094.17 473.535 1103.84 470.228 1113.3 466.406C1173.58 442.303 1227.38 406.182 1279.72 368.729C1322.93 337.792 1366.02 306.486 1404.97 270.313C1425.75 250.984 1445.65 230.517 1463.19 208.293C1471.96 197.135 1480.58 185.727 1488.21 173.799L1499.44 155.554C1506.67 143.049 1513.18 130.147 1518.92 116.91C1518.52 116.667 1518.07 116.527 1517.61 116.503C1517.15 116.479 1516.69 116.573 1516.27 116.774C1513.24 117.528 1510.25 118.384 1507.29 119.343C1504.32 120.302 1501.38 121.317 1498.45 122.389C1497.99 122.459 1497.56 122.642 1497.19 122.924C1496.83 123.205 1496.54 123.574 1496.37 123.995C1490.47 136.543 1483.87 148.755 1476.59 160.577C1471.24 169.395 1465.46 177.963 1459.24 186.282C1453.31 194.746 1446.99 202.923 1440.28 210.813C1431.41 221.42 1422.14 231.662 1412.45 241.54L1413.01 240.978L1397.63 256.175L1398.2 255.628L1382.3 270.36L1382.88 269.829C1361.78 288.278 1340.2 305.991 1317.74 322.825C1295.56 339.445 1272.77 355.262 1250.01 371.08L1250.64 370.643C1212.44 396.578 1173.69 421.849 1131.56 441.263C1113.78 449.552 1095.42 456.594 1076.61 462.337C1064.1 466.122 1051.36 469.172 1038.47 471.469C1025.75 473.703 1012.9 475.218 999.988 476.006L1000.75 475.969L980.772 476.73L981.525 476.769C968.739 476.93 955.962 476.576 943.193 475.707C930.423 474.838 917.733 473.594 905.122 471.976C886.115 469.483 867.175 466.554 848.279 463.354C808.68 456.65 769.087 448.809 729.041 445.098C699.542 442.414 669.985 441.651 640.499 444.363C607.388 447.419 573.869 455.985 545.12 472.798C498.255 500.213 472.871 548.995 436.944 587.308C426.348 598.717 414.499 608.938 401.611 617.786C389.624 625.947 376.451 632.293 362.529 636.614C350.76 640.27 338.585 642.553 326.254 643.417C317.962 643.971 309.635 643.913 301.342 643.242C292.314 642.831 283.356 641.399 274.646 638.974L275.345 639.207C268.724 636.32 261.981 633.731 255.601 630.311C248.472 626.396 241.892 621.579 236.031 615.983C229.907 610.345 224.781 603.745 220.864 596.457C217.434 589.582 214.622 582.026 214.299 574.326C213.809 567.241 214.959 560.149 217.663 553.585C220.017 548.079 223.385 543.053 227.6 538.76C237.565 528.664 251.639 525.114 265.671 525.79C279.218 526.475 292.186 531.543 302.555 540.205C305.329 542.466 307.72 545.147 309.636 548.147C311.823 550.718 313.421 553.722 314.318 556.95C316.33 560.597 317.786 564.512 318.639 568.569C319.846 572.525 320.589 576.6 320.854 580.716C321.899 597.884 317.588 614.921 308.498 629.546L303.534 636.868C300.169 641.081 296.346 644.919 292.133 648.315C282.498 656.609 271.938 662.537 260.59 668.182L261.298 667.885L250.685 672.295L251.406 672.044L240.871 675.458L241.605 675.253C232.018 677.599 222.44 679.981 212.87 682.398C200.372 685.106 187.722 687.107 174.982 688.391C162.436 689.672 149.827 690.318 137.205 690.328C124.611 690.337 112.042 689.796 99.499 688.707L100.253 688.746L80.7317 686.711L81.4856 686.75C59.3925 683.643 37.577 679.869 15.8341 674.856C-2.97876 670.509 -21.6092 665.55 -40.1431 660.172C-80.5452 648.486 -120.405 635.069 -160.587 622.637C-197.075 611.349 -233.803 600.913 -271.272 593.484C-289.667 589.87 -308.244 587.25 -326.917 585.637C-351.49 583.464 -376.13 584.424 -400.705 585.63C-403.641 585.767 -397.072 590.106 -397.444 589.829C-394.798 591.744 -392.108 593.594 -389.374 595.382C-388.02 596.462 -386.489 597.304 -384.847 597.873Z" fill="#BC0100"/>
<path opacity="0.11" d="M-399.168 601.059L-343.867 600.342L-325.624 602.007C-313.502 603.313 -301.42 605.48 -289.467 607.777C-265.211 612.449 -241.326 619.179 -217.674 626.26C-162.551 642.735 -108.725 663.265 -53.5939 679.573C-28.8433 686.908 -3.8857 693.768 21.4312 698.859C46.748 703.95 72.3564 708.071 98.1227 709.441C123.889 710.812 150.345 710.612 176.048 706.675C201.751 702.738 227.379 697.085 251.001 686.448C265.547 680.181 279.058 671.832 291.098 661.671C297.331 656.301 302.95 650.279 307.857 643.711L311.637 638.646C314.407 634.109 316.735 629.322 318.589 624.349C326.286 605.731 328.521 585.332 325.041 565.455C322.267 550.817 315.629 537.127 305.795 525.76C300.957 520.476 295.392 515.884 289.262 512.119C283.1 508.43 276.501 505.504 269.617 503.41C262.835 501.365 255.841 500.09 248.774 499.61C241.86 499.175 234.923 499.541 228.106 500.699C221.443 501.882 214.969 503.907 208.845 506.725C204.119 508.875 199.729 511.67 195.802 515.026C191.353 518.106 187.517 521.961 184.482 526.401C175.099 538.836 170.162 553.989 170.431 569.522L170.891 575.259C170.944 581.011 172.187 586.7 174.544 591.981C177.046 599.002 180.51 605.661 184.841 611.772C193.083 623.343 203.338 633.399 215.128 641.472C221.977 646.078 229.223 650.082 236.781 653.437C264.101 665.572 295.951 666.77 325.086 662.646C352.901 658.517 379.229 647.789 401.798 631.387C413.932 622.669 425.024 612.636 434.869 601.474C447.798 586.984 459.249 571.433 470.537 555.737C480.984 541.226 491.17 526.337 503.033 512.883C520.25 493.355 539.459 477.112 564.866 467.568C584.076 460.564 604.207 456.249 624.673 454.746C662.505 451.645 700.698 455.398 738.107 461.444C781.164 468.402 823.679 478.408 866.657 485.726C898.176 491.09 930.236 495.421 962.245 495.522C992.233 495.624 1021.78 492.855 1050.86 485.667C1114.44 469.948 1171.66 436.276 1224.81 399.653C1250.2 382.166 1275.16 364.036 1299.92 345.699C1325.74 326.583 1351.06 306.835 1375.17 285.752C1385.89 276.392 1396.25 266.604 1406.4 256.639C1421.68 241.714 1435.95 225.824 1449.12 209.067C1457.87 197.833 1466.45 186.332 1474.06 174.311L1485.24 155.927C1492.46 143.346 1498.94 130.367 1504.66 117.054C1505.69 114.818 1500.43 117.048 1500.48 117.036C1498.18 117.928 1495.91 118.867 1493.69 119.854C1492.45 120.261 1491.31 120.938 1490.37 121.835C1484.33 134.588 1478.32 147.206 1471.21 159.404C1464.22 171.466 1456.57 183.143 1448.29 194.385C1431.72 216.795 1413.34 237.86 1393.35 257.377C1352.98 296.613 1308.06 330.508 1262.39 363.44C1222.01 392.537 1181.23 421.401 1136.97 444.555C1113.5 457.066 1088.86 467.363 1063.38 475.308C1035.21 483.987 1005.93 488.815 976.363 489.656C928.502 490.892 881.129 483.909 834.132 475.112C812.38 470.962 790.643 466.813 768.876 462.663C744.626 458.172 720.265 454.1 695.69 451.973C661.898 449.083 627.723 448.826 594.269 454.971C575.619 458.377 557.618 464.532 540.872 473.229C526.509 480.875 513.416 490.614 502.035 502.118C478.841 525.173 461.673 553.342 441.957 579.213C431.095 593.884 418.628 607.335 404.776 619.325C389.976 631.92 373.005 641.822 354.65 648.572C339.862 653.881 324.418 657.26 308.71 658.622C299.708 659.303 290.659 659.274 281.651 658.533C274.182 658.021 266.758 656.976 259.436 655.405C253.623 654.178 247.924 652.465 242.401 650.286L229.835 643.578C222.488 640.448 215.671 636.223 209.626 631.051C199.419 622.5 190.88 612.193 184.43 600.642L180.773 590.679L178.264 580.563L178.589 569.85L180.197 559.082L184.297 549.427L189.876 539.833L193.362 536.117C196.642 532.295 200.428 528.922 204.62 526.088C214.595 519.928 226.082 516.516 237.892 516.206C249.547 516.023 261.132 518.207 271.922 522.623C277.342 524.888 282.456 527.814 287.141 531.332C291.416 534.583 296.769 539.223 299.56 543.564L301.328 546.686C303.475 550.495 305.517 554.358 307.454 558.277C309.913 564.007 311.676 569.999 312.705 576.127L313.219 580.699C314.695 589.969 313.273 599.441 309.143 607.86L304.557 630.356C302.645 635.081 299.936 639.45 296.543 643.28C286.248 656.496 272.975 666.756 258.201 674.801C251.729 678.341 245.043 681.495 238.18 684.243C225.592 689.068 212.627 692.901 199.408 695.707C171.233 702.07 142.332 704.922 113.385 704.195C55.3833 702.621 -1.48954 689.967 -56.9158 673.37C-114.974 655.987 -171.824 634.847 -230.158 618.102C-257.211 610.133 -284.731 603.829 -312.558 599.224C-324.839 597.285 -337.206 595.951 -349.614 595.227C-369.053 594.091 -387.781 595.234 -407.425 595.542C-409.601 595.582 -405.686 598.284 -406.002 598.116C-404.067 599.292 -401.378 601.173 -399.168 601.059Z" fill="#BC0100"/>
<path opacity="0.11" d="M-368.534 591.278C-356.312 589.779 -343.992 589.136 -331.667 589.355C-319.395 589.442 -307.131 590.154 -294.925 591.487C-276.644 593.531 -258.487 596.59 -240.543 600.649C-197.558 610.149 -155.651 623.989 -113.929 637.804C-28.9505 665.952 57.8573 696.559 148.351 698.455C167.749 698.821 187.14 697.792 206.366 695.377C229.926 692.672 253.016 687.009 275.073 678.527C285.766 674.411 296.029 669.301 305.724 663.266C312.315 659.103 318.497 654.348 324.191 649.061C330.084 643.588 335.323 637.472 339.806 630.83C351.034 612.1 356.623 589.927 353.927 568.163C352.628 556.233 348.616 544.724 342.189 534.491C336.024 524.979 327.424 517.217 317.26 511.992C307.389 506.635 296.523 503.307 285.329 502.211C275.987 501.406 266.586 502.241 257.566 504.678C245.346 507.903 234.566 514.982 226.873 524.832C220.716 532.897 216.675 542.337 215.102 552.324C211.631 575.378 222.314 598.16 237.935 614.861C252.801 630.758 272.003 642.115 293.219 647.559C322.304 654.874 353.756 653.325 382.247 644.788C395.098 640.862 407.449 635.524 419.066 628.874C435.594 619.586 450.068 606.691 463.036 593.021C485.219 569.49 502.397 542.109 522.942 517.296C530.803 507.447 539.411 498.199 548.693 489.629C555.256 483.755 562.278 478.395 569.696 473.6C577.5 468.664 585.741 464.427 594.322 460.939L593.301 461.341L607.168 456.25L606.119 456.59L620.31 452.485L619.248 452.779L633.721 449.583L632.631 449.815L647.36 447.435L646.257 447.606L661.198 445.965L660.083 446.074L675.209 445.109L674.081 445.157L689.363 444.822L688.225 444.763C705.437 445.027 722.49 445.753 739.619 447.497C754.077 448.968 768.45 450.95 782.789 453.325C821.049 459.642 858.821 467.843 896.999 474.262C935.177 480.682 973.487 485.258 1012.03 484.028C1031.83 483.371 1051.54 481.12 1070.94 477.298C1094.21 472.766 1116.71 464.952 1138.43 455.839C1179.14 438.762 1217.09 416.011 1253.45 391.39C1287.6 368.262 1321.3 344.247 1354.04 319.273C1387.88 293.401 1420.27 265.788 1449.67 235.08C1464.25 219.694 1477.83 203.416 1490.33 186.342C1498.68 174.883 1506.44 163.011 1513.56 150.771C1520.77 138.37 1527.26 125.574 1533 112.444C1531.84 111.838 1530.48 111.703 1529.23 112.068C1524.58 112.455 1519.93 112.954 1515.28 113.563C1510.63 114.172 1506.02 114.834 1501.46 115.55C1500.15 115.518 1498.87 115.997 1497.92 116.883C1491.47 128.918 1485.04 140.65 1477.78 152.219C1470.52 163.788 1462.44 174.511 1454.15 185.163C1437.42 206.626 1418.23 226.25 1398.39 244.9C1355.78 284.9 1307.45 318.786 1258.82 351.293C1216.35 379.677 1172.53 406.596 1124.87 425.877C1101.45 435.504 1077.07 442.741 1052.12 447.475C1024.05 452.654 995.706 453.909 967.142 453.016C915.943 451.413 865.328 441.475 814.77 433.995C769.588 427.307 723.989 422.309 678.33 424.947C638.965 427.211 599.755 435.121 564.471 452.841C555.781 457.199 547.429 462.174 539.481 467.726C533.376 472.059 527.501 476.693 521.877 481.612C506.057 495.256 492.429 511.196 478.991 527.039C468.228 539.715 457.652 552.674 445.94 564.529C434.612 576.071 422.412 587.158 408.595 595.828C395.864 604.035 381.795 610.05 366.986 613.617C350.794 617.327 334.075 618.402 317.493 616.8L311.843 616.267C306.014 615.889 300.261 614.721 294.747 612.797L289.333 611.169L285.442 608.605L279.989 605.809L274.636 602.503C271.096 600.11 267.754 597.445 264.642 594.532C258.517 588.92 253.586 582.169 250.138 574.676C248.671 571.338 247.661 567.825 247.135 564.231C246.562 561.885 246.491 559.451 246.926 557.083C247.126 554.798 247.468 552.528 247.949 550.285C248.982 547.269 250.372 544.385 252.093 541.693C254.082 538.908 256.477 536.427 259.203 534.33C264.938 530.547 271.707 528.551 278.635 528.601C285.95 528.7 293.15 530.484 299.657 533.812C306.164 537.139 311.797 541.916 316.102 547.759C318.216 550.732 318.903 553.874 319.86 557.196L321.946 563.457L322.871 570.142C323.62 579.351 322.303 588.596 319.014 597.223C315.584 606.713 310.356 615.469 303.604 623.027C299.15 627.714 294.167 631.886 288.75 635.463C280.611 641.046 271.773 645.583 262.452 648.962C257.913 650.647 253.281 652.078 248.575 653.25C244.229 654.409 239.816 655.315 235.358 655.965L217.135 659.877C204.989 662.194 192.717 663.845 180.375 664.821C161.99 666.377 143.5 666.515 125.073 665.236C68.0848 661.426 12.6524 647.633 -42.0354 631.742C-98.3372 615.404 -153.801 596.623 -210.718 582.572C-241.637 574.92 -273.304 568.745 -305.013 565.841C-335.793 563.301 -366.706 563.013 -397.497 564.979C-397.134 566.364 -396.275 567.576 -395.08 568.392C-391.391 571.997 -387.621 575.52 -383.771 578.961C-379.92 582.402 -376.043 585.81 -372.138 589.183C-371.226 590.28 -369.948 591.022 -368.534 591.278Z" fill="#BC0100"/>
</g>
</svg>
