<svg xmlns="http://www.w3.org/2000/svg" viewBox="0 0 365.16 19.53"><defs><style>.cls-1{fill:#fff;}.cls-2{fill:red;}</style></defs><title>Asset 1</title><g id="Layer_2" data-name="Layer 2"><g id="Layer_1-2" data-name="Layer 1"><path d="M355.73,18.78a8.93,8.93,0,1,1,8.93-8.93A8.94,8.94,0,0,1,355.73,18.78Z"/><path d="M355.73,1.42a8.43,8.43,0,1,1-8.43,8.43,8.44,8.44,0,0,1,8.43-8.43m0-1a9.43,9.43,0,1,0,9.43,9.43A9.43,9.43,0,0,0,355.73.42Z"/><path class="cls-1" d="M359.12,11.9a3.28,3.28,0,0,1,0,.51,1.21,1.21,0,0,1-.11.36.88.88,0,0,1-.36.39,1,1,0,0,1-.54.15,1.17,1.17,0,0,1-.55-.14c-.15-.09-.26-.39-.33-.88q-.71,1.07-1.5,1.07a3.3,3.3,0,0,1-1.62-.42,3.21,3.21,0,0,1-1.21-1.17,3.44,3.44,0,0,1-.39-.93,4.64,4.64,0,0,1-.13-1.15V7a3.29,3.29,0,0,1,0-.51,1.41,1.41,0,0,1,.11-.37.9.9,0,0,1,.37-.37,1.08,1.08,0,0,1,.54-.15,1,1,0,0,1,.54.15.89.89,0,0,1,.36.39,1.21,1.21,0,0,1,.11.35,3.29,3.29,0,0,1,0,.51V9.51q0,.41,0,.6a1.07,1.07,0,0,0,.09.36A1.18,1.18,0,0,0,355,11a1.26,1.26,0,0,0,.72.23.91.91,0,0,0,.69-.38,3,3,0,0,0,.47-.69,2,2,0,0,0,.11-.41,4.94,4.94,0,0,0,0-.68V6.69a.18.18,0,0,0,0-.08.17.17,0,0,1,0-.08l0-.11a.13.13,0,0,0,0-.06v0l0-.13,0,0,0,0a1,1,0,0,1,.35-.33,1,1,0,0,1,.47-.16h.08l.17,0,.08,0,.08,0,.16.06,0,0h0l.11.08a.86.86,0,0,1,.24.28,1.22,1.22,0,0,1,.11.36v0a.27.27,0,0,1,0,.08v.09a.75.75,0,0,0,0,.14v5Zm-3-8.44a3.41,3.41,0,0,1,.51,0,1.45,1.45,0,0,1,.37.11.9.9,0,0,1,.37.36,1,1,0,0,1,.15.54,1,1,0,0,1-.34.78,1.47,1.47,0,0,1-1,.28H355a2.13,2.13,0,0,1-.88-.14.89.89,0,0,1-.37-.37,1,1,0,0,1-.15-.53,1.07,1.07,0,0,1,.15-.54.89.89,0,0,1,.37-.37,2.14,2.14,0,0,1,.88-.14Z"/><path d="M9.46,19a9,9,0,1,1,9-9A9,9,0,0,1,9.46,19Z"/><path d="M9.46,1.61A8.46,8.46,0,1,1,1,10.07,8.47,8.47,0,0,1,9.46,1.61m0-1a9.46,9.46,0,1,0,9.46,9.46A9.46,9.46,0,0,0,9.46.61Z"/><path class="cls-1" d="M4.2,9.56a2.85,2.85,0,0,1,.17-1A3.14,3.14,0,0,1,6.11,6.73a3,3,0,0,1,1.2-.24,3.39,3.39,0,0,1,2.13.82,3.17,3.17,0,0,1,2.11-.82,3,3,0,0,1,1.22.25,3.18,3.18,0,0,1,1.68,1.69,3.09,3.09,0,0,1,.25,1.23v3.08a3.36,3.36,0,0,1,0,.51,1.24,1.24,0,0,1-.11.36.88.88,0,0,1-.36.39,1,1,0,0,1-.54.15,1.08,1.08,0,0,1-.55-.15.9.9,0,0,1-.37-.37,1.44,1.44,0,0,1-.11-.37,3.36,3.36,0,0,1,0-.51V10a5,5,0,0,0,0-.55,1.13,1.13,0,0,0-.09-.33.94.94,0,0,0-.37-.43,1.06,1.06,0,0,0-.58-.16A1,1,0,0,0,11,8.7a.84.84,0,0,0-.35.38,1.46,1.46,0,0,0-.13.4,3.43,3.43,0,0,0,0,.57v2.7a3.36,3.36,0,0,1,0,.51,1.22,1.22,0,0,1-.11.36A.88.88,0,0,1,10,14a1,1,0,0,1-.54.15A1.08,1.08,0,0,1,8.92,14a.9.9,0,0,1-.37-.37,1.42,1.42,0,0,1-.11-.37,3.33,3.33,0,0,1,0-.51V10.12a7.06,7.06,0,0,0-.11-.88,1,1,0,0,0-.39-.56,1.17,1.17,0,0,0-.69-.21,1.1,1.1,0,0,0-.66.2,1.14,1.14,0,0,0-.41.57,1.38,1.38,0,0,0-.08.35,1.83,1.83,0,0,0,.25.53v2.62a3.36,3.36,0,0,1,0,.51,1.22,1.22,0,0,1-.11.36A.88.88,0,0,1,5.8,14a1,1,0,0,1-.54.15A1.08,1.08,0,0,1,4.72,14a.9.9,0,0,1-.37-.37,1.43,1.43,0,0,1-.11-.37,3.36,3.36,0,0,1,0-.51Z"/><path d="M30.29,18.62a9,9,0,1,1,9-9A9,9,0,0,1,30.29,18.62Z"/><path d="M30.29,1.2a8.46,8.46,0,1,1-8.46,8.46A8.47,8.47,0,0,1,30.29,1.2m0-1a9.46,9.46,0,1,0,9.46,9.46A9.46,9.46,0,0,0,30.29.2Z"/><path class="cls-1" d="M28.71,15.27a2.14,2.14,0,0,1-.14.89.9.9,0,0,1-.37.37,1,1,0,0,1-.53.15,1.08,1.08,0,0,1-.55-.15.9.9,0,0,1-.37-.37,2.14,2.14,0,0,1-.14-.89V7.41a3.77,3.77,0,0,1,0-.57,1.15,1.15,0,0,1,.13-.36A.9.9,0,0,1,27.62,6a1,1,0,0,1,1,.76,3.27,3.27,0,0,1,1-.62A3.32,3.32,0,0,1,30.76,6a3.59,3.59,0,0,1,1.45.29,3.49,3.49,0,0,1,1.16.81,3.77,3.77,0,0,1,.77,1.24,4.31,4.31,0,0,1,.28,1.56,4.24,4.24,0,0,1-.28,1.55,3.78,3.78,0,0,1-.77,1.23,3.53,3.53,0,0,1-1.15.81,3.47,3.47,0,0,1-1.43.29A3.1,3.1,0,0,1,28.71,13Zm1.92-7.15a1.63,1.63,0,0,0-.68.14,1.77,1.77,0,0,0-.55.39,1.91,1.91,0,0,0-.38.57,1.72,1.72,0,0,0-.14.7,1.63,1.63,0,0,0,.14.68,1.84,1.84,0,0,0,.38.55,1.81,1.81,0,0,0,.56.38,1.73,1.73,0,0,0,1.37,0,1.92,1.92,0,0,0,.57-.38,1.78,1.78,0,0,0,.39-.55,1.64,1.64,0,0,0,.14-.68,1.79,1.79,0,0,0-1.8-1.8Z"/><path d="M51.11,18.79a9,9,0,1,1,9-9A9,9,0,0,1,51.11,18.79Z"/><path d="M51.11,1.37a8.46,8.46,0,1,1-8.46,8.46,8.47,8.47,0,0,1,8.46-8.46m0-1a9.46,9.46,0,1,0,9.46,9.46A9.46,9.46,0,0,0,51.11.37Z"/><path class="cls-1" d="M50.13,11.34a1.48,1.48,0,0,0,1.12.44,1.8,1.8,0,0,0,.61-.1,2.17,2.17,0,0,0,.6-.35,1.78,1.78,0,0,1,.35-.2.91.91,0,0,1,.33-.06,1,1,0,0,1,.76.3,1,1,0,0,1,.3.74,1.09,1.09,0,0,1-.2.62,2.18,2.18,0,0,1-.64.58,3.89,3.89,0,0,1-1,.45,3.82,3.82,0,0,1-1.1.17,3.69,3.69,0,0,1-1.51-.32,4.17,4.17,0,0,1-1.25-.84,4,4,0,0,1-.85-1.24,3.74,3.74,0,0,1,0-3,4.08,4.08,0,0,1,.84-1.24,3.91,3.91,0,0,1,1.23-.84,3.67,3.67,0,0,1,1.49-.31,3.54,3.54,0,0,1,1.23.22,3.69,3.69,0,0,1,1,.58,3,3,0,0,1,.73.84,1.92,1.92,0,0,1,.28,1,.87.87,0,0,1-.2.59,1.87,1.87,0,0,1-.65.43Zm2.07-2.7a1.17,1.17,0,0,0-.39-.33,1.23,1.23,0,0,0-.55-.11,1.67,1.67,0,0,0-.64.13,1.87,1.87,0,0,0-.54.34,1.74,1.74,0,0,0-.39.5,1.7,1.7,0,0,0-.18.62Z"/><path d="M71.94,18.42a9,9,0,1,1,9-9A9,9,0,0,1,71.94,18.42Z"/><path d="M71.94,1a8.46,8.46,0,1,1-8.46,8.46A8.47,8.47,0,0,1,71.94,1m0-1A9.46,9.46,0,1,0,81.4,9.46,9.46,9.46,0,0,0,71.94,0Z"/><path class="cls-1" d="M73.46,6.24A4.25,4.25,0,0,1,74,5.87a1,1,0,0,1,.44-.09.89.89,0,0,1,.39.09,1.1,1.1,0,0,1,.32.24,1.21,1.21,0,0,1,.23.35,1,1,0,0,1,.09.4.93.93,0,0,1-.15.54,2.47,2.47,0,0,1-.59.54l-2,1.45,2.17,2.07a2.76,2.76,0,0,1,.47.54.93.93,0,0,1,.12.47,1.08,1.08,0,0,1-1.09,1.09.93.93,0,0,1-.47-.12,2.56,2.56,0,0,1-.54-.48l-2.5-2.64v1.82a3.36,3.36,0,0,1,0,.51,1.22,1.22,0,0,1-.11.36.88.88,0,0,1-.36.39,1,1,0,0,1-.54.15,1.08,1.08,0,0,1-.55-.15.9.9,0,0,1-.37-.37,1.43,1.43,0,0,1-.11-.37,3.36,3.36,0,0,1,0-.51V7.2a3.37,3.37,0,0,1,0-.51,1.44,1.44,0,0,1,.11-.37.91.91,0,0,1,.36-.37,1,1,0,0,1,.54-.15,1.07,1.07,0,0,1,.55.15.91.91,0,0,1,.36.37,1.23,1.23,0,0,1,.11.36,3.54,3.54,0,0,1,0,.52V8.28Z"/><path d="M92.82,18.79a9,9,0,1,1,9-9A9,9,0,0,1,92.82,18.79Z"/><path d="M92.82,1.37a8.46,8.46,0,1,1-8.46,8.46,8.47,8.47,0,0,1,8.46-8.46m0-1a9.46,9.46,0,1,0,9.46,9.46A9.46,9.46,0,0,0,92.82.37Z"/><path class="cls-1" d="M91.84,11.34a1.48,1.48,0,0,0,1.12.44,1.8,1.8,0,0,0,.61-.1,2.17,2.17,0,0,0,.6-.35,1.78,1.78,0,0,1,.35-.2.91.91,0,0,1,.33-.06,1,1,0,0,1,.76.3,1,1,0,0,1,.3.74,1.09,1.09,0,0,1-.2.62,2.18,2.18,0,0,1-.64.58,3.89,3.89,0,0,1-1,.45,3.82,3.82,0,0,1-1.1.17,3.69,3.69,0,0,1-1.51-.32,4.17,4.17,0,0,1-1.25-.84,4,4,0,0,1-.85-1.24,3.74,3.74,0,0,1,0-3,4.08,4.08,0,0,1,.84-1.24,3.91,3.91,0,0,1,1.23-.84,3.67,3.67,0,0,1,1.49-.31,3.54,3.54,0,0,1,1.23.22,3.69,3.69,0,0,1,1,.58,3,3,0,0,1,.73.84,1.92,1.92,0,0,1,.28,1,.87.87,0,0,1-.2.59,1.87,1.87,0,0,1-.65.43Zm2.07-2.7a1.17,1.17,0,0,0-.39-.33A1.23,1.23,0,0,0,93,8.2a1.67,1.67,0,0,0-.64.13,1.87,1.87,0,0,0-.54.34,1.74,1.74,0,0,0-.39.5,1.7,1.7,0,0,0-.18.62Z"/><path d="M113.81,18.79a9,9,0,1,1,9-9A9,9,0,0,1,113.81,18.79Z"/><path d="M113.81,1.37a8.46,8.46,0,1,1-8.46,8.46,8.47,8.47,0,0,1,8.46-8.46m0-1a9.46,9.46,0,1,0,9.46,9.46A9.46,9.46,0,0,0,113.81.37Z"/><path class="cls-1" d="M112.23,15.49a2.14,2.14,0,0,1-.14.89.9.9,0,0,1-.37.37,1,1,0,0,1-.53.15,1.08,1.08,0,0,1-.55-.15.9.9,0,0,1-.37-.37,2.14,2.14,0,0,1-.14-.89V7.63a3.77,3.77,0,0,1,0-.57,1.15,1.15,0,0,1,.13-.36.9.9,0,0,1,.85-.44,1,1,0,0,1,1,.76,3.27,3.27,0,0,1,1-.62,3.32,3.32,0,0,1,1.15-.18,3.59,3.59,0,0,1,1.45.29,3.49,3.49,0,0,1,1.16.81,3.77,3.77,0,0,1,.77,1.24,4.31,4.31,0,0,1,.28,1.56,4.24,4.24,0,0,1-.28,1.55,3.78,3.78,0,0,1-.77,1.23,3.53,3.53,0,0,1-1.15.81,3.47,3.47,0,0,1-1.43.29,3.1,3.1,0,0,1-2.09-.74ZM114,8.33a1.63,1.63,0,0,0-.68.14,1.77,1.77,0,0,0-.55.39,1.91,1.91,0,0,0-.38.57,1.72,1.72,0,0,0-.14.7,1.63,1.63,0,0,0,.14.68,1.84,1.84,0,0,0,.38.55,1.81,1.81,0,0,0,.56.38,1.73,1.73,0,0,0,1.37,0,1.92,1.92,0,0,0,.57-.38,1.78,1.78,0,0,0,.39-.55,1.64,1.64,0,0,0,.14-.68,1.79,1.79,0,0,0-1.8-1.8Z"/><path d="M144.48,18.78a8.93,8.93,0,1,1,8.93-8.93A8.94,8.94,0,0,1,144.48,18.78Z"/><path d="M144.48,1.43a8.43,8.43,0,1,1-8.43,8.43,8.44,8.44,0,0,1,8.43-8.43m0-1a9.43,9.43,0,1,0,9.43,9.43A9.43,9.43,0,0,0,144.48.43Z"/><path class="cls-1" d="M145.07,6a2.86,2.86,0,0,1,1.94.59,2.11,2.11,0,0,1,.68,1.68,2.36,2.36,0,0,1-.09.71,1.44,1.44,0,0,1-.33.55,2.2,2.2,0,0,1,.61.77,2.37,2.37,0,0,1,.18,1,2.41,2.41,0,0,1-.28,1.16,2.34,2.34,0,0,1-.79.86l0,0a1.7,1.7,0,0,1-.65.28,3.61,3.61,0,0,1-.77.08H143.4a2.15,2.15,0,0,1-.68-.08,1.57,1.57,0,0,1-.44-.25,1.5,1.5,0,0,1-.26-.43,2,2,0,0,1-.09-.68V7.47A2.08,2.08,0,0,1,142,6.8a1.62,1.62,0,0,1,.25-.43,1.56,1.56,0,0,1,.45-.25A2.24,2.24,0,0,1,143.4,6Zm0,2.76a.7.7,0,0,0,.32,0,.24.24,0,0,0,.17-.27q0-.35-.49-.35h-.84V8.8Zm.17,2.82a.59.59,0,0,0,.4-.12.39.39,0,0,0,.13-.31q0-.44-.52-.44h-1v.87Z"/><path d="M165.72,18.39a8.93,8.93,0,1,1,8.93-8.93A8.94,8.94,0,0,1,165.72,18.39Z"/><path d="M165.72,1a8.43,8.43,0,1,1-8.43,8.43A8.44,8.44,0,0,1,165.72,1m0-1a9.43,9.43,0,1,0,9.43,9.43A9.43,9.43,0,0,0,165.72,0Z"/><path class="cls-1" d="M167,9.31a5.07,5.07,0,0,0,0-.67,2,2,0,0,0-.11-.42,1.09,1.09,0,0,0-.46-.52,1.3,1.3,0,0,0-.69-.21,1.26,1.26,0,0,0-.72.23,1.18,1.18,0,0,0-.47.56,1.08,1.08,0,0,0-.09.36q0,.19,0,.6v2.48a3.35,3.35,0,0,1,0,.51,1.22,1.22,0,0,1-.11.36.88.88,0,0,1-.36.39,1,1,0,0,1-.54.15,1.07,1.07,0,0,1-.54-.15.89.89,0,0,1-.37-.37,1.42,1.42,0,0,1-.11-.37,3.36,3.36,0,0,1,0-.51V9.07a4.52,4.52,0,0,1,.19-1.39,3.22,3.22,0,0,1,.61-1.09,3.33,3.33,0,0,1,2.55-1.2,3.51,3.51,0,0,1,3,1.75A3.48,3.48,0,0,1,169,8a5.21,5.21,0,0,1,.11,1.1v2.6a3.35,3.35,0,0,1,0,.51,1.23,1.23,0,0,1-.11.36.88.88,0,0,1-.36.39,1,1,0,0,1-.54.15,1.07,1.07,0,0,1-.54-.15.89.89,0,0,1-.37-.37,1.43,1.43,0,0,1-.11-.37,3.35,3.35,0,0,1,0-.51Z"/><path d="M187,18.59a8.93,8.93,0,1,1,8.93-8.93A8.94,8.94,0,0,1,187,18.59Z"/><path d="M187,1.23a8.43,8.43,0,1,1-8.43,8.43A8.44,8.44,0,0,1,187,1.23m0-1a9.43,9.43,0,1,0,9.43,9.43A9.43,9.43,0,0,0,187,.23Z"/><path class="cls-1" d="M186.18,11a1.48,1.48,0,0,0,1.12.44,1.8,1.8,0,0,0,.61-.1,2.17,2.17,0,0,0,.6-.35,1.78,1.78,0,0,1,.35-.2.91.91,0,0,1,.33-.06,1,1,0,0,1,.76.3,1,1,0,0,1,.3.74,1.09,1.09,0,0,1-.2.62,2.18,2.18,0,0,1-.64.58,3.89,3.89,0,0,1-1,.45,3.82,3.82,0,0,1-1.1.17,3.69,3.69,0,0,1-1.51-.32,4.17,4.17,0,0,1-1.25-.84,4,4,0,0,1-.85-1.24,3.74,3.74,0,0,1,0-3,4.08,4.08,0,0,1,.84-1.24,3.91,3.91,0,0,1,1.23-.84,3.67,3.67,0,0,1,1.49-.31,3.54,3.54,0,0,1,1.23.22,3.69,3.69,0,0,1,1,.58,3,3,0,0,1,.73.84,1.92,1.92,0,0,1,.28,1,.87.87,0,0,1-.2.59,1.87,1.87,0,0,1-.65.43Zm2.07-2.7a1.17,1.17,0,0,0-.39-.33,1.23,1.23,0,0,0-.55-.11,1.67,1.67,0,0,0-.64.13,1.87,1.87,0,0,0-.54.34,1.74,1.74,0,0,0-.39.5,1.7,1.7,0,0,0-.18.62Z"/><path d="M208,18.59A8.93,8.93,0,1,1,217,9.66,8.94,8.94,0,0,1,208,18.59Z"/><path d="M208,1.23a8.43,8.43,0,1,1-8.43,8.43A8.44,8.44,0,0,1,208,1.23m0-1a9.43,9.43,0,1,0,9.43,9.43A9.43,9.43,0,0,0,208,.23Z"/><path class="cls-1" d="M208.86,11.27a4.08,4.08,0,0,1-.87.06,4.72,4.72,0,0,1-.88-.07,2.39,2.39,0,0,1-.65-.21,1.86,1.86,0,0,1-.47-.34,2.29,2.29,0,0,1-.35-.47,2.63,2.63,0,0,1-.27-.63,3.27,3.27,0,0,1-.08-.8V7.35a2.14,2.14,0,0,1,0-.41,1,1,0,0,1,.11-.3,1,1,0,0,1,.34-.33.9.9,0,0,1,.48-.14.91.91,0,0,1,.47.13,1.15,1.15,0,0,1,.35.31.61.61,0,0,1,.14.32q0,.17,0,.42V8.66a2.15,2.15,0,0,0,0,.31,1.15,1.15,0,0,0,0,.2.53.53,0,0,0,.27.16,2,2,0,0,0,.49.09,1.32,1.32,0,0,0,.5-.06.41.41,0,0,0,.2-.19,1,1,0,0,0,.11-.5V7.35a2.06,2.06,0,0,1,0-.39,1.13,1.13,0,0,1,.09-.28.75.75,0,0,1,.32-.35.93.93,0,0,1,.5-.15.94.94,0,0,1,.49.14,1.05,1.05,0,0,1,.36.35,1.06,1.06,0,0,1,.09.32,3.63,3.63,0,0,1,0,.37v5q0,.22,0,.38a.9.9,0,0,1-.09.32,1.14,1.14,0,0,1-.35.36.87.87,0,0,1-.48.15q-1,0-1-1.12Z"/><path d="M229.15,18.59a8.93,8.93,0,1,1,8.93-8.93A8.94,8.94,0,0,1,229.15,18.59Z"/><path d="M229.15,1.23a8.43,8.43,0,1,1-8.43,8.43,8.44,8.44,0,0,1,8.43-8.43m0-1a9.43,9.43,0,1,0,9.43,9.43A9.43,9.43,0,0,0,229.15.23Z"/><path class="cls-1" d="M233.1,12.09a1.83,1.83,0,0,1-.24,1.07.91.91,0,0,1-.78.33,1.07,1.07,0,0,1-.66-.19,1.31,1.31,0,0,1-.41-.61,3.1,3.1,0,0,1-2.16.85,3.51,3.51,0,0,1-2.6-1.13,4,4,0,0,1-.77-1.24,4.34,4.34,0,0,1,0-3.07,3.78,3.78,0,0,1,.76-1.22,3.59,3.59,0,0,1,1.15-.82,3.44,3.44,0,0,1,1.43-.3A3.38,3.38,0,0,1,230,6a3,3,0,0,1,1,.61,1.15,1.15,0,0,1,.36-.59,1,1,0,0,1,.65-.18,1,1,0,0,1,.95.5,1.89,1.89,0,0,1,.14.88Zm-4-4.26a1.63,1.63,0,0,0-.68.14,1.77,1.77,0,0,0-.55.39,1.93,1.93,0,0,0-.38.57,1.69,1.69,0,0,0-.14.69,1.79,1.79,0,0,0,.14.71,2,2,0,0,0,.38.58,1.69,1.69,0,0,0,.56.39,1.81,1.81,0,0,0,1.4,0,1.75,1.75,0,0,0,.56-.39,1.89,1.89,0,0,0,.38-.58,1.78,1.78,0,0,0,.14-.71,1.72,1.72,0,0,0-.14-.7,1.85,1.85,0,0,0-.39-.57,1.83,1.83,0,0,0-.58-.39A1.78,1.78,0,0,0,229.15,7.84Z"/><path d="M250.33,18.39a8.93,8.93,0,1,1,8.93-8.93A8.94,8.94,0,0,1,250.33,18.39Z"/><path d="M250.33,1a8.43,8.43,0,1,1-8.43,8.43A8.44,8.44,0,0,1,250.33,1m0-1a9.43,9.43,0,1,0,9.43,9.43A9.43,9.43,0,0,0,250.33,0Z"/><path class="cls-1" d="M244.84,8.78a3,3,0,0,1,.26-1.23,3.27,3.27,0,0,1,1.73-1.7,3.16,3.16,0,0,1,1.25-.25,3.54,3.54,0,0,1,2.22.85,3.31,3.31,0,0,1,2.21-.85,3.17,3.17,0,0,1,1.28.26,3.32,3.32,0,0,1,1.76,1.77,3.23,3.23,0,0,1,.26,1.28v3a3.35,3.35,0,0,1,0,.51,1.23,1.23,0,0,1-.11.36.88.88,0,0,1-.36.39,1,1,0,0,1-.54.15,1.07,1.07,0,0,1-.54-.15.89.89,0,0,1-.37-.37,1.43,1.43,0,0,1-.11-.37,3.35,3.35,0,0,1,0-.51V9.3a5.58,5.58,0,0,0,0-.61,1.25,1.25,0,0,0-.1-.37,1,1,0,0,0-.41-.48,1.17,1.17,0,0,0-.65-.18,1.13,1.13,0,0,0-.58.15.93.93,0,0,0-.39.42,1.62,1.62,0,0,0-.15.44,3.81,3.81,0,0,0,0,.63v2.62a3.35,3.35,0,0,1,0,.51,1.22,1.22,0,0,1-.11.36.88.88,0,0,1-.36.39,1,1,0,0,1-.54.15,1.07,1.07,0,0,1-.54-.15.89.89,0,0,1-.37-.37,1.41,1.41,0,0,1-.11-.37,3.32,3.32,0,0,1,0-.51V9.3a3.21,3.21,0,0,0-.09-.88,1,1,0,0,0-.39-.56,1.17,1.17,0,0,0-.69-.21,1.1,1.1,0,0,0-.66.2,1.14,1.14,0,0,0-.41.57,1.38,1.38,0,0,0-.08.35q0,.18,0,.53v2.62a3.35,3.35,0,0,1,0,.51,1.22,1.22,0,0,1-.11.36.88.88,0,0,1-.36.39,1,1,0,0,1-.54.15,1.07,1.07,0,0,1-.54-.15.89.89,0,0,1-.37-.37,1.42,1.42,0,0,1-.11-.37,3.36,3.36,0,0,1,0-.51Z"/><path d="M271.41,18.39a8.93,8.93,0,1,1,8.93-8.93A8.94,8.94,0,0,1,271.41,18.39Z"/><path d="M271.41,1A8.43,8.43,0,1,1,263,9.46,8.44,8.44,0,0,1,271.41,1m0-1a9.43,9.43,0,1,0,9.43,9.43A9.43,9.43,0,0,0,271.41,0Z"/><path class="cls-1" d="M268.53,7a2.49,2.49,0,0,1,.06-.65,1,1,0,0,1,.28-.42.9.9,0,0,1,.39-.24,2.51,2.51,0,0,1,.65-.06h3.36a2.83,2.83,0,0,1,.65.06.76.76,0,0,1,.39.26h0a.9.9,0,0,1,.27.4,2.6,2.6,0,0,1,.06.67V11.9a2.8,2.8,0,0,1,0,.47,2.08,2.08,0,0,1-.09.36,1.07,1.07,0,0,1-.39.38,1,1,0,0,1-.54.16,1.19,1.19,0,0,1-.57-.13.84.84,0,0,1-.36-.34,1.54,1.54,0,0,1-.13-.4,3,3,0,0,1,0-.48V7.66h-1.8q0,1.58-.13,2.66a5.37,5.37,0,0,1-.31,1.54h0a4.58,4.58,0,0,1-.37.8,1.38,1.38,0,0,1-.34.4h0a1.72,1.72,0,0,1-1.06.24,1.82,1.82,0,0,1-.71-.13,1.17,1.17,0,0,1-.34-.37.89.89,0,0,1-.15-.47.91.91,0,0,1,.16-.5,1.36,1.36,0,0,1,.36-.39q.2,0,.35-.43a5.56,5.56,0,0,0,.24-1.09Z"/><path d="M292.49,18.59a8.93,8.93,0,1,1,8.93-8.93A8.94,8.94,0,0,1,292.49,18.59Z"/><path d="M292.49,1.23a8.43,8.43,0,1,1-8.43,8.43,8.44,8.44,0,0,1,8.43-8.43m0-1a9.43,9.43,0,1,0,9.43,9.43A9.43,9.43,0,0,0,292.49.23Z"/><path class="cls-1" d="M291.71,10.58a1.48,1.48,0,0,0,1.12.44,1.8,1.8,0,0,0,.61-.1,2.17,2.17,0,0,0,.6-.35,1.78,1.78,0,0,1,.35-.2.91.91,0,0,1,.33-.06,1,1,0,0,1,.76.3,1,1,0,0,1,.3.74,1.09,1.09,0,0,1-.2.62,2.18,2.18,0,0,1-.64.58,3.89,3.89,0,0,1-1,.45,3.83,3.83,0,0,1-1.1.17,3.69,3.69,0,0,1-1.51-.32,4.16,4.16,0,0,1-1.25-.84,4,4,0,0,1-.85-1.24,3.74,3.74,0,0,1,0-3,4.07,4.07,0,0,1,.84-1.24,3.91,3.91,0,0,1,1.23-.84,3.67,3.67,0,0,1,1.49-.31,3.53,3.53,0,0,1,1.23.22,3.69,3.69,0,0,1,1,.58,3,3,0,0,1,.72.84,1.92,1.92,0,0,1,.28,1,.87.87,0,0,1-.2.59,1.87,1.87,0,0,1-.65.43Zm2.07-2.7a1.17,1.17,0,0,0-.39-.33,1.23,1.23,0,0,0-.55-.11,1.67,1.67,0,0,0-.64.13,1.88,1.88,0,0,0-.54.34,1.75,1.75,0,0,0-.39.5,1.71,1.71,0,0,0-.18.62Z"/><path d="M313.57,18.39a8.93,8.93,0,1,1,8.93-8.93A8.94,8.94,0,0,1,313.57,18.39Z"/><path d="M313.57,1a8.43,8.43,0,1,1-8.43,8.43A8.44,8.44,0,0,1,313.57,1m0-1A9.43,9.43,0,1,0,323,9.46,9.43,9.43,0,0,0,313.57,0Z"/><path class="cls-1" d="M314.56,7.94V6.55a2.6,2.6,0,0,1,0-.43c0-.13,0-.25.08-.36a.89.89,0,0,1,.4-.39,1.18,1.18,0,0,1,.54-.14,1.2,1.2,0,0,1,.57.14.9.9,0,0,1,.39.39c0,.12.06.24.08.36a2.6,2.6,0,0,1,0,.43v5a2,2,0,0,1-.11.79,1.12,1.12,0,0,1-.39.41,1,1,0,0,1-.57.17,1,1,0,0,1-.54-.17,1.07,1.07,0,0,1-.4-.43,1.14,1.14,0,0,1-.09-.32,3.42,3.42,0,0,1,0-.46V10h-2v1.61a1.81,1.81,0,0,1-.13.77,1.19,1.19,0,0,1-.39.42,1,1,0,0,1-.54.18,1,1,0,0,1-.58-.17,1.08,1.08,0,0,1-.39-.43,1.69,1.69,0,0,1-.07-.32,3.51,3.51,0,0,1,0-.46v-5q0-.31,0-.45a1.39,1.39,0,0,1,.06-.28,1.25,1.25,0,0,1,.43-.43,1.06,1.06,0,0,1,.57-.17,1.08,1.08,0,0,1,.54.15.93.93,0,0,1,.39.42,2,2,0,0,1,.1.33,2.61,2.61,0,0,1,0,.43V7.94Z"/><path d="M334.65,18.39a8.93,8.93,0,1,1,8.93-8.93A8.94,8.94,0,0,1,334.65,18.39Z"/><path d="M334.65,1a8.43,8.43,0,1,1-8.43,8.43A8.44,8.44,0,0,1,334.65,1m0-1a9.43,9.43,0,1,0,9.43,9.43A9.43,9.43,0,0,0,334.65,0Z"/><path class="cls-1" d="M338,11.49a3.42,3.42,0,0,1,0,.51,1.24,1.24,0,0,1-.11.36.88.88,0,0,1-.36.39,1,1,0,0,1-.54.15,1.17,1.17,0,0,1-.55-.14q-.22-.14-.33-.88-.71,1.07-1.5,1.07a3.31,3.31,0,0,1-1.62-.42,3.21,3.21,0,0,1-1.21-1.17,3.41,3.41,0,0,1-.39-.93,4.64,4.64,0,0,1-.13-1.15V6.62a3.45,3.45,0,0,1,0-.51,1.46,1.46,0,0,1,.11-.37.9.9,0,0,1,.37-.37,1.08,1.08,0,0,1,.54-.15,1,1,0,0,1,.54.15.88.88,0,0,1,.36.39,1.23,1.23,0,0,1,.11.35,3.44,3.44,0,0,1,0,.51V9.1c0,.27,0,.47,0,.6a1.09,1.09,0,0,0,.09.36,1.18,1.18,0,0,0,.47.56,1.26,1.26,0,0,0,.72.23.91.91,0,0,0,.69-.38,3,3,0,0,0,.47-.69,2,2,0,0,0,.11-.41,5.14,5.14,0,0,0,0-.68V6.27a.17.17,0,0,0,0-.08.18.18,0,0,1,0-.08L336,6A.13.13,0,0,0,336,6v0l0-.13,0,0,0,0a1,1,0,0,1,.35-.33,1,1,0,0,1,.47-.16H337l.17,0,.08,0,.08,0,.16.06,0,0h0l.11.08a.86.86,0,0,1,.24.28,1.25,1.25,0,0,1,.11.36v0a.26.26,0,0,1,0,.08v.09a.71.71,0,0,0,0,.14v5Z"/><circle class="cls-2" cx="129.16" cy="10.75" r="3.5"/></g></g></svg>
